<svg id="圖層_1" data-name="圖層 1" xmlns="http://www.w3.org/2000/svg" viewBox="0 0 221.03 188.23"><defs><style>.cls-1{fill:#afafaf;}.cls-2{fill:#fff;}.cls-3{fill:#8691c9;}.cls-4{fill:#414143;}.cls-5{fill:#ed9484;}</style></defs><title>ajax</title><path class="cls-1" d="M846.64,816.77c0,13.52,0,129.15,0,129.15H826.37s-2.76.81-2.88,3.37h-7.83c.06-3-3.43-3.2-3.43-3.2l-173.51-.27.08-128.46s2.52-15.27,15.27-15.23,178.43.14,178.43.14S846.6,803.26,846.64,816.77ZM839,934.16V817.48s-1.46-7.3-7.31-7.18-177.7,0-177.7,0-7.19,1-7.31,8.16-.24,115.95-.24,115.95-.12,3,3.77,3l185.38-.12S839,937.45,839,934.16Z" transform="translate(-632.19 -795.9)"/><path class="cls-2" d="M832.26,841.26v89.65H653.09l0-89.72h10.83a3.24,3.24,0,0,0,3.12-3.34h7.77v0a3.27,3.27,0,0,0,2.65,3.4Zm-25.07,30.15s.92-2.88-1-3.86-3.55-.67-4.47.37-7.1,12.73-7.1,12.73l-7.22-12.42s-1.16-2.21-4-.68-1.22,4.65-1.22,4.65l7.95,13.12-8.42,14.11s-.88,2.7,1.39,4a3.27,3.27,0,0,0,4.52-1.16c.62-.85,6.89-11.81,6.89-11.81l7.68,12.91a4,4,0,0,0,4.4-.3c2.09-1.72.62-4.16.62-4.16l-8.2-13.63Zm-29.71,32.06a2.92,2.92,0,0,0,1.75-3.11s-9.49-30.87-9.83-31.65-1.07-2-4.09-2-3.95,1.9-3.95,1.9l-9.49,30.87s-.34,3.26,2.67,4.23a3.39,3.39,0,0,0,4.24-1.8l1.46-5.84,11,.1a44.36,44.36,0,0,0,1.51,5.89A3.61,3.61,0,0,0,777.48,903.47Zm-31.63-13.91c1.41-1.42,0-3.68,0-3.68S742,882,739,878.8a3.49,3.49,0,0,0-5.57,0L726,886.4a3.42,3.42,0,0,0,.76,3.62,2.78,2.78,0,0,0,3.3.94c.14-.06,2.59-2.3,2.59-2.3s0,4.86,0,8.92a3.88,3.88,0,0,1-3.63,4.2s-8.26,0-11,.05-3.45-3.26-3.54-4.48a3.43,3.43,0,0,0-3.64-3c-2.5-.05-2.87,2.83-2.87,2.83V900s-.05,1.7,2.64,4.91a9.73,9.73,0,0,0,6.27,3.44s9.39.19,12.37,0,5.28-1.65,7.5-3.54,2.69-5.66,2.69-5.66l.24-10.38a5.68,5.68,0,0,0,2.26,1.86C743.35,891.2,744.43,891,745.85,889.56Zm-6.59-18.73V868s0-1.7-2.64-4.9a9.79,9.79,0,0,0-6.28-3.45s-9.39-.19-12.37,0-5.28,1.65-7.5,3.54-2.69,5.66-2.69,5.66l-.23,10.39a5.65,5.65,0,0,0-2.27-1.87c-1.41-.58-2.5-.35-3.92,1.06s0,3.68,0,3.68,3.87,3.87,6.85,7.08a3.49,3.49,0,0,0,5.57,0l7.45-7.6a3.43,3.43,0,0,0-.75-3.62,2.81,2.81,0,0,0-3.31-.94c-.14.07-2.59,2.3-2.59,2.3s-.05-4.86-.05-8.92a3.88,3.88,0,0,1,3.64-4.2s8.25,0,11-.05,3.44,3.26,3.54,4.49a3.43,3.43,0,0,0,3.63,3C738.88,873.71,739.26,870.83,739.26,870.83Zm-39,32.64a2.92,2.92,0,0,0,1.75-3.11s-9.49-30.87-9.83-31.65-1.07-2-4.09-2-3.94,1.9-3.94,1.9l-9.5,30.87s-.34,3.26,2.68,4.23a3.39,3.39,0,0,0,4.24-1.8l1.45-5.84,11.06.1a42.83,42.83,0,0,0,1.51,5.89A3.6,3.6,0,0,0,700.31,903.47Z" transform="translate(-632.19 -795.9)"/><path class="cls-3" d="M832.26,818.64v15.85l-154.69.1a3.13,3.13,0,0,0-2.79,3.26H667a3.34,3.34,0,0,0-3.3-3.26H653.06V819.12c0-2.58,2.75-2.34,2.75-2.34s172.08,0,174.18,0A2.1,2.1,0,0,1,832.26,818.64Zm-142.09,7.62a3.24,3.24,0,1,0-3.23,3.23A3.24,3.24,0,0,0,690.17,826.26Zm-12,0a3.24,3.24,0,1,0-3.24,3.23A3.24,3.24,0,0,0,678.14,826.26Zm-12.26,0a3.23,3.23,0,1,0-3.23,3.23A3.24,3.24,0,0,0,665.88,826.26Z" transform="translate(-632.19 -795.9)"/><path class="cls-4" d="M823.49,949.29c.12-2.56,2.88-3.37,2.88-3.37h20.27s0-115.63,0-129.15-14.14-14.5-14.14-14.5-165.68-.09-178.43-.14-15.27,15.23-15.27,15.23l-.08,128.46,173.51.27s3.49.22,3.43,3.2v.07a3.53,3.53,0,0,1-3.13,3.37l-173.64.06L638.82,963c.79,12.4,12.69,14.41,12.9,14.34s26.45.07,28,0,3.75,1.56,3.93,3.28a1.64,1.64,0,0,1,0,.23c0,1.79-2.58,3.1-2.58,3.1s-25.3.48-29.75,0-8.88-3.32-13.76-7.76S632.23,965,632.23,965s-.08-149.08,0-150a21.12,21.12,0,0,1,6.57-13,21.39,21.39,0,0,1,12.06-6H831.11c2.58,0,8.53-.22,15.56,6.22a19.79,19.79,0,0,1,6.52,14.64s.07,129.79,0,148.21-20,18.94-20,18.94H694a3,3,0,0,1-3.23-3.15,1.09,1.09,0,0,1,0-.18,3.42,3.42,0,0,1,3.24-3.32s125.31.09,138.33,0,14.3-12,14.3-12V952.59H826.32a3.18,3.18,0,0,1-2.83-3.07Z" transform="translate(-632.19 -795.9)"/><path class="cls-4" d="M806.15,867.55c2,1,1,3.86,1,3.86l-8.26,13.91,8.2,13.63s1.47,2.44-.62,4.16a4,4,0,0,1-4.4.3l-7.68-12.91s-6.27,11-6.89,11.81a3.27,3.27,0,0,1-4.52,1.16c-2.27-1.34-1.39-4-1.39-4l8.42-14.11L782.1,872.2s-1.65-3.12,1.22-4.65,4,.68,4,.68l7.22,12.42s6.18-11.69,7.1-12.73S804.19,866.57,806.15,867.55Z" transform="translate(-632.19 -795.9)"/><path class="cls-4" d="M779.23,900.36a2.92,2.92,0,0,1-1.75,3.11,3.61,3.61,0,0,1-4.68-1.41,44.36,44.36,0,0,1-1.51-5.89l-11-.1-1.46,5.84a3.39,3.39,0,0,1-4.24,1.8c-3-1-2.67-4.23-2.67-4.23l9.49-30.87s.93-1.9,3.95-1.9,3.74,1.22,4.09,2S779.23,900.36,779.23,900.36Zm-8.89-9.4-4.24-14.31s-4.67,14.45-4.24,14.31S770.34,891,770.34,891Z" transform="translate(-632.19 -795.9)"/><path class="cls-2" d="M766.1,876.65,770.34,891s-8-.15-8.48,0S766.1,876.65,766.1,876.65Z" transform="translate(-632.19 -795.9)"/><path class="cls-5" d="M745.85,885.88s1.41,2.26,0,3.68-2.5,1.64-3.92,1.06a5.68,5.68,0,0,1-2.26-1.86l-.24,10.38s-.47,3.77-2.69,5.66-4.53,3.35-7.5,3.54-12.37,0-12.37,0a9.73,9.73,0,0,1-6.27-3.44C707.91,901.69,708,900,708,900v-2.83s.37-2.88,2.87-2.83a3.43,3.43,0,0,1,3.64,3c.09,1.22.75,4.53,3.54,4.48s11-.05,11-.05a3.88,3.88,0,0,0,3.63-4.2c0-4.06,0-8.92,0-8.92s-2.45,2.24-2.59,2.3a2.78,2.78,0,0,1-3.3-.94,3.42,3.42,0,0,1-.76-3.62l7.46-7.6a3.49,3.49,0,0,1,5.57,0C742,882,745.85,885.88,745.85,885.88Z" transform="translate(-632.19 -795.9)"/><path class="cls-5" d="M739.26,868v2.83s-.38,2.88-2.88,2.84a3.43,3.43,0,0,1-3.63-3c-.1-1.23-.76-4.53-3.54-4.49s-11,.05-11,.05a3.88,3.88,0,0,0-3.64,4.2c0,4.06.05,8.92.05,8.92s2.45-2.23,2.59-2.3a2.81,2.81,0,0,1,3.31.94,3.43,3.43,0,0,1,.75,3.62l-7.45,7.6a3.49,3.49,0,0,1-5.57,0c-3-3.21-6.85-7.08-6.85-7.08s-1.41-2.26,0-3.68,2.51-1.64,3.92-1.06a5.65,5.65,0,0,1,2.27,1.87l.23-10.39s.47-3.77,2.69-5.66,4.53-3.35,7.5-3.54,12.37,0,12.37,0a9.79,9.79,0,0,1,6.28,3.45C739.3,866.3,739.26,868,739.26,868Z" transform="translate(-632.19 -795.9)"/><path class="cls-4" d="M702.06,900.36a2.92,2.92,0,0,1-1.75,3.11,3.6,3.6,0,0,1-4.67-1.41,42.83,42.83,0,0,1-1.51-5.89l-11.06-.1-1.45,5.84a3.39,3.39,0,0,1-4.24,1.8c-3-1-2.68-4.23-2.68-4.23l9.5-30.87s.92-1.9,3.94-1.9,3.75,1.22,4.09,2S702.06,900.36,702.06,900.36Zm-8.71-9.74-4.24-14.32s-4.67,14.46-4.23,14.32S693.35,890.62,693.35,890.62Z" transform="translate(-632.19 -795.9)"/><path class="cls-2" d="M689.11,876.3l4.24,14.32s-8-.15-8.47,0S689.11,876.3,689.11,876.3Z" transform="translate(-632.19 -795.9)"/><path class="cls-4" d="M686.94,823a3.24,3.24,0,1,1-3.24,3.24A3.24,3.24,0,0,1,686.94,823Z" transform="translate(-632.19 -795.9)"/><path class="cls-4" d="M674.9,823a3.24,3.24,0,1,1-3.23,3.24A3.24,3.24,0,0,1,674.9,823Z" transform="translate(-632.19 -795.9)"/><path class="cls-4" d="M667,837.85a3.24,3.24,0,0,1-3.12,3.34H653.06l0,89.72H832.26V841.26l-154.83,0a3.27,3.27,0,0,1-2.65-3.4v0a3.13,3.13,0,0,1,2.79-3.26l154.69-.1V818.64a2.1,2.1,0,0,0-2.27-1.87c-2.1.05-174.18,0-174.18,0s-2.75-.24-2.75,2.34v15.47h10.65a3.34,3.34,0,0,1,3.3,3.26Zm172-20.37V934.16c0,3.29-3.41,3.17-3.41,3.17l-185.38.12c-3.89,0-3.77-3-3.77-3s.12-108.77.24-115.95S654,810.3,654,810.3s171.85.12,177.7,0S839,817.48,839,817.48Z" transform="translate(-632.19 -795.9)"/><path class="cls-4" d="M662.65,823a3.24,3.24,0,1,1-3.23,3.24A3.24,3.24,0,0,1,662.65,823Z" transform="translate(-632.19 -795.9)"/></svg>