<svg id="圖層_1" data-name="圖層 1" xmlns="http://www.w3.org/2000/svg" viewBox="0 0 221.03 221.03"><defs><style>.cls-1{fill:#414143;}.cls-2{fill:#afafaf;}.cls-3{fill:#dbc9b1;}.cls-4{fill:#8691c9;}.cls-5{fill:#fff;}</style></defs><title>API</title><path class="cls-1" d="M853.11,869.21v35.65a17.86,17.86,0,0,1-17.83,17.82H796.07v14.26h3.56a17.85,17.85,0,0,1,17.83,17.83v3.56H749.05a56,56,0,0,1-3,6.21l5.08,8.21-19.11,19.12-8.2-5.08A57,57,0,0,1,712,991.71l-2.22,9.4h-27l-2.22-9.4a57,57,0,0,1-11.87-4.92l-8.21,5.08-19.11-19.12,5.08-8.21a56.59,56.59,0,0,1-4.94-11.87l-9.38-2.21v-27l9.38-2.22a57.31,57.31,0,0,1,4.93-11.87l-5.07-8.21L660.43,882l8.2,5.08a56.8,56.8,0,0,1,11.88-4.94l.35-1.44A32,32,0,0,1,704,830.14a42.09,42.09,0,0,1-.66-7.27,42.76,42.76,0,0,1,82-17.1,40,40,0,0,1,7.16-.73,39.26,39.26,0,0,1,39.21,39.21v.29A25,25,0,0,1,853.11,869.21ZM846,904.86V886.64a24.88,24.88,0,0,1-17.82,7.53H744.21l7,7-5.08,8.2a56,56,0,0,1,3,6.21h86.23A10.69,10.69,0,0,0,846,904.86Zm0-35.65a17.84,17.84,0,0,0-17.82-17.83h-3.94l.21-3.91a31.13,31.13,0,0,0,.16-3.22,32.12,32.12,0,0,0-32.08-32.08,33.23,33.23,0,0,0-4.88.4,42.19,42.19,0,0,1,1.31,10.3h-7.12a35.65,35.65,0,0,0-71.3,0,36.11,36.11,0,0,0,.87,7.47,32.48,32.48,0,0,1,7.6,2l-2.68,6.62A25,25,0,0,0,682,862.08a24.61,24.61,0,0,0,2.5,10.69h25.28l2.22,9.39a57.36,57.36,0,0,1,11.88,4.92l8.2-5.08,5,5h91.06A17.84,17.84,0,0,0,846,869.21Zm-88.7,82h52.44a10.71,10.71,0,0,0-10.08-7.12H760.42v6.39Zm31.66-14.25V922.68H757.27l3.15.75v13.51Zm-35.65,7.87V929.07l-8.09-1.91-.53-2.12a49.42,49.42,0,0,0-5.76-13.91l-1.13-1.87,4.37-7.08L731,891l-7.08,4.39-1.87-1.13a49.18,49.18,0,0,0-13.91-5.78L706,888l-1.91-8.1H688.37L686.48,888l-2.12.52a49.84,49.84,0,0,0-13.93,5.78l-1.87,1.13L661.48,891l-11.13,11.14,4.38,7.07-1.13,1.87A49.34,49.34,0,0,0,647.83,925l-.52,2.12-8.1,1.91v15.74l8.1,1.9.52,2.12a49.52,49.52,0,0,0,5.77,13.93l1.13,1.86-4.38,7.09,11.13,11.12,7.08-4.38,1.87,1.14a49.64,49.64,0,0,0,13.91,5.77l2.12.52,1.91,8.1h15.75l1.91-8.1,2.12-.52a49.4,49.4,0,0,0,13.91-5.77l1.87-1.14,7.08,4.39,11.13-11.13-4.38-7.09,1.13-1.86a49.52,49.52,0,0,0,5.77-13.93l.53-2.12Z" transform="translate(-632.08 -780.08)"/><path class="cls-2" d="M846,886.64v18.22a10.69,10.69,0,0,1-10.69,10.68H749.05a56,56,0,0,0-3-6.21l5.08-8.2-7-7h83.94A24.88,24.88,0,0,0,846,886.64Zm-7.13,21.78v-7.13h-7.13v7.13Zm-14.26,0v-7.13h-7.12v7.13Zm-14.26,0v-7.13h-7.13v7.13Z" transform="translate(-632.08 -780.08)"/><rect class="cls-1" x="199.64" y="121.21" width="7.12" height="7.14"/><rect class="cls-1" x="185.38" y="121.21" width="7.12" height="7.14"/><rect class="cls-1" x="171.11" y="121.21" width="7.14" height="7.14"/><polygon class="cls-1" points="178.25 92.69 178.25 99.81 156.85 99.81 156.85 92.69 163.99 92.69 163.99 57.04 156.85 57.04 156.85 49.91 178.25 49.91 178.25 57.04 171.11 57.04 171.11 92.69 178.25 92.69"/><path class="cls-2" d="M809.71,951.19H757.27l3.15-.73v-6.39h39.21A10.71,10.71,0,0,1,809.71,951.19Z" transform="translate(-632.08 -780.08)"/><path class="cls-1" d="M771.11,830a14.27,14.27,0,0,1,0,28.53H764V879.9h-7.13V830Zm7.12,14.26a7.13,7.13,0,0,0-7.12-7.13H764v14.26h7.13A7.13,7.13,0,0,0,778.23,844.25Z" transform="translate(-632.08 -780.08)"/><path class="cls-1" d="M766.32,802.7l-5,5a21.38,21.38,0,0,0-30.25,0,21.66,21.66,0,0,0-2.44,2.9l-5.85-4.07a28.52,28.52,0,0,1,43.58-3.87Z" transform="translate(-632.08 -780.08)"/><path class="cls-3" d="M753.28,929.07v15.74l-8.09,1.9-.53,2.12a49.52,49.52,0,0,1-5.77,13.93l-1.13,1.86,4.38,7.09L731,982.84l-7.08-4.39-1.87,1.14a49.4,49.4,0,0,1-13.91,5.77l-2.12.52-1.91,8.1H688.37l-1.91-8.1-2.12-.52a49.64,49.64,0,0,1-13.91-5.77l-1.87-1.14-7.08,4.38-11.13-11.12,4.38-7.09-1.13-1.86a49.52,49.52,0,0,1-5.77-13.93l-.52-2.12-8.1-1.9V929.07l8.1-1.91.52-2.12a49.34,49.34,0,0,1,5.77-13.92l1.13-1.87-4.38-7.07L661.48,891l7.08,4.38,1.87-1.13a49.84,49.84,0,0,1,13.93-5.78l2.12-.52,1.89-8.09h15.75L706,888l2.12.52a49.18,49.18,0,0,1,13.91,5.78l1.87,1.13L731,891l11.13,11.14-4.37,7.08,1.13,1.87A49.42,49.42,0,0,1,744.66,925l.53,2.12ZM739,936.94a42.78,42.78,0,1,0-42.77,42.78A42.81,42.81,0,0,0,739,936.94Z" transform="translate(-632.08 -780.08)"/><path class="cls-1" d="M738.29,830l11.34,49.11-7,1.61-3.47-15.07H724.59l-3.48,15.07-7-1.61L725.49,830Zm-.73,28.53-4.94-21.4h-1.45l-4.94,21.4Z" transform="translate(-632.08 -780.08)"/><path class="cls-1" d="M696.25,894.17a42.78,42.78,0,1,1-42.78,42.77A42.81,42.81,0,0,1,696.25,894.17Zm35.65,42.77a35.65,35.65,0,1,0-35.65,35.65A35.69,35.69,0,0,0,731.9,936.94Z" transform="translate(-632.08 -780.08)"/><path class="cls-1" d="M718.82,814.72l6.84,2a21.08,21.08,0,0,0-.89,6.12h-7.14A28.35,28.35,0,0,1,718.82,814.72Z" transform="translate(-632.08 -780.08)"/><path class="cls-4" d="M696.25,901.29a35.65,35.65,0,1,1-35.65,35.65A35.69,35.69,0,0,1,696.25,901.29Zm21.38,35.65a21.39,21.39,0,1,0-21.38,21.39A21.42,21.42,0,0,0,717.63,936.94Z" transform="translate(-632.08 -780.08)"/><path class="cls-5" d="M714.16,879.1l7,1.61,3.48-15.07h14.62l3.47,15.07,7-1.61L738.29,830h-12.8Zm9.7,8A57.36,57.36,0,0,0,712,882.16l-2.22-9.39H684.48a24.61,24.61,0,0,1-2.5-10.69,25,25,0,0,1,34.32-23.14l2.68-6.62a32.48,32.48,0,0,0-7.6-2,36.11,36.11,0,0,1-.87-7.47,35.65,35.65,0,0,1,71.3,0h7.12a42.19,42.19,0,0,0-1.31-10.3,33.23,33.23,0,0,1,4.88-.4,32.12,32.12,0,0,1,32.08,32.08,31.13,31.13,0,0,1-.16,3.22l-.21,3.91h3.94a17.83,17.83,0,0,1,0,35.65H737.09l-5-5Zm86.46-7.18v-7.13h-7.13V837.12h7.13V830H788.93v7.13h7.14v35.65h-7.14v7.13Zm-25-35.65A14.28,14.28,0,0,0,771.11,830H756.85V879.9H764V858.52h7.13A14.29,14.29,0,0,0,785.37,844.25Zm-24.09-36.51,5-5a28.57,28.57,0,0,0-43.58,3.87l5.85,4.07a21.66,21.66,0,0,1,2.44-2.9,21.38,21.38,0,0,1,30.25,0Zm-35.62,9-6.84-2a28.35,28.35,0,0,0-1.19,8.15h7.14A21.08,21.08,0,0,1,725.66,816.75Z" transform="translate(-632.08 -780.08)"/><path class="cls-1" d="M696.25,915.54a21.4,21.4,0,1,1-21.39,21.4A21.42,21.42,0,0,1,696.25,915.54Zm14.26,21.4a14.27,14.27,0,1,0-14.26,14.25A14.28,14.28,0,0,0,710.51,936.94Z" transform="translate(-632.08 -780.08)"/><path class="cls-5" d="M696.25,922.68A14.26,14.26,0,1,1,682,936.94,14.28,14.28,0,0,1,696.25,922.68Z" transform="translate(-632.08 -780.08)"/></svg>