<svg id="圖層_1" data-name="圖層 1" xmlns="http://www.w3.org/2000/svg" viewBox="0 0 196.59 196.58"><defs><style>.cls-1{fill:#8691c9;}.cls-2{fill:#fff;}.cls-3{fill:#414143;}.cls-4{fill:#afafaf;}</style></defs><title>selenium</title><path class="cls-1" d="M824.73,800l8.47,8.48L762.48,879.2l-34.69-34.69,8.47-8.47,23.9,23.89a3.27,3.27,0,0,0,4.63,0Z" transform="translate(-644.52 -792.09)"/><path class="cls-2" d="M821.45,841.24V952.63a29.24,29.24,0,0,1-1.86,10.19,3.05,3.05,0,0,0-1.42-.36,3.27,3.27,0,0,0-3.28,3.28v0h-9.82v0a3.28,3.28,0,0,0-6.56,0v0h-9.82v0a3.28,3.28,0,0,0-6.56,0v0h-9.82v0a3.28,3.28,0,1,0-6.56,0v0h-9.83v0a3.28,3.28,0,1,0-6.55,0v0h-9.84v0a3.27,3.27,0,1,0-6.54,0v0h-9.84v0a3.28,3.28,0,1,0-6.55,0v0h-9.83v0a3.28,3.28,0,1,0-6.55,0v0h-9.83v0a3.28,3.28,0,1,0-6.55,0v0H674v0a3.28,3.28,0,1,0-6.55,0v0h-9.84v0a3.26,3.26,0,0,0-3.27-3.28,3.15,3.15,0,0,0-1.42.36,29.24,29.24,0,0,1-1.85-10.19V841.24a29.51,29.51,0,0,1,29.49-29.49H792a29,29,0,0,1,10,1.76L762.48,853l-23.9-23.89a3.27,3.27,0,0,0-4.63,0L720.84,842.2a3.26,3.26,0,0,0,0,4.62l39.32,39.33a3.27,3.27,0,0,0,4.63,0l54.91-54.9A29.22,29.22,0,0,1,821.45,841.24Zm-39.32,78.63v-6.56a16.39,16.39,0,0,0-16.38-16.38H759.2a16.39,16.39,0,0,0-16.38,16.38V933a16.4,16.4,0,0,0,16.38,16.39h6.55A16.4,16.4,0,0,0,782.13,933a3.28,3.28,0,1,0-6.55,0,9.85,9.85,0,0,1-9.83,9.83H759.2a9.84,9.84,0,0,1-9.83-9.83v-9.83h29.49A3.26,3.26,0,0,0,782.13,919.87ZM729.71,933v-9.83a16.39,16.39,0,0,0-16.38-16.38H700.22a9.85,9.85,0,0,1-9.83-9.83v-9.82a9.86,9.86,0,0,1,9.83-9.84h13.11a9.85,9.85,0,0,1,9.82,9.84,3.28,3.28,0,0,0,6.56,0,16.39,16.39,0,0,0-16.38-16.38H700.22a16.39,16.39,0,0,0-16.38,16.38v9.82a16.39,16.39,0,0,0,16.38,16.38h13.11a9.84,9.84,0,0,1,9.82,9.83V933a9.84,9.84,0,0,1-9.82,9.83H700.22a9.85,9.85,0,0,1-9.83-9.83,3.28,3.28,0,1,0-6.55,0,16.4,16.4,0,0,0,16.38,16.39h13.11A16.4,16.4,0,0,0,729.71,933Z" transform="translate(-644.52 -792.09)"/><path class="cls-3" d="M814.89,965.74a3.27,3.27,0,0,1,3.28-3.28,3.05,3.05,0,0,1,1.42.36,29.24,29.24,0,0,0,1.86-10.19V841.24a29.22,29.22,0,0,0-1.75-10l-54.91,54.9a3.27,3.27,0,0,1-4.63,0l-39.32-39.33a3.26,3.26,0,0,1,0-4.62L734,829.09a3.27,3.27,0,0,1,4.63,0L762.48,853l39.46-39.47a29,29,0,0,0-10-1.76H680.57a29.51,29.51,0,0,0-29.49,29.49V952.63a29.24,29.24,0,0,0,1.85,10.19,3.15,3.15,0,0,1,1.42-.36,3.26,3.26,0,0,1,3.27,3.28v5.38a29.49,29.49,0,0,0,23,11H792a29.39,29.39,0,0,0,22.92-11v-5.38Zm25.26-159.59a3.28,3.28,0,0,1,0,4.64l-15.47,15.48a35.74,35.74,0,0,1,3.32,15V952.63a35.84,35.84,0,0,1-7.33,21.72,3.42,3.42,0,0,1-.22.28,35.93,35.93,0,0,1-28.48,14H680.57a36,36,0,0,1-28.5-14,2,2,0,0,1-.2-.28,35.73,35.73,0,0,1-7.35-21.72V841.24a36.06,36.06,0,0,1,36.05-36H792a35.54,35.54,0,0,1,14.95,3.33L822.42,793a3.28,3.28,0,0,1,4.62,0Zm-6.95,2.32L824.73,800l-59.94,59.94a3.27,3.27,0,0,1-4.63,0L736.26,836l-8.47,8.47,34.69,34.69Z" transform="translate(-644.52 -792.09)"/><path class="cls-4" d="M814.89,965.78v5.34a29.39,29.39,0,0,1-22.92,11H680.57a29.49,29.49,0,0,1-23-11v-5.34h9.84v6.51a3.28,3.28,0,0,0,6.55,0v-6.51h9.83v6.51a3.28,3.28,0,0,0,6.55,0v-6.51h9.83v6.51a3.28,3.28,0,0,0,6.55,0v-6.51h9.83v6.51a3.28,3.28,0,0,0,6.55,0v-6.51H733v6.51a3.27,3.27,0,0,0,6.54,0v-6.51h9.84v6.51a3.28,3.28,0,0,0,6.55,0v-6.51h9.83v6.51a3.28,3.28,0,0,0,6.56,0v-6.51h9.82v6.51a3.28,3.28,0,0,0,6.56,0v-6.51h9.82v6.51a3.28,3.28,0,0,0,6.56,0v-6.51Z" transform="translate(-644.52 -792.09)"/><path class="cls-3" d="M805.07,965.78v6.51a3.28,3.28,0,0,1-6.56,0v-6.51Z" transform="translate(-644.52 -792.09)"/><path class="cls-3" d="M801.79,962.46a3.27,3.27,0,0,1,3.28,3.28v0h-6.56v0A3.27,3.27,0,0,1,801.79,962.46Z" transform="translate(-644.52 -792.09)"/><path class="cls-3" d="M788.69,965.78v6.51a3.28,3.28,0,0,1-6.56,0v-6.51Z" transform="translate(-644.52 -792.09)"/><path class="cls-3" d="M782.13,965.74a3.28,3.28,0,0,1,6.56,0v0h-6.56Z" transform="translate(-644.52 -792.09)"/><path class="cls-3" d="M782.13,913.31v6.56a3.26,3.26,0,0,1-3.27,3.27H749.37V933a9.84,9.84,0,0,0,9.83,9.83h6.55a9.85,9.85,0,0,0,9.83-9.83,3.28,3.28,0,1,1,6.55,0,16.4,16.4,0,0,1-16.38,16.39H759.2A16.4,16.4,0,0,1,742.82,933V913.31a16.39,16.39,0,0,1,16.38-16.38h6.55A16.39,16.39,0,0,1,782.13,913.31Zm-6.55,3.28v-3.28a9.85,9.85,0,0,0-9.83-9.82H759.2a9.84,9.84,0,0,0-9.83,9.82v3.28Z" transform="translate(-644.52 -792.09)"/><path class="cls-2" d="M775.58,913.31v3.28H749.37v-3.28a9.84,9.84,0,0,1,9.83-9.82h6.55A9.85,9.85,0,0,1,775.58,913.31Z" transform="translate(-644.52 -792.09)"/><path class="cls-3" d="M772.31,965.78v6.51a3.28,3.28,0,0,1-6.56,0v-6.51Z" transform="translate(-644.52 -792.09)"/><path class="cls-3" d="M772.31,965.78h-6.56v0a3.28,3.28,0,1,1,6.56,0Z" transform="translate(-644.52 -792.09)"/><path class="cls-3" d="M755.92,965.78v6.51a3.28,3.28,0,0,1-6.55,0v-6.51Z" transform="translate(-644.52 -792.09)"/><path class="cls-3" d="M755.92,965.78h-6.55v0a3.28,3.28,0,1,1,6.55,0Z" transform="translate(-644.52 -792.09)"/><path class="cls-3" d="M739.53,965.78v6.51a3.27,3.27,0,0,1-6.54,0v-6.51Z" transform="translate(-644.52 -792.09)"/><path class="cls-3" d="M739.53,965.78H733v0a3.27,3.27,0,1,1,6.54,0Z" transform="translate(-644.52 -792.09)"/><path class="cls-3" d="M729.71,923.14V933a16.4,16.4,0,0,1-16.38,16.39H700.22A16.4,16.4,0,0,1,683.84,933a3.28,3.28,0,1,1,6.55,0,9.85,9.85,0,0,0,9.83,9.83h13.11a9.84,9.84,0,0,0,9.82-9.83v-9.83a9.84,9.84,0,0,0-9.82-9.83H700.22a16.39,16.39,0,0,1-16.38-16.38v-9.82a16.39,16.39,0,0,1,16.38-16.38h13.11a16.39,16.39,0,0,1,16.38,16.38,3.28,3.28,0,0,1-6.56,0,9.85,9.85,0,0,0-9.82-9.84H700.22a9.86,9.86,0,0,0-9.83,9.84v9.82a9.85,9.85,0,0,0,9.83,9.83h13.11A16.39,16.39,0,0,1,729.71,923.14Z" transform="translate(-644.52 -792.09)"/><path class="cls-3" d="M723.15,965.78v6.51a3.28,3.28,0,0,1-6.55,0v-6.51Z" transform="translate(-644.52 -792.09)"/><path class="cls-3" d="M723.15,965.78H716.6v0a3.28,3.28,0,1,1,6.55,0Z" transform="translate(-644.52 -792.09)"/><path class="cls-3" d="M706.77,965.78v6.51a3.28,3.28,0,0,1-6.55,0v-6.51Z" transform="translate(-644.52 -792.09)"/><path class="cls-3" d="M703.5,962.46a3.27,3.27,0,0,1,3.27,3.28v0h-6.55v0A3.27,3.27,0,0,1,703.5,962.46Z" transform="translate(-644.52 -792.09)"/><path class="cls-3" d="M690.39,965.78v6.51a3.28,3.28,0,0,1-6.55,0v-6.51Z" transform="translate(-644.52 -792.09)"/><path class="cls-3" d="M690.39,965.78h-6.55v0a3.28,3.28,0,1,1,6.55,0Z" transform="translate(-644.52 -792.09)"/><path class="cls-3" d="M674,965.78v6.51a3.28,3.28,0,0,1-6.55,0v-6.51Z" transform="translate(-644.52 -792.09)"/><path class="cls-3" d="M670.73,962.46a3.27,3.27,0,0,1,3.28,3.28v0h-6.55v0A3.27,3.27,0,0,1,670.73,962.46Z" transform="translate(-644.52 -792.09)"/></svg>