<svg id="圖層_1" data-name="圖層 1" xmlns="http://www.w3.org/2000/svg" viewBox="0 0 128.03 134.44"><defs><style>.cls-1{fill:#fff;}.cls-2{fill:#ed9484;}.cls-3{fill:#8691c9;}</style></defs><title>automation</title><g id="Outline"><path d="M398.26,795v9.3a2.13,2.13,0,0,1-1.41,2L389.4,809l-2.08,5,3.39,7.12a2.13,2.13,0,0,1-.41,2.43l-6.58,6.57-3-3,5.51-5.52L383.07,815a2.13,2.13,0,0,1-.06-1.73l2.82-6.78a2.08,2.08,0,0,1,1.25-1.18l6.91-2.47v-6.28l-6.91-2.46a2.11,2.11,0,0,1-1.25-1.2l-2.8-6.76a2.05,2.05,0,0,1,0-1.73l3.15-6.63-4.45-4.44-6.62,3.15a2.15,2.15,0,0,1-1.74,0l-6.77-2.81a2.13,2.13,0,0,1-1.19-1.25L363,765.51h-6.3l-2.45,6.91a2.11,2.11,0,0,1-1.2,1.25l-6.76,2.81-1.65-3.94,5.9-2.44,2.65-7.44a2.12,2.12,0,0,1,2-1.42h9.31a2.1,2.1,0,0,1,2,1.42l2.66,7.44,5,2.07,7.12-3.39a2.14,2.14,0,0,1,2.43.43l6.58,6.57a2.13,2.13,0,0,1,.41,2.43l-3.39,7.12,2.08,5,7.45,2.64A2.13,2.13,0,0,1,398.26,795Z" transform="translate(-270.23 -754.84)"/><path d="M394.1,840.09a14.2,14.2,0,0,1,0,20.09l-4.38,4.37v3.39h2.14a2.13,2.13,0,0,1,2.13,2.13v19.21h-4.27V872.21h-25.6v17.07h-4.27V870.07a2.13,2.13,0,0,1,2.13-2.13h2.14v-3.39l-7.75-7.75-3.11-3.1a6.66,6.66,0,0,1,0-9.42,6.44,6.44,0,0,1,1-.85,6.68,6.68,0,0,1,8.39.85l1.43,1.43V827.4a6.4,6.4,0,1,1,12.8,0v8.53h7.14A14.19,14.19,0,0,1,394.1,840.09Zm-3,17.07a9.93,9.93,0,0,0-7-17h-9.27a2.14,2.14,0,0,1-2.14-2.14V827.4a2.14,2.14,0,1,0-4.27,0v23.47a2.13,2.13,0,0,1-3.64,1.51l-5.08-5.09,0,0a2.39,2.39,0,1,0-3.35,3.41l11.47,11.48a2.13,2.13,0,0,1,.62,1.51v4.27h17.08v-4.27a2.13,2.13,0,0,1,.62-1.51Z" transform="translate(-270.23 -754.84)"/><rect x="110.96" y="121.63" width="4.27" height="4.27"/><path class="cls-1" d="M372.79,792.19A14.94,14.94,0,1,1,346,805.26l-1,.41a15.41,15.41,0,0,1-1.15-5.12l1.8-.64a2.15,2.15,0,0,0,1.42-2V790a16,16,0,0,1,4.78-4.24l.55.94A15,15,0,0,1,372.79,792.19Z" transform="translate(-270.23 -754.84)"/><path class="cls-2" d="M359.66,847.29l5.08,5.09a2.13,2.13,0,0,0,3.64-1.51V827.4a2.14,2.14,0,1,1,4.27,0v10.66a2.14,2.14,0,0,0,2.14,2.14h9.27a9.93,9.93,0,0,1,7,17l-5,5a2.13,2.13,0,0,0-.62,1.51v4.27H368.38v-4.27a2.13,2.13,0,0,0-.62-1.51l-11.47-11.48a2.39,2.39,0,1,1,3.35-3.41Z" transform="translate(-270.23 -754.84)"/><path d="M375.88,799.65a16,16,0,0,1-30.9,6l1-.41a14.94,14.94,0,1,0,6.39-18.56l-.55-.94a15.73,15.73,0,0,1,8-2.15A16.05,16.05,0,0,1,375.88,799.65Z" transform="translate(-270.23 -754.84)"/><path d="M375.88,799.65a16.05,16.05,0,0,0-16-16,15.73,15.73,0,0,0-8,2.15L350.25,783a19,19,0,0,1,2.4-1.16,19.21,19.21,0,1,1-10.61,25l2.94-1.19a16,16,0,0,0,30.9-6Z" transform="translate(-270.23 -754.84)"/><path d="M354.39,827a2.12,2.12,0,0,1,.43,2.42l-3.39,7.12,2.06,5-3.95,1.63-2.41-5.85a2.13,2.13,0,0,1,0-1.73l3.14-6.63-4.44-4.44-6.63,3.15-1.82-3.86,8-3.8a2.15,2.15,0,0,1,2.43.43Z" transform="translate(-270.23 -754.84)"/><path d="M354.82,872.31a2.14,2.14,0,0,1-.43,2.43l-6.57,6.58a2.13,2.13,0,0,1-2.43.41l-7.12-3.39-5,2.08-2.65,7.43a2.13,2.13,0,0,1-2,1.43h-9.3a2.13,2.13,0,0,1-2-1.43l-2.64-7.43-5-2.08-7.14,3.39a2.13,2.13,0,0,1-2.43-.41l-6.57-6.58a2.15,2.15,0,0,1-.42-2.43l3.39-7.12-2.08-5L287,857.52a2.12,2.12,0,0,1-1.42-2v-9.3a2.15,2.15,0,0,1,1.42-2l7.43-2.64,2.08-5-3.39-7.12,3.86-1.84L299,832l1.7,3.57a2.13,2.13,0,0,1,0,1.73l-2.8,6.77a2.15,2.15,0,0,1-1.27,1.2l-6.91,2.45V854l6.91,2.45a2.09,2.09,0,0,1,1.26,1.19l2.81,6.77a2.15,2.15,0,0,1,0,1.74l-3.15,6.61,4.45,4.46,6.62-3.15a2.13,2.13,0,0,1,1.73-.06l6.78,2.82a2.08,2.08,0,0,1,1.18,1.25l2.47,6.91h6.28l2.46-6.91a2.16,2.16,0,0,1,1.2-1.26l6.76-2.81a2.13,2.13,0,0,1,1.73.06l6.63,3.15,4.44-4.46-3.14-6.61a2.11,2.11,0,0,1,0-1.74l2.8-6.77,3.94,1.64-2.44,5.89Z" transform="translate(-270.23 -754.84)"/><path d="M347.05,790a15.83,15.83,0,0,0-3.25,9.65c0,.3,0,.6,0,.9l-5.64,2-2.08,5,3.39,7.12a2.15,2.15,0,0,1-.42,2.43l-4.16,4.17-2.41,2.4a2.13,2.13,0,0,1-2.43.41L323,820.73l-5,2.08-2.65,7.43a2.12,2.12,0,0,1-2,1.42H304a2.12,2.12,0,0,1-1.87-1.12,2.71,2.71,0,0,1-.13-.3l-2.65-7.43-5-2.08-7.12,3.38a2.13,2.13,0,0,1-2.43-.41l-6.57-6.57a2.12,2.12,0,0,1-.42-2.43l3.39-7.14-2.08-5-7.44-2.64a2.15,2.15,0,0,1-1.41-2V788.6a2.15,2.15,0,0,1,1.41-2l7.44-2.64,2.08-5-3.39-7.12a2.12,2.12,0,0,1,.42-2.43l6.57-6.57a2.12,2.12,0,0,1,2.43-.43l7.12,3.39,5-2.07,2.65-7.44a2.11,2.11,0,0,1,2-1.42h9.31a2.11,2.11,0,0,1,2,1.42l2.65,7.44,5,2.07,7.12-3.39a2.12,2.12,0,0,1,2.43.43l6.57,6.57a2.15,2.15,0,0,1,.42,2.43l-3.39,7.12,2.08,5,7.44,2.64a2.16,2.16,0,0,1,1.42,2Zm-4.27.11-6.91-2.46a2.09,2.09,0,0,1-1.25-1.2l-2.81-6.76a2.09,2.09,0,0,1,0-1.73l3.15-6.63-4.44-4.44L323.93,770a2.09,2.09,0,0,1-1.73,0l-6.78-2.8a2.14,2.14,0,0,1-1.18-1.25l-2.46-6.91h-6.29L303,766a2.14,2.14,0,0,1-1.18,1.25l-6.78,2.8a2.09,2.09,0,0,1-1.73,0l-6.63-3.14-4.44,4.44,3.15,6.63a2.09,2.09,0,0,1,0,1.73l-2.8,6.76a2.13,2.13,0,0,1-1.26,1.2l-6.91,2.46v6.28l6.91,2.46a2.11,2.11,0,0,1,1.26,1.19l2.8,6.78a2.09,2.09,0,0,1,0,1.73l-3.15,6.62,4.44,4.45,6.63-3.15a2.13,2.13,0,0,1,1.73-.05l6.76,2.81a2.1,2.1,0,0,1,1.2,1.26l2.46,6.91h6.29l2.46-6.91a2.13,2.13,0,0,1,1.18-1.26l6.78-2.81a2.13,2.13,0,0,1,1.73.05l6.62,3.15,4.45-4.45-3.15-6.62a2.13,2.13,0,0,1-.05-1.73l2.82-6.78a2.07,2.07,0,0,1,1.25-1.19l6.91-2.46Z" transform="translate(-270.23 -754.84)"/><path d="M343.8,799.65a15.83,15.83,0,0,1,3.25-9.65v7.89a2.15,2.15,0,0,1-1.42,2l-1.8.64C343.82,800.25,343.8,800,343.8,799.65Z" transform="translate(-270.23 -754.84)"/><path class="cls-3" d="M342.78,790.11v6.28l-6.91,2.46a2.07,2.07,0,0,0-1.25,1.19l-2.82,6.78a2.13,2.13,0,0,0,.05,1.73l3.15,6.62-4.45,4.45-6.62-3.15a2.13,2.13,0,0,0-1.73-.05l-6.78,2.81a2.13,2.13,0,0,0-1.18,1.26l-2.46,6.91h-6.29L303,820.49a2.1,2.1,0,0,0-1.2-1.26l-6.76-2.81a2.13,2.13,0,0,0-1.73.05l-6.63,3.15-4.44-4.45,3.15-6.62a2.09,2.09,0,0,0,0-1.73l-2.8-6.78a2.11,2.11,0,0,0-1.26-1.19l-6.91-2.46v-6.28l6.91-2.46a2.13,2.13,0,0,0,1.26-1.2l2.8-6.76a2.09,2.09,0,0,0,0-1.73l-3.15-6.63,4.44-4.44,6.63,3.14a2.09,2.09,0,0,0,1.73,0l6.78-2.8A2.14,2.14,0,0,0,303,766l2.46-6.91h6.29l2.46,6.91a2.14,2.14,0,0,0,1.18,1.25l6.78,2.8a2.09,2.09,0,0,0,1.73,0l6.63-3.14,4.44,4.44L331.85,778a2.09,2.09,0,0,0,0,1.73l2.81,6.76a2.09,2.09,0,0,0,1.25,1.2Zm-14.94,3.14a19.21,19.21,0,1,0-19.2,19.21A19.2,19.2,0,0,0,327.84,793.25Z" transform="translate(-270.23 -754.84)"/><path d="M324,831.66a19.21,19.21,0,1,1-19.21,19.21A19.19,19.19,0,0,1,324,831.66Zm14.93,19.21A14.94,14.94,0,1,0,324,865.81,14.93,14.93,0,0,0,338.88,850.87Z" transform="translate(-270.23 -754.84)"/><path class="cls-1" d="M324,835.93A14.94,14.94,0,1,1,309,850.87,14.93,14.93,0,0,1,324,835.93Z" transform="translate(-270.23 -754.84)"/><path d="M308.64,774.05a19.21,19.21,0,1,1-19.21,19.2A19.2,19.2,0,0,1,308.64,774.05Zm14.93,19.2a14.94,14.94,0,1,0-14.93,14.94A14.92,14.92,0,0,0,323.57,793.25Z" transform="translate(-270.23 -754.84)"/><path class="cls-1" d="M308.64,778.32a14.94,14.94,0,1,1-14.94,14.93A14.92,14.92,0,0,1,308.64,778.32Z" transform="translate(-270.23 -754.84)"/></g></svg>