<svg id="圖層_1" data-name="圖層 1" xmlns="http://www.w3.org/2000/svg" viewBox="0 0 134.41 136.57"><defs><style>.cls-1{fill:#dbc9b1;}.cls-2{fill:#fff;}.cls-3{fill:#8691c9;}</style></defs><title>openSource</title><path class="cls-1" d="M364.78,852.57l11.07-11.71a1.19,1.19,0,0,1,2,1.27l-3.39,5.27-8.6,8.64a2,2,0,0,0,1.41,3.42c1.52,0,1.59-1,9.95-9.17,7.77-3.86,13.74-10.28,15.42-14l3.46-7.62a1,1,0,0,1,1.86.78l-2.71,9.73c-1.11,3.47-5.33,11.67-7.74,14.05-6.2,6.12-17.81,12.19-20.45,15.83a2,2,0,0,0,.29,2.67,8.61,8.61,0,0,0-2.44,4.29H342.76v-4.08a1.51,1.51,0,0,0,.28,0,2,2,0,0,0,2.18-1.8c.16-.52-.34-7.81,6.49-11.12C364.78,852.67,364.3,853.07,364.78,852.57Z" transform="translate(-267.57 -755.52)"/><path class="cls-2" d="M358.5,766.78a42.22,42.22,0,0,1,2.65,67.87c-.33-3.09,2.46-7.72,5-11.91,3.31-5.48,6.44-10.66,3.95-14.35-2.36-3.51-5.83-2.09-9.91-5.46-2.39-2-4.6-4.46-3.29-11.29.36-1.94,2.22-4.34,5.22-6.78a6,6,0,0,0,1.83-6.68,3.19,3.19,0,0,1-.27-1.83C365.1,772.67,359,770.69,358.5,766.78Z" transform="translate(-267.57 -755.52)"/><path class="cls-2" d="M337.09,818.11c4.79,1.22,9.39,4,8.81,6.51-1.79,7.76-9.15,7-13.77,9a31.76,31.76,0,0,0-10.24,8.24,41.92,41.92,0,0,1-7-2.94c.29-.71.63-1.44,1-2.22,3.33-7,3.12-10.67-4.79-17.2-3.79-3.14-2.48-7.36-.72-10.36a4.25,4.25,0,0,0-1.27-5.65c-.8-.54-2-1.33-3.49-2.32l3.57-1.61c2.95,2.29,6.62,4.27,9.19,3.63C328,800.84,330.71,816.48,337.09,818.11Z" transform="translate(-267.57 -755.52)"/><path d="M381.85,842.6a36.47,36.47,0,0,0,6-6.06c1.16-1.48,1.18-2.17,4.61-9.53a5,5,0,0,1,6.15-2.67,5.06,5.06,0,0,1,3.2,6.17c-3.52,12.67-2.48,9.06-2.73,9.86-1.27,4-5.79,12.78-8.76,15.71-6.37,6.27-18,12.57-20,15.33a2,2,0,0,1-1.61.82,2,2,0,0,1-1.32-.5,2,2,0,0,1-.29-2.67c2.64-3.64,14.25-9.71,20.45-15.83,2.41-2.38,6.63-10.58,7.74-14.05l2.71-9.73a1,1,0,0,0-1.86-.78l-3.46,7.62c-1.68,3.72-7.65,10.14-15.42,14-8.36,8.13-8.43,9.17-9.95,9.17a2,2,0,0,1-1.41-3.42l8.6-8.64,3.39-5.27a1.19,1.19,0,0,0-2-1.27l-11.07,11.71c-.48.5,0,.1-13.07,6.5-6.83,3.31-6.33,10.6-6.49,11.12A2,2,0,0,1,343,872a1.51,1.51,0,0,1-.28,0,2,2,0,0,1-1.53-2.12c.19-.56-.33-10,8.73-14.35l12.15-5.91L373,838.1a5.17,5.17,0,0,1,8.88,4.5Z" transform="translate(-267.57 -755.52)"/><path d="M366.36,880h-24.5a.64.64,0,0,0-.64.64v6.8a.64.64,0,0,0,.64.63h24.5a.64.64,0,0,0,.64-.63v-6.8A.64.64,0,0,0,366.36,880Zm-23.6-4h23.6a4.64,4.64,0,0,1,4.64,4.64v6.8a4.64,4.64,0,0,1-4.64,4.63h-24.5a4.65,4.65,0,0,1-4.65-4.63v-6.8a4.65,4.65,0,0,1,4.65-4.64Z" transform="translate(-267.57 -755.52)"/><path d="M326.24,877.22V880H304.51v-2.8a4.73,4.73,0,0,0-.21-1.2h21.94Z" transform="translate(-267.57 -755.52)"/><path class="cls-3" d="M308.55,822.62c7.59,6.27,5.79,7.61,2.87,14.27A42.24,42.24,0,0,1,293,796c4.56,5,10.83,8.79,13.88,10.88a.24.24,0,0,1,.08.31C303.38,813.2,304,818.85,308.55,822.62Z" transform="translate(-267.57 -755.52)"/><path class="cls-3" d="M309.91,780.6c1.66,1.4.82,6.16,4.46,6.85,3.91.75,5.45-5,6.92-8.27,4-8.71,15.92-5.29,20.77-9.89a14.43,14.43,0,0,0,4.52-8.09,42.1,42.1,0,0,1,8.07,3.27c-1.23,5.82,3.82,9.16,5.14,10.9a6.85,6.85,0,0,0,.39,4.17,2,2,0,0,1-.59,2.22c-2.64,2.14-5.93,5.46-6.64,9.13-1.64,8.56,1.44,12.46,4.68,15.13,7.53,6.21,14,0,5.08,14.65-3.33,5.51-7,11.67-5,16.49A42.09,42.09,0,0,1,326.2,843a27.16,27.16,0,0,1,7.56-5.71c3.8-1.69,13.66-1.48,16-11.82,1.24-5.41-5-9.56-11.72-11.28-3.67-.93-8.15-18-20.66-14.88-.25,0-1.48-.1-3.8-1.54-3.23-2-5.57-4.58-6-5.57a9.38,9.38,0,0,0-.24-7.72c-.61-1.55-.61-1.76-.13-2.38.36-.45,1.45-1.82,2-1.88A1.06,1.06,0,0,1,309.91,780.6Z" transform="translate(-267.57 -755.52)"/><path class="cls-2" d="M303.71,770.21a2,2,0,0,0,2.83.16,42.25,42.25,0,0,1,36.13-10.1,10.65,10.65,0,0,1-3.36,6.11c-3.27,3.11-16.75.42-21.66,11.13a57.14,57.14,0,0,1-2.47,5.49c-.44-1.5-.78-3.86-2.68-5.46a4.78,4.78,0,0,0-3.6-1.27c-2.27.23-3.84,2.2-4.77,3.38-2,2.48-1.11,4.72-.47,6.35a5.47,5.47,0,0,1,.16,5c-.92,2.08,1,4.35,1.61,5.1a26.3,26.3,0,0,0,3.76,3.53l-3.57,1.61c-3.71-2.49-8.8-6.24-11.6-10.37a41.15,41.15,0,0,1,7.27-14.79,2,2,0,0,0-.38-2.82,1.65,1.65,0,0,0-.31-.2,23.65,23.65,0,0,1,2.89-3.12A1.54,1.54,0,0,0,303.71,770.21Z" transform="translate(-267.57 -755.52)"/><path d="M327.72,876a4.64,4.64,0,0,1,4.64,4.64v6.8a4.64,4.64,0,0,1-4.64,4.63h-24.5a4.64,4.64,0,0,1-4.64-4.63v-6.8a4.64,4.64,0,0,1,4.64-4.64h1.08a4.73,4.73,0,0,1,.21,1.2V880h-1.29a.63.63,0,0,0-.64.64v6.8a.63.63,0,0,0,.64.63h24.5a.64.64,0,0,0,.64-.63v-6.8a.64.64,0,0,0-.64-.64h-1.48v-4Z" transform="translate(-267.57 -755.52)"/><path d="M306.94,807.15a.24.24,0,0,0-.08-.31C303.81,804.75,297.54,801,293,796a42.24,42.24,0,0,0,18.44,40.93c2.92-6.66,4.72-8-2.87-14.27C304,818.85,303.38,813.2,306.94,807.15Zm51.23-45.29c28.71,16.87,30.74,57.87,3.57,77.36a1.79,1.79,0,0,1-.45.32,46.2,46.2,0,0,1-63.18-65.93,2,2,0,0,1,2.49-.58,1.65,1.65,0,0,1,.31.2,2,2,0,0,1,.38,2.82A41.15,41.15,0,0,0,294,790.84c2.8,4.13,7.89,7.88,11.6,10.37,1.45,1,2.69,1.78,3.49,2.32a4.25,4.25,0,0,1,1.27,5.65c-1.76,3-3.07,7.22.72,10.36,7.91,6.53,8.12,10.19,4.79,17.2-.37.78-.71,1.51-1,2.22a41.92,41.92,0,0,0,7,2.94,31.76,31.76,0,0,1,10.24-8.24c4.62-2,12-1.28,13.77-9,.58-2.52-4-5.29-8.81-6.51-6.38-1.63-9.1-17.27-18.71-14.88-2.57.64-6.24-1.34-9.19-3.63a26.3,26.3,0,0,1-3.76-3.53c-.62-.75-2.53-3-1.61-5.1a5.47,5.47,0,0,0-.16-5c-.64-1.63-1.52-3.87.47-6.35.93-1.18,2.5-3.15,4.77-3.38a4.78,4.78,0,0,1,3.6,1.27c1.9,1.6,2.24,4,2.68,5.46a57.14,57.14,0,0,0,2.47-5.49c4.91-10.71,18.39-8,21.66-11.13a10.65,10.65,0,0,0,3.36-6.11,42.25,42.25,0,0,0-36.13,10.1,2,2,0,0,1-2.83-.16,1.54,1.54,0,0,1-.22-.3,2,2,0,0,1,.37-2.53,46.26,46.26,0,0,1,54-5.68Zm4.54,58.81c8.89-14.69,2.45-8.44-5.08-14.65-3.24-2.67-6.32-6.57-4.68-15.13.71-3.67,4-7,6.64-9.13a2,2,0,0,0,.59-2.22,6.85,6.85,0,0,1-.39-4.17c-1.32-1.74-6.37-5.08-5.14-10.9a42.1,42.1,0,0,0-8.07-3.27,14.43,14.43,0,0,1-4.52,8.09c-4.85,4.6-16.78,1.18-20.77,9.89-1.47,3.23-3,9-6.92,8.27-3.64-.69-2.8-5.45-4.46-6.85a1.06,1.06,0,0,0-.62-.34c-.59.06-1.68,1.43-2,1.88-.48.62-.48.83.13,2.38a9.38,9.38,0,0,1,.24,7.72c.43,1,2.77,3.56,6,5.57,2.32,1.44,3.55,1.59,3.8,1.54,12.51-3.11,17,13.95,20.66,14.88,6.74,1.72,13,5.87,11.72,11.28-2.38,10.34-12.24,10.13-16,11.82A27.16,27.16,0,0,0,326.2,843a42.09,42.09,0,0,0,31.47-5.88C355.66,832.34,359.38,826.18,362.71,820.67Zm1-44.32a3.19,3.19,0,0,0,.27,1.83,6,6,0,0,1-1.83,6.68c-3,2.44-4.86,4.84-5.22,6.78-1.31,6.83.9,9.32,3.29,11.29,4.08,3.37,7.55,2,9.91,5.46,2.49,3.69-.64,8.87-3.95,14.35-2.53,4.19-5.32,8.82-5,11.91a42.22,42.22,0,0,0-2.65-67.87C359,770.69,365.1,772.67,363.67,776.35Z" transform="translate(-267.57 -755.52)"/><path class="cls-1" d="M295.14,847.4l-3.39-5.27a1.18,1.18,0,0,1,1.95-1.28c11.63,12.23,11.07,11.86,11.67,12.15l12.48,6.07c6.81,3.31,6.33,10.52,6.49,11a2,2,0,0,0,1.9,1.81V876H304.3A15,15,0,0,0,302,872a2,2,0,0,0,.57-2.86c-2.63-3.65-14.26-9.73-20.47-15.86-2.41-2.38-6.63-10.58-7.74-14l-2.73-9.85a1,1,0,0,1,1.91-.6c3.19,6.81,3.47,8.19,5.05,10.25a40.48,40.48,0,0,0,13.81,11.31l8.52,8.56a2,2,0,1,0,2.84-2.83Z" transform="translate(-267.57 -755.52)"/><path d="M328.16,867.82l.17,1.92a2,2,0,0,1-1.81,2.17.66.66,0,0,1-.28,0,2,2,0,0,1-1.9-1.81c-.16-.51.32-7.72-6.49-11L305.37,853c-.6-.29,0,.08-11.67-12.15a1.18,1.18,0,0,0-1.95,1.28l3.39,5.27,8.6,8.64a2,2,0,1,1-2.84,2.83l-8.52-8.56A40.48,40.48,0,0,1,278.57,839c-1.58-2.06-1.86-3.44-5.05-10.25a1,1,0,0,0-1.91.6l2.73,9.85c1.11,3.45,5.33,11.65,7.74,14,6.21,6.13,17.84,12.21,20.47,15.86A2,2,0,0,1,302,872a1.9,1.9,0,0,1-1,.3,2,2,0,0,1-1.63-.83c-1-1.41-6-4.7-7.71-5.88-4.19-2.87-9-6.11-12.33-9.46-3-2.93-7.5-11.73-8.75-15.71l0-.12c-.14-.48-.7-2.51-2.72-9.83a5,5,0,0,1,3.72-6.21,5.07,5.07,0,0,1,5.68,2.89c3.4,7.28,3.43,8,4.57,9.44a36.53,36.53,0,0,0,6,6.06,5.19,5.19,0,0,1,2.34-5.38,5.27,5.27,0,0,1,6.53.86l10.86,11.48,12.16,5.91A15.4,15.4,0,0,1,328.16,867.82Z" transform="translate(-267.57 -755.52)"/></svg>