<svg id="圖層_1" data-name="圖層 1" xmlns="http://www.w3.org/2000/svg" viewBox="0 0 132.3 132.3"><defs><style>.cls-1{fill:#414143;}.cls-2{fill:#fff;}.cls-3{fill:#dbc9b1;}.cls-4{fill:#ed9484;}</style></defs><title>widely</title><path class="cls-1" d="M400.84,830.56v47a10.69,10.69,0,0,1-10.67,10.67H364.56a10.69,10.69,0,0,1-10.67-10.67v-47a10.69,10.69,0,0,1,10.67-10.67h10.67v-2.13a2.14,2.14,0,0,0-2.13-2.13H343.22a6.41,6.41,0,0,1-6.4-6.41,6.31,6.31,0,0,1,1.78-4.4h4.62v2.27a2.14,2.14,0,0,0,0,4.27H373.1a6.4,6.4,0,0,1,6.4,6.4v2.13h10.67A10.69,10.69,0,0,1,400.84,830.56Zm-4.27,47v-2.14H358.16v2.14a6.41,6.41,0,0,0,6.4,6.4h25.61A6.41,6.41,0,0,0,396.57,877.51Zm0-6.4V830.56a6.41,6.41,0,0,0-6.4-6.4H388v2.13a6.41,6.41,0,0,1-6.41,6.41H373.1a6.4,6.4,0,0,1-6.4-6.41v-2.13h-2.14a6.41,6.41,0,0,0-6.4,6.4v40.55Zm-12.8-44.82v-2.13H371v2.13a2.14,2.14,0,0,0,2.14,2.14h8.53A2.14,2.14,0,0,0,383.77,826.29Z" transform="translate(-268.54 -755.88)"/><path class="cls-1" d="M392.3,837v29.88H362.43V837ZM388,862.57V841.23H366.7v21.34Z" transform="translate(-268.54 -755.88)"/><rect class="cls-1" x="110.96" y="98.16" width="4.27" height="4.27"/><rect class="cls-1" x="110.96" y="89.62" width="4.27" height="4.27"/><path class="cls-2" d="M376.49,784.72a10.69,10.69,0,0,1,3,7.77c-.17,5.69-5.2,10.33-11.2,10.33H343.22a6.29,6.29,0,0,0-4.62,2h-10a6.3,6.3,0,0,0-4.63-2H301.08c-6,0-11-4.64-11.2-10.33a10.65,10.65,0,0,1,3-7.77,10.48,10.48,0,0,1,5.54-3,19.29,19.29,0,0,0,2.62,9.51l3.68-2.17a14.93,14.93,0,0,1,21.57-19.69l1.8,1.29,1.23-1.85a19.18,19.18,0,0,1,35.15,9.08,14.94,14.94,0,0,0-10.59,14.28h4.27a10.67,10.67,0,0,1,18.33-7.43Zm-22.24-11.27,3.55-2.36a14.93,14.93,0,0,0-25.38.79l3.7,2.13a10.67,10.67,0,0,1,18.13-.56Zm-28.1,25.1v-4.26h-4.26v4.26Zm-8.53,0v-4.26h-4.27v4.26Zm-8.54,0v-4.26h-4.27v4.26Z" transform="translate(-268.54 -755.88)"/><path class="cls-3" d="M366.7,826.29a6.4,6.4,0,0,0,6.4,6.41h8.53a6.41,6.41,0,0,0,6.41-6.41v-2.13h2.13a6.41,6.41,0,0,1,6.4,6.4v40.55H358.16V830.56a6.41,6.41,0,0,1,6.4-6.4h2.14Zm25.6,40.55V837H362.43v29.88Z" transform="translate(-268.54 -755.88)"/><path class="cls-1" d="M357.8,771.09l-3.55,2.36a10.67,10.67,0,0,0-18.13.56l-3.7-2.13a14.93,14.93,0,0,1,25.38-.79Z" transform="translate(-268.54 -755.88)"/><path class="cls-1" d="M345.36,871.11v6.4a10.69,10.69,0,0,1-10.67,10.67H279.21a10.69,10.69,0,0,1-10.67-10.67v-6.4h4.27V834.83a10.68,10.68,0,0,1,10.66-10.67h21.34v-6.4a6.4,6.4,0,0,1,6.41-6.4H324a2.14,2.14,0,0,0,0-4.27v-2.27h4.63A6.39,6.39,0,0,1,324,815.63h-12.8a2.14,2.14,0,0,0-2.14,2.13v6.4h21.34a10.69,10.69,0,0,1,10.67,10.67v36.28Zm-4.27,6.4v-2.14H272.81v2.14a6.4,6.4,0,0,0,6.4,6.4h55.48A6.41,6.41,0,0,0,341.09,877.51Zm-4.27-6.4V834.83a6.41,6.41,0,0,0-6.4-6.4H283.47a6.41,6.41,0,0,0-6.4,6.4v36.28Z" transform="translate(-268.54 -755.88)"/><path class="cls-1" d="M332.55,837v25.61a4.28,4.28,0,0,1-4.26,4.27H285.61a4.28,4.28,0,0,1-4.27-4.27V837a4.28,4.28,0,0,1,4.27-4.26h42.68A4.28,4.28,0,0,1,332.55,837Zm-4.26,25.61V837H285.61v25.61Z" transform="translate(-268.54 -755.88)"/><path class="cls-1" d="M324,804.82v2.27H301.08c-8.28,0-15.22-6.5-15.47-14.48a14.93,14.93,0,0,1,13.27-15.3,19.22,19.22,0,0,1,18.74-15,19,19,0,0,1,9.37,2.45,23.47,23.47,0,0,1,41.73,12.49h.11a14.94,14.94,0,0,1,14.94,15.39c-.26,8-7.19,14.48-15.47,14.48H343.22v-2.27H338.6a6.29,6.29,0,0,1,4.62-2H368.3c6,0,11-4.64,11.2-10.33a10.67,10.67,0,1,0-21.34-.34h-4.27a14.94,14.94,0,0,1,10.59-14.28,19.18,19.18,0,0,0-35.15-9.08l-1.23,1.85-1.8-1.29A14.93,14.93,0,0,0,304.73,789l-3.68,2.17a19.29,19.29,0,0,1-2.62-9.51,10.48,10.48,0,0,0-5.54,3,10.65,10.65,0,0,0-3,7.77c.17,5.69,5.2,10.33,11.2,10.33H324a6.3,6.3,0,0,1,4.63,2Z" transform="translate(-268.54 -755.88)"/><path class="cls-4" d="M328.29,837v25.61H285.61V837Zm-17.07,8.54v-4.27H307v4.27Zm-8.54,0v-4.27h-4.27v4.27Zm-8.54,0v-4.27h-4.26v4.27Z" transform="translate(-268.54 -755.88)"/><rect class="cls-1" x="53.35" y="38.41" width="4.27" height="4.27"/><rect class="cls-1" x="44.81" y="38.41" width="4.27" height="4.27"/><rect class="cls-1" x="38.41" y="85.36" width="4.27" height="4.27"/><rect class="cls-1" x="36.28" y="38.41" width="4.27" height="4.27"/><rect class="cls-1" x="29.87" y="85.36" width="4.27" height="4.27"/><rect class="cls-1" x="21.34" y="85.36" width="4.27" height="4.27"/></svg>