<svg id="圖層_1" data-name="圖層 1" xmlns="http://www.w3.org/2000/svg" viewBox="0 0 193.51 147.4"><defs><style>.cls-1{fill:#414143;}.cls-2{fill:#ececec;}.cls-3{fill:#fff;}.cls-4{fill:#dbc9b1;}</style></defs><title>live_21</title><path class="cls-1" d="M839.75,830.75V949.81A14.18,14.18,0,0,1,825.58,964H660.42a14.19,14.19,0,0,1-14.19-14.16V830.75a14.21,14.21,0,0,1,14.19-14.18H825.58A14.19,14.19,0,0,1,839.75,830.75Zm-5.67,119.06V830.75a8.51,8.51,0,0,0-8.5-8.51H660.42a8.52,8.52,0,0,0-8.52,8.51V949.81a8.52,8.52,0,0,0,8.52,8.5H825.58A8.52,8.52,0,0,0,834.08,949.81Z" transform="translate(-646.23 -816.57)"/><path class="cls-2" d="M834.08,830.75V949.81a8.52,8.52,0,0,1-8.5,8.5H660.42a8.52,8.52,0,0,1-8.52-8.5V830.75a8.52,8.52,0,0,1,8.52-8.51H825.58A8.51,8.51,0,0,1,834.08,830.75Zm-5.67,107.72V830.75a2.83,2.83,0,0,0-2.83-2.83H660.42a2.84,2.84,0,0,0-2.85,2.83v48.18a2.85,2.85,0,0,0,2.83,2.85v5.67a2.83,2.83,0,0,0-2.83,2.83v48.19a2.85,2.85,0,0,0,2.85,2.84H825.58A2.83,2.83,0,0,0,828.41,938.47Zm.25,11.32a2.83,2.83,0,1,0-2.83,2.83A2.82,2.82,0,0,0,828.66,949.79Zm-11.33,0a2.83,2.83,0,1,0-2.83,2.83A2.82,2.82,0,0,0,817.33,949.79Z" transform="translate(-646.23 -816.57)"/><path class="cls-1" d="M660.4,887.45h0a2.83,2.83,0,0,1,2.83,2.83v45.34h159.5v-102H663.25v45.34a2.85,2.85,0,0,1-2.83,2.85h0a2.85,2.85,0,0,1-2.83-2.85V830.75a2.84,2.84,0,0,1,2.85-2.83H825.58a2.83,2.83,0,0,1,2.83,2.83V938.47a2.83,2.83,0,0,1-2.83,2.84H660.42a2.85,2.85,0,0,1-2.85-2.84V890.28A2.83,2.83,0,0,1,660.4,887.45Z" transform="translate(-646.23 -816.57)"/><circle class="cls-1" cx="179.6" cy="133.22" r="2.83"/><circle class="cls-1" cx="168.26" cy="133.22" r="2.83"/><path class="cls-3" d="M791.22,935.62H697.31V934a1.62,1.62,0,0,0,1.62-1.61v-4.87H789.6v4.87a1.63,1.63,0,0,0,1.62,1.61Z" transform="translate(-646.23 -816.57)"/><path class="cls-3" d="M788,922.66v1.62h-9.72v-1.62a1.62,1.62,0,0,1,1.62-1.62h6.48A1.61,1.61,0,0,1,788,922.66Z" transform="translate(-646.23 -816.57)"/><path class="cls-3" d="M778.47,910.58l-1.15-1.15,2.3-2.3,1.13,1.15a1.62,1.62,0,0,1,0,2.3,1.67,1.67,0,0,1-2.28,0Z" transform="translate(-646.23 -816.57)"/><path class="cls-4" d="M776.65,877.31v3.25a1.62,1.62,0,0,1-1.61,1.62h-1.62V875.7H775A1.62,1.62,0,0,1,776.65,877.31Z" transform="translate(-646.23 -816.57)"/><path class="cls-3" d="M773.89,903.7a1.62,1.62,0,0,1,2.3,0l1.13,1.14L775,907.13,773.89,906A1.61,1.61,0,0,1,773.89,903.7Z" transform="translate(-646.23 -816.57)"/><path class="cls-3" d="M770.17,869.23v3.24h-21a6.48,6.48,0,0,1-6.46-6.49v-3.23h21A6.48,6.48,0,0,1,770.17,869.23Z" transform="translate(-646.23 -816.57)"/><path class="cls-3" d="M762.09,856.27a14.59,14.59,0,0,1,14.56,14.58v1.92a4.42,4.42,0,0,0-1.61-.3h-1.62v-3.24a9.73,9.73,0,0,0-9.72-9.71h-14a14.48,14.48,0,0,1,9.13-3.25Z" transform="translate(-646.23 -816.57)"/><circle class="cls-1" cx="117.47" cy="63.99" r="1.62"/><path class="cls-3" d="M760.46,901.61a3.24,3.24,0,0,1-3.24-3.25V898a12.71,12.71,0,0,0,6.48,0v.41A3.24,3.24,0,0,1,760.46,901.61Z" transform="translate(-646.23 -816.57)"/><path class="cls-3" d="M758.84,890.28c-.52-.07-1.6-1.88-1.62-3.22.4,0,.79,0,1.19,0h.88c.37,0,.87,0,1.17,0C760.44,888.4,759.36,890.21,758.84,890.28Z" transform="translate(-646.23 -816.57)"/><path class="cls-1" d="M758.41,887c-.4,0-.79,0-1.19,0,0,1.34,1.1,3.15,1.62,3.22s1.6-1.88,1.62-3.22c-.3,0-.8,0-1.17,0Zm.43,6.48c-2.92,0-4.85-3.9-4.85-6.48a3.11,3.11,0,0,1,.85-2.3,4.71,4.71,0,0,1,3.58-.93h.84a4.75,4.75,0,0,1,3.58.93,3.08,3.08,0,0,1,.86,2.3C763.7,889.61,761.76,893.51,758.84,893.51Z" transform="translate(-646.23 -816.57)"/><circle class="cls-1" cx="107.75" cy="63.99" r="1.62"/><path class="cls-4" d="M754,882.18a1.62,1.62,0,1,0,0-3.23,1.62,1.62,0,1,0,0,3.23Zm8.1-1.62A1.62,1.62,0,1,0,763.7,879,1.62,1.62,0,0,0,762.09,880.56Zm-11.35,4.85V875.7h19.43v9.71a9.72,9.72,0,1,1-19.43,0ZM754,887c0,2.58,1.93,6.48,4.85,6.48s4.86-3.9,4.86-6.48a3.08,3.08,0,0,0-.86-2.3,4.75,4.75,0,0,0-3.58-.93h-.84a4.71,4.71,0,0,0-3.58.93A3.11,3.11,0,0,0,754,887Z" transform="translate(-646.23 -816.57)"/><path class="cls-3" d="M728.08,914.56h11.33a4.86,4.86,0,0,0,4.86-4.85v-13h3.24a1.61,1.61,0,0,0,1.61,1.61H754a6.48,6.48,0,1,0,13,0h4.86a4.89,4.89,0,0,1,3.62,1.67,4.83,4.83,0,0,0-5.23,4.41,4.89,4.89,0,0,0,1.41,3.85l2.29,2.29,2.28,2.28a4.76,4.76,0,0,0,5.52.93l1.43,1.45v2.55h-3.23a4.86,4.86,0,0,0-4.85,4.87v1.62H771.8v-9.72a1.63,1.63,0,0,0-3.25,0v9.72H752.37V911.33a1.63,1.63,0,0,0-3.25,0v12.95h-4.85v-4.85a1.62,1.62,0,1,0-3.23,0v4.85h-3.25v-1.62a4.87,4.87,0,0,0-4.85-4.87h-4.86Z" transform="translate(-646.23 -816.57)"/><path class="cls-3" d="M741,883.8v25.91a1.63,1.63,0,0,1-1.63,1.62H728.08v-8.1a8.1,8.1,0,1,0-16.19,0v8.1H700.56a1.63,1.63,0,0,1-1.63-1.62V883.8a1.62,1.62,0,0,1,1.63-1.62h8.08a1.64,1.64,0,0,0,1.64-1.62h3.23v3.24a4.86,4.86,0,0,0,4.85,4.86h3.25a4.86,4.86,0,0,0,4.85-4.86v-1.62h12.95A1.62,1.62,0,0,1,741,883.8Z" transform="translate(-646.23 -816.57)"/><path class="cls-1" d="M741,851.42a1.61,1.61,0,0,0-1.63,1.61,1.62,1.62,0,0,1-3.24,0,4.87,4.87,0,0,1,4.87-4.85,1.62,1.62,0,0,1,0,3.24Z" transform="translate(-646.23 -816.57)"/><path class="cls-1" d="M741,844.94a8.1,8.1,0,0,0-8.1,8.09,1.63,1.63,0,0,1-3.25,0A11.36,11.36,0,0,1,741,841.7a1.62,1.62,0,0,1,0,3.24Z" transform="translate(-646.23 -816.57)"/><path class="cls-1" d="M741,838.47A14.59,14.59,0,0,0,726.46,853a1.62,1.62,0,1,1-3.23,0A17.84,17.84,0,0,1,741,835.22a1.63,1.63,0,0,1,0,3.25Z" transform="translate(-646.23 -816.57)"/><path class="cls-3" d="M724.84,903.23v14.56h-9.71V903.23a4.86,4.86,0,1,1,9.71,0Z" transform="translate(-646.23 -816.57)"/><path class="cls-3" d="M723.23,880.86v2.94a1.62,1.62,0,0,1-1.62,1.61h-3.25a1.62,1.62,0,0,1-1.62-1.61v-2.94l2.12-5.26a5.68,5.68,0,0,0,2.25,0Z" transform="translate(-646.23 -816.57)"/><path class="cls-3" d="M720,869.23a1.62,1.62,0,0,0,1.62,1.62h1.17A3.24,3.24,0,1,1,720,866a3.3,3.3,0,0,1,2.79,1.64h-1.17A1.6,1.6,0,0,0,720,869.23Z" transform="translate(-646.23 -816.57)"/><path class="cls-3" d="M726.46,853A14.59,14.59,0,0,1,741,838.47a1.63,1.63,0,0,0,0-3.25A17.84,17.84,0,0,0,723.23,853a1.62,1.62,0,1,0,3.23,0ZM741,848.18a4.87,4.87,0,0,0-4.87,4.85,1.62,1.62,0,0,0,3.24,0,1.61,1.61,0,0,1,1.63-1.61,1.62,1.62,0,0,0,0-3.24Zm-30.76,32.38a1.62,1.62,0,0,0-1.64-1.61h-8.08a4.85,4.85,0,0,0-4.86,4.85v25.91a4.86,4.86,0,0,0,4.86,4.85h11.33v3.23H707a1.63,1.63,0,0,0,0,3.25h25.91a1.62,1.62,0,0,1,1.62,1.62v1.62H697.31a1.61,1.61,0,0,0-1.61,1.61v6.49a1.62,1.62,0,0,0,1.61,1.61v1.63H663.25V890.28a2.83,2.83,0,0,0-2.83-2.83h0v-5.67h0a2.85,2.85,0,0,0,2.83-2.85V833.59h159.5v102H791.22V934a1.63,1.63,0,0,0,1.63-1.61v-6.49a1.61,1.61,0,0,0-1.63-1.61v-1.62a4.87,4.87,0,0,0-4.85-4.87v-3.23a1.64,1.64,0,0,0-.48-1.15l-1.9-1.9a4.88,4.88,0,0,0-.94-5.52l-3.2-3.19a8.1,8.1,0,0,0-8.05-7.67H769a12.91,12.91,0,0,0,4.42-9.72H775a4.84,4.84,0,0,0,4.85-4.85v-9.71A17.83,17.83,0,0,0,762.09,853h-3.25a17.64,17.64,0,0,0-13.68,6.49H741a1.61,1.61,0,0,0-1.63,1.61V866a9.73,9.73,0,0,0,8.1,9.58v9.85a12.9,12.9,0,0,0,4.41,9.72h-2.8a1.62,1.62,0,0,0-1.61,1.62h-3.24v-13a4.85,4.85,0,0,0-4.86-4.85H725.94l-1.88-4.72a6.48,6.48,0,1,0-9.12-1,6.91,6.91,0,0,0,1,1L713.63,880a1.37,1.37,0,0,0-.12.6ZM741,841.7A11.36,11.36,0,0,0,729.69,853a1.63,1.63,0,0,0,3.25,0,8.1,8.1,0,0,1,8.1-8.09,1.62,1.62,0,0,0,0-3.24Z" transform="translate(-646.23 -816.57)"/><path class="cls-1" d="M788,924.28v-1.62a1.61,1.61,0,0,0-1.62-1.62h-6.48a1.62,1.62,0,0,0-1.62,1.62v1.62ZM718.34,872a3.25,3.25,0,0,0,4.44-1.18h-1.17a1.62,1.62,0,1,1,0-3.23h1.17A3.3,3.3,0,0,0,720,866a3.25,3.25,0,0,0-1.65,6Zm45.36,26.33V898a12.71,12.71,0,0,1-6.48,0v.41a3.24,3.24,0,1,0,6.48,0Zm-21-35.61V866a6.48,6.48,0,0,0,6.46,6.49h21v-3.24a6.48,6.48,0,0,0-6.47-6.48Zm34,8.1a14.59,14.59,0,0,0-14.56-14.58h-3.25a14.48,14.48,0,0,0-9.13,3.25h14a9.73,9.73,0,0,1,9.72,9.71v3.24H775a4.42,4.42,0,0,1,1.61.3ZM775,875.7h-1.62v6.48H775a1.62,1.62,0,0,0,1.61-1.62v-3.25A1.62,1.62,0,0,0,775,875.7Zm-14.58,19.43a9.72,9.72,0,0,0,9.71-9.72V875.7H750.74v9.71A9.72,9.72,0,0,0,760.46,895.13Zm18,15.45a1.67,1.67,0,0,0,2.28,0,1.62,1.62,0,0,0,0-2.3l-1.13-1.15-2.3,2.3Zm-4.58-6.88a1.61,1.61,0,0,0,0,2.29l1.15,1.14,2.28-2.29-1.13-1.14A1.62,1.62,0,0,0,773.89,903.7Zm-52.78-28.1a5.68,5.68,0,0,1-2.25,0l-2.12,5.26v2.94a1.62,1.62,0,0,0,1.62,1.61h3.25a1.62,1.62,0,0,0,1.62-1.61v-2.94Zm-6,27.63v14.56h9.71V903.23a4.86,4.86,0,1,0-9.71,0Zm56.67-4.87h-4.86a6.48,6.48,0,1,1-13,0h-4.87a1.62,1.62,0,0,1,0-3.23h2.8a12.9,12.9,0,0,1-4.41-9.72v-9.85a9.73,9.73,0,0,1-8.1-9.58v-4.85a1.61,1.61,0,0,1,1.63-1.61h4.12A17.64,17.64,0,0,1,758.84,853h3.25a17.83,17.83,0,0,1,17.8,17.82v9.71a4.84,4.84,0,0,1-4.85,4.85h-1.62a12.91,12.91,0,0,1-4.42,9.72h2.8a8.1,8.1,0,0,1,8.05,7.67l3.2,3.19a4.88,4.88,0,0,1,.94,5.52l1.9,1.9a1.64,1.64,0,0,1,.48,1.15v3.23a4.87,4.87,0,0,1,4.85,4.87v1.62a1.61,1.61,0,0,1,1.63,1.61v6.49a1.63,1.63,0,0,1-3.25,0v-4.87H698.93v4.87a1.62,1.62,0,0,1-3.23,0v-6.49a1.61,1.61,0,0,1,1.61-1.61h37.25v-1.62a1.62,1.62,0,0,0-1.62-1.62H707a1.63,1.63,0,0,1,0-3.25h4.86v-3.23H700.56a4.86,4.86,0,0,1-4.86-4.85V883.8a4.85,4.85,0,0,1,4.86-4.85h8.08a1.62,1.62,0,1,1,0,3.23h-8.08a1.62,1.62,0,0,0-1.63,1.62v25.91a1.63,1.63,0,0,0,1.63,1.62h11.33v-8.1a8.1,8.1,0,1,1,16.19,0v8.1h11.33a1.63,1.63,0,0,0,1.63-1.62V883.8a1.62,1.62,0,0,0-1.63-1.62H726.46v1.62a4.86,4.86,0,0,1-4.85,4.86h-3.25a4.86,4.86,0,0,1-4.85-4.86v-3.24a1.37,1.37,0,0,1,.12-.6l2.28-5.73a6.91,6.91,0,0,1-1-1,6.48,6.48,0,1,1,9.12,1l1.88,4.72h13.47a4.85,4.85,0,0,1,4.86,4.85v25.91a4.86,4.86,0,0,1-4.86,4.85H728.08v3.23h4.86a4.87,4.87,0,0,1,4.85,4.87v1.62H741v-4.85a1.62,1.62,0,1,1,3.23,0v4.85h4.85V911.33a1.63,1.63,0,0,1,3.25,0v12.95h16.18v-9.72a1.63,1.63,0,0,1,3.25,0v9.72H775v-1.62a4.86,4.86,0,0,1,4.85-4.87h3.23v-2.55l-1.43-1.45a4.76,4.76,0,0,1-5.52-.93l-2.28-2.28-2.29-2.29a4.89,4.89,0,0,1-1.41-3.85,4.83,4.83,0,0,1,5.23-4.41A4.89,4.89,0,0,0,771.8,898.36Z" transform="translate(-646.23 -816.57)"/></svg>