<svg id="圖層_1" data-name="圖層 1" xmlns="http://www.w3.org/2000/svg" viewBox="0 0 193.51 147.4"><defs><style>.cls-1{fill:#414143;}.cls-2{fill:#dbc9b1;}.cls-3{fill:#fff;}.cls-4{fill:#8691c9;}</style></defs><title>live_7</title><path class="cls-1" d="M744.78,804.44V923.51a14.18,14.18,0,0,1-14.17,14.16H565.45a14.18,14.18,0,0,1-14.18-14.16V804.44a14.2,14.2,0,0,1,14.18-14.17H730.61A14.19,14.19,0,0,1,744.78,804.44Zm-5.67,119.07V804.44a8.51,8.51,0,0,0-8.5-8.5H565.45a8.52,8.52,0,0,0-8.52,8.5V923.51a8.52,8.52,0,0,0,8.52,8.5H730.61A8.51,8.51,0,0,0,739.11,923.51Z" transform="translate(-551.27 -790.27)"/><path class="cls-2" d="M739.11,804.44V923.51a8.51,8.51,0,0,1-8.5,8.5H565.45a8.52,8.52,0,0,1-8.52-8.5V804.44a8.52,8.52,0,0,1,8.52-8.5H730.61A8.51,8.51,0,0,1,739.11,804.44Zm-5.66,107.72V804.44a2.84,2.84,0,0,0-2.84-2.83H565.45a2.83,2.83,0,0,0-2.83,2.83v48.19a2.83,2.83,0,0,0,2.81,2.84v5.66a2.85,2.85,0,0,0-2.81,2.85v48.18a2.82,2.82,0,0,0,2.83,2.83H730.61A2.83,2.83,0,0,0,733.45,912.16Zm.25,11.33a2.84,2.84,0,1,0-2.84,2.84A2.84,2.84,0,0,0,733.7,923.49Zm-11.33,0a2.84,2.84,0,1,0-2.84,2.84A2.84,2.84,0,0,0,722.37,923.49Z" transform="translate(-551.27 -790.27)"/><path class="cls-1" d="M565.43,855.47a2.83,2.83,0,0,1-2.81-2.84V804.44a2.83,2.83,0,0,1,2.83-2.83H730.61a2.84,2.84,0,0,1,2.84,2.83V912.16a2.83,2.83,0,0,1-2.84,2.83H565.45a2.82,2.82,0,0,1-2.83-2.83V864a2.85,2.85,0,0,1,2.81-2.85h0a2.84,2.84,0,0,1,2.83,2.85v45.35h159.5v-102H568.28v45.34a2.83,2.83,0,0,1-2.83,2.84Z" transform="translate(-551.27 -790.27)"/><circle class="cls-1" cx="179.6" cy="133.22" r="2.83"/><circle class="cls-1" cx="168.26" cy="133.22" r="2.83"/><path class="cls-3" d="M699.42,905.18a1.8,1.8,0,0,0,1.81,1.81v2.34H595.88V907a1.81,1.81,0,0,0,1.82-1.81v-5.45H699.42Z" transform="translate(-551.27 -790.27)"/><path class="cls-3" d="M694,874.3v21.8H666.72v-3.64a1.8,1.8,0,0,0,1.82-1.81V874.3h7.26v9.08a1.81,1.81,0,0,0,1.82,1.82h7.27a1.8,1.8,0,0,0,1.81-1.82V874.3Z" transform="translate(-551.27 -790.27)"/><path class="cls-3" d="M690.34,868.85a12.73,12.73,0,0,0-12.72-12.72h-2.45a16.26,16.26,0,0,0,6.08-12.71h3.64v10.33a1.82,1.82,0,1,0,3.63,0V832.52a23.62,23.62,0,0,0-23.61-23.61v-1.62h62.87v102H701.23V907a1.8,1.8,0,0,0,1.82-1.81v-7.27a1.81,1.81,0,0,0-1.82-1.81H697.6V872.48a1.8,1.8,0,0,0-1.81-1.81h-5.45Z" transform="translate(-551.27 -790.27)"/><rect class="cls-3" x="128.17" y="84.02" width="3.63" height="7.27"/><circle class="cls-1" cx="119.09" cy="49.51" r="1.82"/><path class="cls-2" d="M670.35,858.82v.95a5.45,5.45,0,1,1-10.89,0v-.95A16.16,16.16,0,0,0,670.35,858.82Z" transform="translate(-551.27 -790.27)"/><path class="cls-4" d="M666.72,870.67a2.19,2.19,0,0,0-.36,0l-.29-1.93a9.08,9.08,0,0,0,7.92-9h3.63a9.09,9.09,0,0,1,9.08,9.08v1.82Z" transform="translate(-551.27 -790.27)"/><path class="cls-1" d="M668.77,847.28s0,0,0,0a1.82,1.82,0,0,1,2.54,2.62,9.11,9.11,0,0,1-12.85,0l0-.05a1.82,1.82,0,0,1,2.62-2.52A5.47,5.47,0,0,0,668.77,847.28Z" transform="translate(-551.27 -790.27)"/><circle class="cls-1" cx="108.19" cy="49.51" r="1.82"/><path class="cls-2" d="M659.46,838a1.82,1.82,0,1,0,0,3.63,1.82,1.82,0,0,0,0-3.63Zm10.89,0a1.82,1.82,0,0,0,0,3.63,1.82,1.82,0,1,0,0-3.63Zm1,11.88a1.82,1.82,0,0,0-2.54-2.62s0,0,0,0a5.47,5.47,0,0,1-7.71,0,1.82,1.82,0,0,0-2.62,2.52l0,.05a9.11,9.11,0,0,0,12.85,0Zm6.28-6.43a12.72,12.72,0,0,1-25.43,0v-9.08h3.63a1.81,1.81,0,0,0,1.64-1l2-4,2,4a1.82,1.82,0,0,0,1.63,1h9.08a1.86,1.86,0,0,0,1.52-.8l4.08.1a1.63,1.63,0,0,0-.15.7Z" transform="translate(-551.27 -790.27)"/><rect class="cls-3" x="99.11" y="91.29" width="7.27" height="14.53"/><path class="cls-3" d="M655.82,876.11v1.82h-3.63v-1.82a1.82,1.82,0,0,1,3.63,0Z" transform="translate(-551.27 -790.27)"/><path class="cls-3" d="M684.89,832.52v10.9h-3.64v-9.08a1.81,1.81,0,0,0-3.48-.7l-4.08-.1a2,2,0,0,0,.3-1,1.81,1.81,0,0,0-1.82-1.82h-7.95l-3.13-6.25a1.87,1.87,0,0,0-2.58-.66,1.92,1.92,0,0,0-.67.66l-3.13,6.25h-4.34a1.82,1.82,0,0,0-1.81,1.82v10.9a16.28,16.28,0,0,0,6.1,12.71h-2.47a12.63,12.63,0,0,0-7.1,2.19l-2-2.75a1.81,1.81,0,0,0,1.81-1.82V832.52a20,20,0,0,1,40,0Z" transform="translate(-551.27 -790.27)"/><path class="cls-4" d="M661.27,879.75a1.81,1.81,0,0,0-1.81-1.82v-1.82a5.45,5.45,0,0,0-10.9,0v1.82a1.83,1.83,0,0,0-1.82,1.82v1.81h-5.45v-3.63a1.8,1.8,0,0,0,1.82-1.82v-7.26a9.1,9.1,0,0,1,9.08-9.08h3.63a9.09,9.09,0,0,0,9.09,9.08,8.8,8.8,0,0,0,1.16-.08l.29,1.93a1.82,1.82,0,0,0-1.45,1.78v18.17a1.8,1.8,0,0,0,1.81,1.81v3.64h-5.45Z" transform="translate(-551.27 -790.27)"/><rect class="cls-3" x="88.21" y="102.19" width="7.27" height="3.63"/><path class="cls-3" d="M646.74,885.2v3.63h-10.9V887a1.82,1.82,0,0,1,1.82-1.81Z" transform="translate(-551.27 -790.27)"/><path class="cls-1" d="M641.29,832.52a23.62,23.62,0,0,1,47.23,0v21.23a1.82,1.82,0,1,1-3.63,0V832.52a20,20,0,0,0-40,0v21.23a1.82,1.82,0,1,1-3.63,0Z" transform="translate(-551.27 -790.27)"/><rect class="cls-3" x="66.41" y="62.23" width="5.45" height="10.9"/><polygon class="cls-3" points="62.78 97.17 67.11 105.82 62.78 105.82 62.78 97.17"/><path class="cls-3" d="M615.86,874.3a1.82,1.82,0,1,1,0,3.63H608.6a1.82,1.82,0,1,1,0-3.63Z" transform="translate(-551.27 -790.27)"/><rect class="cls-3" x="59.14" y="58.59" width="3.63" height="21.8"/><polygon class="cls-3" points="59.14 97.17 59.14 105.82 54.83 105.82 59.14 97.17"/><path class="cls-1" d="M613.51,840.32a1.87,1.87,0,0,0-2.57,0,1.81,1.81,0,0,1-2.56-2.57,5.6,5.6,0,0,1,7.71,0,1.84,1.84,0,0,1,0,2.57A1.81,1.81,0,0,1,613.51,840.32Z" transform="translate(-551.27 -790.27)"/><rect class="cls-3" x="50.06" y="62.23" width="5.45" height="10.9"/><path class="cls-1" d="M618.66,835.19a9.08,9.08,0,0,0-12.85,0l0,0a1.83,1.83,0,0,1-2.56,0,1.79,1.79,0,0,1,0-2.57,12.7,12.7,0,0,1,18,0,1.82,1.82,0,0,1-2.57,2.57Z" transform="translate(-551.27 -790.27)"/><path class="cls-3" d="M600.68,830.05a16.34,16.34,0,0,1,23.11,0,1.82,1.82,0,0,0,2.57-2.58,20,20,0,0,0-28.26,0,1.82,1.82,0,0,0,2.53,2.62Zm15.18,15.18H608.6a1.83,1.83,0,0,0-1.82,1.82v1.82h-7.27a1.81,1.81,0,0,0-1.81,1.81v14.54a1.8,1.8,0,0,0,1.81,1.81h7.27v4a5.43,5.43,0,0,0,1.82,10.56h.69L602,896.1h-6.15a1.82,1.82,0,0,0-1.82,1.81v7.27a1.81,1.81,0,0,0,1.82,1.81v2.34h-27.6V864a2.84,2.84,0,0,0-2.83-2.85h0v-5.66h0a2.83,2.83,0,0,0,2.83-2.84V807.29h96.63v1.62a23.62,23.62,0,0,0-23.62,23.61v21.23a1.83,1.83,0,0,0,1.82,1.82l2,2.75a12.75,12.75,0,0,0-5.62,10.53v7.26a1.81,1.81,0,0,0,1.82,1.82v3.63h-3.63a5.46,5.46,0,0,0-5.45,5.45v3.64a1.81,1.81,0,0,0,1.82,1.81h1.81v3.64h-13.4l-7.26-14.54h.68A5.43,5.43,0,0,0,617.68,871v-4h7.26a1.81,1.81,0,0,0,1.82-1.81V850.68a1.82,1.82,0,0,0-1.82-1.81h-7.26v-1.82A1.83,1.83,0,0,0,615.86,845.23Zm-10.05-10a9.08,9.08,0,0,1,12.85,0,1.82,1.82,0,0,0,2.57-2.57,12.7,12.7,0,0,0-18,0,1.79,1.79,0,0,0,0,2.57,1.83,1.83,0,0,0,2.56,0Zm5.13,5.13a1.87,1.87,0,0,1,2.57,0,1.81,1.81,0,0,0,2.58,0,1.84,1.84,0,0,0,0-2.57,5.6,5.6,0,0,0-7.71,0,1.81,1.81,0,0,0,2.56,2.57Z" transform="translate(-551.27 -790.27)"/><path class="cls-1" d="M617.68,863.4h5.45V852.5h-5.45Zm32.69,18.16V896.1h7.27V881.56ZM614,896.1h4.34L614,887.45Zm56.31-36.33v-.95a16.16,16.16,0,0,1-10.89,0v.95a5.45,5.45,0,1,0,10.89,0Zm-63.57,3.63V852.5h-5.45v10.9Zm1.82,10.9a1.82,1.82,0,1,0,0,3.63h7.26a1.82,1.82,0,1,0,0-3.63Zm74.47,0h-3.63v7.26h3.63Zm-72.66,13.15-4.31,8.65h4.31Zm0-38.58v21.8H614v-21.8Zm36.33,43.59h-7.27v3.64h7.27Zm-10.9-3.63h10.9V885.2h-9.08a1.82,1.82,0,0,0-1.82,1.81ZM654,874.3a1.82,1.82,0,0,0-1.82,1.81v1.82h3.63v-1.82A1.8,1.8,0,0,0,654,874.3Zm27.24-30.88a16.26,16.26,0,0,1-6.08,12.71h2.45a12.73,12.73,0,0,1,12.72,12.72v1.82h5.45a1.8,1.8,0,0,1,1.81,1.81V896.1h3.63a1.81,1.81,0,0,1,1.82,1.81v7.27a1.82,1.82,0,0,1-3.63,0v-5.45H597.7v5.45a1.82,1.82,0,0,1-3.64,0v-7.27a1.82,1.82,0,0,1,1.82-1.81H602l7.26-14.54h-.69A5.43,5.43,0,0,1,606.78,871v-4h-7.27a1.8,1.8,0,0,1-1.81-1.81V850.68a1.81,1.81,0,0,1,1.81-1.81h7.27v-1.82a1.83,1.83,0,0,1,1.82-1.82h7.26a1.83,1.83,0,0,1,1.82,1.82v1.82h7.26a1.82,1.82,0,0,1,1.82,1.81v14.54a1.81,1.81,0,0,1-1.82,1.81h-7.26v4a5.43,5.43,0,0,1-1.82,10.56h-.68l7.26,14.54h13.4v-3.64H634a1.81,1.81,0,0,1-1.82-1.81V887a5.46,5.46,0,0,1,5.45-5.45h9.08v-1.81a1.83,1.83,0,0,1,1.82-1.82v-1.82a5.45,5.45,0,0,1,10.9,0v1.82a1.81,1.81,0,0,1,1.81,1.82V896.1H694V874.3H686.7v9.08a1.8,1.8,0,0,1-1.81,1.82h-7.27a1.81,1.81,0,0,1-1.82-1.82V874.3h-7.26v16.35a1.82,1.82,0,0,1-3.63,0V872.48a1.82,1.82,0,0,1,1.45-1.78,2.19,2.19,0,0,1,.36,0h20v-1.82a9.09,9.09,0,0,0-9.08-9.08H674a9.08,9.08,0,0,1-7.92,9,8.8,8.8,0,0,1-1.16.08,9.09,9.09,0,0,1-9.09-9.08h-3.63a9.1,9.1,0,0,0-9.08,9.08v7.26a1.82,1.82,0,0,1-3.64,0v-7.26a12.77,12.77,0,0,1,12.72-12.72h2.47a16.28,16.28,0,0,1-6.1-12.71v-10.9a1.82,1.82,0,0,1,1.81-1.82h4.34l3.13-6.25a1.92,1.92,0,0,1,.67-.66,1.87,1.87,0,0,1,2.58.66l3.13,6.25h7.95a1.81,1.81,0,0,1,1.82,1.82,2,2,0,0,1-.3,1,1.86,1.86,0,0,1-1.52.8h-9.08a1.82,1.82,0,0,1-1.63-1l-2-4-2,4a1.81,1.81,0,0,1-1.64,1h-3.63v9.08a12.72,12.72,0,0,0,25.43,0v-9.08a1.63,1.63,0,0,1,.15-.7,1.81,1.81,0,0,1,3.48.7Z" transform="translate(-551.27 -790.27)"/><path class="cls-1" d="M626.36,827.47a1.82,1.82,0,0,1-2.57,2.58,16.34,16.34,0,0,0-23.11,0l0,0a1.82,1.82,0,0,1-2.53-2.62A20,20,0,0,1,626.36,827.47Z" transform="translate(-551.27 -790.27)"/></svg>