<svg id="圖層_1" data-name="圖層 1" xmlns="http://www.w3.org/2000/svg" viewBox="0 0 193.51 147.4"><defs><style>.cls-1{fill:#414143;}.cls-2{fill:#ececec;}.cls-3{fill:#fff;}.cls-4{fill:#dbc9b1;}.cls-5{fill:#ed9484;}</style></defs><title>live_13</title><path class="cls-1" d="M745,804.37v119a14.19,14.19,0,0,1-14.18,14.18H565.68a14.19,14.19,0,0,1-14.17-14.18v-119a14.18,14.18,0,0,1,14.17-14.17H730.84A14.19,14.19,0,0,1,745,804.37Zm-5.66,119v-119a8.52,8.52,0,0,0-8.52-8.5H565.68a8.51,8.51,0,0,0-8.5,8.5v119a8.52,8.52,0,0,0,8.5,8.52H730.84A8.53,8.53,0,0,0,739.36,923.42Z" transform="translate(-551.51 -790.2)"/><path class="cls-2" d="M739.36,804.37v119a8.53,8.53,0,0,1-8.52,8.52H565.68a8.52,8.52,0,0,1-8.5-8.52v-119a8.51,8.51,0,0,1,8.5-8.5H730.84A8.52,8.52,0,0,1,739.36,804.37Zm-5.68,107.72V804.37a2.84,2.84,0,0,0-2.84-2.84H565.68a2.83,2.83,0,0,0-2.83,2.84v48.19a2.82,2.82,0,0,0,2.81,2.83v5.67a2.83,2.83,0,0,0-2.81,2.83v48.2a2.83,2.83,0,0,0,2.83,2.83H730.84A2.84,2.84,0,0,0,733.68,912.09Zm.26,11.33a2.83,2.83,0,1,0-2.83,2.83A2.82,2.82,0,0,0,733.94,923.42Zm-11.35,0a2.83,2.83,0,1,0-2.83,2.83A2.82,2.82,0,0,0,722.59,923.42Z" transform="translate(-551.51 -790.2)"/><path class="cls-1" d="M565.66,855.39a2.82,2.82,0,0,1-2.81-2.83V804.37a2.83,2.83,0,0,1,2.83-2.84H730.84a2.84,2.84,0,0,1,2.84,2.84V912.09a2.84,2.84,0,0,1-2.84,2.83H565.68a2.83,2.83,0,0,1-2.83-2.83v-48.2a2.83,2.83,0,0,1,2.81-2.83h0a2.83,2.83,0,0,1,2.83,2.83v45.37H728V807.2H568.51v45.36a2.82,2.82,0,0,1-2.83,2.83Z" transform="translate(-551.51 -790.2)"/><circle class="cls-1" cx="179.6" cy="133.22" r="2.83"/><circle class="cls-1" cx="168.25" cy="133.22" r="2.83"/><rect class="cls-3" x="132.48" y="53.94" width="9.7" height="3.23"/><rect class="cls-3" x="132.48" y="47.46" width="9.7" height="3.25"/><path class="cls-3" d="M693.7,860.33H682.38v-3.24a1.61,1.61,0,0,0,1.62-1.61v-4.87h9.7Z" transform="translate(-551.51 -790.2)"/><path class="cls-4" d="M671.05,831.2a1.62,1.62,0,1,1-1.63,1.61A1.62,1.62,0,0,1,671.05,831.2Z" transform="translate(-551.51 -790.2)"/><path class="cls-1" d="M671.05,831.2a1.62,1.62,0,1,0,1.62,1.61A1.61,1.61,0,0,0,671.05,831.2ZM665.28,838l2.44-1.62a.94.94,0,0,1-.2-.2,4.85,4.85,0,1,1,6.86.2l2.42,1.6a1.62,1.62,0,0,1-1.8,2.7l-2.33-1.57v3.09l3.05,6.13a1.62,1.62,0,0,1-2.9,1.45l-1.77-3.58-1.8,3.58a1.62,1.62,0,1,1-2.9-1.45l3.07-6.13v-3.07l-2.34,1.57a1.65,1.65,0,0,1-2.25-.45A1.62,1.62,0,0,1,665.28,838Z" transform="translate(-551.51 -790.2)"/><rect class="cls-3" x="103.34" y="66.89" width="9.72" height="3.23"/><path class="cls-1" d="M663,884.61a1.63,1.63,0,1,1-1.62,1.61,1.56,1.56,0,0,1,.14-.63A1.6,1.6,0,0,1,663,884.61Z" transform="translate(-551.51 -790.2)"/><polygon class="cls-3" points="109.27 57.29 104.19 63.66 103.34 63.66 103.34 59.61 108.04 56.08 109.27 57.29"/><path class="cls-3" d="M659.72,813.38a1.63,1.63,0,1,1-1.64,1.62A1.63,1.63,0,0,1,659.72,813.38Z" transform="translate(-551.51 -790.2)"/><path class="cls-3" d="M728,909.26H663v-2a8.09,8.09,0,0,0,8.1-8.08v-3.25a1.63,1.63,0,0,0-1.63-1.62v-3.23a1.63,1.63,0,0,0,1.63-1.62v-3.25a11.37,11.37,0,0,0-11.33-11.33H650v-1.61a1.62,1.62,0,0,1,1.62-1.62h34a4.84,4.84,0,0,0,4.84-4.85v-3.23h4.87a1.64,1.64,0,0,0,1.62-1.64V836.05a1.63,1.63,0,0,0-1.62-1.62H684V823.1a1.62,1.62,0,0,0-1.62-1.62h-21v-1.91a4.86,4.86,0,0,0-1.61-9.44V807.2H728Z" transform="translate(-551.51 -790.2)"/><path class="cls-1" d="M659.72,883a1.63,1.63,0,1,1-1.64-1.62A1.63,1.63,0,0,1,659.72,883Z" transform="translate(-551.51 -790.2)"/><path class="cls-1" d="M658.08,887.86a1.62,1.62,0,1,1,0,3.23,1.56,1.56,0,0,1-1.13-.48,1.59,1.59,0,0,1-.48-1.14A1.61,1.61,0,0,1,658.08,887.86Z" transform="translate(-551.51 -790.2)"/><path class="cls-3" d="M621.51,831.2H601.44a1.6,1.6,0,0,0-1.62,1.61v22.67a1.6,1.6,0,0,0,1.62,1.61h9.72v3.24h-3.25a1.63,1.63,0,0,0,0,3.25h22.66a1.63,1.63,0,0,0,0-3.25h-3.23v-3.24h3.23a1.6,1.6,0,0,0,1.62-1.61h3.25a1.6,1.6,0,0,0,1.61,1.61h14.57v3.24h-6.48a1.63,1.63,0,0,0,0,3.25h29.14a1.63,1.63,0,0,0,0-3.25H667.8v-3.24h14.58v3.24a1.63,1.63,0,1,0,0,3.25h4.85v3.23a1.63,1.63,0,0,1-1.61,1.62h-34a4.84,4.84,0,0,0-4.85,4.85v1.61h-3.25a1.64,1.64,0,0,0-1.62,1.64h-3.23a1.64,1.64,0,0,0-1.63-1.64,11.35,11.35,0,0,0-11.32,11.33v13a8.08,8.08,0,0,0,8.08,8.08v2H568.51V863.89a2.83,2.83,0,0,0-2.83-2.83h0v-5.67h0a2.82,2.82,0,0,0,2.83-2.83V807.2h50.73v2.95a17.66,17.66,0,0,0-12.58,5.22,1.61,1.61,0,0,0,2.28,2.28,14.52,14.52,0,0,1,11.62-4.2l-.24,3.22a11.34,11.34,0,0,0-9.1,3.28,1.66,1.66,0,0,0-.48,1.15,1.64,1.64,0,0,0,.45,1.13,1.59,1.59,0,0,0,2.28,0,.07.07,0,0,0,0,0,8.11,8.11,0,0,1,6.32-2.35l-.13,3.25a4.83,4.83,0,0,0-3.9,1.4,1.6,1.6,0,0,0,.05,2.28,1.63,1.63,0,0,0,2.25,0,1.61,1.61,0,0,1,2.28,0,1.6,1.6,0,0,0,1.12.45Z" transform="translate(-551.51 -790.2)"/><path class="cls-3" d="M651.62,849v4.86h-6.48V849a1.63,1.63,0,0,1,1.63-1.62H650A1.63,1.63,0,0,1,651.62,849Z" transform="translate(-551.51 -790.2)"/><path class="cls-4" d="M648.39,837.66a3.25,3.25,0,1,1-3.25,3.25A3.24,3.24,0,0,1,648.39,837.66Z" transform="translate(-551.51 -790.2)"/><path class="cls-1" d="M650,828a1.62,1.62,0,0,1,0,3.24h-3.23a1.62,1.62,0,1,1,0-3.24Z" transform="translate(-551.51 -790.2)"/><path class="cls-3" d="M664.83,840.2a1.65,1.65,0,0,0,2.25.45l2.34-1.57v3.07l-3.07,6.13a1.62,1.62,0,1,0,2.9,1.45l1.8-3.58,1.77,3.58a1.62,1.62,0,0,0,2.9-1.45l-3.05-6.13v-3.09l2.33,1.57a1.62,1.62,0,0,0,1.8-2.7l-2.42-1.6a4.86,4.86,0,1,0-6.86-.2.94.94,0,0,0,.2.2L665.28,838A1.62,1.62,0,0,0,664.83,840.2ZM650,828h-3.23a1.62,1.62,0,1,0,0,3.24H650a1.62,1.62,0,0,0,0-3.24Zm-11.33,25.9V824.71h42.08v29.15H659.83l4.39-5.46a1.62,1.62,0,0,0-.12-2.15L660.85,843a1.62,1.62,0,0,0-2.12-.15l-4.66,3.51a5.14,5.14,0,0,0-1-1.06,6.47,6.47,0,1,0-9.45,0,4.8,4.8,0,0,0-1.75,3.7v4.86Z" transform="translate(-551.51 -790.2)"/><path class="cls-3" d="M654.85,899.19a8.09,8.09,0,0,0,8.1,8.08v2H633.8v-2a8.09,8.09,0,0,0,8.1-8.08v-2.73a11.12,11.12,0,0,0,5.37-5.37h2.22a11.31,11.31,0,0,0,5.36,5.37Z" transform="translate(-551.51 -790.2)"/><path class="cls-1" d="M638.67,887.86v1.61a1.62,1.62,0,1,1-3.23,0v-1.61H633.8a1.63,1.63,0,0,1,0-3.25h1.64V883a1.62,1.62,0,0,1,1.28-1.58,2,2,0,0,1,.33,0,1.63,1.63,0,0,1,1.62,1.62v1.62h1.62a1.63,1.63,0,0,1,0,3.25Z" transform="translate(-551.51 -790.2)"/><path class="cls-1" d="M684,847.38h9.7v-3.23H684Zm0-9.72v3.25h9.7v-3.25Zm-23.22,9.84-1.23-1.22-4.7,3.53v4.05h.85Zm-1.06-30.87a1.63,1.63,0,0,0,0-3.25,1.63,1.63,0,1,0,0,3.25Zm4.85,43.7v-3.24h-9.72v3.24ZM641.9,849a4.8,4.8,0,0,1,1.75-3.7,6.47,6.47,0,1,1,9.45,0,5.14,5.14,0,0,1,1,1.06l4.66-3.51a1.62,1.62,0,0,1,2.12.15l3.25,3.25a1.62,1.62,0,0,1,.12,2.15l-4.39,5.46h20.92V824.71H638.67v29.15h3.23Zm6.49-11.34a3.25,3.25,0,1,0,3.23,3.25A3.24,3.24,0,0,0,648.39,837.66Zm-1.62,9.72a1.63,1.63,0,0,0-1.63,1.62v4.86h6.48V849a1.63,1.63,0,0,0-1.62-1.62Zm-9.72-25.9h21v-1.91a4.86,4.86,0,0,1,0-9.15,4.73,4.73,0,0,1,1.64-.29,4.86,4.86,0,0,1,1.61,9.44v1.91h21A1.62,1.62,0,0,1,684,823.1v11.33h11.33a1.63,1.63,0,0,1,1.62,1.62v25.89a1.64,1.64,0,0,1-1.62,1.64h-4.87v3.23a4.84,4.84,0,0,1-4.84,4.85h-34a1.62,1.62,0,0,0-1.62,1.62v1.61h9.72a11.37,11.37,0,0,1,11.33,11.33v3.25a1.63,1.63,0,0,1-3.25,0v-3.25a8.08,8.08,0,0,0-8.08-8.08h-16.2a1.63,1.63,0,0,1,0-3.25h3.25v-1.61a4.84,4.84,0,0,1,4.85-4.85h34a1.63,1.63,0,0,0,1.61-1.62v-3.23h-4.85a1.63,1.63,0,1,1,0-3.25H693.7v-9.72H684v4.87a1.61,1.61,0,0,1-1.62,1.61H667.8v3.24h6.48a1.63,1.63,0,0,1,0,3.25H645.14a1.63,1.63,0,0,1,0-3.25h6.48v-3.24H637.05a1.6,1.6,0,0,1-1.61-1.61V823.1A1.6,1.6,0,0,1,637.05,821.48Z" transform="translate(-551.51 -790.2)"/><path class="cls-3" d="M633.8,884.61a1.62,1.62,0,0,0-1.61,1.61H629a8.08,8.08,0,0,1,7.64-8.06l.13,3.25a1.62,1.62,0,0,0-1.28,1.58v1.62Z" transform="translate(-551.51 -790.2)"/><path class="cls-3" d="M629,899.19v-13h3.24a1.63,1.63,0,0,0,1.61,1.64h1.64v1.61a1.61,1.61,0,0,0,1.61,1.62l2.25,3a1.65,1.65,0,0,0-.63,1.28v3.82a4.86,4.86,0,0,1-9.72,0Z" transform="translate(-551.51 -790.2)"/><path class="cls-3" d="M630.57,831.2h-9.06v-3.94a1.62,1.62,0,0,0,1.16-2.73,4.8,4.8,0,0,0-3-1.4l.13-3.25a8,8,0,0,1,5.12,2.35,1.64,1.64,0,0,0,1.15.48,1.61,1.61,0,0,0,1.61-1.63,1.66,1.66,0,0,0-.46-1.13,11.39,11.39,0,0,0-6.94-3.28l.24-3.22a14.43,14.43,0,0,1,9,4.2,1.62,1.62,0,0,0,2.3-2.28,17.76,17.76,0,0,0-12.6-5.22V807.2h40.48v2.93a4.73,4.73,0,0,0-1.64.29,4.86,4.86,0,0,0,0,9.15v1.91h-21a1.6,1.6,0,0,0-1.61,1.62v9.71h-3.25A1.6,1.6,0,0,0,630.57,831.2Z" transform="translate(-551.51 -790.2)"/><path class="cls-1" d="M629,886.22v13a4.86,4.86,0,0,0,9.72,0v-3.82a1.65,1.65,0,0,1,.63-1.28,1.69,1.69,0,0,1,.44-.23,8.08,8.08,0,0,0,4.93-4.94,1.61,1.61,0,0,1,1.52-1.06h4.38a1.63,1.63,0,0,1,1.52,1.06,8,8,0,0,0,1.31,2.37,8.23,8.23,0,0,0,3.62,2.57,1.58,1.58,0,0,1,1.06,1.51v3.82a4.86,4.86,0,0,0,9.72,0v-3.25a1.63,1.63,0,0,1,3.25,0v3.25a8.1,8.1,0,0,1-16.2,0v-2.73a11.31,11.31,0,0,1-5.36-5.37h-2.22a11.12,11.12,0,0,1-5.37,5.37v2.73a8.09,8.09,0,0,1-16.18,0v-13A11.35,11.35,0,0,1,637,874.89a1.63,1.63,0,1,1,0,3.25,3.39,3.39,0,0,0-.45,0A8.08,8.08,0,0,0,629,886.22Z" transform="translate(-551.51 -790.2)"/><rect class="cls-3" x="62.88" y="66.89" width="9.72" height="3.23"/><polygon class="cls-3" points="68.96 53.94 64.49 56.18 64.49 51.71 68.96 53.94"/><path class="cls-1" d="M622.67,824.53a1.62,1.62,0,0,1-1.16,2.73,1.6,1.6,0,0,1-1.12-.45,1.61,1.61,0,0,0-2.28,0,1.63,1.63,0,0,1-2.25,0,1.6,1.6,0,0,1-.05-2.28,4.85,4.85,0,0,1,6.86,0Z" transform="translate(-551.51 -790.2)"/><path class="cls-1" d="M616,846.38l4.46-2.23L616,841.91Zm8.81-3.68a1.61,1.61,0,0,1,0,2.9l-9.71,4.85a1.44,1.44,0,0,1-.64.16h-.08a1.6,1.6,0,0,1-1.62-1.61v-9.7a1.58,1.58,0,0,1,.17-.74,1.6,1.6,0,0,1,1.43-.88,1.63,1.63,0,0,1,.74.17Z" transform="translate(-551.51 -790.2)"/><path class="cls-5" d="M614.37,834.43h16.2a1.61,1.61,0,0,0,1.62-1.62h3.25v22.67h-3.25a1.61,1.61,0,0,0-1.62-1.62h-16.1v-3.25a1.44,1.44,0,0,0,.64-.16l9.71-4.85a1.61,1.61,0,0,0,0-2.9l-9.71-4.85a1.63,1.63,0,0,0-.74-.17Z" transform="translate(-551.51 -790.2)"/><path class="cls-1" d="M611.22,820a11.32,11.32,0,0,1,16,0,1.66,1.66,0,0,1,.46,1.13,1.61,1.61,0,0,1-1.61,1.63,1.64,1.64,0,0,1-1.15-.48,8,8,0,0,0-5.12-2.35,8.11,8.11,0,0,0-6.32,2.35.07.07,0,0,1,0,0,1.59,1.59,0,0,1-2.28,0,1.64,1.64,0,0,1-.45-1.13A1.66,1.66,0,0,1,611.22,820Z" transform="translate(-551.51 -790.2)"/><path class="cls-5" d="M614.47,853.86H603.06V834.43h11.31v3.25a1.6,1.6,0,0,0-1.43.88,1.58,1.58,0,0,0-.17.74V849a1.6,1.6,0,0,0,1.62,1.61h.08Z" transform="translate(-551.51 -790.2)"/><path class="cls-1" d="M619.24,810.15a17.76,17.76,0,0,1,12.6,5.22,1.62,1.62,0,0,1-2.3,2.28,14.58,14.58,0,0,0-20.6,0,1.61,1.61,0,0,1-2.28-2.28A17.66,17.66,0,0,1,619.24,810.15Z" transform="translate(-551.51 -790.2)"/><path class="cls-1" d="M614.39,857.09v3.24h9.72v-3.24Zm-11.33-3.23h27.51a1.62,1.62,0,1,1,0,3.23h-3.23v3.24h3.23a1.63,1.63,0,0,1,0,3.25H607.91a1.63,1.63,0,0,1,0-3.25h3.25v-3.24h-9.72a1.6,1.6,0,0,1-1.62-1.61V832.81a1.6,1.6,0,0,1,1.62-1.61h29.13a1.62,1.62,0,1,1,0,3.23H603.06Z" transform="translate(-551.51 -790.2)"/></svg>