<svg id="圖層_1" data-name="圖層 1" xmlns="http://www.w3.org/2000/svg" viewBox="0 0 193.51 147.4"><defs><style>.cls-1{fill:#414143;}.cls-2{fill:#dbc9b1;}.cls-3{fill:#fff;}.cls-4{fill:#8691c9;}.cls-5{fill:#ed9484;}</style></defs><title>live_17</title><path class="cls-1" d="M744.51,804.73v119A14.18,14.18,0,0,1,730.34,938H565.18A14.19,14.19,0,0,1,551,923.78v-119a14.2,14.2,0,0,1,14.19-14.18H730.34A14.19,14.19,0,0,1,744.51,804.73Zm-5.67,119v-119a8.52,8.52,0,0,0-8.5-8.52H565.18a8.53,8.53,0,0,0-8.52,8.52v119a8.52,8.52,0,0,0,8.52,8.5H730.34A8.52,8.52,0,0,0,738.84,923.78Z" transform="translate(-550.99 -790.55)"/><path class="cls-2" d="M738.84,804.73v119a8.52,8.52,0,0,1-8.5,8.5H565.18a8.52,8.52,0,0,1-8.52-8.5v-119a8.53,8.53,0,0,1,8.52-8.52H730.34A8.52,8.52,0,0,1,738.84,804.73Zm-5.67,107.7V804.73a2.84,2.84,0,0,0-2.83-2.85H565.18a2.85,2.85,0,0,0-2.84,2.85V852.9a2.83,2.83,0,0,0,2.82,2.84v5.68a2.83,2.83,0,0,0-2.82,2.83v48.18a2.85,2.85,0,0,0,2.84,2.85H730.34A2.84,2.84,0,0,0,733.17,912.43Zm.27,11.33a2.84,2.84,0,1,0-2.85,2.84A2.84,2.84,0,0,0,733.44,923.76Zm-11.35,0a2.83,2.83,0,1,0-2.83,2.84A2.83,2.83,0,0,0,722.09,923.76Z" transform="translate(-550.99 -790.55)"/><path class="cls-1" d="M565.16,855.74a2.83,2.83,0,0,1-2.82-2.84V804.73a2.85,2.85,0,0,1,2.84-2.85H730.34a2.84,2.84,0,0,1,2.83,2.85v107.7a2.84,2.84,0,0,1-2.83,2.85H565.18a2.85,2.85,0,0,1-2.84-2.85V864.25a2.83,2.83,0,0,1,2.82-2.83h0a2.83,2.83,0,0,1,2.83,2.83V909.6h159.5v-102H568V852.9a2.84,2.84,0,0,1-2.83,2.84Z" transform="translate(-550.99 -790.55)"/><path class="cls-1" d="M730.59,920.93a2.84,2.84,0,1,1-2.83,2.83A2.84,2.84,0,0,1,730.59,920.93Z" transform="translate(-550.99 -790.55)"/><path class="cls-3" d="M727.51,807.56v102H680.25v-4.48a7.86,7.86,0,0,0,7.85-7.85v-9.42a1.57,1.57,0,0,0-1.57-1.57v-3.13a1.57,1.57,0,0,0,1.57-1.57V818.81a7.87,7.87,0,0,0-7.85-7.85v-3.4Z" transform="translate(-550.99 -790.55)"/><circle class="cls-1" cx="168.26" cy="133.22" r="2.83"/><rect class="cls-3" x="129.25" y="48.66" width="4.72" height="12.57"/><path class="cls-4" d="M677.11,839.21v12.56a1.56,1.56,0,0,1-1.56,1.57H674v-15.7h1.57A1.56,1.56,0,0,1,677.11,839.21Z" transform="translate(-550.99 -790.55)"/><path class="cls-1" d="M672.41,878.44v3.14h4.7a1.57,1.57,0,1,1,0,3.14h-4.7v3.13h4.7a1.58,1.58,0,0,1,0,3.15h-6.28a1.57,1.57,0,0,1-1.57-1.57V876.87a1.57,1.57,0,0,1,1.57-1.57h6.28a1.57,1.57,0,0,1,0,3.14Z" transform="translate(-550.99 -790.55)"/><rect class="cls-5" x="107.29" y="59.64" width="12.55" height="3.15"/><path class="cls-5" d="M667.7,842.36a1.58,1.58,0,0,0-1.57-1.59h-7.85v-3.13h12.55v9.42H658.28v-3.14h7.85A1.56,1.56,0,0,0,667.7,842.36Z" transform="translate(-550.99 -790.55)"/><path class="cls-1" d="M653.68,877.42a1.56,1.56,0,0,1,.92-2,1.58,1.58,0,0,1,2,.92l3.23,8.63,3.25-8.63a1.56,1.56,0,1,1,2.93,1.1L661.33,890a1.65,1.65,0,0,1-.93.92,1.58,1.58,0,0,1-2-.92Z" transform="translate(-550.99 -790.55)"/><path class="cls-4" d="M655.15,837.26v16.46l-18.83,5.38V848.62a1.56,1.56,0,0,0-1.57-1.56v-3.14a1.56,1.56,0,0,0,1.57-1.56V831.87Z" transform="translate(-550.99 -790.55)"/><path class="cls-3" d="M669.26,876.87v12.56a1.57,1.57,0,0,0,1.57,1.57h6.28a1.58,1.58,0,0,0,0-3.15h-4.7v-3.13h4.7a1.57,1.57,0,1,0,0-3.14h-4.7v-3.14h4.7a1.57,1.57,0,0,0,0-3.14h-6.28A1.57,1.57,0,0,0,669.26,876.87Zm-3.13-15.68a1.57,1.57,0,1,0-3.13,0v4.7h-3.15v-9.42h15.7a4.69,4.69,0,0,0,4.7-4.7H685v29.81a1.57,1.57,0,0,0,1.57,1.57v3.13a1.57,1.57,0,0,0-1.57,1.57v9.42a4.71,4.71,0,0,1-4.71,4.71H633.17a4.7,4.7,0,0,1-4.7-4.71V861.19h4.7a1.57,1.57,0,0,0,1.58,1.56,1.35,1.35,0,0,0,.43-.06l21.54-6.15v10.91a1.56,1.56,0,0,0,1.56,1.57h6.28a1.57,1.57,0,0,0,1.57-1.57ZM654.6,875.4a1.56,1.56,0,0,0-.92,2l4.7,12.56a1.58,1.58,0,0,0,2,.92,1.65,1.65,0,0,0,.93-.92l4.7-12.56a1.56,1.56,0,1,0-2.93-1.1L659.85,885l-3.23-8.63A1.58,1.58,0,0,0,654.6,875.4Zm-10.43,14a1.6,1.6,0,0,0-1.59-1.58h-4.7v-11a1.57,1.57,0,1,0-3.13,0v12.56a1.57,1.57,0,0,0,1.57,1.57h6.26A1.58,1.58,0,0,0,644.17,889.43Zm6.26-12.56a1.57,1.57,0,1,0-3.13,0v12.56a1.57,1.57,0,1,0,3.13,0Z" transform="translate(-550.99 -790.55)"/><path class="cls-1" d="M650.43,876.87v12.56a1.57,1.57,0,1,1-3.13,0V876.87a1.57,1.57,0,1,1,3.13,0Z" transform="translate(-550.99 -790.55)"/><circle class="cls-1" cx="90.02" cy="29.83" r="1.57"/><path class="cls-1" d="M642.58,891h-6.26a1.57,1.57,0,0,1-1.57-1.57V876.87a1.57,1.57,0,1,1,3.13,0v11h4.7a1.58,1.58,0,1,1,0,3.15Z" transform="translate(-550.99 -790.55)"/><path class="cls-1" d="M658.28,853.34h12.55v-3.15H658.28Zm12.55-15.7H658.28v3.13h7.85a1.58,1.58,0,0,1,1.57,1.59,1.56,1.56,0,0,1-1.57,1.56h-7.85v3.14h12.55Zm3.15,0v15.7h1.57a1.56,1.56,0,0,0,1.56-1.57V839.21a1.56,1.56,0,0,0-1.56-1.57Zm-17.26,18.9-21.54,6.15a1.35,1.35,0,0,1-.43.06,1.57,1.57,0,0,1-1.58-1.56V848.62a1.58,1.58,0,0,1,3.15,0V859.1l18.83-5.38V837.26l-18.83-5.39v10.49a1.58,1.58,0,0,1-3.15,0V829.79a2.12,2.12,0,0,1,.06-.43,1.56,1.56,0,0,1,1.95-1.07l21.75,6.22h18.62a4.69,4.69,0,0,1,4.7,4.7v12.56a4.69,4.69,0,0,1-4.7,4.7h-15.7v9.42H663v-4.7a1.57,1.57,0,1,1,3.13,0v6.26a1.57,1.57,0,0,1-1.57,1.57h-6.28a1.56,1.56,0,0,1-1.56-1.57Z" transform="translate(-550.99 -790.55)"/><path class="cls-1" d="M634.75,818.81a1.57,1.57,0,1,1-1.58,1.57A1.57,1.57,0,0,1,634.75,818.81Z" transform="translate(-550.99 -790.55)"/><path class="cls-3" d="M639.45,820.38a1.57,1.57,0,1,0,1.57-1.57A1.56,1.56,0,0,0,639.45,820.38Zm-3.13,0a1.58,1.58,0,1,0-1.57,1.56A1.57,1.57,0,0,0,636.32,820.38Zm-3.15-6.27h47.08a4.7,4.7,0,0,1,4.71,4.7v20.4h-4.71a4.69,4.69,0,0,0-4.7-4.7H656.93l-21.75-6.22a1.56,1.56,0,0,0-1.95,1.07,2.12,2.12,0,0,0-.06.43h-4.7v-11A4.69,4.69,0,0,1,633.17,814.11Z" transform="translate(-550.99 -790.55)"/><rect class="cls-3" x="77.47" y="58.08" width="4.7" height="12.57"/><rect class="cls-3" x="77.47" y="39.25" width="4.7" height="12.57"/><path class="cls-1" d="M688.1,897.27a7.86,7.86,0,0,1-7.85,7.85H633.17a7.85,7.85,0,0,1-7.83-7.85V848.62a1.57,1.57,0,0,1,3.13,0v48.65a4.7,4.7,0,0,0,4.7,4.71h47.08a4.71,4.71,0,0,0,4.71-4.71v-9.42a1.57,1.57,0,1,1,3.14,0Z" transform="translate(-550.99 -790.55)"/><path class="cls-1" d="M680.25,814.11H633.17a4.69,4.69,0,0,0-4.7,4.7v23.55a1.57,1.57,0,0,1-3.13,0V818.81a7.86,7.86,0,0,1,7.83-7.85h47.08a7.87,7.87,0,0,1,7.85,7.85v62.77a1.57,1.57,0,1,1-3.14,0V818.81A4.7,4.7,0,0,0,680.25,814.11Z" transform="translate(-550.99 -790.55)"/><path class="cls-1" d="M622.65,844.37a1.58,1.58,0,0,0,0,2.22l0,0a1.57,1.57,0,1,1-2.25,2.18,4.69,4.69,0,0,1,0-6.66,1.56,1.56,0,1,1,2.21,2.21Z" transform="translate(-550.99 -790.55)"/><path class="cls-1" d="M616,853.25a11,11,0,0,1,0-15.53,1.56,1.56,0,0,1,2.21,0h0a1.58,1.58,0,0,1,0,2.22,7.88,7.88,0,0,0,0,11.1l0,0a1.56,1.56,0,0,1,0,2.22,1.53,1.53,0,0,1-2.21,0Z" transform="translate(-550.99 -790.55)"/><path class="cls-3" d="M618.2,851a7.88,7.88,0,0,1,0-11.1,1.58,1.58,0,0,0,0-2.22h0a1.56,1.56,0,0,0-2.21,0,11,11,0,0,0,0,15.53,1.57,1.57,0,0,0,2.26-2.18Zm4.45-8.88a1.55,1.55,0,0,0-2.21,0,4.69,4.69,0,0,0,0,6.66,1.57,1.57,0,1,0,2.25-2.18l0,0a1.58,1.58,0,0,1,0-2.22A1.55,1.55,0,0,0,622.65,842.16Zm2.69.2a1.57,1.57,0,0,0,3.13,0h4.7a1.57,1.57,0,0,0,1.58,1.56v3.14a1.57,1.57,0,0,0-1.58,1.56h-4.7a1.57,1.57,0,0,0-3.13,0v48.65a7.85,7.85,0,0,0,7.83,7.85h47.08v4.48H568V864.25a2.83,2.83,0,0,0-2.83-2.83h0v-5.68h0A2.84,2.84,0,0,0,568,852.9V807.56H680.25V811H633.17a7.86,7.86,0,0,0-7.83,7.85Zm-11.57,13.11a14.14,14.14,0,0,1,0-20,1.58,1.58,0,0,0-2.22-2.24,17.29,17.29,0,0,0,0,24.42,1.57,1.57,0,0,0,2.22-2.22Z" transform="translate(-550.99 -790.55)"/><path class="cls-1" d="M613.77,855.47a1.57,1.57,0,0,1-2.22,2.22,17.29,17.29,0,0,1,0-24.42,1.58,1.58,0,0,1,2.22,2.24A14.14,14.14,0,0,0,613.77,855.47Z" transform="translate(-550.99 -790.55)"/></svg>