<svg id="圖層_1" data-name="圖層 1" xmlns="http://www.w3.org/2000/svg" viewBox="0 0 193.51 147.42"><defs><style>.cls-1{fill:#414143;}.cls-2{fill:#8691c9;}.cls-3{fill:#fff;}</style></defs><title>live_19</title><path class="cls-1" d="M839.49,830.7v119a14.2,14.2,0,0,1-14.18,14.19H660.15A14.19,14.19,0,0,1,646,949.75v-119a14.19,14.19,0,0,1,14.17-14.18H825.31A14.19,14.19,0,0,1,839.49,830.7Zm-5.66,119v-119a8.52,8.52,0,0,0-8.52-8.5H660.15a8.52,8.52,0,0,0-8.5,8.5v119a8.51,8.51,0,0,0,8.5,8.5H825.31A8.51,8.51,0,0,0,833.83,949.75Z" transform="translate(-645.98 -816.52)"/><path class="cls-2" d="M833.83,830.7v119a8.51,8.51,0,0,1-8.52,8.5H660.15a8.51,8.51,0,0,1-8.5-8.5v-119a8.52,8.52,0,0,1,8.5-8.5H825.31A8.52,8.52,0,0,1,833.83,830.7Zm-5.68,107.72V830.7a2.83,2.83,0,0,0-2.84-2.83H660.15a2.82,2.82,0,0,0-2.83,2.83v48.2a2.83,2.83,0,0,0,2.81,2.83v5.66a2.83,2.83,0,0,0-2.81,2.84v48.19a2.82,2.82,0,0,0,2.83,2.83H825.31A2.83,2.83,0,0,0,828.15,938.42Zm.26,11.33a2.83,2.83,0,1,0-2.83,2.84A2.84,2.84,0,0,0,828.41,949.75Zm-11.35,0a2.83,2.83,0,1,0-2.83,2.84A2.84,2.84,0,0,0,817.06,949.75Z" transform="translate(-645.98 -816.52)"/><path class="cls-1" d="M660.13,887.39h0a2.84,2.84,0,0,1,2.83,2.84v45.36h159.5V833.53H663V878.9a2.83,2.83,0,0,1-2.83,2.83h0a2.83,2.83,0,0,1-2.81-2.83V830.7a2.82,2.82,0,0,1,2.83-2.83H825.31a2.83,2.83,0,0,1,2.84,2.83V938.42a2.83,2.83,0,0,1-2.84,2.83H660.15a2.82,2.82,0,0,1-2.83-2.83V890.23A2.83,2.83,0,0,1,660.13,887.39Z" transform="translate(-645.98 -816.52)"/><path class="cls-1" d="M825.58,946.9a2.85,2.85,0,1,1-2.83,2.85A2.84,2.84,0,0,1,825.58,946.9Z" transform="translate(-645.98 -816.52)"/><path class="cls-1" d="M814.23,946.9a2.85,2.85,0,1,1-2.83,2.85A2.84,2.84,0,0,1,814.23,946.9Z" transform="translate(-645.98 -816.52)"/><path class="cls-1" d="M798.82,928.64v-30.8h-9.64a1.93,1.93,0,0,1,0-3.85h11.57a1.92,1.92,0,0,1,1.92,1.92v34.66a1.92,1.92,0,0,1-1.92,1.92H729.51a1.93,1.93,0,1,1,0-3.85Z" transform="translate(-645.98 -816.52)"/><path class="cls-1" d="M785.33,907.46v3.86h5.79a1.93,1.93,0,0,1,0,3.85h-5.79V919h5.79a1.93,1.93,0,0,1,0,3.85h-7.7a1.93,1.93,0,0,1-1.94-1.93v-15.4a1.94,1.94,0,0,1,1.94-1.93h7.7a1.93,1.93,0,0,1,0,3.85Z" transform="translate(-645.98 -816.52)"/><path class="cls-1" d="M777.63,863.18a23.14,23.14,0,0,1,23.12,23.11,1.93,1.93,0,0,1-3.85,0A19.3,19.3,0,0,0,777.63,867a1.93,1.93,0,0,1,0-3.85Z" transform="translate(-645.98 -816.52)"/><path class="cls-1" d="M777.63,870.88A15.42,15.42,0,0,1,793,886.29a1.92,1.92,0,0,1-1.91,1.92,1.94,1.94,0,0,1-1.94-1.92,11.56,11.56,0,0,0-11.55-11.56,1.93,1.93,0,0,1,0-3.85Z" transform="translate(-645.98 -816.52)"/><path class="cls-1" d="M777.63,882.44a1.92,1.92,0,0,1,0-3.84,7.69,7.69,0,0,1,7.7,7.69,1.92,1.92,0,0,1-1.91,1.92,1.94,1.94,0,0,1-1.94-1.92A3.84,3.84,0,0,0,777.63,882.44Z" transform="translate(-645.98 -816.52)"/><path class="cls-1" d="M769.94,915.46l4-10.6a1.94,1.94,0,0,1,3.62,1.37l-5.78,15.39a1.92,1.92,0,0,1-3.6,0l-5.79-15.39a1.93,1.93,0,1,1,3.62-1.35Z" transform="translate(-645.98 -816.52)"/><path class="cls-1" d="M758.39,905.54v15.4a1.93,1.93,0,1,1-3.85,0v-15.4a1.93,1.93,0,1,1,3.85,0Z" transform="translate(-645.98 -816.52)"/><rect class="cls-3" x="100.86" y="52.44" width="11.55" height="3.85"/><path class="cls-3" d="M756.45,882.44a1.93,1.93,0,1,1-1.91,1.92A1.92,1.92,0,0,1,756.45,882.44Z" transform="translate(-645.98 -816.52)"/><path class="cls-3" d="M754.65,849.72l-1,1.66a1.94,1.94,0,0,1-2.64.7l-5-2.88,1.93-3.33Z" transform="translate(-645.98 -816.52)"/><path class="cls-3" d="M744.66,843.93l-5,8.65a5.36,5.36,0,0,0-1.49-1.28,5.78,5.78,0,1,0,2.12,7.9l3.85-6.67,5,2.88a5.79,5.79,0,0,0,7.9-2.11L759,850a1.92,1.92,0,0,0-.72-2.63l-8.33-4.81a3.85,3.85,0,0,0-5.26,1.4Zm33,34.67a1.92,1.92,0,0,0,0,3.84,3.84,3.84,0,0,1,3.85,3.85,1.94,1.94,0,0,0,1.94,1.92,1.92,1.92,0,0,0,1.91-1.92A7.69,7.69,0,0,0,777.63,878.6Zm0-11.57a19.3,19.3,0,0,1,19.27,19.26,1.93,1.93,0,0,0,3.85,0,23.14,23.14,0,0,0-23.12-23.11,1.93,1.93,0,0,0,0,3.85Zm-53.91-23.1a1.93,1.93,0,1,0,0-3.85h-4.2a5.75,5.75,0,0,0-5.41-3.85v-2.7H822.48V935.59H800.75v-3.1a1.92,1.92,0,0,0,1.92-1.92V895.91a1.92,1.92,0,0,0-1.92-1.92H789.18a1.91,1.91,0,0,0-1.91,1.92h-3.85a1.92,1.92,0,0,0-1.94-1.92H729.06a18.86,18.86,0,0,0-12-21.86l-.9-17a5.74,5.74,0,0,0,3.41-3.47h4.2a1.93,1.93,0,1,0,0-3.85h-3.85v-3.85ZM793,886.29a15.42,15.42,0,0,0-15.4-15.41,1.93,1.93,0,0,0,0,3.85,11.56,11.56,0,0,1,11.55,11.56,1.94,1.94,0,0,0,1.94,1.92A1.92,1.92,0,0,0,793,886.29Zm-36.58-7.69a5.77,5.77,0,1,0,5.79,5.76V867a1.94,1.94,0,0,0-1.94-1.92H744.91A1.92,1.92,0,0,0,743,867V879a5.32,5.32,0,0,0-1.93-.35,5.77,5.77,0,1,0,5.78,5.76v-7.7h11.55V879A5.33,5.33,0,0,0,756.45,878.6Z" transform="translate(-645.98 -816.52)"/><path class="cls-3" d="M741.06,882.44a1.93,1.93,0,1,1-1.92,1.92A1.92,1.92,0,0,1,741.06,882.44Z" transform="translate(-645.98 -816.52)"/><path class="cls-1" d="M743,919h5.76a1.93,1.93,0,1,1,0,3.85h-7.69a1.92,1.92,0,0,1-1.92-1.93v-15.4a1.93,1.93,0,1,1,3.85,0Z" transform="translate(-645.98 -816.52)"/><path class="cls-1" d="M756.45,882.44a1.93,1.93,0,0,0,0,3.85,1.93,1.93,0,1,0,0-3.85Zm-9.61-9.63h11.55V869H746.84Zm-7.7,11.55a1.93,1.93,0,1,0,1.92-1.92A1.92,1.92,0,0,0,739.14,884.36Zm-3.85,0a5.76,5.76,0,0,1,5.77-5.76A5.32,5.32,0,0,1,743,879V867a1.92,1.92,0,0,1,1.92-1.92H760.3a1.94,1.94,0,0,1,1.94,1.92v17.33a5.78,5.78,0,1,1-5.79-5.76,5.33,5.33,0,0,1,1.94.35v-2.29H746.84v7.7a5.78,5.78,0,1,1-11.55,0Z" transform="translate(-645.98 -816.52)"/><path class="cls-3" d="M737.21,856.31a1.92,1.92,0,0,1-.25,1,1.93,1.93,0,1,1-3.35-1.9h0a1.92,1.92,0,0,1,3.59,1Z" transform="translate(-645.98 -816.52)"/><path class="cls-1" d="M740.29,859.2a5.78,5.78,0,1,1-2.12-7.9,5.36,5.36,0,0,1,1.49,1.28l5-8.65h0a3.85,3.85,0,0,1,5.26-1.4l8.33,4.81A1.92,1.92,0,0,1,759,850L757,853.3a5.79,5.79,0,0,1-7.9,2.11l-5-2.88Zm10.76-7.12a1.94,1.94,0,0,0,2.64-.7l1-1.66L748,845.87l-1.93,3.33ZM737,857.26a1.92,1.92,0,1,0-3.34-1.91h0a1.93,1.93,0,1,0,3.35,1.9Z" transform="translate(-645.98 -816.52)"/><path class="cls-3" d="M758.39,905.54a1.93,1.93,0,1,0-3.85,0v15.4a1.93,1.93,0,1,0,3.85,0Zm42.36,30.05H710.23v-3.05a23.12,23.12,0,0,0,20-34.7h51.24a1.93,1.93,0,0,0,1.94-1.93h3.85a1.92,1.92,0,0,0,1.91,1.93h9.64v30.8H729.51a1.93,1.93,0,1,0,0,3.85h71.24Zm-50.06-14.65a1.92,1.92,0,0,0-1.94-1.92H743V905.54a1.93,1.93,0,1,0-3.85,0v15.4a1.92,1.92,0,0,0,1.92,1.93h7.69A1.93,1.93,0,0,0,750.69,920.94Zm26.83-14.71a1.94,1.94,0,0,0-3.62-1.37l-4,10.6-4-10.58a1.93,1.93,0,1,0-3.62,1.35l5.79,15.39a1.92,1.92,0,0,0,3.6,0Zm13.6,1.23a1.93,1.93,0,0,0,0-3.85h-7.7a1.94,1.94,0,0,0-1.94,1.93v15.4a1.93,1.93,0,0,0,1.94,1.93h7.7a1.93,1.93,0,0,0,0-3.85h-5.79v-3.85h5.79a1.93,1.93,0,0,0,0-3.85h-5.79v-3.86Z" transform="translate(-645.98 -816.52)"/><path class="cls-3" d="M710.26,899.76a7.71,7.71,0,1,1-7.7,7.7A7.7,7.7,0,0,1,710.26,899.76Z" transform="translate(-645.98 -816.52)"/><path class="cls-3" d="M716,842v7.72a1.92,1.92,0,0,1-1.92,1.91h-7.7a1.93,1.93,0,0,1-1.93-1.91V842a1.93,1.93,0,0,1,1.93-1.92h7.7A1.92,1.92,0,0,1,716,842Z" transform="translate(-645.98 -816.52)"/><polygon class="cls-3" points="67.71 65.93 68.01 71.69 60.53 71.69 60.83 65.93 67.71 65.93"/><polygon class="cls-3" points="67.21 56.29 67.51 62.08 61.03 62.08 61.33 56.29 67.21 56.29"/><polygon class="cls-3" points="66.69 46.66 67.01 52.44 61.54 52.44 61.84 46.66 66.69 46.66"/><polygon class="cls-3" points="66.29 38.96 66.49 42.81 62.04 42.81 62.24 38.96 66.29 38.96"/><path class="cls-3" d="M710.26,895.91a11.56,11.56,0,1,0,11.55,11.55A11.57,11.57,0,0,0,710.26,895.91Zm-5.78-3.85H716a1.92,1.92,0,0,0,1.93-1.92V890l-.72-13.59a15.3,15.3,0,0,1,7.53,18.81,1.94,1.94,0,0,0,.32,1.87,19.25,19.25,0,1,1-29.68,0,1.9,1.9,0,0,0,.33-1.87A15.32,15.32,0,0,1,700,878.68a2,2,0,0,0,.63-1.43l2.62.13L702.56,890a1.91,1.91,0,0,0,1.82,2Z" transform="translate(-645.98 -816.52)"/><path class="cls-3" d="M704.39,855.1l-1.16,22.28-2.62-.13a1.93,1.93,0,0,0-3.2-1.44,19.13,19.13,0,0,0-5.63,19.7,23.11,23.11,0,0,0,18.45,37v3.05H663V890.23a2.84,2.84,0,0,0-2.83-2.84h0v-5.66h0A2.83,2.83,0,0,0,663,878.9V833.53h51.13v2.7h-7.7a5.76,5.76,0,0,0-5.43,3.85h-4.2a1.93,1.93,0,1,0,0,3.85h3.85v3.85h-3.85a1.93,1.93,0,1,0,0,3.85H701A5.79,5.79,0,0,0,704.39,855.1Z" transform="translate(-645.98 -816.52)"/><path class="cls-1" d="M710.26,915.17a7.71,7.71,0,1,0-7.7-7.71A7.71,7.71,0,0,0,710.26,915.17Zm11.55-7.71a11.56,11.56,0,1,1-11.55-11.55A11.56,11.56,0,0,1,721.81,907.46Z" transform="translate(-645.98 -816.52)"/><path class="cls-1" d="M713.49,878.6l-.3-5.79h-5.88l-.3,5.79Zm.2,3.84h-6.88l-.3,5.77H714Zm-5.46-27-.2,3.85h4.45l-.2-3.85ZM704.48,842v7.72a1.93,1.93,0,0,0,1.93,1.91h7.7a1.92,1.92,0,0,0,1.92-1.91V842a1.92,1.92,0,0,0-1.92-1.92h-7.7A1.93,1.93,0,0,0,704.48,842Zm8.2,21.18h-4.85l-.3,5.78H713Zm12.09,32.08a15.3,15.3,0,0,0-7.53-18.81L718,890v.1a1.92,1.92,0,0,1-1.93,1.92H704.38a1.91,1.91,0,0,1-1.82-2l.67-12.66,1.16-22.28a5.79,5.79,0,0,1-3.41-3.47h-4.2a1.93,1.93,0,1,1,0-3.85h3.85v-3.85h-3.85a1.93,1.93,0,1,1,0-3.85H701a5.76,5.76,0,0,1,5.43-3.85h7.7a5.75,5.75,0,0,1,5.41,3.85h4.2a1.93,1.93,0,1,1,0,3.85h-3.85v3.85h3.85a1.93,1.93,0,1,1,0,3.85h-4.2a5.74,5.74,0,0,1-3.41,3.47l.9,17a18.86,18.86,0,0,1,12,21.86h52.42a1.93,1.93,0,1,1,0,3.85H730.24a23.12,23.12,0,1,1-38.46-2.33,19.13,19.13,0,0,1,5.63-19.7,1.93,1.93,0,0,1,2.57,2.87,15.32,15.32,0,0,0-4.24,16.58,1.9,1.9,0,0,1-.33,1.87,19.26,19.26,0,1,0,29.68,0A1.94,1.94,0,0,1,724.77,895.26Z" transform="translate(-645.98 -816.52)"/></svg>