<svg id="圖層_1" data-name="圖層 1" xmlns="http://www.w3.org/2000/svg" viewBox="0 0 193.51 147.4"><defs><style>.cls-1{fill:#414143;}.cls-2{fill:#8691c9;}.cls-3{fill:#fff;}.cls-4{fill:#dbc9b1;}</style></defs><title>live_28</title><path class="cls-1" d="M839.3,830.6v119a14.2,14.2,0,0,1-14.18,14.18H660a14.18,14.18,0,0,1-14.16-14.18v-119A14.18,14.18,0,0,1,660,816.43H825.12A14.19,14.19,0,0,1,839.3,830.6Zm-5.67,119v-119a8.51,8.51,0,0,0-8.51-8.5H660a8.51,8.51,0,0,0-8.5,8.5v119a8.52,8.52,0,0,0,8.5,8.52H825.12A8.52,8.52,0,0,0,833.63,949.65Z" transform="translate(-645.79 -816.43)"/><path class="cls-2" d="M833.63,830.6v119a8.52,8.52,0,0,1-8.51,8.52H660a8.52,8.52,0,0,1-8.5-8.52v-119a8.51,8.51,0,0,1,8.5-8.5H825.12A8.51,8.51,0,0,1,833.63,830.6ZM828,938.32V830.6a2.85,2.85,0,0,0-2.85-2.84H660a2.83,2.83,0,0,0-2.83,2.84v48.19a2.82,2.82,0,0,0,2.81,2.83v5.67a2.83,2.83,0,0,0-2.81,2.83v48.2a2.83,2.83,0,0,0,2.83,2.83H825.12A2.85,2.85,0,0,0,828,938.32Zm.25,11.33a2.84,2.84,0,1,0-2.84,2.83A2.83,2.83,0,0,0,828.22,949.65Zm-11.34,0a2.84,2.84,0,1,0-2.85,2.83A2.84,2.84,0,0,0,816.88,949.65Z" transform="translate(-645.79 -816.43)"/><path class="cls-1" d="M659.93,887.29h0a2.83,2.83,0,0,1,2.83,2.83v45.36h159.5V833.43H662.78v45.36a2.82,2.82,0,0,1-2.83,2.83h0a2.82,2.82,0,0,1-2.81-2.83V830.6a2.83,2.83,0,0,1,2.83-2.84H825.12A2.85,2.85,0,0,1,828,830.6V938.32a2.85,2.85,0,0,1-2.85,2.83H660a2.83,2.83,0,0,1-2.83-2.83v-48.2A2.83,2.83,0,0,1,659.93,887.29Z" transform="translate(-645.79 -816.43)"/><circle class="cls-1" cx="179.6" cy="133.22" r="2.83"/><path class="cls-1" d="M814,946.82a2.83,2.83,0,1,1-2.83,2.83A2.84,2.84,0,0,1,814,946.82Z" transform="translate(-645.79 -816.43)"/><path class="cls-3" d="M790.85,837.76a1.62,1.62,0,0,0-1.61-1.61v-2.72h33V935.48h-33v-2.71a1.62,1.62,0,0,0,1.61-1.62V907a1.61,1.61,0,0,0-1.61-1.61v-3.22a1.61,1.61,0,0,0,1.61-1.61Z" transform="translate(-645.79 -816.43)"/><path class="cls-1" d="M776.35,842.6a1.61,1.61,0,1,1,0,3.21H761.86a1.61,1.61,0,0,1,0-3.21Z" transform="translate(-645.79 -816.43)"/><path class="cls-4" d="M776.35,890.89V899H715.16v-3.24a1.6,1.6,0,0,0,1.62-1.6v-1.61h54.74a1.62,1.62,0,0,0,1.62-1.62Z" transform="translate(-645.79 -816.43)"/><rect class="cls-3" x="125.74" y="93.79" width="3.22" height="9.67"/><path class="cls-1" d="M774.74,910.22h-3.22v9.67h3.22ZM778,908.6v12.89a1.61,1.61,0,0,1-1.62,1.61h-6.44a1.59,1.59,0,0,1-1.6-1.61V908.6a1.6,1.6,0,0,1,1.6-1.6h6.44A1.62,1.62,0,0,1,778,908.6Z" transform="translate(-645.79 -816.43)"/><rect class="cls-3" x="112.85" y="93.79" width="3.22" height="9.67"/><path class="cls-1" d="M758.64,910.22v9.67h3.22v-9.67Zm-3.22,11.27V908.6A1.6,1.6,0,0,1,757,907h6.45a1.62,1.62,0,0,1,1.62,1.6v12.89a1.61,1.61,0,0,1-1.62,1.61H757A1.6,1.6,0,0,1,755.42,921.49Z" transform="translate(-645.79 -816.43)"/><path class="cls-1" d="M753.81,842.6a1.61,1.61,0,1,1,0,3.21H729.66a1.61,1.61,0,1,1,0-3.21Z" transform="translate(-645.79 -816.43)"/><polygon class="cls-3" points="102.82 58.36 91.92 63.81 91.92 52.91 102.82 58.36"/><path class="cls-1" d="M752.21,908.6v6.45a1.62,1.62,0,0,1-1.62,1.6h-4.83v3.24h4.83a1.61,1.61,0,1,1,0,3.21h-6.43a1.6,1.6,0,0,1-1.62-1.61v-6.44a1.6,1.6,0,0,1,1.62-1.61H749v-3.22h-4.81a1.61,1.61,0,1,1,0-3.22h6.43A1.62,1.62,0,0,1,752.21,908.6Z" transform="translate(-645.79 -816.43)"/><path class="cls-1" d="M737.71,869.34v10.9l10.9-5.45Zm15.21,6.9-16.09,8a2,2,0,0,1-.74.17,1.61,1.61,0,0,1-1.6-1.62v-16.1a1.43,1.43,0,0,1,.17-.71,1.59,1.59,0,0,1,1.43-.89,1.63,1.63,0,0,1,.74.17l16.09,8.05a1.48,1.48,0,0,1,.72.72A1.61,1.61,0,0,1,752.92,876.24Z" transform="translate(-645.79 -816.43)"/><path class="cls-4" d="M736.83,865.31a1.63,1.63,0,0,0-.74-.17v-4.83h27.38a1.63,1.63,0,0,0,1.62-1.62h3.22a1.61,1.61,0,0,0,1.6,1.62h6.44v30.58h-3.21a1.62,1.62,0,0,0-1.62-1.6H736.09v-4.83a2,2,0,0,0,.74-.17l16.09-8a1.61,1.61,0,0,0,.72-2.16,1.48,1.48,0,0,0-.72-.72Z" transform="translate(-645.79 -816.43)"/><path class="cls-4" d="M736.09,884.46v4.83H716.78v-1.62a1.61,1.61,0,0,0-3.22,0v1.62h-4.83v-29h27.36v4.83a1.59,1.59,0,0,0-1.43.89,1.43,1.43,0,0,0-.17.71v16.1A1.61,1.61,0,0,0,736.09,884.46Z" transform="translate(-645.79 -816.43)"/><path class="cls-3" d="M729.18,916.17a8.14,8.14,0,0,0,0-5.38,14.28,14.28,0,0,1,4.46,4.26,14.44,14.44,0,0,1-10.81,6.37A8.05,8.05,0,0,0,729.18,916.17Z" transform="translate(-645.79 -816.43)"/><path class="cls-3" d="M755.42,844.2a1.59,1.59,0,0,0-1.61-1.6H729.66a1.61,1.61,0,1,0,0,3.21h24.15A1.6,1.6,0,0,0,755.42,844.2Zm-32.21-4.82h64.41v61.18a1.61,1.61,0,0,0,1.62,1.61v3.22a1.61,1.61,0,0,0-1.62,1.61v22.54h-66v-4.82a17.69,17.69,0,0,0,15.3-8.87,1.55,1.55,0,0,0,0-1.61,17.73,17.73,0,0,0-15.32-8.85v-3.22H778a1.6,1.6,0,0,0,1.6-1.61V858.69a1.61,1.61,0,0,0-1.6-1.61v-4.84h4.82a1.61,1.61,0,1,0,0-3.21H723.21ZM769.91,907a1.6,1.6,0,0,0-1.6,1.6v12.89a1.59,1.59,0,0,0,1.6,1.61h6.44a1.61,1.61,0,0,0,1.62-1.61V908.6a1.62,1.62,0,0,0-1.62-1.6Zm-17.7,8V908.6a1.62,1.62,0,0,0-1.62-1.6h-6.43a1.61,1.61,0,1,0,0,3.22H749v3.22h-4.81a1.6,1.6,0,0,0-1.62,1.61v6.44a1.6,1.6,0,0,0,1.62,1.61h6.43a1.61,1.61,0,1,0,0-3.21h-4.83v-3.24h4.83A1.62,1.62,0,0,0,752.21,915.05Zm9.65-72.45a1.61,1.61,0,0,0,0,3.21h14.49a1.61,1.61,0,1,0,0-3.21Zm-6.44,66v12.89a1.6,1.6,0,0,0,1.6,1.61h6.45a1.61,1.61,0,0,0,1.62-1.61V908.6a1.62,1.62,0,0,0-1.62-1.6H757A1.6,1.6,0,0,0,755.42,908.6Z" transform="translate(-645.79 -816.43)"/><path class="cls-3" d="M725,912.3a1.68,1.68,0,0,1-2.29,0,1.61,1.61,0,0,1,0-2.28,1.63,1.63,0,0,1,2.29,0A1.65,1.65,0,0,1,725,912.3Z" transform="translate(-645.79 -816.43)"/><path d="M722.73,921.44a7.19,7.19,0,0,1-2,0c.3,0,.6,0,.9,0S722.36,921.47,722.73,921.44Z" transform="translate(-645.79 -816.43)"/><path class="cls-3" d="M697.45,852.24H778v4.84h-8.06a1.61,1.61,0,0,0-1.6,1.61h-3.22a1.62,1.62,0,0,0-1.62-1.61H707.11a1.61,1.61,0,0,0-1.6,1.61v41.87a1.6,1.6,0,0,0,1.6,1.61h14.5v3.22a17.76,17.76,0,0,0-15.33,8.85,1.65,1.65,0,0,0,0,1.61,17.69,17.69,0,0,0,15.35,8.87v4.82H697.45V874.79a1.6,1.6,0,0,0-1.6-1.6V870a1.6,1.6,0,0,0,1.6-1.6Z" transform="translate(-645.79 -816.43)"/><path class="cls-3" d="M719.54,909.09a4.81,4.81,0,0,0,6.4,6.43,4.84,4.84,0,0,1-.91,1.33,4.93,4.93,0,0,1-6.84,0,4.8,4.8,0,0,1,0-6.81s0,0,0,0A4.85,4.85,0,0,1,719.54,909.09Z" transform="translate(-645.79 -816.43)"/><path class="cls-3" d="M720.26,921.4a14.44,14.44,0,0,1-10.68-6.35,14.32,14.32,0,0,1,4.47-4.26,8,8,0,0,0,4.88,10.26A7.26,7.26,0,0,0,720.26,921.4Z" transform="translate(-645.79 -816.43)"/><path class="cls-1" d="M715.16,842.6a1.61,1.61,0,1,1-1.6,1.6A1.6,1.6,0,0,1,715.16,842.6Z" transform="translate(-645.79 -816.43)"/><path class="cls-4" d="M715.16,895.72V899h-6.43v-6.45h4.83v1.61A1.6,1.6,0,0,0,715.16,895.72Z" transform="translate(-645.79 -816.43)"/><path class="cls-1" d="M722.83,921.42a14.44,14.44,0,0,0,10.81-6.37,14.28,14.28,0,0,0-4.46-4.26,8.14,8.14,0,0,1,0,5.38A8.05,8.05,0,0,1,722.83,921.42Zm14.1-5.57a17.67,17.67,0,0,1-30.65,0,1.65,1.65,0,0,1,0-1.61,17.69,17.69,0,0,1,30.65,0A1.55,1.55,0,0,1,736.93,915.85Zm-18,5.2a8,8,0,0,1-4.88-10.26,14.32,14.32,0,0,0-4.47,4.26,14.44,14.44,0,0,0,10.68,6.35A7.26,7.26,0,0,1,718.93,921.05Zm1.78.4a7.19,7.19,0,0,0,2,0c-.37,0-.75,0-1.12,0S721,921.47,720.71,921.45Zm1-6a4.8,4.8,0,0,1-2.22-6.41,4.85,4.85,0,0,0-1.35.93s0,0,0,0a4.8,4.8,0,0,0,0,6.81,4.93,4.93,0,0,0,6.84,0,4.84,4.84,0,0,0,.91-1.33A4.79,4.79,0,0,1,721.76,915.5ZM725,910a1.63,1.63,0,0,0-2.29,0,1.61,1.61,0,0,0,0,2.28,1.68,1.68,0,0,0,2.29,0A1.65,1.65,0,0,0,725,910Z" transform="translate(-645.79 -816.43)"/><path class="cls-1" d="M708.73,842.6a1.61,1.61,0,1,1-1.62,1.6A1.6,1.6,0,0,1,708.73,842.6Z" transform="translate(-645.79 -816.43)"/><path class="cls-1" d="M776.35,860.31h-6.44a1.62,1.62,0,0,1,0-3.23H778a1.61,1.61,0,0,1,1.6,1.61v41.87a1.6,1.6,0,0,1-1.6,1.61H707.11a1.6,1.6,0,0,1-1.6-1.61V858.69a1.61,1.61,0,0,1,1.6-1.61h56.36a1.62,1.62,0,1,1,0,3.23H708.73v29h4.83v-1.62a1.61,1.61,0,0,1,3.22,0v1.62h54.74a1.61,1.61,0,1,1,0,3.22H716.78v1.61a1.61,1.61,0,0,1-3.22,0v-1.61h-4.83V899h67.62V860.31Z" transform="translate(-645.79 -816.43)"/><path class="cls-1" d="M702.28,842.6a1.61,1.61,0,1,1-1.6,1.6A1.6,1.6,0,0,1,702.28,842.6Z" transform="translate(-645.79 -816.43)"/><path class="cls-3" d="M715.16,845.81a1.61,1.61,0,1,0-1.6-1.61A1.61,1.61,0,0,0,715.16,845.81ZM703.9,844.2a1.61,1.61,0,1,0-1.62,1.61A1.6,1.6,0,0,0,703.9,844.2Zm4.83,1.61a1.61,1.61,0,1,0-1.62-1.61A1.61,1.61,0,0,0,708.73,845.81ZM697.45,849v-9.65H720V849Z" transform="translate(-645.79 -816.43)"/><path class="cls-1" d="M697.45,839.38V849H720v-9.65Zm93.4-1.62v62.8a1.62,1.62,0,0,1-3.23,0V839.38H723.21V849h59.58a1.61,1.61,0,1,1,0,3.21H697.45v16.12a1.61,1.61,0,0,1-3.22,0v-30.6a1.62,1.62,0,0,1,1.62-1.61h93.39A1.62,1.62,0,0,1,790.85,837.76Z" transform="translate(-645.79 -816.43)"/><path class="cls-1" d="M694.23,931.15V874.79a1.61,1.61,0,0,1,3.22,0v54.75h90.17V907a1.62,1.62,0,0,1,3.23,0v24.15a1.62,1.62,0,0,1-1.61,1.62H695.85A1.62,1.62,0,0,1,694.23,931.15Z" transform="translate(-645.79 -816.43)"/><path class="cls-3" d="M789.24,935.48H662.78V890.12a2.83,2.83,0,0,0-2.83-2.83h0v-5.67h0a2.82,2.82,0,0,0,2.83-2.83V833.43H789.24v2.72H695.85a1.62,1.62,0,0,0-1.62,1.61v30.6a1.61,1.61,0,0,0,1.62,1.6v3.23a1.61,1.61,0,0,0-1.62,1.6v56.36a1.62,1.62,0,0,0,1.62,1.62h93.39Z" transform="translate(-645.79 -816.43)"/></svg>