<svg id="圖層_1" data-name="圖層 1" xmlns="http://www.w3.org/2000/svg" viewBox="0 0 193.51 147.42"><defs><style>.cls-1{fill:#414143;}.cls-2{fill:#dbc9b1;}.cls-3{fill:#fff;}.cls-4{fill:#8691c9;}</style></defs><title>live_22</title><path class="cls-1" d="M839.82,830.85v119a14.2,14.2,0,0,1-14.19,14.18H660.47A14.19,14.19,0,0,1,646.3,949.9v-119a14.19,14.19,0,0,1,14.17-14.18H825.63A14.2,14.2,0,0,1,839.82,830.85Zm-5.67,119v-119a8.51,8.51,0,0,0-8.52-8.5H660.47a8.51,8.51,0,0,0-8.5,8.5v119a8.52,8.52,0,0,0,8.5,8.5H825.63A8.52,8.52,0,0,0,834.15,949.9Z" transform="translate(-646.3 -816.67)"/><path class="cls-2" d="M834.15,830.85v119a8.52,8.52,0,0,1-8.52,8.5H660.47a8.52,8.52,0,0,1-8.5-8.5v-119a8.51,8.51,0,0,1,8.5-8.5H825.63A8.51,8.51,0,0,1,834.15,830.85Zm-5.68,107.72V830.85a2.84,2.84,0,0,0-2.84-2.84H660.47a2.83,2.83,0,0,0-2.83,2.84V879a2.83,2.83,0,0,0,2.81,2.83v5.67a2.83,2.83,0,0,0-2.81,2.83v48.2a2.83,2.83,0,0,0,2.83,2.83H825.63A2.84,2.84,0,0,0,828.47,938.57Zm.26,11.31a2.83,2.83,0,1,0-2.83,2.85A2.83,2.83,0,0,0,828.73,949.88Zm-11.34,0a2.84,2.84,0,1,0-2.84,2.85A2.84,2.84,0,0,0,817.39,949.88Z" transform="translate(-646.3 -816.67)"/><path class="cls-1" d="M660.45,881.87a2.83,2.83,0,0,1-2.81-2.83V830.85a2.83,2.83,0,0,1,2.83-2.84H825.63a2.84,2.84,0,0,1,2.84,2.84V938.57a2.84,2.84,0,0,1-2.84,2.83H660.47a2.83,2.83,0,0,1-2.83-2.83v-48.2a2.83,2.83,0,0,1,2.81-2.83h0a2.83,2.83,0,0,1,2.83,2.83v45.36H822.8V833.68H663.3V879a2.83,2.83,0,0,1-2.83,2.83Z" transform="translate(-646.3 -816.67)"/><path class="cls-1" d="M825.9,947.05a2.84,2.84,0,1,1-2.83,2.83A2.83,2.83,0,0,1,825.9,947.05Z" transform="translate(-646.3 -816.67)"/><path class="cls-1" d="M814.55,947.05a2.84,2.84,0,1,1-2.83,2.83A2.84,2.84,0,0,1,814.55,947.05Z" transform="translate(-646.3 -816.67)"/><rect class="cls-3" x="122.44" y="105.42" width="3.48" height="6.97"/><path class="cls-1" d="M770.47,909.9h5.24a1.75,1.75,0,0,1,0,3.49h-7a1.75,1.75,0,0,1-1.75-1.74V897.72a1.73,1.73,0,0,1,1.75-1.73h7a1.74,1.74,0,0,1,0,3.48h-5.24v3.47h5.24a1.74,1.74,0,0,1,0,3.48h-5.24Z" transform="translate(-646.3 -816.67)"/><path class="cls-3" d="M758.51,880.52a10.38,10.38,0,0,1,8.28,8.29l-3.42.55A6.9,6.9,0,0,0,758,884Z" transform="translate(-646.3 -816.67)"/><path class="cls-1" d="M756.56,869.88a20.91,20.91,0,0,1,20.88,20.88,1.74,1.74,0,1,1-3.48,0,17.43,17.43,0,0,0-17.4-17.4,1.74,1.74,0,1,1,0-3.48Z" transform="translate(-646.3 -816.67)"/><path class="cls-1" d="M756.56,876.84a13.92,13.92,0,0,1,13.91,13.92,1.74,1.74,0,1,1-3.48,0,9.63,9.63,0,0,0-.2-2,10.38,10.38,0,0,0-8.28-8.29,9.63,9.63,0,0,0-2-.2,1.74,1.74,0,1,1,0-3.48Z" transform="translate(-646.3 -816.67)"/><path class="cls-1" d="M756.56,887.29a1.74,1.74,0,1,1,0-3.48,6.46,6.46,0,0,1,1.4.15,6.9,6.9,0,0,1,5.41,5.4,6.39,6.39,0,0,1,.15,1.4,1.74,1.74,0,1,1-3.48,0A3.47,3.47,0,0,0,756.56,887.29Z" transform="translate(-646.3 -816.67)"/><path class="cls-3" d="M784.41,930.79a1.76,1.76,0,0,0-1.75-1.74h-6.95v-7H793.1a1.74,1.74,0,0,0,1.74-1.74V908.17a1.74,1.74,0,0,0-1.74-1.75v-3.48a1.73,1.73,0,0,0,1.74-1.73V857.69A1.73,1.73,0,0,0,793.1,856h-40a10.42,10.42,0,0,0-4-8.2l7-8.06a1.73,1.73,0,0,0-1.39-2.8v-3.22H822.8V935.73H782.66v-3.19A1.76,1.76,0,0,0,784.41,930.79Z" transform="translate(-646.3 -816.67)"/><path class="cls-3" d="M750.73,896.09a1.73,1.73,0,0,0-1.14,1.63h-3.48a1.72,1.72,0,0,0-1.73-1.73l-4.5-2a13.89,13.89,0,0,0,11.46-14c0-.36,0-.71-.06-1.06l3.53-.34a1.75,1.75,0,0,0,1.75,1.75,9.63,9.63,0,0,1,2,.2L758,884a6.46,6.46,0,0,0-1.4-.15,1.74,1.74,0,1,0,0,3.48,3.47,3.47,0,0,1,3.48,3.47,1.74,1.74,0,0,0,1.74,1.75V896a1.77,1.77,0,0,0-1.65,1.13l-3.58,9.57-3.6-9.57A1.74,1.74,0,0,0,750.73,896.09Z" transform="translate(-646.3 -816.67)"/><path class="cls-1" d="M753,897.12l3.6,9.57,3.58-9.57a1.77,1.77,0,0,1,1.65-1.13,1.8,1.8,0,0,1,.6.1,1.76,1.76,0,0,1,1,2.25l-5.22,13.91a1.76,1.76,0,0,1-1,1,1.74,1.74,0,0,1-2.23-1l-5.22-13.91a1.71,1.71,0,0,1-.12-.62,1.74,1.74,0,0,1,3.37-.6Z" transform="translate(-646.3 -816.67)"/><path class="cls-3" d="M693.9,873.36a1.72,1.72,0,0,0-1.73-1.73v-3.49a1.73,1.73,0,0,0,1.73-1.75v-6.95h97.47v41.77a1.72,1.72,0,0,0,1.73,1.73v3.48a1.73,1.73,0,0,0-1.73,1.75V918.6H693.9Zm81.81,26.11a1.74,1.74,0,0,0,0-3.48h-7a1.73,1.73,0,0,0-1.75,1.73v13.93a1.75,1.75,0,0,0,1.75,1.74h7a1.75,1.75,0,0,0,0-3.49h-5.24v-3.48h5.24a1.74,1.74,0,0,0,0-3.48h-5.24v-3.47ZM774,890.76a1.74,1.74,0,1,0,3.48,0,20.91,20.91,0,0,0-20.88-20.88,1.74,1.74,0,1,0,0,3.48A17.43,17.43,0,0,1,774,890.76Zm-10.55,7.58a1.76,1.76,0,0,0-1-2.25,1.8,1.8,0,0,0-.6-.1v-3.48a1.75,1.75,0,0,0,1.74-1.75,6.39,6.39,0,0,0-.15-1.4l3.42-.55a9.63,9.63,0,0,1,.2,2,1.74,1.74,0,1,0,3.48,0,13.92,13.92,0,0,0-13.91-13.92,1.74,1.74,0,0,0-1.75,1.73l-3.53.34a14,14,0,0,0-14.22-12.5,13.44,13.44,0,0,0-4.88,1l-.35-.14a26.64,26.64,0,0,0-6.53-.9h0a1.78,1.78,0,0,0-1.75,1.74c0,.11,0,.23,0,.35l-3.53.11a1.74,1.74,0,0,0-2.12-1.18A25.92,25.92,0,0,0,700,899.09a1.69,1.69,0,0,0,1.23,1.23,26,26,0,0,0,25.08-6.71,24.72,24.72,0,0,0,2.25-2.55,13.88,13.88,0,0,0,3,1.9l-1.16,3a1.74,1.74,0,0,0-1.74,1.73v13.93a1.75,1.75,0,0,0,1.74,1.74h7a1.75,1.75,0,0,0,1.75-1.74h3.47a1.74,1.74,0,1,0,3.48,0V897.72h3.48a1.71,1.71,0,0,0,.12.62l5.22,13.91a1.74,1.74,0,0,0,2.23,1,1.76,1.76,0,0,0,1-1Z" transform="translate(-646.3 -816.67)"/><path class="cls-4" d="M742.63,849a7,7,0,0,1,7,7H735.68A7,7,0,0,1,742.63,849Z" transform="translate(-646.3 -816.67)"/><path class="cls-3" d="M747.06,876.34A10.37,10.37,0,0,1,745.43,887a10.39,10.39,0,0,1-2.8-6.82,11.92,11.92,0,0,1,.18-2A13.75,13.75,0,0,0,747.06,876.34Z" transform="translate(-646.3 -816.67)"/><path class="cls-1" d="M746.11,897.72v13.93a1.74,1.74,0,1,1-3.48,0V897.72a1.74,1.74,0,0,1,3.48,0Z" transform="translate(-646.3 -816.67)"/><path class="cls-3" d="M739.16,911.65a1.75,1.75,0,0,0-1.75-1.75H732.2V897.72a1.74,1.74,0,0,0-1.75-1.73l1.16-3a13.87,13.87,0,0,0,5.8,1.28h.38a12,12,0,0,0,2.09-.22l4.5,2a1.73,1.73,0,0,0-1.75,1.73v13.93Z" transform="translate(-646.3 -816.67)"/><path class="cls-3" d="M741.19,890a10.3,10.3,0,0,1-6.88-12.62,13.93,13.93,0,0,0,4.93,1.07,13.11,13.11,0,0,0-.08,1.78,13.8,13.8,0,0,0,3.63,9A9.09,9.09,0,0,1,741.19,890Z" transform="translate(-646.3 -816.67)"/><path class="cls-3" d="M737.13,869.88a10.31,10.31,0,0,1,7.46,2.86c.22.2.42.42.62.64a10.21,10.21,0,0,1-11.36-.15c-.07-.87-.19-1.74-.34-2.59A10,10,0,0,1,737.13,869.88Z" transform="translate(-646.3 -816.67)"/><path class="cls-3" d="M731.7,885.76a14.24,14.24,0,0,0,3.43,4.75,10.4,10.4,0,0,1-4.63-2.37C731,887.36,731.33,886.57,731.7,885.76Z" transform="translate(-646.3 -816.67)"/><path class="cls-1" d="M737.41,913.39h-7a1.75,1.75,0,0,1-1.74-1.74V897.72a1.75,1.75,0,0,1,3.49,0V909.9h5.21a1.75,1.75,0,1,1,0,3.49Z" transform="translate(-646.3 -816.67)"/><path class="cls-3" d="M758.29,932.54h24.37v3.19H727v-3.19a1.75,1.75,0,1,0,0-3.49h-7v-7h45.25v7h-7a1.75,1.75,0,0,0,0,3.49Z" transform="translate(-646.3 -816.67)"/><path class="cls-2" d="M721.25,875.61a1.74,1.74,0,0,0-2.47,2.46l.52.5-2.77,2.77-.52-.52a1.73,1.73,0,0,0-2.45,0,1.75,1.75,0,0,0,0,2.42l.5.52-2.75,2.75-.51-.5a1.76,1.76,0,0,0-2.47,0,1.86,1.86,0,0,0-.37.57l-4.46-.59a22.38,22.38,0,0,1,15.36-15.31,1.75,1.75,0,0,0,1.17-2.17l3.53-.11a1.75,1.75,0,0,0,1.7,1.4,22.89,22.89,0,0,1,4.67.53,22.25,22.25,0,0,1-.2,10.53h-4.65a1.67,1.67,0,0,0-.37-1.85l-.5-.52.5-.5a1.74,1.74,0,0,0-2.45-2.46l-.51.52Z" transform="translate(-646.3 -816.67)"/><path class="cls-3" d="M720.91,837.06a1.79,1.79,0,0,0-1-.3v-3.08h34.81v3.22a1.67,1.67,0,0,0-1.23.51l-7.57,8.65a10.28,10.28,0,0,0-8.76,1Z" transform="translate(-646.3 -816.67)"/><path class="cls-3" d="M718.5,837.51a1.74,1.74,0,0,0,.43,2.42,1.28,1.28,0,0,1,.17.1l15.36,9.45A10.46,10.46,0,0,0,732.2,856h-40a1.73,1.73,0,0,0-1.75,1.73v8.7a1.75,1.75,0,0,0,1.75,1.75v3.49a1.73,1.73,0,0,0-1.75,1.73v47a1.75,1.75,0,0,0,1.75,1.74h17.39v7h-7a1.75,1.75,0,0,0,0,3.49H727v3.19H663.3V890.37a2.83,2.83,0,0,0-2.83-2.83h0v-5.67h0A2.83,2.83,0,0,0,663.3,879V833.68h56.63v3.08A1.7,1.7,0,0,0,718.5,837.51Z" transform="translate(-646.3 -816.67)"/><rect class="cls-3" x="66.74" y="105.42" width="3.48" height="6.97"/><path class="cls-2" d="M710.75,892l0,0,.51-.5.5.5a1.74,1.74,0,0,0,2.47-2.45l-.52-.52,2.77-2.75.5.5a1.74,1.74,0,0,0,2.47-2.46l-.5-.5,2.75-2.77.51.52a1.73,1.73,0,0,0,2.45,0,1.41,1.41,0,0,0,.37-.57h4.65a22.44,22.44,0,0,1-16.88,16.27,22.76,22.76,0,0,1-9.72,0,22.27,22.27,0,0,1,.37-11.14l4.46.59a1.74,1.74,0,0,0,.37,1.85l.52.51-.52.52a1.74,1.74,0,0,0,0,2.45A1.72,1.72,0,0,0,710.75,892Z" transform="translate(-646.3 -816.67)"/><path class="cls-1" d="M710.75,892a1.72,1.72,0,0,1-2.45,0,1.74,1.74,0,0,1,0-2.45l.52-.52-.52-.51a1.74,1.74,0,0,1-.37-1.85,1.86,1.86,0,0,1,.37-.57,1.76,1.76,0,0,1,2.47,0l.51.5,2.75-2.75-.5-.52a1.75,1.75,0,0,1,0-2.42,1.73,1.73,0,0,1,2.45,0l.52.52,2.77-2.77-.52-.5a1.74,1.74,0,0,1,2.47-2.46l.5.52.51-.52a1.74,1.74,0,0,1,2.45,2.46l-.5.5.5.52a1.67,1.67,0,0,1,.37,1.85,1.41,1.41,0,0,1-.37.57,1.73,1.73,0,0,1-2.45,0l-.51-.52L719,883.81l.5.5a1.74,1.74,0,0,1-2.47,2.46l-.5-.5L713.76,889l.52.52a1.74,1.74,0,0,1-2.47,2.45l-.5-.5-.51.5Z" transform="translate(-646.3 -816.67)"/><path class="cls-1" d="M739.16,880.27a13.11,13.11,0,0,1,.08-1.78,13.93,13.93,0,0,1-4.93-1.07A10.3,10.3,0,0,0,741.19,890a9.09,9.09,0,0,0,1.6-.78A13.8,13.8,0,0,1,739.16,880.27Zm-4,10.24a14.24,14.24,0,0,1-3.43-4.75c-.37.81-.75,1.6-1.2,2.38A10.4,10.4,0,0,0,735.13,890.51Zm2-20.63a10,10,0,0,0-3.62.76c.15.85.27,1.72.34,2.59a10.21,10.21,0,0,0,11.36.15c-.2-.22-.4-.44-.62-.64A10.31,10.31,0,0,0,737.13,869.88Zm-10.8,23.73a26,26,0,0,1-25.08,6.71,1.69,1.69,0,0,1-1.23-1.23,25.92,25.92,0,0,1,17.89-31.68,1.74,1.74,0,0,1,1,3.35,22.48,22.48,0,0,0-15.73,26.45,22.76,22.76,0,0,0,9.72,0,22.49,22.49,0,0,0,17.08-26.8,22.89,22.89,0,0,0-4.67-.53,1.75,1.75,0,0,1-1.7-1.4c0-.12,0-.24,0-.35a1.78,1.78,0,0,1,1.75-1.74h0a26.64,26.64,0,0,1,6.53.9l.35.14a13.44,13.44,0,0,1,4.88-1,14,14,0,0,1,14.22,12.5c0,.35.05.7.06,1.06a13.89,13.89,0,0,1-11.46,14,12,12,0,0,1-2.09.22h-.38a14,14,0,0,1-8.83-3.18A24.72,24.72,0,0,1,726.33,893.61Zm16.3-13.44a10.39,10.39,0,0,0,2.8,6.82,10.37,10.37,0,0,0,1.63-10.65,13.75,13.75,0,0,1-4.25,1.78A11.92,11.92,0,0,0,742.63,880.17Z" transform="translate(-646.3 -816.67)"/><path class="cls-1" d="M749.59,856a7,7,0,1,0-13.91,0Zm-59.17,10.43v-8.7a1.73,1.73,0,0,1,1.75-1.73h40a10.46,10.46,0,0,1,2.26-6.48L719.1,840a1.28,1.28,0,0,0-.17-.1,1.74,1.74,0,0,1-.43-2.42,1.7,1.7,0,0,1,1.43-.75,1.79,1.79,0,0,1,1,.3l16.27,10a10.28,10.28,0,0,1,8.76-1l7.57-8.65a1.67,1.67,0,0,1,1.23-.51,1.73,1.73,0,0,1,1.39,2.8l-7,8.06a10.42,10.42,0,0,1,4,8.2h40a1.73,1.73,0,0,1,1.74,1.73v43.52a1.74,1.74,0,0,1-3.47,0V859.44H693.9v6.95a1.74,1.74,0,1,1-3.48,0Z" transform="translate(-646.3 -816.67)"/><path class="cls-1" d="M716.53,922.09h-3.48v7h3.48ZM693.9,918.6h97.47V908.17a1.74,1.74,0,1,1,3.47,0v12.18a1.74,1.74,0,0,1-1.74,1.74H775.71v7h6.95a1.75,1.75,0,1,1,0,3.49H758.29a1.75,1.75,0,0,1,0-3.49h7v-7H720v7h7a1.75,1.75,0,1,1,0,3.49H702.6a1.75,1.75,0,0,1,0-3.49h7v-7H692.17a1.75,1.75,0,0,1-1.75-1.74v-47a1.74,1.74,0,0,1,3.48,0Zm78.32,3.49h-3.48v7h3.48Z" transform="translate(-646.3 -816.67)"/></svg>