<svg id="圖層_1" data-name="圖層 1" xmlns="http://www.w3.org/2000/svg" viewBox="0 0 193.51 147.4"><defs><style>.cls-1{fill:#414143;}.cls-2{fill:#ececec;}.cls-3{fill:#fff;}.cls-4{fill:#ed9484;}</style></defs><title>live_23</title><path class="cls-1" d="M839.81,831.26V950.33a14.18,14.18,0,0,1-14.18,14.16H660.46a14.17,14.17,0,0,1-14.16-14.16V831.26a14.18,14.18,0,0,1,14.16-14.17H825.63A14.19,14.19,0,0,1,839.81,831.26Zm-5.66,119.07V831.26a8.52,8.52,0,0,0-8.52-8.5H660.46a8.5,8.5,0,0,0-8.49,8.5V950.33a8.51,8.51,0,0,0,8.49,8.5H825.63A8.52,8.52,0,0,0,834.15,950.33Z" transform="translate(-646.3 -817.09)"/><path class="cls-2" d="M834.15,831.26V950.33a8.52,8.52,0,0,1-8.52,8.5H660.46a8.51,8.51,0,0,1-8.49-8.5V831.26a8.5,8.5,0,0,1,8.49-8.5H825.63A8.52,8.52,0,0,1,834.15,831.26ZM828.46,939V831.26a2.83,2.83,0,0,0-2.83-2.84H660.46a2.84,2.84,0,0,0-2.83,2.84v48.19a2.82,2.82,0,0,0,2.82,2.83V888a2.84,2.84,0,0,0-2.82,2.83V939a2.83,2.83,0,0,0,2.83,2.83H825.63A2.83,2.83,0,0,0,828.46,939Zm.27,11.33a2.84,2.84,0,1,0-2.83,2.83A2.83,2.83,0,0,0,828.73,950.31Zm-11.35,0a2.84,2.84,0,1,0-2.83,2.83A2.83,2.83,0,0,0,817.38,950.31Z" transform="translate(-646.3 -817.09)"/><path class="cls-1" d="M660.45,888h0a2.84,2.84,0,0,1,2.84,2.83v45.37H822.8V834.09H663.3v45.36a2.83,2.83,0,0,1-2.84,2.83h0a2.82,2.82,0,0,1-2.82-2.83V831.26a2.84,2.84,0,0,1,2.83-2.84H825.63a2.83,2.83,0,0,1,2.83,2.84V939a2.83,2.83,0,0,1-2.83,2.83H660.46a2.83,2.83,0,0,1-2.83-2.83v-48.2A2.84,2.84,0,0,1,660.45,888Z" transform="translate(-646.3 -817.09)"/><circle class="cls-1" cx="179.6" cy="133.22" r="2.83"/><circle class="cls-1" cx="168.25" cy="133.22" r="2.83"/><path class="cls-3" d="M785.9,860.84a1.63,1.63,0,0,1,0,3.25H734.14a1.63,1.63,0,0,1,0-3.25Z" transform="translate(-646.3 -817.09)"/><path class="cls-3" d="M782.88,874.55a26.22,26.22,0,0,0,2.52-7.23h.5a4.86,4.86,0,0,0,0-9.72h-.52a25.8,25.8,0,0,0-25.33-21v-2.48H822.8V936.15H773v-2.5a1.61,1.61,0,0,0,1.62-1.5L776.09,911h11.43a4.85,4.85,0,0,0,4.85-4.85V902.9a1.63,1.63,0,0,0-1.62-1.62l.33-3.26a1.61,1.61,0,0,0,1.29-1.59V883.5a4.86,4.86,0,0,0-4.85-4.86h-6.07V875.4A1.59,1.59,0,0,0,782.88,874.55Z" transform="translate(-646.3 -817.09)"/><path class="cls-3" d="M782.1,857.6H737.92a22.61,22.61,0,0,1,44.18,0Z" transform="translate(-646.3 -817.09)"/><path class="cls-3" d="M781.45,878.64H744.24a22.64,22.64,0,0,1-6.32-11.32h44.2A23,23,0,0,1,780,873a1.61,1.61,0,0,0,.68,2.18,1.54,1.54,0,0,0,.75.18Z" transform="translate(-646.3 -817.09)"/><path class="cls-4" d="M778.33,895.62a5,5,0,0,0,2.72.81,1.62,1.62,0,0,1,0,3.24,1.61,1.61,0,0,1-1.62-1.62,1.63,1.63,0,0,0-1.61-1.62Z" transform="translate(-646.3 -817.09)"/><path class="cls-1" d="M785.9,898.05a4.85,4.85,0,0,1-9.7,0,1.62,1.62,0,1,1,3.23,0,1.62,1.62,0,0,0,3.24,0,1.64,1.64,0,0,0-1.62-1.62,5,5,0,0,1-2.72-.81,4.9,4.9,0,0,1-2.13-4,4.59,4.59,0,0,1,.1-1,4.85,4.85,0,0,1,9.6,1,1.62,1.62,0,1,1-3.23,0,1.62,1.62,0,1,0-1.62,1.62A4.85,4.85,0,0,1,785.9,898.05Z" transform="translate(-646.3 -817.09)"/><path class="cls-3" d="M773,936.15H747.19v-2.5a1.62,1.62,0,0,0,1.5-1.74L747.19,911h25.65l-1.5,20.91a1.63,1.63,0,0,0,1.5,1.74H773Z" transform="translate(-646.3 -817.09)"/><path class="cls-1" d="M769.3,901.88l-2.81-7-2.82,7a1.61,1.61,0,0,1-1.67,1,1.65,1.65,0,0,1-1.43-1.35l-2.15-12.93a1,1,0,0,1,0-.24,1.61,1.61,0,0,1,3.2-.3l1.22,7.24L765,889.9a1.56,1.56,0,0,1,.9-.9,1.62,1.62,0,0,1,2.1.9l2.16,5.42,1.22-7.24a1.61,1.61,0,0,1,3.18.54l-.26,1.65-1.89,11.28A1.63,1.63,0,0,1,771,902.9h-.17A1.62,1.62,0,0,1,769.3,901.88Z" transform="translate(-646.3 -817.09)"/><path class="cls-1" d="M750.3,893.2h3.24a1.62,1.62,0,1,1,0,3.23H750.3v3.24h4.87a1.62,1.62,0,1,1,0,3.23h-6.48a1.62,1.62,0,0,1-1.62-1.62V888.35a1.62,1.62,0,0,1,1.62-1.62h6.48a1.62,1.62,0,0,1,0,3.24H750.3Z" transform="translate(-646.3 -817.09)"/><path class="cls-4" d="M755.17,894.82a1.62,1.62,0,0,0-1.63-1.62H750.3V890h4.87a1.64,1.64,0,0,0,1.62-1.62l1.61,0a1,1,0,0,0,0,.24l2.15,12.93A1.65,1.65,0,0,0,762,902.9a1.61,1.61,0,0,0,1.67-1l2.82-7,2.81,7a1.62,1.62,0,0,0,1.5,1H771a1.63,1.63,0,0,0,1.43-1.35l1.89-11.28,2,.33a4.59,4.59,0,0,0-.1,1,4.9,4.9,0,0,0,2.13,4l-.51.81a1.63,1.63,0,0,0-1.62,1.62,4.85,4.85,0,1,0,4.85-4.85,1.62,1.62,0,1,1,1.62-1.62,1.62,1.62,0,1,0,3.23,0h3.23v4.85a1.63,1.63,0,0,0,1.62,1.62c.12,0,.22,0,.33,0l-.33,3.26a1.64,1.64,0,0,0-1.62,1.62v3.25a1.62,1.62,0,0,1-1.61,1.62h-55a1.63,1.63,0,0,1-1.63-1.62v-4.87h3.25a1.62,1.62,0,1,0,3.23,0V895.2l3.4,6.82a1.63,1.63,0,0,0,3.07-.74h3.23a1.62,1.62,0,0,0,1.62,1.62h6.48a1.62,1.62,0,1,0,0-3.23H750.3v-3.24h3.24A1.61,1.61,0,0,0,755.17,894.82Z" transform="translate(-646.3 -817.09)"/><path class="cls-1" d="M737.21,887.62l3.4,6.81v-6.08a1.62,1.62,0,1,1,3.23,0v12.93a1.63,1.63,0,0,1-3.07.74l-3.4-6.82v6.08a1.62,1.62,0,1,1-3.23,0V888.35a1.59,1.59,0,0,1,.9-1.48A1.63,1.63,0,0,1,737.21,887.62Z" transform="translate(-646.3 -817.09)"/><path class="cls-1" d="M729.27,932v-9.72a1.63,1.63,0,0,1,1.62-1.61h6.48a1.62,1.62,0,1,1,0,3.23h-4.85v1.62h3.24a1.63,1.63,0,0,1,0,3.25h-3.24v1.61h4.85a1.62,1.62,0,1,1,0,3.24h-6.48A1.64,1.64,0,0,1,729.27,932Z" transform="translate(-646.3 -817.09)"/><path class="cls-1" d="M782.1,857.6a22.61,22.61,0,0,0-44.18,0Zm5.42,24.27h-55a1.63,1.63,0,0,0-1.63,1.63v1.62a1.62,1.62,0,0,1-3.23,0V883.5a4.87,4.87,0,0,1,4.86-4.86h7.35a25.79,25.79,0,0,1-5.23-11.32h-.5a4.86,4.86,0,1,1,0-9.72h.5A25.84,25.84,0,0,1,755.22,837a26.48,26.48,0,0,1,4.83-.45,25.8,25.8,0,0,1,25.33,21h.52a4.86,4.86,0,0,1,0,9.72h-.5a26.22,26.22,0,0,1-2.52,7.23,1.59,1.59,0,0,1-1.43.85,1.54,1.54,0,0,1-.75-.18A1.61,1.61,0,0,1,780,873a23,23,0,0,0,2.1-5.72h-44.2a22.64,22.64,0,0,0,6.32,11.32h43.28a4.86,4.86,0,0,1,4.85,4.86v12.93a1.61,1.61,0,0,1-1.29,1.59c-.11,0-.21,0-.33,0a1.63,1.63,0,0,1-1.62-1.62V883.5A1.61,1.61,0,0,0,787.52,881.87Zm-53.38-21a1.63,1.63,0,0,0,0,3.25H785.9a1.63,1.63,0,0,0,0-3.25Z" transform="translate(-646.3 -817.09)"/><path class="cls-1" d="M732.52,907.77h55a1.62,1.62,0,0,0,1.61-1.62V902.9a1.62,1.62,0,1,1,3.24,0v3.25a4.85,4.85,0,0,1-4.85,4.85H776.09l-1.52,21.15a1.61,1.61,0,0,1-1.62,1.5h-.11a1.63,1.63,0,0,1-1.5-1.74l1.5-20.91H747.19l1.5,20.91a1.62,1.62,0,0,1-1.5,1.74h-.12a1.61,1.61,0,0,1-1.61-1.5L744,911H732.52a4.86,4.86,0,0,1-4.76-3.88,4.37,4.37,0,0,1-.1-1V891.58a1.62,1.62,0,0,1,3.23,0v14.57A1.63,1.63,0,0,0,732.52,907.77Z" transform="translate(-646.3 -817.09)"/><path class="cls-4" d="M732.52,881.87h55a1.61,1.61,0,0,1,1.61,1.63v8.08H785.9a4.85,4.85,0,0,0-9.6-1l-2-.33.26-1.65a1.61,1.61,0,0,0-3.18-.54l-1.22,7.24L768,889.9a1.62,1.62,0,0,0-2.1-.9,1.56,1.56,0,0,0-.9.9l-2.17,5.42-1.22-7.24a1.61,1.61,0,0,0-3.2.3l-1.61,0a1.63,1.63,0,0,0-1.62-1.62h-6.48a1.62,1.62,0,0,0-1.62,1.62v12.93h-3.23V888.35a1.62,1.62,0,1,0-3.23,0v6.08l-3.4-6.81a1.63,1.63,0,0,0-2.17-.75,1.59,1.59,0,0,0-.9,1.48v12.93h-3.25v-9.7a1.6,1.6,0,0,0-1.62-1.61v-3.24a1.62,1.62,0,0,0,1.62-1.61V883.5A1.63,1.63,0,0,1,732.52,881.87Z" transform="translate(-646.3 -817.09)"/><path class="cls-1" d="M722.89,921.81a1.62,1.62,0,1,1,3.07,1l-3.24,9.7a1.61,1.61,0,0,1-3.06,0l-3.25-9.7a1.62,1.62,0,1,1,3.08-1l1.7,5.1Z" transform="translate(-646.3 -817.09)"/><path class="cls-1" d="M713.11,922.31V932a1.63,1.63,0,0,1-3.25,0v-9.72a1.58,1.58,0,0,1,.72-1.33,1.6,1.6,0,0,1,.91-.28A1.62,1.62,0,0,1,713.11,922.31Z" transform="translate(-646.3 -817.09)"/><path class="cls-3" d="M730.89,933.65h6.48a1.62,1.62,0,1,0,0-3.24h-4.85V928.8h3.24a1.63,1.63,0,0,0,0-3.25h-3.24v-1.62h4.85a1.62,1.62,0,1,0,0-3.23h-6.48a1.63,1.63,0,0,0-1.62,1.61V932A1.64,1.64,0,0,0,730.89,933.65ZM726,922.83a1.62,1.62,0,1,0-3.07-1l-1.7,5.1-1.7-5.1a1.62,1.62,0,1,0-3.08,1l3.25,9.7a1.61,1.61,0,0,0,3.06,0Zm1.8-15.71a4.86,4.86,0,0,0,4.76,3.88H744l1.5,21.15a1.61,1.61,0,0,0,1.61,1.5h.12v2.5h-35.7v-2.5a1.63,1.63,0,0,0,1.62-1.62v-9.72a1.62,1.62,0,0,0-1.62-1.61,1.6,1.6,0,0,0-.91.28l-1.4-2.55a1.66,1.66,0,0,0,1.13-.45,0,0,0,0,1,0,0,1.61,1.61,0,0,1,2.29,0,1.62,1.62,0,0,0,2.28,0,1.6,1.6,0,0,0,.05-2.28l-.05-.05a4.89,4.89,0,0,0-2.95-1.4l.13-3.22a7.93,7.93,0,0,1,5.12,2.33,1.61,1.61,0,0,0,2.28-2.28,11.2,11.2,0,0,0-5.83-3.11l.47-3.19a14.35,14.35,0,0,1,7.64,4,1.61,1.61,0,0,0,2.3,0,1.57,1.57,0,0,0,.42-1.42Z" transform="translate(-646.3 -817.09)"/><path class="cls-1" d="M708,918a1.63,1.63,0,0,1,0-2.3,4.83,4.83,0,0,1,6.85,0l.05.05a1.6,1.6,0,0,1-.05,2.28,1.62,1.62,0,0,1-2.28,0,1.61,1.61,0,0,0-2.29,0,0,0,0,0,0,0,0,1.66,1.66,0,0,1-1.13.45A1.7,1.7,0,0,1,708,918Z" transform="translate(-646.3 -817.09)"/><path class="cls-1" d="M703.48,911.08a11.31,11.31,0,0,1,16,0,1.61,1.61,0,0,1-2.28,2.28,7.93,7.93,0,0,0-5.12-2.33,8,8,0,0,0-6.33,2.33,1.61,1.61,0,0,1-2.28-2.28Z" transform="translate(-646.3 -817.09)"/><path class="cls-3" d="M705,933.65a1.62,1.62,0,0,0,0-3.24h-4.85v-8.1a1.62,1.62,0,0,0-3.23,0V932a1.62,1.62,0,0,0,1.61,1.62Zm-1.53-22.57a1.61,1.61,0,0,0,2.28,2.28,8,8,0,0,1,6.33-2.33l-.13,3.22a4.88,4.88,0,0,0-3.9,1.4,1.63,1.63,0,0,0,0,2.3,1.7,1.7,0,0,0,1.17.48l1.4,2.55a1.58,1.58,0,0,0-.72,1.33V932a1.63,1.63,0,0,0,1.63,1.62v2.5H663.3V890.78a2.84,2.84,0,0,0-2.84-2.83h0v-5.67h0a2.83,2.83,0,0,0,2.84-2.83V834.09h96.75v2.48a26.48,26.48,0,0,0-4.83.45,25.84,25.84,0,0,0-20.58,20.58h-.5a4.86,4.86,0,1,0,0,9.72h.5a25.79,25.79,0,0,0,5.23,11.32h-7.35a4.87,4.87,0,0,0-4.86,4.86v1.62a1.62,1.62,0,0,0,1.61,1.61V890a1.61,1.61,0,0,0-1.61,1.61v14.57a4.37,4.37,0,0,0,.1,1l-3.27.21a1.57,1.57,0,0,0-.42-.83,17.85,17.85,0,0,0-25.18,0,1.61,1.61,0,0,0,.05,2.28,1.59,1.59,0,0,0,2.25,0,14.54,14.54,0,0,1,12.94-4l-.47,3.19A11.31,11.31,0,0,0,703.48,911.08Z" transform="translate(-646.3 -817.09)"/><path class="cls-1" d="M698.94,908.78a1.61,1.61,0,0,1-.05-2.28,17.85,17.85,0,0,1,25.18,0,1.64,1.64,0,0,1,0,2.25,1.61,1.61,0,0,1-2.3,0,14.35,14.35,0,0,0-7.64-4,14.54,14.54,0,0,0-12.94,4A1.59,1.59,0,0,1,698.94,908.78Z" transform="translate(-646.3 -817.09)"/><path class="cls-1" d="M705,933.65h-6.47a1.62,1.62,0,0,1-1.61-1.62v-9.72a1.62,1.62,0,0,1,3.23,0v8.1H705a1.62,1.62,0,0,1,0,3.24Z" transform="translate(-646.3 -817.09)"/></svg>