<svg id="圖層_1" data-name="圖層 1" xmlns="http://www.w3.org/2000/svg" viewBox="0 0 193.51 147.42"><defs><style>.cls-1{fill:#414143;}.cls-2{fill:#ececec;}.cls-3{fill:#fff;}.cls-4{fill:#dbc9b1;}</style></defs><title>live_20</title><path class="cls-1" d="M839.22,831.29V950.34A14.21,14.21,0,0,1,825,964.53H659.87a14.19,14.19,0,0,1-14.17-14.19V831.29a14.19,14.19,0,0,1,14.17-14.18H825A14.21,14.21,0,0,1,839.22,831.29Zm-5.67,119.05V831.29a8.52,8.52,0,0,0-8.52-8.5H659.87a8.52,8.52,0,0,0-8.5,8.5V950.34a8.52,8.52,0,0,0,8.5,8.52H825A8.53,8.53,0,0,0,833.55,950.34Z" transform="translate(-645.7 -817.11)"/><path class="cls-2" d="M833.55,831.29V950.34a8.53,8.53,0,0,1-8.52,8.52H659.87a8.52,8.52,0,0,1-8.5-8.52V831.29a8.52,8.52,0,0,1,8.5-8.5H825A8.52,8.52,0,0,1,833.55,831.29ZM827.88,939V831.29a2.84,2.84,0,0,0-2.85-2.83H659.87a2.83,2.83,0,0,0-2.83,2.83v48.2a2.83,2.83,0,0,0,2.81,2.83V888a2.82,2.82,0,0,0-2.81,2.83V939a2.83,2.83,0,0,0,2.83,2.84H825A2.85,2.85,0,0,0,827.88,939Zm.25,11.33a2.83,2.83,0,1,0-2.83,2.84A2.84,2.84,0,0,0,828.13,950.34Zm-11.33,0a2.84,2.84,0,1,0-2.85,2.84A2.85,2.85,0,0,0,816.8,950.34Z" transform="translate(-645.7 -817.11)"/><path class="cls-1" d="M659.85,882.32a2.83,2.83,0,0,1-2.81-2.83v-48.2a2.83,2.83,0,0,1,2.83-2.83H825a2.84,2.84,0,0,1,2.85,2.83V939a2.85,2.85,0,0,1-2.85,2.84H659.87A2.83,2.83,0,0,1,657,939V890.82a2.82,2.82,0,0,1,2.81-2.83h0a2.82,2.82,0,0,1,2.83,2.83v45.36H822.2V834.12H662.7v45.37a2.83,2.83,0,0,1-2.83,2.83Z" transform="translate(-645.7 -817.11)"/><path class="cls-1" d="M825.3,947.5a2.84,2.84,0,1,1-2.83,2.84A2.84,2.84,0,0,1,825.3,947.5Z" transform="translate(-645.7 -817.11)"/><path class="cls-1" d="M814,947.5a2.84,2.84,0,1,1-2.83,2.84A2.85,2.85,0,0,1,814,947.5Z" transform="translate(-645.7 -817.11)"/><path class="cls-1" d="M782.11,921.7a1.58,1.58,0,1,1-1.57,1.58A1.58,1.58,0,0,1,782.11,921.7Z" transform="translate(-645.7 -817.11)"/><path class="cls-3" d="M782.11,924.85a1.58,1.58,0,1,0,0-3.15v-3.15h6.29v4.73a4.72,4.72,0,0,1-4.71,4.72h-1.58Z" transform="translate(-645.7 -817.11)"/><path class="cls-3" d="M780.54,907.53v7.89H749.06v-3.15a1.59,1.59,0,0,0,1.58-1.59v-1.56h25.18a1.57,1.57,0,0,0,1.57-1.59Z" transform="translate(-645.7 -817.11)"/><path class="cls-1" d="M775.82,921.7a1.58,1.58,0,1,1-1.58,1.58A1.57,1.57,0,0,1,775.82,921.7Z" transform="translate(-645.7 -817.11)"/><path class="cls-3" d="M782.11,928H750.64v-3.15a1.57,1.57,0,0,0,1.57-1.57v-4.73h29.9v3.15a1.58,1.58,0,0,0,0,3.15Zm-6.29-3.15a1.58,1.58,0,1,0-1.58-1.57A1.57,1.57,0,0,0,775.82,924.85Z" transform="translate(-645.7 -817.11)"/><path class="cls-1" d="M769.06,856.07a1.59,1.59,0,0,0-2.22,0,1.58,1.58,0,0,1-2.23-2.23,4.85,4.85,0,0,1,6.68,0,1.58,1.58,0,0,1-2.23,2.23Z" transform="translate(-645.7 -817.11)"/><polygon class="cls-3" points="118.72 71.54 114.37 73.72 114.37 69.38 118.72 71.54"/><path class="cls-1" d="M773.51,851.62a7.85,7.85,0,0,0-11.12,0,1.59,1.59,0,0,1-2.2,0,1.53,1.53,0,0,1-.47-1.13,1.57,1.57,0,0,1,.44-1.1,11,11,0,0,1,15.58,0,1.56,1.56,0,0,1-1.12,2.68A1.6,1.6,0,0,1,773.51,851.62Z" transform="translate(-645.7 -817.11)"/><path class="cls-1" d="M764.42,888.65l-4.35-2.16v4.34Zm4.24,1.42-9.45,4.73a1.77,1.77,0,0,1-.72.17,1.6,1.6,0,0,1-1.57-1.59v-9.44a1.77,1.77,0,0,1,.17-.72,1.6,1.6,0,0,1,2.12-.7l9.45,4.72a1.56,1.56,0,0,1,.86,1.41A1.59,1.59,0,0,1,768.66,890.07Z" transform="translate(-645.7 -817.11)"/><path class="cls-1" d="M778,847.17a14.18,14.18,0,0,0-20,0,1.56,1.56,0,0,1-2.18,0,1.59,1.59,0,0,1,0-2.23,17.33,17.33,0,0,1,24.48,0l0,0a1.58,1.58,0,1,1-2.26,2.2Z" transform="translate(-645.7 -817.11)"/><path class="cls-3" d="M763.22,898.1h-7.86a3.16,3.16,0,0,1-3.15-3.15V882.37a3.14,3.14,0,0,1,3.15-3.15h15.73a3.14,3.14,0,0,1,3.15,3.15V895a3.15,3.15,0,0,1-3.15,3.15h-1.57a1.58,1.58,0,0,0-1.58,1.57h-3.13A1.58,1.58,0,0,0,763.22,898.1Zm-6.3-4.72a1.6,1.6,0,0,0,1.57,1.59,1.77,1.77,0,0,0,.72-.17l9.45-4.73a1.59,1.59,0,0,0,.86-1.42,1.56,1.56,0,0,0-.86-1.41l-9.45-4.72a1.6,1.6,0,0,0-2.12.7,1.77,1.77,0,0,0-.17.72Z" transform="translate(-645.7 -817.11)"/><path class="cls-3" d="M777.39,882.37a6.3,6.3,0,0,0-6.3-6.3H755.36a6.25,6.25,0,0,0-5.22,2.78l-4.41-1.1a18.81,18.81,0,0,0,4.9-12.71c0-.49,0-.95,0-1.44l3.13-.13a1.57,1.57,0,0,0,1.56,1.58h20.55a4.73,4.73,0,0,1,4.72,4.72V895h-3.15Z" transform="translate(-645.7 -817.11)"/><path class="cls-1" d="M771.09,876.07a6.3,6.3,0,0,1,6.3,6.3V895a6.3,6.3,0,0,1-6.3,6.3h-1.57a1.58,1.58,0,1,1,0-3.15h1.57a3.15,3.15,0,0,0,3.15-3.15V882.37a3.14,3.14,0,0,0-3.15-3.15H755.36a3.14,3.14,0,0,0-3.15,3.15V895a3.16,3.16,0,0,0,3.15,3.15h7.86a1.58,1.58,0,1,1,0,3.15h-7.86a6.3,6.3,0,0,1-6.3-6.3V882.37a6.31,6.31,0,0,1,6.3-6.3Z" transform="translate(-645.7 -817.11)"/><path class="cls-1" d="M747.49,910.68v-1.56h-3.15a1.58,1.58,0,0,1,0-3.15h3.15V904.4a1.58,1.58,0,1,1,3.15,0V906h25.18a1.58,1.58,0,0,1,0,3.15H750.64v1.56a1.58,1.58,0,1,1-3.15,0Z" transform="translate(-645.7 -817.11)"/><rect class="cls-3" x="93.92" y="101.44" width="9.43" height="3.15"/><path class="cls-1" d="M747.49,844.59v3.15a1.58,1.58,0,0,1-3.15,0v-3.15a1.58,1.58,0,0,1,3.15,0Z" transform="translate(-645.7 -817.11)"/><path class="cls-4" d="M735.69,862.69a1.57,1.57,0,0,0,1.57-1.57,5.5,5.5,0,0,0-3.93-5.25V854a1.57,1.57,0,0,0-1.57-1.58l.13-3.14a15.59,15.59,0,0,1,8.77,2.77,1.63,1.63,0,0,0,.93.3l3,2.13a1.63,1.63,0,0,0,.1,1.62,15.74,15.74,0,0,1-12.82,24.65l-.13-3.15a1.57,1.57,0,0,0,1.57-1.57v-1.83a5.51,5.51,0,0,0,3.71-6.82,5.31,5.31,0,0,0-1.66-2.58l.23-2.17A.12.12,0,0,0,735.69,862.69Z" transform="translate(-645.7 -817.11)"/><path class="cls-1" d="M741.19,839.87V843a1.56,1.56,0,0,1-1.56,1.57A1.58,1.58,0,0,1,738,843v-3.15a1.6,1.6,0,0,1,1.59-1.58A1.58,1.58,0,0,1,741.19,839.87Z" transform="translate(-645.7 -817.11)"/><path class="cls-4" d="M735.61,862.67l-.23,2.17a5.41,5.41,0,0,0-3.62-1.37,2.36,2.36,0,1,1,2.35-2.35A1.55,1.55,0,0,0,735.61,862.67Z" transform="translate(-645.7 -817.11)"/><path class="cls-1" d="M733.33,838.29v3.15a1.58,1.58,0,1,1-3.15,0v-3.15a1.58,1.58,0,0,1,3.15,0Z" transform="translate(-645.7 -817.11)"/><path class="cls-3" d="M755.36,901.25h7.86a1.6,1.6,0,0,0,1.59-1.58h3.13a1.6,1.6,0,0,0,1.58,1.58h1.57a6.3,6.3,0,0,0,6.3-6.3h3.15v12.58h-3.15a1.56,1.56,0,0,0-1.57-1.56H750.64V904.4a1.58,1.58,0,1,0-3.15,0V906h-3.15a1.58,1.58,0,0,0,0,3.15h3.15v1.56a1.58,1.58,0,0,0,1.57,1.59v3.15H736.48V898.1a1.58,1.58,0,0,0-1.59-1.58h-3.15v-3.15a1.5,1.5,0,0,0,.72-.17L745,886.9a1.57,1.57,0,0,0,.89-1.4h3.13V895A6.3,6.3,0,0,0,755.36,901.25Z" transform="translate(-645.7 -817.11)"/><path class="cls-4" d="M727.81,867.4l1-1.63a5.53,5.53,0,0,0,3,.85,2.37,2.37,0,1,1-2.37,2.37A1.59,1.59,0,0,0,727.81,867.4Z" transform="translate(-645.7 -817.11)"/><path class="cls-1" d="M726.46,862.69a5.5,5.5,0,0,1,3.72-6.82V854a1.58,1.58,0,1,1,3.15,0v1.83a5.5,5.5,0,0,1,3.93,5.25,1.57,1.57,0,0,1-1.57,1.57.12.12,0,0,1-.08,0,1.55,1.55,0,0,1-1.5-1.55,2.36,2.36,0,1,0-2.35,2.35,5.41,5.41,0,0,1,3.62,1.37,5.31,5.31,0,0,1,1.66,2.58,5.51,5.51,0,0,1-3.71,6.82v1.83a1.58,1.58,0,0,1-3.15,0v-1.83a5.51,5.51,0,0,1-3.94-5.25,1.58,1.58,0,1,1,3.15,0,2.36,2.36,0,1,0,2.37-2.37,5.49,5.49,0,0,1-5.3-3.93Z" transform="translate(-645.7 -817.11)"/><path class="cls-4" d="M730.18,876.07a1.57,1.57,0,0,0,1.58,1.57l.13,3.15a15.74,15.74,0,1,1,0-31.47l-.13,3.14a1.58,1.58,0,0,0-1.58,1.58v1.83a5.5,5.5,0,0,0-3.72,6.82,5.57,5.57,0,0,0,2.33,3.08l-1,1.63a1.58,1.58,0,0,0-1.57,1.59,5.51,5.51,0,0,0,3.94,5.25Z" transform="translate(-645.7 -817.11)"/><path class="cls-3" d="M727,913.83v1.59h-6.3v-1.59a1.58,1.58,0,0,1,1.58-1.56h3.15A1.56,1.56,0,0,1,727,913.83Z" transform="translate(-645.7 -817.11)"/><path class="cls-1" d="M725.46,839.87V843a1.58,1.58,0,0,1-3.15,0v-3.15a1.58,1.58,0,1,1,3.15,0Z" transform="translate(-645.7 -817.11)"/><path class="cls-3" d="M725.46,907.53a1.58,1.58,0,1,1-3.15,0,1.58,1.58,0,0,1,3.15,0Z" transform="translate(-645.7 -817.11)"/><path class="cls-1" d="M719.86,884.09l11.9,6,11.88-5.95a1.6,1.6,0,0,1,2.12.7,1.53,1.53,0,0,1,.17.7,1.57,1.57,0,0,1-.89,1.4l-12.58,6.3a1.5,1.5,0,0,1-.72.17,1.53,1.53,0,0,1-.7-.17l-12.58-6.3a1.55,1.55,0,0,1-.7-2.1A1.57,1.57,0,0,1,719.86,884.09Z" transform="translate(-645.7 -817.11)"/><path class="cls-3" d="M714.45,899.67h18.88v15.75h-3.15v-1.59a4.74,4.74,0,0,0-2.2-4,4.91,4.91,0,0,0,.63-2.32,4.73,4.73,0,0,0-9.45,0,4.5,4.5,0,0,0,.64,2.32,4.72,4.72,0,0,0-2.2,4v1.59h-3.15Z" transform="translate(-645.7 -817.11)"/><path class="cls-1" d="M719.16,844.59v3.15a1.58,1.58,0,0,1-3.15,0v-3.15a1.58,1.58,0,0,1,3.15,0Z" transform="translate(-645.7 -817.11)"/><path class="cls-1" d="M740.66,878a15.72,15.72,0,0,0,4.05-21.88,1.63,1.63,0,0,1-.1-1.62,1.79,1.79,0,0,1,.52-.58,1.58,1.58,0,0,1,2.18.42,18.71,18.71,0,0,1,3.27,9.24c0,.49,0,.95,0,1.44a18.88,18.88,0,1,1-8.17-15.55l.07,0a1.58,1.58,0,0,1-.94,2.85,1.63,1.63,0,0,1-.93-.3,15.73,15.73,0,1,0-8.77,28.7A15.87,15.87,0,0,0,740.66,878Z" transform="translate(-645.7 -817.11)"/><path class="cls-1" d="M712.86,921.7a1.58,1.58,0,1,1,0,3.15,1.58,1.58,0,0,1,0-3.15Z" transform="translate(-645.7 -817.11)"/><path class="cls-3" d="M739.63,844.59a1.56,1.56,0,0,0,1.56-1.57v-3.15a1.58,1.58,0,0,0-1.56-1.58,1.6,1.6,0,0,0-1.59,1.58V843A1.58,1.58,0,0,0,739.63,844.59Zm36.11,4.8a11,11,0,0,0-15.58,0,1.57,1.57,0,0,0-.44,1.1,1.53,1.53,0,0,0,.47,1.13,1.59,1.59,0,0,0,2.2,0,7.85,7.85,0,0,1,11.12,0,1.6,1.6,0,0,0,1.11.45,1.56,1.56,0,0,0,1.12-2.68ZM722.31,843a1.58,1.58,0,0,0,3.15,0v-3.15a1.58,1.58,0,1,0-3.15,0Zm-59.61-8.9H822.2V936.18H662.7V890.82a2.82,2.82,0,0,0-2.83-2.83h0v-5.67h0a2.83,2.83,0,0,0,2.83-2.83Zm54.9,8.9a1.57,1.57,0,0,0-1.59,1.57v3.15a1.58,1.58,0,0,0,3.15,0v-3.15A1.56,1.56,0,0,0,717.6,843Zm40.32,4.15a14.18,14.18,0,0,1,20,0,1.58,1.58,0,1,0,2.26-2.2l0,0a17.33,17.33,0,0,0-24.48,0,1.59,1.59,0,0,0,0,2.23A1.56,1.56,0,0,0,757.92,847.17Zm-27.74-5.73a1.58,1.58,0,1,0,3.15,0v-3.15a1.58,1.58,0,0,0-3.15,0Zm36.66,14.63a1.59,1.59,0,0,1,2.22,0,1.58,1.58,0,0,0,2.23-2.23,4.85,4.85,0,0,0-6.68,0,1.58,1.58,0,0,0,2.23,2.23Zm-57.11,9.57a1.57,1.57,0,0,0-2.75-1s0,0,0,0a7.81,7.81,0,0,0-2,5.15v40.91a1.58,1.58,0,1,0,3.15,0h3.15v4.74H698.7a1.56,1.56,0,0,0-1.57,1.56v6.3a7.88,7.88,0,0,0,7.87,7.87h78.69a7.88,7.88,0,0,0,7.86-7.87V917a1.56,1.56,0,0,0-1.56-1.56h-6.3V869.77a7.88,7.88,0,0,0-7.87-7.87H755.27a1.56,1.56,0,0,0-1.56,1.57l-3.13.13a18.71,18.71,0,0,0-3.27-9.24,1.58,1.58,0,0,0-2.18-.42,1.79,1.79,0,0,0-.52.58l-3-2.13a1.58,1.58,0,0,0,.94-2.85l-.07,0a18.88,18.88,0,0,0-29.58,16ZM745.91,843a1.57,1.57,0,0,0-1.57,1.57v3.15a1.58,1.58,0,0,0,3.15,0v-3.15A1.57,1.57,0,0,0,745.91,843Z" transform="translate(-645.7 -817.11)"/><path class="cls-1" d="M709.2,864.45a1.6,1.6,0,0,1,.53,1.19,1.55,1.55,0,0,1-.4,1.05,4.68,4.68,0,0,0-1.18,3.08v40.91a1.58,1.58,0,1,1-3.15,0V869.77a7.81,7.81,0,0,1,2-5.15s0,0,0,0A1.59,1.59,0,0,1,709.2,864.45Z" transform="translate(-645.7 -817.11)"/><path class="cls-1" d="M706.58,921.7a1.58,1.58,0,1,1-1.58,1.58A1.57,1.57,0,0,1,706.58,921.7Z" transform="translate(-645.7 -817.11)"/><path class="cls-3" d="M708.15,923.28a1.58,1.58,0,1,0-1.57,1.57A1.57,1.57,0,0,0,708.15,923.28ZM750.64,928H705a4.73,4.73,0,0,1-4.72-4.72v-4.73h36.2v4.73a1.56,1.56,0,0,0,1.56,1.57h12.6Zm-36.19-4.72a1.59,1.59,0,0,0-1.59-1.58,1.58,1.58,0,1,0,1.59,1.58Z" transform="translate(-645.7 -817.11)"/><path class="cls-1" d="M739.63,918.55v3.15h9.43v-3.15Zm-14.17-6.28h-3.15a1.58,1.58,0,0,0-1.58,1.56v1.59H727v-1.59A1.56,1.56,0,0,0,725.46,912.27Zm-6.3-4.74a4.73,4.73,0,0,1,9.45,0,4.91,4.91,0,0,1-.63,2.32,4.74,4.74,0,0,1,2.2,4v1.59h3.15V899.67H714.45v15.75h3.15v-1.59a4.72,4.72,0,0,1,2.2-4A4.5,4.5,0,0,1,719.16,907.53Zm6.3,0a1.58,1.58,0,1,0-1.58,1.59A1.58,1.58,0,0,0,725.46,907.53Zm55.08,7.89V869.77a4.73,4.73,0,0,0-4.72-4.72H755.27a1.58,1.58,0,0,1,0-3.15h20.55a7.88,7.88,0,0,1,7.87,7.87v45.65H790a1.56,1.56,0,0,1,1.56,1.56v6.3a7.88,7.88,0,0,1-7.86,7.87H705a7.88,7.88,0,0,1-7.87-7.87V917a1.56,1.56,0,0,1,1.57-1.56h12.6V898.1a1.57,1.57,0,0,1,1.56-1.58h22a1.58,1.58,0,0,1,1.59,1.58v17.32h44.06ZM783.69,928a4.72,4.72,0,0,0,4.71-4.72v-4.73H752.21v4.73a1.57,1.57,0,0,1-1.57,1.57H738a1.56,1.56,0,0,1-1.56-1.57v-4.73h-36.2v4.73A4.73,4.73,0,0,0,705,928h78.69Z" transform="translate(-645.7 -817.11)"/></svg>