<svg id="圖層_1" data-name="圖層 1" xmlns="http://www.w3.org/2000/svg" viewBox="0 0 193.51 147.42"><defs><style>.cls-1{fill:#414143;}.cls-2{fill:#ececec;}.cls-3{fill:#8691c9;}.cls-4{fill:#fff;}.cls-5{fill:#ed9484;}</style></defs><title>live_11</title><path class="cls-1" d="M744.94,804.89V923.94a14.2,14.2,0,0,1-14.18,14.18H565.59a14.18,14.18,0,0,1-14.16-14.18V804.89a14.19,14.19,0,0,1,14.16-14.19H730.76A14.21,14.21,0,0,1,744.94,804.89Zm-5.67,119.05V804.89a8.51,8.51,0,0,0-8.51-8.5H565.59a8.5,8.5,0,0,0-8.49,8.5V923.94a8.5,8.5,0,0,0,8.49,8.5H730.76A8.5,8.5,0,0,0,739.27,923.94Z" transform="translate(-551.43 -790.7)"/><path class="cls-2" d="M739.27,804.89V923.94a8.5,8.5,0,0,1-8.51,8.5H565.59a8.5,8.5,0,0,1-8.49-8.5V804.89a8.5,8.5,0,0,1,8.49-8.5H730.76A8.51,8.51,0,0,1,739.27,804.89Zm-5.66,107.72V804.89a2.85,2.85,0,0,0-2.85-2.84H565.59a2.84,2.84,0,0,0-2.83,2.84v48.19a2.82,2.82,0,0,0,2.82,2.83v5.67a2.83,2.83,0,0,0-2.82,2.83v48.2a2.83,2.83,0,0,0,2.83,2.83H730.76A2.84,2.84,0,0,0,733.61,912.61Zm.25,11.33a2.84,2.84,0,1,0-2.83,2.83A2.84,2.84,0,0,0,733.86,923.94Zm-11.33,0a2.85,2.85,0,1,0-2.85,2.83A2.86,2.86,0,0,0,722.53,923.94Z" transform="translate(-551.43 -790.7)"/><path class="cls-1" d="M565.58,855.91a2.82,2.82,0,0,1-2.82-2.83V804.89a2.84,2.84,0,0,1,2.83-2.84H730.76a2.85,2.85,0,0,1,2.85,2.84V912.61a2.84,2.84,0,0,1-2.85,2.83H565.59a2.83,2.83,0,0,1-2.83-2.83v-48.2a2.83,2.83,0,0,1,2.82-2.83h0a2.84,2.84,0,0,1,2.84,2.83v45.36h159.5v-102H568.43v45.36a2.83,2.83,0,0,1-2.84,2.83Z" transform="translate(-551.43 -790.7)"/><path class="cls-1" d="M731,921.09a2.84,2.84,0,1,1-2.84,2.85A2.84,2.84,0,0,1,731,921.09Z" transform="translate(-551.43 -790.7)"/><path class="cls-1" d="M719.68,921.09a2.84,2.84,0,1,1-2.84,2.85A2.86,2.86,0,0,1,719.68,921.09Z" transform="translate(-551.43 -790.7)"/><path class="cls-3" d="M696,905.32a1.61,1.61,0,0,0,1.6,1.62v2.83H604.11v-2.83a1.61,1.61,0,0,0,1.6-1.62v-4.83H696Z" transform="translate(-551.43 -790.7)"/><path class="cls-4" d="M692.73,882.76h-6.45v-3.22a1.61,1.61,0,1,0,0-3.21V873.1h6.45Z" transform="translate(-551.43 -790.7)"/><rect class="cls-4" x="134.85" y="75.94" width="6.45" height="3.23"/><polygon class="cls-4" points="136.47 99.89 140.17 106.57 136.47 106.57 136.47 99.89"/><path class="cls-1" d="M686.28,876.33a1.61,1.61,0,1,1-1.6,1.6A1.6,1.6,0,0,1,686.28,876.33Z" transform="translate(-551.43 -790.7)"/><polygon class="cls-4" points="133.25 99.89 133.25 106.57 129.53 106.57 133.25 99.89"/><path class="cls-4" d="M684.68,877.93a1.6,1.6,0,0,0,1.6,1.61v3.22h-6.43V873.1h6.43v3.23A1.6,1.6,0,0,0,684.68,877.93Z" transform="translate(-551.43 -790.7)"/><path class="cls-4" d="M661,887.59h10.83a1.61,1.61,0,0,0,1.62-1.6v-1.61h3.22a1.61,1.61,0,0,0,1.61,1.61h5.32l-6.27,11.29h-5.5v-1.62a4.83,4.83,0,0,0-9.28-1.88Z" transform="translate(-551.43 -790.7)"/><path class="cls-4" d="M668.57,895.66v1.62h-3.24v-1.62a1.62,1.62,0,1,1,3.24,0Z" transform="translate(-551.43 -790.7)"/><path class="cls-5" d="M671.78,868.26a1.62,1.62,0,0,0-1.61,1.62v14.5H647.62v-3.22h17.71a1.62,1.62,0,1,0,0-3.23H654.05v-3.22a1.69,1.69,0,0,0,.73-.16l9.67-4.84a1.6,1.6,0,0,0,.72-2.16,1.57,1.57,0,0,0-.72-.72L654.78,862a1.57,1.57,0,0,0-.73-.17V858.6h16.12v4.83a1.63,1.63,0,0,0,1.61,1.62Z" transform="translate(-551.43 -790.7)"/><path class="cls-1" d="M662,843.37l1.6,3.23a1.61,1.61,0,1,1-2.88,1.43l-1.6-3.21a1.61,1.61,0,1,1,2.88-1.45Z" transform="translate(-551.43 -790.7)"/><polygon class="cls-4" points="108.69 77.56 104.24 79.79 104.24 75.33 108.69 77.56"/><path class="cls-4" d="M662,843.37a1.61,1.61,0,1,0-2.88,1.45l1.6,3.21a1.61,1.61,0,1,0,2.88-1.43Zm16.28,26.51a1.6,1.6,0,0,0-1.61,1.6v12.9H673.4v-14.5a1.62,1.62,0,0,0-1.62-1.62v-3.21a1.63,1.63,0,0,0,1.62-1.62V857a1.63,1.63,0,0,0-1.62-1.62H650.83v-4.83a1.62,1.62,0,0,0,1.62-1.6V844.1a1.62,1.62,0,0,0-1.62-1.62v-3.23h1.62a1.6,1.6,0,0,0,1.6-1.6h3.23a1.6,1.6,0,0,0,1.6,1.6h1.62a1.61,1.61,0,0,0,1.62-1.6v-3.23a11.31,11.31,0,0,0-9.67-11.15v-11.4a1.62,1.62,0,0,0-1.62-1.62v-2.53h77.1v102H697.56v-2.83a1.61,1.61,0,0,0,1.62-1.62v-6.44a1.6,1.6,0,0,0-1.62-1.6H695.3L689,886h5.32a1.62,1.62,0,0,0,1.61-1.61V865.05a1.62,1.62,0,0,0-1.61-1.62h-9.67a1.61,1.61,0,0,0-1.62,1.62v4.83Z" transform="translate(-551.43 -790.7)"/><path class="cls-4" d="M654.05,837.65a1.61,1.61,0,0,0-1.6-1.62h-9.68v-1.61a8.06,8.06,0,0,1,16.11,0V836a1.61,1.61,0,0,0-1.6,1.62Z" transform="translate(-551.43 -790.7)"/><path class="cls-1" d="M664.45,866.83a1.57,1.57,0,0,1,.72.72,1.6,1.6,0,0,1-.72,2.16l-9.67,4.84a1.69,1.69,0,0,1-.73.16,1.58,1.58,0,0,1-1.6-1.61v-9.67a1.57,1.57,0,0,1,.17-.73,1.59,1.59,0,0,1,1.43-.89,1.57,1.57,0,0,1,.73.17Zm-8.78,3.67,4.45-2.24L655.67,866Z" transform="translate(-551.43 -790.7)"/><path class="cls-4" d="M654.05,895.66a4.83,4.83,0,0,0-4.83-4.83v-3.24h8.41l2.42,9.69h-6Z" transform="translate(-551.43 -790.7)"/><path class="cls-5" d="M652.45,863.43v9.67a1.58,1.58,0,0,0,1.6,1.61v3.22h-6.43V866.65a1.61,1.61,0,0,0-1.62-1.6h-9.66V858.6h17.71v3.21a1.59,1.59,0,0,0-1.43.89A1.57,1.57,0,0,0,652.45,863.43Z" transform="translate(-551.43 -790.7)"/><path class="cls-1" d="M652.45,844.1v4.83a1.62,1.62,0,0,1-3.23,0V844.1a1.62,1.62,0,1,1,3.23,0Z" transform="translate(-551.43 -790.7)"/><path class="cls-4" d="M641.89,842.67a1.61,1.61,0,0,0-2.17.71l-1.6,3.22a1.61,1.61,0,0,0,2.88,1.45l1.6-3.23A1.58,1.58,0,0,0,641.89,842.67Zm-73.46-34.95h82.4v2.53a1.62,1.62,0,0,0-1.61,1.62v11.4a11.31,11.31,0,0,0-9.67,11.15v3.23a1.61,1.61,0,0,0,1.62,1.6h9.66v3.23a1.62,1.62,0,0,0-1.61,1.62v4.83a1.61,1.61,0,0,0,1.61,1.6v4.83H623.44a1.63,1.63,0,0,0-1.62,1.62v19.35H618.6a4.84,4.84,0,0,0-9-2.43l-3.21,5.58a4.85,4.85,0,0,0,1,6v5.32a1.61,1.61,0,1,0,0,3.21h6.45a1.63,1.63,0,0,1,1.62,1.62v1.62H604.11a1.6,1.6,0,0,0-1.62,1.6v6.44a1.61,1.61,0,0,0,1.62,1.62v2.83H568.43V864.41a2.84,2.84,0,0,0-2.84-2.83h0v-5.67h0a2.83,2.83,0,0,0,2.84-2.83Z" transform="translate(-551.43 -790.7)"/><path class="cls-1" d="M658.88,834.42a8.06,8.06,0,0,0-16.11,0V836h9.68a1.61,1.61,0,0,1,0,3.22H641.17a1.61,1.61,0,0,1-1.62-1.6v-3.23a11.31,11.31,0,0,1,9.67-11.15v-11.4a1.62,1.62,0,1,1,3.23,0v11.4a11.31,11.31,0,0,1,9.67,11.15v3.23a1.61,1.61,0,0,1-1.62,1.6h-1.62a1.61,1.61,0,0,1,0-3.22Z" transform="translate(-551.43 -790.7)"/><path class="cls-1" d="M641,848.05a1.61,1.61,0,0,1-2.88-1.45l1.6-3.22a1.61,1.61,0,0,1,2.17-.71,1.58,1.58,0,0,1,.71,2.15Z" transform="translate(-551.43 -790.7)"/><path class="cls-4" d="M637.94,882.76v1.62H631.5v-1.62a1.6,1.6,0,0,1,1.6-1.6h3.24A1.6,1.6,0,0,1,637.94,882.76Z" transform="translate(-551.43 -790.7)"/><path class="cls-4" d="M636.34,876.33a1.62,1.62,0,1,1-1.62-1.62A1.62,1.62,0,0,1,636.34,876.33Z" transform="translate(-551.43 -790.7)"/><rect class="cls-4" x="73.62" y="67.89" width="8.05" height="6.45"/><path class="cls-4" d="M639.55,876.33a4.83,4.83,0,1,0-9.66,0,4.47,4.47,0,0,0,.65,2.36,4.8,4.8,0,0,0-2.27,4.07v1.62h-3.22V868.26h19.34v16.12h-3.22v-1.62a4.84,4.84,0,0,0-2.27-4.07A4.65,4.65,0,0,0,639.55,876.33Z" transform="translate(-551.43 -790.7)"/><path class="cls-4" d="M626.65,894h22.57a1.62,1.62,0,0,1,1.61,1.62v1.62H625.05v-1.62A1.62,1.62,0,0,1,626.65,894Z" transform="translate(-551.43 -790.7)"/><path class="cls-4" d="M626.65,890.83a4.83,4.83,0,0,0-4.83,4.83v1.62H618.6v-1.62a4.83,4.83,0,0,0-4.83-4.83h-3.23v-4.09a4.86,4.86,0,0,0,4.2-2.43l3.22-5.57a4.92,4.92,0,0,0,.64-2.41h3.22V886a1.61,1.61,0,0,0,1.62,1.6h25.78v3.24Z" transform="translate(-551.43 -790.7)"/><path class="cls-4" d="M614.36,878.53l-2.79-1.62.8-1.4a1.71,1.71,0,0,1,1-.75,1.77,1.77,0,0,1,.41,0,1.59,1.59,0,0,1,1.6,1.62,1.52,1.52,0,0,1-.21.8Z" transform="translate(-551.43 -790.7)"/><path class="cls-4" d="M609.74,883.29a1.6,1.6,0,0,1-.58-2.2l.8-1.38,2.8,1.6-.82,1.4A1.6,1.6,0,0,1,609.74,883.29Z" transform="translate(-551.43 -790.7)"/><path class="cls-1" d="M687.9,890.59v6.69h3.7Zm-62.85-25.54h8.05V858.6h-8.05Zm59.63,25.54L681,897.28h3.72Zm-46.74-7.83a1.6,1.6,0,0,0-1.6-1.6H633.1a1.6,1.6,0,0,0-1.6,1.6v1.62h6.44Zm-28.78-1.67a1.61,1.61,0,1,0,2.78,1.62l.82-1.4-2.8-1.6Zm25.56-6.38a1.61,1.61,0,1,0,1.62,1.62A1.63,1.63,0,0,0,634.72,874.71ZM667,894a1.64,1.64,0,0,0-1.62,1.62v1.62h3.24v-1.62A1.64,1.64,0,0,0,667,894Zm-16.12,1.62a1.62,1.62,0,0,0-1.61-1.62H626.65a1.62,1.62,0,0,0-1.6,1.62v1.62h25.78Zm-38.46-20.15-.8,1.4,2.79,1.62.8-1.4a1.52,1.52,0,0,0,.21-.8,1.59,1.59,0,0,0-1.6-1.62,1.77,1.77,0,0,0-.41,0A1.71,1.71,0,0,0,612.37,875.51Zm67.48,7.25h12.88V873.1H679.85Zm12.88-16.11h-6.45v3.23h6.45Zm-58,4.83a4.84,4.84,0,0,1,4.83,4.85,4.65,4.65,0,0,1-.65,2.36,4.84,4.84,0,0,1,2.27,4.07v1.62h3.22V868.26H625.05v16.12h3.22v-1.62a4.8,4.8,0,0,1,2.27-4.07,4.47,4.47,0,0,1-.65-2.36A4.84,4.84,0,0,1,634.72,871.48Zm42.56,25.8L683.55,886h-5.32a1.61,1.61,0,0,1-1.61-1.61v-12.9a1.6,1.6,0,0,1,1.61-1.6h4.83v-4.83a1.61,1.61,0,0,1,1.62-1.62h9.67a1.62,1.62,0,0,1,1.61,1.62v19.33a1.62,1.62,0,0,1-1.61,1.61H689l6.27,11.29h2.26a1.6,1.6,0,0,1,1.62,1.6v6.44a1.61,1.61,0,1,1-3.22,0v-4.83H605.71v4.83a1.61,1.61,0,1,1-3.22,0v-6.44a1.6,1.6,0,0,1,1.62-1.6h11.28v-1.62a1.63,1.63,0,0,0-1.62-1.62h-6.45a1.61,1.61,0,1,1,0-3.21v-5.32a4.85,4.85,0,0,1-1-6l3.21-5.58a4.84,4.84,0,0,1,8.39,4.84l-3.22,5.57a4.86,4.86,0,0,1-4.2,2.43v4.09h3.23a4.83,4.83,0,0,1,4.83,4.83v1.62h3.22v-1.62a4.83,4.83,0,0,1,4.83-4.83h22.57a4.83,4.83,0,0,1,4.83,4.83v1.62h6l-2.42-9.69H623.44a1.61,1.61,0,0,1-1.62-1.6V857a1.63,1.63,0,0,1,1.62-1.62h48.34A1.63,1.63,0,0,1,673.4,857v6.45a1.62,1.62,0,1,1-3.23,0V858.6H636.34v6.45H646a1.61,1.61,0,0,1,1.62,1.6v11.28h17.71a1.62,1.62,0,1,1,0,3.23H647.62v3.22h22.55v-14.5a1.62,1.62,0,1,1,3.23,0V886a1.61,1.61,0,0,1-1.62,1.6H661l1.55,6.19a4.83,4.83,0,0,1,9.28,1.88v1.62Z" transform="translate(-551.43 -790.7)"/></svg>