<svg id="圖層_1" data-name="圖層 1" xmlns="http://www.w3.org/2000/svg" viewBox="0 0 193.51 147.4"><defs><style>.cls-1{fill:#414143;}.cls-2{fill:#dbc9b1;}.cls-3{fill:#fff;}</style></defs><title>live_2</title><path class="cls-1" d="M745.1,804.45V923.51a14.18,14.18,0,0,1-14.17,14.16H565.77a14.19,14.19,0,0,1-14.19-14.16V804.45a14.21,14.21,0,0,1,14.19-14.18H730.93A14.19,14.19,0,0,1,745.1,804.45Zm-5.67,119.06V804.45a8.51,8.51,0,0,0-8.5-8.51H565.77a8.52,8.52,0,0,0-8.52,8.51V923.51a8.52,8.52,0,0,0,8.52,8.5H730.93A8.52,8.52,0,0,0,739.43,923.51Z" transform="translate(-551.58 -790.27)"/><path class="cls-2" d="M739.43,804.45V923.51a8.52,8.52,0,0,1-8.5,8.5H565.77a8.52,8.52,0,0,1-8.52-8.5V804.45a8.52,8.52,0,0,1,8.52-8.51H730.93A8.51,8.51,0,0,1,739.43,804.45Zm-5.67,107.72V804.45a2.83,2.83,0,0,0-2.83-2.83H565.77a2.84,2.84,0,0,0-2.84,2.83v48.18a2.84,2.84,0,0,0,2.82,2.85v5.67a2.82,2.82,0,0,0-2.82,2.83v48.19a2.84,2.84,0,0,0,2.84,2.84H730.93A2.83,2.83,0,0,0,733.76,912.17Zm.25,11.32a2.83,2.83,0,1,0-2.83,2.83A2.82,2.82,0,0,0,734,923.49Zm-11.33,0a2.83,2.83,0,1,0-2.83,2.83A2.82,2.82,0,0,0,722.68,923.49Z" transform="translate(-551.58 -790.27)"/><path class="cls-1" d="M565.75,855.48a2.84,2.84,0,0,1-2.82-2.85V804.45a2.84,2.84,0,0,1,2.84-2.83H730.93a2.83,2.83,0,0,1,2.83,2.83V912.17a2.83,2.83,0,0,1-2.83,2.84H565.77a2.84,2.84,0,0,1-2.84-2.84V864a2.82,2.82,0,0,1,2.82-2.83h0A2.83,2.83,0,0,1,568.6,864v45.35H728.1v-102H568.6v45.34a2.84,2.84,0,0,1-2.83,2.85Z" transform="translate(-551.58 -790.27)"/><circle class="cls-1" cx="179.6" cy="133.22" r="2.83"/><path class="cls-3" d="M728.1,807.29v102H674.92v-4.07a7.9,7.9,0,0,0,7.88-7.88v-9.45a1.57,1.57,0,0,0-1.58-1.57v-3.15a1.58,1.58,0,0,0,1.58-1.58v-63a7.87,7.87,0,0,0-7.88-7.87v-3.48Z" transform="translate(-551.58 -790.27)"/><circle class="cls-1" cx="168.26" cy="133.22" r="2.83"/><path class="cls-1" d="M665.47,859.58h6.3a1.58,1.58,0,1,1,0,3.15h-4.71v3.15h4.71a1.58,1.58,0,1,1,0,3.15h-4.71v3.15h4.71a1.58,1.58,0,1,1,0,3.15h-6.3a1.56,1.56,0,0,1-1.56-1.57v-12.6A1.58,1.58,0,0,1,665.47,859.58Z" transform="translate(-551.58 -790.27)"/><path class="cls-3" d="M659.17,894.23a1.58,1.58,0,0,1-1.56,1.58H645a1.58,1.58,0,1,1,0-3.15h12.6A1.56,1.56,0,0,1,659.17,894.23Z" transform="translate(-551.58 -790.27)"/><polygon class="cls-3" points="100.92 53.56 96.57 55.74 96.57 51.39 100.92 53.56"/><path class="cls-1" d="M648.26,861.71a1.57,1.57,0,1,1,3-1.1l3.25,8.67,3.25-8.67a1.57,1.57,0,0,1,2-.93,1.59,1.59,0,0,1,.94,2l-4.74,12.6a1.53,1.53,0,0,1-1.46,1,1.58,1.58,0,0,1-1.49-1Z" transform="translate(-551.58 -790.27)"/><path class="cls-1" d="M656.74,845.25,647.29,850a1.64,1.64,0,0,1-.72.16,1.56,1.56,0,0,1-1.56-1.56v-9.45a1.64,1.64,0,0,1,.16-.72,1.6,1.6,0,0,1,2.12-.7l9.45,4.73a1.57,1.57,0,0,1,.87,1.4A1.6,1.6,0,0,1,656.74,845.25Zm-4.23-1.42-4.35-2.16V846Z" transform="translate(-551.58 -790.27)"/><path class="cls-1" d="M645,861.16v12.6a1.58,1.58,0,0,1-3.15,0v-12.6a1.58,1.58,0,1,1,3.15,0Z" transform="translate(-551.58 -790.27)"/><path class="cls-1" d="M657.61,895.81a1.58,1.58,0,0,0,0-3.15H645a1.58,1.58,0,1,0,0,3.15Zm4.71-1.58a4.72,4.72,0,0,1-4.71,4.73H645a4.73,4.73,0,1,1,0-9.45h12.6A4.72,4.72,0,0,1,662.32,894.23Z" transform="translate(-551.58 -790.27)"/><path class="cls-3" d="M651.31,853.28h-7.89a3.15,3.15,0,0,1-3.15-3.15v-12.6a3.16,3.16,0,0,1,3.15-3.15h15.75a3.15,3.15,0,0,1,3.15,3.15v12.6a3.14,3.14,0,0,1-3.15,3.15h-1.56a1.6,1.6,0,0,0-1.59,1.58h-3.15A1.58,1.58,0,0,0,651.31,853.28Zm-6.3-4.71a1.56,1.56,0,0,0,1.56,1.56,1.64,1.64,0,0,0,.72-.16l9.45-4.72a1.6,1.6,0,0,0,.87-1.42,1.57,1.57,0,0,0-.87-1.4l-9.45-4.73a1.6,1.6,0,0,0-2.12.7,1.64,1.64,0,0,0-.16.72Z" transform="translate(-551.58 -790.27)"/><path class="cls-1" d="M665.47,837.53v12.6a6.29,6.29,0,0,1-6.3,6.3h-1.56a1.58,1.58,0,1,1,0-3.15h1.56a3.14,3.14,0,0,0,3.15-3.15v-12.6a3.15,3.15,0,0,0-3.15-3.15H643.42a3.16,3.16,0,0,0-3.15,3.15v12.6a3.15,3.15,0,0,0,3.15,3.15h7.89a1.58,1.58,0,0,1,0,3.15h-7.89a6.3,6.3,0,0,1-6.29-6.3v-12.6a6.3,6.3,0,0,1,6.29-6.3h15.75A6.29,6.29,0,0,1,665.47,837.53Z" transform="translate(-551.58 -790.27)"/><path d="M635.56,818.64a1.58,1.58,0,1,1-1.58,1.58A1.57,1.57,0,0,1,635.56,818.64Z" transform="translate(-551.58 -790.27)"/><path class="cls-1" d="M629.26,873.76v-12.6a1.58,1.58,0,1,1,3.15,0v11h4.72a1.58,1.58,0,1,1,0,3.15h-6.3A1.57,1.57,0,0,1,629.26,873.76Z" transform="translate(-551.58 -790.27)"/><path d="M629.26,818.64a1.58,1.58,0,1,1-1.58,1.58A1.57,1.57,0,0,1,629.26,818.64Z" transform="translate(-551.58 -790.27)"/><path class="cls-3" d="M635.56,818.64a1.58,1.58,0,1,0,0,3.15,1.58,1.58,0,0,0,0-3.15Zm1.57,53.54h-4.72v-11a1.58,1.58,0,1,0-3.15,0v12.6a1.57,1.57,0,0,0,1.57,1.57h6.3a1.58,1.58,0,1,0,0-3.15Zm-7.87-53.54a1.58,1.58,0,1,0,0,3.15,1.58,1.58,0,0,0,0-3.15Zm45.66,83.47H627.68a4.73,4.73,0,0,1-4.72-4.73v-52a1.59,1.59,0,0,0-1.58-1.59v-3.15a1.57,1.57,0,0,0,1.58-1.56V818.64a4.73,4.73,0,0,1,4.72-4.72h47.24a4.72,4.72,0,0,1,4.73,4.72v63a1.58,1.58,0,0,0,1.57,1.58v3.15a1.57,1.57,0,0,0-1.57,1.57v9.45A4.73,4.73,0,0,1,674.92,902.11ZM657.61,899a4.73,4.73,0,0,0,0-9.45H645a4.73,4.73,0,1,0,0,9.45Zm-14.19-42.53h7.89a1.56,1.56,0,0,0,1.56-1.57H656a1.58,1.58,0,0,0,1.59,1.57h1.56a6.29,6.29,0,0,0,6.3-6.3v-12.6a6.29,6.29,0,0,0-6.3-6.3H643.42a6.3,6.3,0,0,0-6.29,6.3v12.6A6.3,6.3,0,0,0,643.42,856.43Zm5.75,3.25a1.59,1.59,0,0,0-.91,2l4.71,12.6a1.58,1.58,0,0,0,1.49,1,1.53,1.53,0,0,0,1.46-1l4.74-12.6a1.59,1.59,0,0,0-.94-2,1.57,1.57,0,0,0-2,.93l-3.25,8.67-3.25-8.67A1.6,1.6,0,0,0,649.17,859.68ZM645,873.76v-12.6a1.58,1.58,0,1,0-3.15,0v12.6a1.58,1.58,0,0,0,3.15,0Zm18.9-12.6v12.6a1.56,1.56,0,0,0,1.56,1.57h6.3a1.58,1.58,0,1,0,0-3.15h-4.71V869h4.71a1.58,1.58,0,1,0,0-3.15h-4.71v-3.15h4.71a1.58,1.58,0,1,0,0-3.15h-6.3A1.58,1.58,0,0,0,663.91,861.16Z" transform="translate(-551.58 -790.27)"/><path class="cls-3" d="M627.68,905.26h47.24v4.07H568.6V864a2.83,2.83,0,0,0-2.83-2.83h0v-5.67h0a2.84,2.84,0,0,0,2.83-2.85V807.29H674.92v3.48H627.68a7.87,7.87,0,0,0-7.87,7.87v20.48a1.56,1.56,0,0,0,1.57,1.56v3.15a1.58,1.58,0,0,0-1.57,1.59v52A7.89,7.89,0,0,0,627.68,905.26Z" transform="translate(-551.58 -790.27)"/><path class="cls-1" d="M679.65,818.64a4.72,4.72,0,0,0-4.73-4.72H627.68a4.73,4.73,0,0,0-4.72,4.72v20.48a1.58,1.58,0,0,1-3.15,0V818.64a7.87,7.87,0,0,1,7.87-7.87h47.24a7.87,7.87,0,0,1,7.88,7.87v63a1.58,1.58,0,1,1-3.15,0Z" transform="translate(-551.58 -790.27)"/><path class="cls-1" d="M674.92,902.11a4.73,4.73,0,0,0,4.73-4.73v-9.45a1.58,1.58,0,0,1,3.15,0v9.45a7.9,7.9,0,0,1-7.88,7.88H627.68a7.89,7.89,0,0,1-7.87-7.88v-52a1.58,1.58,0,1,1,3.15,0v52a4.73,4.73,0,0,0,4.72,4.73Z" transform="translate(-551.58 -790.27)"/></svg>