<svg id="圖層_1" data-name="圖層 1" xmlns="http://www.w3.org/2000/svg" viewBox="0 0 193.51 147.42"><defs><style>.cls-1{fill:#414143;}.cls-2{fill:#ececec;}.cls-3{fill:#fff;}.cls-4{fill:#8691c9;}</style></defs><title>live_6</title><path class="cls-1" d="M744.92,805.29V924.35a14.19,14.19,0,0,1-14.17,14.18H565.59a14.2,14.2,0,0,1-14.18-14.18V805.29a14.2,14.2,0,0,1,14.18-14.18H730.75A14.19,14.19,0,0,1,744.92,805.29Zm-5.67,119.06V805.29a8.51,8.51,0,0,0-8.5-8.5H565.59a8.51,8.51,0,0,0-8.52,8.5V924.35a8.51,8.51,0,0,0,8.52,8.49H730.75A8.5,8.5,0,0,0,739.25,924.35Z" transform="translate(-551.41 -791.11)"/><path class="cls-2" d="M739.25,805.29V924.35a8.5,8.5,0,0,1-8.5,8.49H565.59a8.51,8.51,0,0,1-8.52-8.49V805.29a8.51,8.51,0,0,1,8.52-8.5H730.75A8.51,8.51,0,0,1,739.25,805.29ZM733.58,913V805.29a2.83,2.83,0,0,0-2.83-2.83H565.59a2.84,2.84,0,0,0-2.85,2.83v48.2a2.84,2.84,0,0,0,2.83,2.83V862a2.83,2.83,0,0,0-2.83,2.83V913a2.85,2.85,0,0,0,2.85,2.84H730.75A2.83,2.83,0,0,0,733.58,913Zm.25,11.32a2.83,2.83,0,1,0-2.83,2.85A2.83,2.83,0,0,0,733.83,924.33Zm-11.33,0a2.83,2.83,0,1,0-2.83,2.85A2.83,2.83,0,0,0,722.5,924.33Z" transform="translate(-551.41 -791.11)"/><path class="cls-1" d="M565.57,856.32a2.84,2.84,0,0,1-2.83-2.83v-48.2a2.84,2.84,0,0,1,2.85-2.83H730.75a2.83,2.83,0,0,1,2.83,2.83V913a2.83,2.83,0,0,1-2.83,2.84H565.59a2.85,2.85,0,0,1-2.85-2.84V864.82a2.83,2.83,0,0,1,2.83-2.83h0a2.83,2.83,0,0,1,2.83,2.83v45.36h159.5v-102H568.42v45.36a2.83,2.83,0,0,1-2.83,2.83Z" transform="translate(-551.41 -791.11)"/><path class="cls-1" d="M731,921.5a2.84,2.84,0,1,1-2.83,2.83A2.83,2.83,0,0,1,731,921.5Z" transform="translate(-551.41 -791.11)"/><path class="cls-1" d="M719.67,921.5a2.84,2.84,0,1,1-2.83,2.83A2.83,2.83,0,0,1,719.67,921.5Z" transform="translate(-551.41 -791.11)"/><path class="cls-1" d="M681,823.86a17.69,17.69,0,0,1,2.45,24.91.58.58,0,0,1-.1.12,1.6,1.6,0,0,1-2.38-2.15,14.5,14.5,0,0,0-2-20.4l-.1-.08a1.6,1.6,0,0,1,2.13-2.4Z" transform="translate(-551.41 -791.11)"/><path class="cls-1" d="M676.94,828.82a11.29,11.29,0,0,1,1.55,15.87s0,0,0,.06a1.62,1.62,0,0,1-2.27.17,1.61,1.61,0,0,1-.16-2.28,8.05,8.05,0,0,0-1.12-11.32,1.62,1.62,0,0,1,2.05-2.5Z" transform="translate(-551.41 -791.11)"/><path class="cls-1" d="M671,838.55a1.61,1.61,0,0,0-.22-2.26l-.07,0a1.63,1.63,0,0,1-.16-2.27,1.61,1.61,0,0,1,2.28-.16,4.84,4.84,0,0,1,.67,6.79l-.07.07a1.61,1.61,0,0,1-2.43-2.12Z" transform="translate(-551.41 -791.11)"/><path class="cls-3" d="M681.06,904H669.79v-3.21a1.61,1.61,0,0,0,0-3.22H665v-3.21h4.83a1.61,1.61,0,0,0,0-3.22H665v-3.22h4.83a1.62,1.62,0,0,0,0-3.23v-3.22h11.27v12.89a1.6,1.6,0,0,0,1.61,1.6v3.23a1.59,1.59,0,0,0-1.61,1.6Z" transform="translate(-551.41 -791.11)"/><path class="cls-3" d="M678.49,844.69a11.29,11.29,0,0,0-1.55-15.87,1.62,1.62,0,0,0-2.05,2.5A8.05,8.05,0,0,1,676,842.64a1.61,1.61,0,0,0,.16,2.28,1.62,1.62,0,0,0,2.27-.17S678.47,844.7,678.49,844.69ZM671,838.55a1.61,1.61,0,0,0,2.43,2.12l.07-.07a4.84,4.84,0,0,0-.67-6.79,1.61,1.61,0,0,0-2.28.16,1.63,1.63,0,0,0,.16,2.27l.07,0A1.61,1.61,0,0,1,671,838.55Zm13.18-2.43A14.43,14.43,0,0,1,681,846.74a1.6,1.6,0,0,0,2.38,2.15.58.58,0,0,0,.1-.12A17.69,17.69,0,0,0,681,823.86a1.6,1.6,0,0,0-2.13,2.4l.1.08A14.43,14.43,0,0,1,684.21,836.12Zm-1.54,42.1H660.13V875a4.83,4.83,0,1,0,0-9.66h-6.44V855a17.73,17.73,0,0,0,12.89-17v-6.43a1.64,1.64,0,0,0-1.62-1.62h-4.83v-8a11.27,11.27,0,0,0-11.27-11.26v-2.48h79.06v102H682.67v-3a1.62,1.62,0,0,0,1.6-1.62v-4.83a1.59,1.59,0,0,0-1.6-1.6v-3.23a1.6,1.6,0,0,0,1.6-1.6V879.83A1.59,1.59,0,0,0,682.67,878.22Z" transform="translate(-551.41 -791.11)"/><path class="cls-1" d="M661.74,899.15V886.28h0a1.62,1.62,0,0,1,1.6-1.62h6.45a1.62,1.62,0,0,1,0,3.23H665v3.22h4.83a1.61,1.61,0,0,1,0,3.22H665v3.21h4.83a1.61,1.61,0,0,1,0,3.22h-6.45A1.6,1.6,0,0,1,661.74,899.15Z" transform="translate(-551.41 -791.11)"/><path class="cls-3" d="M669.79,904H652.08v-3.21a1.61,1.61,0,0,0,1.51-1l4.84-12.88a1.72,1.72,0,0,0,.1-.55h3.21v12.87a1.6,1.6,0,0,0,1.6,1.6h6.45Z" transform="translate(-551.41 -791.11)"/><path class="cls-3" d="M650.48,855.6v9.74h-3.22V855.6c.52,0,1.07.09,1.6.09S649.94,855.65,650.48,855.6Z" transform="translate(-551.41 -791.11)"/><path class="cls-1" d="M655.41,885.7a1.61,1.61,0,0,1,3.12.58,1.72,1.72,0,0,1-.1.55l-4.84,12.88a1.61,1.61,0,0,1-3,0l-4.84-12.88a1.84,1.84,0,0,1-.1-.56,1.61,1.61,0,0,1,3.12-.57l3.32,8.87Z" transform="translate(-551.41 -791.11)"/><path class="cls-3" d="M645.64,886.27a1.84,1.84,0,0,0,.1.56l4.84,12.88a1.6,1.6,0,0,0,1.5,1V904H640.81v-3.21a1.61,1.61,0,0,0,1.62-1.6V886.27Z" transform="translate(-551.41 -791.11)"/><path class="cls-1" d="M642.43,886.27v12.88a1.61,1.61,0,0,1-3.22,0V886.27a1.61,1.61,0,1,1,3.22,0Z" transform="translate(-551.41 -791.11)"/><path class="cls-4" d="M648.83,849.24a11.24,11.24,0,0,0,4.88-1.1,1.61,1.61,0,0,0-1.38-2.9,8,8,0,0,1-10.72-3.77,8.32,8.32,0,0,1-.63-1.88h3a1.61,1.61,0,1,0,0-3.22h-3.22v-4.83H644a1.61,1.61,0,1,0,0-3.22h-3.22v-4.83H644a1.61,1.61,0,1,0,0-3.22h-3a8,8,0,0,1,15.76,0h-3a1.61,1.61,0,1,0,0,3.22h3.22v4.83h-3.22a1.61,1.61,0,1,0,0,3.22h3.22v4.83h-3.22a1.61,1.61,0,1,0,0,3.22h3a9.33,9.33,0,0,1-.61,1.85,1.6,1.6,0,1,0,2.8,1.56.75.75,0,0,0,.08-.18,11.13,11.13,0,0,0,1.12-4.85v-4.83h3.21V838a14.48,14.48,0,1,1-29,0v-4.83h3.22V838A11.24,11.24,0,0,0,648.83,849.24Z" transform="translate(-551.41 -791.11)"/><path class="cls-1" d="M650.48,855.6c-.54,0-1.07.09-1.62.09s-1.08,0-1.6-.09v9.74h3.22ZM631.16,838v-6.43a1.62,1.62,0,0,1,1.6-1.62h4.84v-8a11.27,11.27,0,0,1,22.53,0v8H665a1.64,1.64,0,0,1,1.62,1.62V838a17.73,17.73,0,0,1-12.89,17v10.34h6.44a4.83,4.83,0,1,1,0,9.66H637.6a1.61,1.61,0,1,1,0-3.22h22.53a1.62,1.62,0,0,0,0-3.23H637.6a1.61,1.61,0,1,1,0-3.21H644V855A17.72,17.72,0,0,1,631.16,838Zm3.22,0a14.48,14.48,0,1,0,29,0v-4.83h-3.21V838a11.13,11.13,0,0,1-1.12,4.85.75.75,0,0,1-.08.18,1.6,1.6,0,1,1-2.8-1.56,9.33,9.33,0,0,0,.61-1.85h-3a1.61,1.61,0,1,1,0-3.22h3.22v-4.83h-3.22a1.61,1.61,0,1,1,0-3.22h3.22v-4.83h-3.22a1.61,1.61,0,1,1,0-3.22h3a8,8,0,0,0-15.76,0h3a1.61,1.61,0,1,1,0,3.22h-3.22v4.83H644a1.61,1.61,0,1,1,0,3.22h-3.22v4.83H644a1.61,1.61,0,1,1,0,3.22h-3a8.32,8.32,0,0,0,.63,1.88,8,8,0,0,0,10.72,3.77,1.61,1.61,0,0,1,1.38,2.9A11.26,11.26,0,0,1,637.6,838v-4.83h-3.22Z" transform="translate(-551.41 -791.11)"/><path class="cls-1" d="M634.38,900.75h-6.45a1.6,1.6,0,0,1-1.6-1.6V886.27a1.61,1.61,0,1,1,3.22,0v11.26h4.83a1.61,1.61,0,0,1,0,3.22Z" transform="translate(-551.41 -791.11)"/><path class="cls-1" d="M626.75,838.62a1.61,1.61,0,1,1-2.54,2,4.81,4.81,0,0,1,.67-6.79,1.42,1.42,0,0,1,.13-.12,1.61,1.61,0,0,1,2.25.35,1.53,1.53,0,0,1,.32,1,1.59,1.59,0,0,1-.67,1.3,1.6,1.6,0,0,0-.21,2.26Z" transform="translate(-551.41 -791.11)"/><path class="cls-1" d="M622.83,831.32a8.05,8.05,0,0,0-1.12,11.32,1.61,1.61,0,0,1-2.48,2.05,11.29,11.29,0,0,1,1.55-15.87A1.64,1.64,0,0,1,623,829,1.62,1.62,0,0,1,622.83,831.32Z" transform="translate(-551.41 -791.11)"/><path class="cls-3" d="M627.26,834a1.61,1.61,0,0,0-2.25-.35,1.42,1.42,0,0,0-.13.12,4.81,4.81,0,0,0-.67,6.79,1.61,1.61,0,1,0,2.54-2l0-.07a1.6,1.6,0,0,1,.21-2.26,1.59,1.59,0,0,0,.67-1.3A1.53,1.53,0,0,0,627.26,834Zm-10.51,12.7a14.5,14.5,0,0,1,2-20.4,1.61,1.61,0,0,0,.3-2.25,1.6,1.6,0,0,0-2.25-.32.9.9,0,0,0-.1.09,17.71,17.71,0,0,0-2.45,24.91,1.63,1.63,0,0,0,1.25.6,1.61,1.61,0,0,0,1.25-2.63ZM623,829a1.64,1.64,0,0,0-2.22-.22,11.29,11.29,0,0,0-1.55,15.87,1.61,1.61,0,0,0,2.48-2.05,8.05,8.05,0,0,1,1.12-11.32A1.62,1.62,0,0,0,623,829Zm8.16,2.5V838A17.72,17.72,0,0,0,644,855v10.34H637.6a1.61,1.61,0,1,0,0,3.21h22.53a1.62,1.62,0,0,1,0,3.23H637.6a1.61,1.61,0,1,0,0,3.22h22.53v3.22H615.07a1.6,1.6,0,0,0-1.62,1.61v4.82a1.61,1.61,0,0,0,1.62,1.62v3.21a1.61,1.61,0,0,0-1.62,1.62v14.48a1.63,1.63,0,0,0,1.62,1.62h67.6v3H568.42V864.82a2.83,2.83,0,0,0-2.83-2.83h0v-5.67h0a2.83,2.83,0,0,0,2.83-2.83V808.13h80.44v2.48a11.27,11.27,0,0,0-11.26,11.26v8h-4.84A1.62,1.62,0,0,0,631.16,831.54Z" transform="translate(-551.41 -791.11)"/><path class="cls-1" d="M613.45,884.65v-4.82a1.6,1.6,0,0,1,1.62-1.61h67.6a1.59,1.59,0,0,1,1.6,1.61v14.49a1.61,1.61,0,0,1-3.21,0V881.43h-64.4v3.22a1.61,1.61,0,1,1-3.21,0Z" transform="translate(-551.41 -791.11)"/><path class="cls-1" d="M616.66,904h64.4v-3.21a1.61,1.61,0,0,1,3.21,0v4.83a1.62,1.62,0,0,1-1.6,1.62h-67.6a1.63,1.63,0,0,1-1.62-1.62V891.1a1.61,1.61,0,1,1,3.21,0Z" transform="translate(-551.41 -791.11)"/><path class="cls-1" d="M614.25,848.77a17.71,17.71,0,0,1,2.45-24.91.9.9,0,0,1,.1-.09,1.6,1.6,0,0,1,2.25.32,1.61,1.61,0,0,1-.3,2.25,14.5,14.5,0,0,0-2,20.4,1.61,1.61,0,1,1-2.5,2Z" transform="translate(-551.41 -791.11)"/></svg>