<svg id="圖層_1" data-name="圖層 1" xmlns="http://www.w3.org/2000/svg" viewBox="0 0 193.51 147.4"><defs><style>.cls-1{fill:#414143;}.cls-2{fill:#8691c9;}.cls-3{fill:#fff;}.cls-4{fill:#ed9484;}.cls-5{fill:#dbc9b1;}</style></defs><title>live_12</title><path class="cls-1" d="M744.35,805.27V924.33a14.17,14.17,0,0,1-14.16,14.16H565a14.18,14.18,0,0,1-14.17-14.16V805.27A14.19,14.19,0,0,1,565,791.09H730.19A14.19,14.19,0,0,1,744.35,805.27Zm-5.66,119.06V805.27a8.52,8.52,0,0,0-8.5-8.51H565a8.52,8.52,0,0,0-8.5,8.51V924.33a8.52,8.52,0,0,0,8.5,8.5H730.19A8.52,8.52,0,0,0,738.69,924.33Z" transform="translate(-550.84 -791.09)"/><path class="cls-2" d="M738.69,805.27V924.33a8.52,8.52,0,0,1-8.5,8.5H565a8.52,8.52,0,0,1-8.5-8.5V805.27a8.52,8.52,0,0,1,8.5-8.51H730.19A8.52,8.52,0,0,1,738.69,805.27ZM733,913V805.27a2.83,2.83,0,0,0-2.83-2.83H565a2.84,2.84,0,0,0-2.84,2.83v48.18A2.85,2.85,0,0,0,565,856.3V862a2.83,2.83,0,0,0-2.84,2.83V913a2.84,2.84,0,0,0,2.84,2.83H730.19A2.83,2.83,0,0,0,733,913Zm.25,11.31a2.83,2.83,0,1,0-2.83,2.83A2.82,2.82,0,0,0,733.27,924.31Zm-11.33,0a2.84,2.84,0,1,0-2.83,2.83A2.83,2.83,0,0,0,721.94,924.31Z" transform="translate(-550.84 -791.09)"/><path class="cls-1" d="M565,856.3a2.85,2.85,0,0,1-2.84-2.85V805.27a2.84,2.84,0,0,1,2.84-2.83H730.19a2.83,2.83,0,0,1,2.83,2.83V913a2.83,2.83,0,0,1-2.83,2.83H565a2.84,2.84,0,0,1-2.84-2.83V864.8a2.85,2.85,0,0,1,5.69,0v45.35H727.34v-102H567.86v45.34A2.86,2.86,0,0,1,565,856.3Z" transform="translate(-550.84 -791.09)"/><circle class="cls-1" cx="179.6" cy="133.22" r="2.83"/><circle class="cls-1" cx="168.26" cy="133.22" r="2.83"/><path class="cls-3" d="M695,877.35a1.83,1.83,0,0,0-1.82-1.82v-3.65a1.82,1.82,0,0,0,1.82-1.81v-3.65h3.65a1.82,1.82,0,0,0,3.63,0V819a9.13,9.13,0,0,0-9.1-9.12v-1.81h34.18v102H689.51v-1.82a1.83,1.83,0,0,0,1.82-1.82v-3.65a5.47,5.47,0,0,0-5.47-5.46H676l-6.85-10.93h24.06a9.13,9.13,0,0,0,9.1-9.12V873.7a1.82,1.82,0,1,0-3.63,0v3.65a5.47,5.47,0,0,1-5.47,5.47H602a5.49,5.49,0,0,1-5.14-3.65h96.26A1.81,1.81,0,0,0,695,877.35Z" transform="translate(-550.84 -791.09)"/><rect class="cls-4" x="111.34" y="73.51" width="29.15" height="3.63"/><path class="cls-3" d="M687.69,902.86v1.82H607.5v-1.82a1.82,1.82,0,0,1,1.84-1.81h76.52A1.81,1.81,0,0,1,687.69,902.86Z" transform="translate(-550.84 -791.09)"/><path class="cls-4" d="M686.88,846.17a1.7,1.7,0,0,0,1.61,0l1.74-.85a1.17,1.17,0,0,1,1.35,1.87l-3.89,3.9-3.9-3.89a1.19,1.19,0,0,1,0-1.66,1.17,1.17,0,0,1,1.37-.22Z" transform="translate(-550.84 -791.09)"/><path class="cls-1" d="M685.86,835.44a1.83,1.83,0,1,1,0,3.65H660.35a1.83,1.83,0,0,1,0-3.65Z" transform="translate(-550.84 -791.09)"/><path class="cls-1" d="M681.21,849.77a4.81,4.81,0,0,1,5.57-7.7l.91.45.9-.45a4.81,4.81,0,0,1,5.55,7.7L689,855a1.8,1.8,0,0,1-2.57,0Zm7.28-3.6a1.7,1.7,0,0,1-1.61,0l-1.72-.85a1.17,1.17,0,0,0-1.37.22,1.19,1.19,0,0,0,0,1.66l3.9,3.89,3.89-3.9a1.17,1.17,0,0,0-1.35-1.87Z" transform="translate(-550.84 -791.09)"/><path class="cls-4" d="M686.11,823.51l-3.88,3.9-3.9-3.9a1.19,1.19,0,0,1,1.36-1.89l1.72.87a1.84,1.84,0,0,0,1.62,0l1.73-.87a1.18,1.18,0,0,1,1.35.24,1.15,1.15,0,0,1,0,1.63Z" transform="translate(-550.84 -791.09)"/><path class="cls-1" d="M678.58,853.67a1.82,1.82,0,0,1,0,3.63H660.35a1.82,1.82,0,1,1,0-3.63Z" transform="translate(-550.84 -791.09)"/><path class="cls-1" d="M682.23,818.82l.9-.45a4.82,4.82,0,0,1,5.55,7.72l-5.19,5.17a1.8,1.8,0,0,1-2.56,0l-5.18-5.17a4.82,4.82,0,0,1,5.56-7.72Zm0,8.59,3.88-3.9v0a1.15,1.15,0,0,0,0-1.63,1.18,1.18,0,0,0-1.35-.24l-1.73.87a1.84,1.84,0,0,1-1.62,0l-1.72-.87a1.18,1.18,0,0,0-1.36,1.89Z" transform="translate(-550.84 -791.09)"/><path class="cls-1" d="M674.93,844.55a1.83,1.83,0,1,1,0,3.65H660.35a1.83,1.83,0,0,1,0-3.65Z" transform="translate(-550.84 -791.09)"/><path class="cls-1" d="M673.11,828.16a1.81,1.81,0,0,1-1.83,1.81H660.35a1.83,1.83,0,0,1,0-3.65h10.93A1.83,1.83,0,0,1,673.11,828.16Z" transform="translate(-550.84 -791.09)"/><polygon class="cls-3" points="113.97 95.37 120.8 106.31 72.71 106.31 79.54 95.37 113.97 95.37"/><path class="cls-1" d="M671.28,819a1.81,1.81,0,0,1-1.82,1.82h-9.11a1.82,1.82,0,0,1,0-3.64h9.11A1.81,1.81,0,0,1,671.28,819Z" transform="translate(-550.84 -791.09)"/><path class="cls-1" d="M691.33,864.6H662.18v3.63h29.15Zm-32.8-1.83a1.83,1.83,0,0,1,1.82-1.82h32.81a1.83,1.83,0,0,1,1.82,1.82v7.3a1.82,1.82,0,0,1-1.82,1.81H660.35a1.82,1.82,0,0,1-1.82-1.81Z" transform="translate(-550.84 -791.09)"/><path class="cls-3" d="M651.25,859.14v9.09H613V864.6a1.82,1.82,0,0,0,1.83-1.83V861h31a1.82,1.82,0,0,0,1.82-1.81Z" transform="translate(-550.84 -791.09)"/><path class="cls-3" d="M640.28,841a1.83,1.83,0,0,0-2.13.93l-2.47-1.3a1.8,1.8,0,0,0,0-3.25l2.52-1.13a1.81,1.81,0,0,0,2.13,1,1.83,1.83,0,0,0,1.24-2.27,14.58,14.58,0,0,0-13.95-10.38v-3.68h23.68v31a1.82,1.82,0,0,0,1.81,1.83v3.63a1.82,1.82,0,0,0-1.81,1.84H647.6a1.83,1.83,0,0,0-1.82-1.84H627.72v-3.63a14.51,14.51,0,0,0,13.81-10.42A1.82,1.82,0,0,0,640.28,841Z" transform="translate(-550.84 -791.09)"/><polygon class="cls-3" points="79.92 47.96 74.92 50.53 74.86 45.49 79.92 47.96"/><path class="cls-3" d="M603.87,820.86h23.7v3.68a14.57,14.57,0,1,0,0,29.13h.17v3.63H614.8v-1.81a1.83,1.83,0,0,0-3.65,0v1.81h-1.81a1.84,1.84,0,0,0-1.84,1.84h-3.63Z" transform="translate(-550.84 -791.09)"/><path class="cls-1" d="M625.7,836.59l.07,5,5-2.57Zm10,4-10.88,5.6a1.91,1.91,0,0,1-.82.2,1.82,1.82,0,0,1-1.83-1.8l-.12-11a1.56,1.56,0,0,1,.19-.81,1.81,1.81,0,0,1,2.43-.84l11,5.35a1.8,1.8,0,0,1,0,3.25Z" transform="translate(-550.84 -791.09)"/><path class="cls-5" d="M627.43,828.16h.12A11,11,0,0,1,638,836a2.52,2.52,0,0,0,.12.29l-2.52,1.13-11-5.35a1.81,1.81,0,0,0-2.43.84,1.56,1.56,0,0,0-.19.81l.12,11a1.82,1.82,0,0,0,1.83,1.8,1.91,1.91,0,0,0,.82-.2l10.88-5.6,2.47,1.3c0,.1-.08.18-.12.28a10.93,10.93,0,1,1-10.6-14Z" transform="translate(-550.84 -791.09)"/><path class="cls-1" d="M627.55,828.16h-.12a10.93,10.93,0,0,0-7.53,18.74A10.93,10.93,0,0,0,638,842.2c0-.1.07-.18.12-.28a1.82,1.82,0,0,1,3.38,1.33,14.51,14.51,0,0,1-13.81,10.42h-.17a14.57,14.57,0,1,1,14-18.75,1.83,1.83,0,0,1-1.24,2.27,1.81,1.81,0,0,1-2.13-1A2.52,2.52,0,0,1,638,836,11,11,0,0,0,627.55,828.16Z" transform="translate(-550.84 -791.09)"/><path class="cls-1" d="M611.15,861h-1.81a1.83,1.83,0,1,1,0-3.65h1.81v-1.81a1.83,1.83,0,0,1,3.65,0v1.81h31a1.83,1.83,0,0,1,0,3.65h-31v1.82a1.83,1.83,0,1,1-3.65,0Z" transform="translate(-550.84 -791.09)"/><path class="cls-3" d="M613,864.6v3.63h-9.1v-9.09h3.63a1.82,1.82,0,0,0,1.84,1.81h1.81v1.82A1.83,1.83,0,0,0,613,864.6Z" transform="translate(-550.84 -791.09)"/><path class="cls-1" d="M654.88,819v32.8a1.82,1.82,0,1,1-3.63,0v-31H603.87v47.37h47.38v-9.09a1.82,1.82,0,1,1,3.63,0v10.93a1.82,1.82,0,0,1-1.82,1.81H602a1.82,1.82,0,0,1-1.82-1.81V819a1.83,1.83,0,0,1,1.82-1.82h51A1.83,1.83,0,0,1,654.88,819Z" transform="translate(-550.84 -791.09)"/><path class="cls-3" d="M602,809.92a9.13,9.13,0,0,0-9.1,9.12v7.28a1.82,1.82,0,0,0,1.81,1.84v3.63a1.82,1.82,0,0,0-1.81,1.83v43.73a9.13,9.13,0,0,0,9.1,9.12H626.1l-6.83,10.93h-9.93a5.47,5.47,0,0,0-5.47,5.46v3.65a1.83,1.83,0,0,0,1.82,1.82h83.82v1.82H567.86V864.8A2.84,2.84,0,0,0,565,862V856.3a2.86,2.86,0,0,0,2.85-2.85V808.11h125.3v1.81Z" transform="translate(-550.84 -791.09)"/><path class="cls-1" d="M702.26,819v47.38a1.82,1.82,0,0,1-3.63,0V819a5.47,5.47,0,0,0-5.47-5.47H602a5.47,5.47,0,0,0-5.47,5.47v7.28a1.82,1.82,0,1,1-3.63,0V819a9.13,9.13,0,0,1,9.1-9.12h91.12A9.13,9.13,0,0,1,702.26,819Z" transform="translate(-550.84 -791.09)"/><path class="cls-1" d="M671.65,897.4l-6.84-10.93H630.38l-6.83,10.93Zm16,5.46a1.81,1.81,0,0,0-1.83-1.81H609.34a1.82,1.82,0,0,0-1.84,1.81v1.82h80.19Zm-94.75-25.51V833.62a1.82,1.82,0,1,1,3.63,0v41.91h96.59a1.82,1.82,0,1,1,0,3.64H596.9a5.49,5.49,0,0,0,5.14,3.65h91.12a5.47,5.47,0,0,0,5.47-5.47V873.7a1.82,1.82,0,1,1,3.63,0v3.65a9.13,9.13,0,0,1-9.1,9.12H669.1L676,897.4h9.91a5.47,5.47,0,0,1,5.47,5.46v3.65a1.83,1.83,0,0,1-1.82,1.82H605.69a1.83,1.83,0,0,1-1.82-1.82v-3.65a5.47,5.47,0,0,1,5.47-5.46h9.93l6.83-10.93H602A9.13,9.13,0,0,1,592.94,877.35Z" transform="translate(-550.84 -791.09)"/></svg>