<svg id="圖層_1" data-name="圖層 1" xmlns="http://www.w3.org/2000/svg" viewBox="0 0 193.51 147.4"><defs><style>.cls-1{fill:#414143;}.cls-2{fill:#ececec;}.cls-3{fill:#fff;}.cls-4{fill:#ed9484;}</style></defs><title>live_4</title><path class="cls-1" d="M744.47,805.23v119a14.18,14.18,0,0,1-14.16,14.18H565.13A14.19,14.19,0,0,1,551,924.28v-119a14.18,14.18,0,0,1,14.17-14.17H730.31A14.17,14.17,0,0,1,744.47,805.23Zm-5.66,119v-119a8.52,8.52,0,0,0-8.5-8.5H565.13a8.52,8.52,0,0,0-8.5,8.5v119a8.52,8.52,0,0,0,8.5,8.52H730.31A8.52,8.52,0,0,0,738.81,924.28Z" transform="translate(-550.96 -791.06)"/><path class="cls-2" d="M738.81,805.23v119a8.52,8.52,0,0,1-8.5,8.52H565.13a8.52,8.52,0,0,1-8.5-8.52v-119a8.52,8.52,0,0,1,8.5-8.5H730.31A8.52,8.52,0,0,1,738.81,805.23ZM733.14,913V805.23a2.82,2.82,0,0,0-2.83-2.83H565.13a2.83,2.83,0,0,0-2.83,2.83v48.19a2.84,2.84,0,0,0,2.83,2.84v5.66a2.84,2.84,0,0,0-2.83,2.84V913a2.83,2.83,0,0,0,2.83,2.83H730.31A2.82,2.82,0,0,0,733.14,913Zm.25,11.33a2.83,2.83,0,1,0-2.83,2.83A2.83,2.83,0,0,0,733.39,924.28Zm-11.33,0a2.84,2.84,0,1,0-2.83,2.83A2.83,2.83,0,0,0,722.06,924.28Z" transform="translate(-550.96 -791.06)"/><path class="cls-1" d="M565.13,856.26a2.84,2.84,0,0,1-2.83-2.84V805.23a2.83,2.83,0,0,1,2.83-2.83H730.31a2.82,2.82,0,0,1,2.83,2.83V913a2.82,2.82,0,0,1-2.83,2.83H565.13A2.83,2.83,0,0,1,562.3,913V864.76a2.84,2.84,0,1,1,5.68,0v45.36h159.5V808.06H568v45.36A2.85,2.85,0,0,1,565.13,856.26Z" transform="translate(-550.96 -791.06)"/><circle class="cls-1" cx="179.6" cy="133.22" r="2.83"/><circle class="cls-1" cx="168.26" cy="133.22" r="2.83"/><path class="cls-1" d="M674.15,814.06a1.61,1.61,0,0,1,1.15-2.72,1.55,1.55,0,0,1,1.1.45,17.59,17.59,0,0,1,0,24.82l0,0a1.6,1.6,0,1,1-2.22-2.3,14,14,0,0,0,3.93-7.53A14.32,14.32,0,0,0,674.15,814.06Z" transform="translate(-550.96 -791.06)"/><path class="cls-1" d="M669.63,832.09a1.58,1.58,0,0,1,0-2.25,7.74,7.74,0,0,0,2.3-5.05,7.88,7.88,0,0,0-2.3-6.23,1.59,1.59,0,0,1,0-2.22,1.67,1.67,0,0,1,1.15-.48,1.59,1.59,0,0,1,1.1.45,11.14,11.14,0,0,1,0,15.78A1.56,1.56,0,0,1,669.63,832.09Z" transform="translate(-550.96 -791.06)"/><path class="cls-3" d="M670.37,891.07h-1.62V887.9a1.57,1.57,0,0,0,1.23-.58l0-.05,4.82-6.2,10,24.95a1.61,1.61,0,0,0,1.47,1v3.1H670.37V907a1.6,1.6,0,1,0,0-3.2h-4.79v-3.19h4.79a1.59,1.59,0,1,0,0-3.18h-4.79v-3.2h4.79a1.59,1.59,0,1,0,0-3.18Z" transform="translate(-550.96 -791.06)"/><path class="cls-1" d="M665.08,823a1.58,1.58,0,0,1,0-2.25,1.59,1.59,0,0,1,2.26.05,4.74,4.74,0,0,1,0,6.75,1.59,1.59,0,0,1-2.26-2.25,1.58,1.58,0,0,0,0-2.25S665.1,823,665.08,823Z" transform="translate(-550.96 -791.06)"/><path class="cls-3" d="M664,860.77a1.55,1.55,0,0,0-.13-.61l2.25-.9,7.36,18.38-6,7.66a1.55,1.55,0,0,0-.37,1H664Z" transform="translate(-550.96 -791.06)"/><path class="cls-1" d="M662.4,905.42V892.65a1.6,1.6,0,0,1,1.6-1.58h6.37a1.59,1.59,0,1,1,0,3.18h-4.79v3.2h4.79a1.59,1.59,0,1,1,0,3.18h-4.79v3.19h4.79a1.6,1.6,0,1,1,0,3.2H664A1.6,1.6,0,0,1,662.4,905.42Z" transform="translate(-550.96 -791.06)"/><path class="cls-3" d="M665.12,820.78a1.61,1.61,0,0,0-.49,1.15l-3.85.16a11.05,11.05,0,0,0-3.6-7.86,11.18,11.18,0,0,0-7.54-2.92v-3.25H675.3v3.28a1.61,1.61,0,0,0-1.15,2.72,14.32,14.32,0,0,1,3.93,12.75l-3.13-.47a11.11,11.11,0,0,0-3.07-10,1.59,1.59,0,0,0-1.1-.45,1.67,1.67,0,0,0-1.15.48,1.59,1.59,0,0,0,0,2.22,7.88,7.88,0,0,1,2.3,6.23l-3.16-.13a4.77,4.77,0,0,0-1.39-3.83A1.59,1.59,0,0,0,665.12,820.78Z" transform="translate(-550.96 -791.06)"/><path class="cls-3" d="M657.87,830a11.13,11.13,0,0,0,2.91-7.92l3.85-.16a1.62,1.62,0,0,0,.45,1.1s0,0,0,.05a1.58,1.58,0,0,1,0,2.25,1.59,1.59,0,0,0,2.26,2.25,4.74,4.74,0,0,0,1.39-2.92l3.16.13a7.74,7.74,0,0,1-2.3,5.05,1.58,1.58,0,0,0,0,2.25,1.56,1.56,0,0,0,2.25,0,11,11,0,0,0,3.07-5.75l3.13.47a14,14,0,0,1-3.93,7.53,1.6,1.6,0,1,0,2.22,2.3l0,0a17.59,17.59,0,0,0,0-24.82,1.55,1.55,0,0,0-1.1-.45v-3.28h52.18V910.12H686.3V907a1.62,1.62,0,0,0,1.5-2.19h0Z" transform="translate(-550.96 -791.06)"/><path class="cls-3" d="M644,881.34,656.73,875a1.61,1.61,0,0,0,.89-1.43h3.18v11.17H643.27V881.5A1.74,1.74,0,0,0,644,881.34Z" transform="translate(-550.96 -791.06)"/><polygon class="cls-3" points="108.7 52.49 99.17 58.74 89.19 51.98 98.67 43.18 108.7 52.49"/><path class="cls-4" d="M649.64,814.53a8,8,0,1,1-8,8A8,8,0,0,1,649.64,814.53Z" transform="translate(-550.96 -791.06)"/><path class="cls-3" d="M655.28,832.11l1.9,4.78-4.08-3.8A10.4,10.4,0,0,0,655.28,832.11Z" transform="translate(-550.96 -791.06)"/><path class="cls-3" d="M662.4,859.17H641.69l8.41-5.53,3,2.07a1.6,1.6,0,0,0,1.83-2.62l-.05,0L653,851.76l8-5.27,5.1,12.77-2.25.9A1.57,1.57,0,0,0,662.4,859.17Z" transform="translate(-550.96 -791.06)"/><polygon class="cls-3" points="101.49 82.46 93.89 86.26 93.89 78.66 101.49 82.46"/><path class="cls-1" d="M651.34,906l-4.79-12.76a1.78,1.78,0,0,1-.1-.55,1.6,1.6,0,0,1,3.09-.57l3.3,8.77,3.28-8.77a1.58,1.58,0,0,1,2-.93h0a1.55,1.55,0,0,1,1,1.48,1.59,1.59,0,0,1-.1.57L654.32,906a1.57,1.57,0,0,1-.93.94,1.83,1.83,0,0,1-.55.1A1.62,1.62,0,0,1,651.34,906Z" transform="translate(-550.96 -791.06)"/><path class="cls-3" d="M652.84,910.12H641.67V907a1.6,1.6,0,0,0,1.6-1.6V892.67h3.18a1.78,1.78,0,0,0,.1.55L651.34,906a1.62,1.62,0,0,0,1.5,1Z" transform="translate(-550.96 -791.06)"/><path class="cls-3" d="M646.19,833.09l-4.1,3.8,1.91-4.78A9.35,9.35,0,0,0,646.19,833.09Z" transform="translate(-550.96 -791.06)"/><path class="cls-1" d="M644,865.72l12.76,6.38a1.57,1.57,0,0,1,.72.72,1.5,1.5,0,0,1,.17.7,1.61,1.61,0,0,1-.89,1.43L644,881.34a1.74,1.74,0,0,1-.7.16,1.6,1.6,0,0,1-1.6-1.6V867.14a1.48,1.48,0,0,1,.17-.7A1.61,1.61,0,0,1,644,865.72Zm.88,4v7.6l7.6-3.8Z" transform="translate(-550.96 -791.06)"/><path class="cls-1" d="M643.27,892.67v12.75a1.6,1.6,0,0,1-3.2,0V892.65a1.6,1.6,0,0,1,3.2,0Z" transform="translate(-550.96 -791.06)"/><path class="cls-3" d="M643.27,884.69h-4.78V881.5a1.6,1.6,0,0,0-1.6-1.6v-3.18a1.6,1.6,0,0,0,1.6-1.6h3.18v4.78a1.6,1.6,0,0,0,1.6,1.6Z" transform="translate(-550.96 -791.06)"/><path class="cls-3" d="M638.49,875.12V862.36H660.8v11.16h-3.18a1.5,1.5,0,0,0-.17-.7,1.57,1.57,0,0,0-.72-.72L644,865.72a1.61,1.61,0,0,0-2.13.72,1.48,1.48,0,0,0-.17.7v8Z" transform="translate(-550.96 -791.06)"/><path class="cls-3" d="M631.8,885.35a.09.09,0,0,1,0-.05l-6-7.66,4.36-10.9,5.14-3.37v11.75a1.6,1.6,0,0,0,1.6,1.6v3.18a1.6,1.6,0,0,0-1.6,1.6v4.79h-3.17A1.6,1.6,0,0,0,631.8,885.35Z" transform="translate(-550.96 -791.06)"/><path class="cls-1" d="M631.9,827.58a4.76,4.76,0,0,1,0-6.75,1.59,1.59,0,0,1,2.22,0,1.54,1.54,0,0,1,.48,1.13,1.63,1.63,0,0,1-.45,1.12,1.61,1.61,0,0,0,0,2.25,1.59,1.59,0,0,1,.47,1.13A1.57,1.57,0,0,1,633,828,1.51,1.51,0,0,1,631.9,827.58Z" transform="translate(-550.96 -791.06)"/><path class="cls-1" d="M630.5,903.82h4.79a1.6,1.6,0,1,1,0,3.2H628.9a1.6,1.6,0,0,1-1.58-1.6V892.65a1.59,1.59,0,0,1,3.18,0Z" transform="translate(-550.96 -791.06)"/><path class="cls-1" d="M629.65,829.84a1.59,1.59,0,0,1,0,2.25,1.56,1.56,0,0,1-2.25,0h0a11.13,11.13,0,0,1,0-15.78s0,0,0,0a1.59,1.59,0,1,1,2.21,2.28,8,8,0,0,0,0,11.28Z" transform="translate(-550.96 -791.06)"/><path class="cls-3" d="M634.15,823.08a1.63,1.63,0,0,0,.45-1.12l3.9.2a11,11,0,0,0,2.9,7.85l-7.13,17.85a1.58,1.58,0,0,0,.88,2.06,1.6,1.6,0,0,0,2.09-.88l1.28-3.23,8.73,5.9-15,9.86,2.63-6.61a1.59,1.59,0,1,0-3-1.19l-20.41,51.05A1.6,1.6,0,0,0,613,907v3.1H568V864.76a2.85,2.85,0,0,0-2.85-2.84v-5.66a2.85,2.85,0,0,0,2.85-2.84V808.06h56v3.28a1.55,1.55,0,0,0-1.1.45,17.56,17.56,0,0,0,0,24.82,1.58,1.58,0,0,0,2.71-1.13,1.62,1.62,0,0,0-.46-1.14,14.17,14.17,0,0,1-3.95-7.53l3.13-.47a11.15,11.15,0,0,0,3.07,5.75h0a1.56,1.56,0,0,0,2.25,0,1.59,1.59,0,0,0,0-2.25,7.84,7.84,0,0,1-2.3-5.05l3.17-.13a4.78,4.78,0,0,0,1.38,2.92A1.51,1.51,0,0,0,633,828a1.57,1.57,0,0,0,1.58-1.58,1.59,1.59,0,0,0-.47-1.13A1.61,1.61,0,0,1,634.15,823.08Z" transform="translate(-550.96 -791.06)"/><path class="cls-3" d="M621.19,826.81a14.3,14.3,0,0,1,3.95-12.75,1.61,1.61,0,0,0,0-2.27,1.59,1.59,0,0,0-1.11-.45v-3.28h25.65v3.25a11.11,11.11,0,0,0-11.14,10.85l-3.9-.2a1.54,1.54,0,0,0-.48-1.13,1.59,1.59,0,0,0-2.22,0,4.76,4.76,0,0,0-1.38,3.83l-3.17.13a7.91,7.91,0,0,1,2.3-6.23,1.59,1.59,0,1,0-2.21-2.28s0,0,0,0a11.22,11.22,0,0,0-3.08,10Z" transform="translate(-550.96 -791.06)"/><path class="cls-1" d="M625.14,814.06a14.37,14.37,0,0,0,0,20.28,1.62,1.62,0,0,1,.46,1.14,1.58,1.58,0,0,1-2.71,1.13,17.56,17.56,0,0,1,0-24.82,1.55,1.55,0,0,1,1.1-.45,1.59,1.59,0,0,1,1.11.45A1.61,1.61,0,0,1,625.14,814.06Z" transform="translate(-550.96 -791.06)"/><path class="cls-1" d="M655.28,832.11a10.4,10.4,0,0,1-2.18,1l4.08,3.8Zm-5.14,17.7,9.53-6.25-10-9.32-9.49,8.8Zm-8.47-27.32a8,8,0,1,0,8-8A8,8,0,0,0,641.67,822.49Zm.42,14.4,4.1-3.8a9.35,9.35,0,0,1-2.19-1Zm-7.82,11L641.4,830a11.24,11.24,0,0,1,0-15.08A11.17,11.17,0,0,1,657.87,830l29.93,74.81h0a1.6,1.6,0,0,1-3,1.19l-10-24.95-4.82,6.2,0,.05a1.6,1.6,0,0,1-2.23.23,1.63,1.63,0,0,1-.6-1.25,1.55,1.55,0,0,1,.37-1l6-7.66-7.36-18.38L661,846.49l-8,5.27,1.94,1.31.05,0a1.6,1.6,0,0,1-1.83,2.62l-3-2.07-8.41,5.53H662.4a1.57,1.57,0,0,1,1.47,1,1.55,1.55,0,0,1,.13.61v25.52a1.59,1.59,0,0,1-1.6,1.58H636.89a1.58,1.58,0,0,1-1.6-1.58V881.5a1.6,1.6,0,0,1,3.2,0v3.19H660.8V862.36H638.49v12.76a1.6,1.6,0,0,1-3.2,0V863.37l-5.14,3.37-4.36,10.9,6,7.66a.09.09,0,0,0,0,.05,1.6,1.6,0,0,1,.32.95,1.61,1.61,0,0,1-2,1.57,1.58,1.58,0,0,1-.9-.62l-4.83-6.2-10,25a1.57,1.57,0,0,1-1.47,1,1.6,1.6,0,0,1-1.48-2.2l20.41-51.05a1.59,1.59,0,1,1,3,1.19l-2.63,6.61,15-9.86-8.73-5.9L637.24,849a1.6,1.6,0,0,1-2.09.88A1.58,1.58,0,0,1,634.27,847.86Z" transform="translate(-550.96 -791.06)"/><path class="cls-3" d="M629.25,887.25a1.58,1.58,0,0,0,.9.62l-1.25,3.2a1.6,1.6,0,0,0-1.58,1.58v12.77a1.6,1.6,0,0,0,1.58,1.6h6.39v3.1H613V907a1.57,1.57,0,0,0,1.47-1l10-25Z" transform="translate(-550.96 -791.06)"/></svg>