<svg id="圖層_1" data-name="圖層 1" xmlns="http://www.w3.org/2000/svg" viewBox="0 0 193.51 147.4"><defs><style>.cls-1{fill:#414143;}.cls-2{fill:#ed9484;}.cls-3{fill:#fff;}.cls-4{fill:#dbc9b1;}</style></defs><title>live_8</title><path class="cls-1" d="M744.62,804.85V923.92a14.19,14.19,0,0,1-14.17,14.16H565.27a14.17,14.17,0,0,1-14.16-14.16V804.85a14.18,14.18,0,0,1,14.16-14.17H730.45A14.19,14.19,0,0,1,744.62,804.85ZM739,923.92V804.85a8.51,8.51,0,0,0-8.5-8.5H565.27a8.51,8.51,0,0,0-8.5,8.5V923.92a8.51,8.51,0,0,0,8.5,8.49H730.45A8.5,8.5,0,0,0,739,923.92Z" transform="translate(-551.11 -790.68)"/><path class="cls-2" d="M739,804.85V923.92a8.5,8.5,0,0,1-8.5,8.49H565.27a8.51,8.51,0,0,1-8.5-8.49V804.85a8.51,8.51,0,0,1,8.5-8.5H730.45A8.51,8.51,0,0,1,739,804.85Zm-5.66,107.72V804.85a2.85,2.85,0,0,0-2.84-2.84H565.27a2.84,2.84,0,0,0-2.83,2.84V853a2.82,2.82,0,0,0,2.82,2.83v5.67a2.84,2.84,0,0,0-2.82,2.85v48.18a2.83,2.83,0,0,0,2.83,2.83H730.45A2.85,2.85,0,0,0,733.29,912.57Zm.25,11.33a2.84,2.84,0,1,0-2.84,2.83A2.83,2.83,0,0,0,733.54,923.9Zm-11.34,0a2.84,2.84,0,1,0-2.83,2.83A2.83,2.83,0,0,0,722.2,923.9Z" transform="translate(-551.11 -790.68)"/><path class="cls-1" d="M565.26,861.54h0a2.84,2.84,0,0,1,2.83,2.85v45.34H727.6v-102H568.1V853a2.82,2.82,0,0,1-2.83,2.83h0a2.82,2.82,0,0,1-2.82-2.83V804.85a2.84,2.84,0,0,1,2.83-2.84H730.45a2.85,2.85,0,0,1,2.84,2.84V912.57a2.85,2.85,0,0,1-2.84,2.83H565.27a2.83,2.83,0,0,1-2.83-2.83V864.39A2.84,2.84,0,0,1,565.26,861.54Z" transform="translate(-551.11 -790.68)"/><circle class="cls-1" cx="179.6" cy="133.22" r="2.83"/><path class="cls-1" d="M719.37,921.07a2.83,2.83,0,1,1-2.85,2.83A2.83,2.83,0,0,1,719.37,921.07Z" transform="translate(-551.11 -790.68)"/><rect class="cls-3" x="127.69" y="73.21" width="16.51" height="3.3"/><rect class="cls-3" x="127.69" y="66.59" width="16.51" height="3.3"/><path class="cls-1" d="M690.36,877.09a1.65,1.65,0,0,1,0,3.3h-6.62a1.65,1.65,0,0,1,0-3.3Z" transform="translate(-551.11 -790.68)"/><path class="cls-1" d="M690.36,883.7a1.65,1.65,0,0,1,0,3.3h-6.62a1.65,1.65,0,1,1,0-3.3Z" transform="translate(-551.11 -790.68)"/><path class="cls-1" d="M695.31,860.57v-3.3H678.79v3.3Zm0,6.62v-3.3H678.79v3.3ZM678.79,892h16.52v-6.6a1.65,1.65,0,1,1,3.3,0v8.25a1.65,1.65,0,0,1-1.65,1.65H677.14a1.65,1.65,0,0,1-1.65-1.65v-38a1.65,1.65,0,0,1,1.65-1.65H697a1.65,1.65,0,0,1,1.65,1.65v23.12a1.65,1.65,0,1,1-3.3,0v-8.25H678.79V892Z" transform="translate(-551.11 -790.68)"/><path class="cls-1" d="M673.84,824.26a4.93,4.93,0,0,1,4.95,4.93,1.63,1.63,0,0,1-1.63,1.65h0a1.66,1.66,0,0,1-1.65-1.63,1.64,1.64,0,0,0-1.65-1.65h0a1.65,1.65,0,0,1,0-3.3Z" transform="translate(-551.11 -790.68)"/><path class="cls-1" d="M682.09,829.18a8.26,8.26,0,0,0-8.25-8.24h-.05a1.65,1.65,0,1,1,0-3.3A11.85,11.85,0,0,1,682,821a11.62,11.62,0,0,1,3.43,8.17,1.66,1.66,0,0,1-1.65,1.67h0A1.66,1.66,0,0,1,682.09,829.18Z" transform="translate(-551.11 -790.68)"/><path class="cls-3" d="M673.84,820.94a8.26,8.26,0,0,1,8.25,8.24,1.66,1.66,0,0,0,1.65,1.65h0a1.66,1.66,0,0,0,1.65-1.67A11.62,11.62,0,0,0,682,821a11.85,11.85,0,0,0-8.19-3.35,1.65,1.65,0,1,0,0,3.3Zm9.9,62.76a1.65,1.65,0,1,0,0,3.3h6.62a1.65,1.65,0,0,0,0-3.3ZM695.31,892H678.79V878.74h3.3a1.66,1.66,0,0,0,1.65,1.65h6.62a1.66,1.66,0,0,0,1.65-1.65h3.3a1.65,1.65,0,1,0,3.3,0V855.62A1.65,1.65,0,0,0,697,854H677.14a1.65,1.65,0,0,0-1.65,1.65v38a1.65,1.65,0,0,0,1.65,1.65H697a1.65,1.65,0,0,0,1.65-1.65v-8.25a1.65,1.65,0,1,0-3.3,0ZM611.1,896.9a5,5,0,0,0-5,5v3.32a1.65,1.65,0,0,0,1.65,1.65h36.33v2.91h-76V864.39a2.84,2.84,0,0,0-2.83-2.85h0v-5.67h0A2.82,2.82,0,0,0,568.1,853V807.7H727.6v102H667.24v-2.91a1.66,1.66,0,0,0,1.65-1.65v-3.32a5,5,0,0,0-5-5h-3.3V892h3.3a1.65,1.65,0,1,0,0-3.3H659v-3.3h11.56a1.65,1.65,0,0,0,1.65-1.65V849a1.65,1.65,0,0,0-1.65-1.65v-3.29a1.65,1.65,0,0,0,1.65-1.65v-8.27a1.64,1.64,0,0,0-1.65-1.65H601.18a1.65,1.65,0,0,0-1.65,1.65v34.68a1.65,1.65,0,0,0,1.65,1.65v3.3a1.65,1.65,0,0,0-1.65,1.65v8.26a1.66,1.66,0,0,0,1.65,1.65h11.57v3.3h-5a1.65,1.65,0,1,0,0,3.3h19.81v4.95Zm62.68-82.55h.06a14.88,14.88,0,0,1,14.87,14.79,1.65,1.65,0,1,0,3.3,0,18.16,18.16,0,0,0-18.17-18.08h-.08a1.65,1.65,0,1,0,0,3.3Zm5,14.84a4.93,4.93,0,0,0-4.95-4.93h0a1.65,1.65,0,0,0,0,3.3h0a1.64,1.64,0,0,1,1.65,1.65,1.66,1.66,0,0,0,1.65,1.63h0A1.63,1.63,0,0,0,678.79,829.19Z" transform="translate(-551.11 -790.68)"/><path class="cls-1" d="M673.84,814.35h-.08a1.65,1.65,0,1,1,0-3.3h.08A18.16,18.16,0,0,1,692,829.13a1.65,1.65,0,1,1-3.3,0A14.88,14.88,0,0,0,673.84,814.35Z" transform="translate(-551.11 -790.68)"/><path class="cls-3" d="M665.59,901.85v1.67H659v-1.67a1.66,1.66,0,0,1,1.65-1.65h3.3A1.67,1.67,0,0,1,665.59,901.85Z" transform="translate(-551.11 -790.68)"/><rect class="cls-3" x="107.87" y="88.06" width="3.3" height="3.3"/><rect class="cls-3" x="107.87" y="78.16" width="3.3" height="6.6"/><path class="cls-1" d="M668.89,901.85v3.32a1.66,1.66,0,0,1-1.65,1.65h-9.91a1.65,1.65,0,0,1-1.65-1.65v-3.32a5,5,0,0,1,5-5h3.3A5,5,0,0,1,668.89,901.85Zm-3.3,0a1.67,1.67,0,0,0-1.66-1.65h-3.3a1.66,1.66,0,0,0-1.65,1.65v1.67h6.61Z" transform="translate(-551.11 -790.68)"/><rect class="cls-3" x="101.27" y="94.67" width="3.3" height="3.3"/><polygon class="cls-3" points="102.54 56.69 94.67 60.63 94.67 52.76 102.54 56.69"/><path class="cls-3" d="M642.46,890.3a1.66,1.66,0,0,0,1.67,1.65h16.5v4.95a5,5,0,0,0-5,5v3.32a1.65,1.65,0,0,0,1.65,1.65h9.91v2.91H644.13v-2.91a1.66,1.66,0,0,0,1.65-1.65v-3.32a5,5,0,0,0-5-5h-13.2V892a1.65,1.65,0,0,0,0-3.3h-5v-3.3h26.43v3.3h-5A1.66,1.66,0,0,0,642.46,890.3Z" transform="translate(-551.11 -790.68)"/><path class="cls-1" d="M649.08,875.44v1.65a1.65,1.65,0,0,1-3.3,0v-1.65h-1.65a1.65,1.65,0,1,1,0-3.3h1.65v-4.95a1.65,1.65,0,0,1,3.3,0v4.95h1.65a1.65,1.65,0,0,1,0,3.3Z" transform="translate(-551.11 -790.68)"/><path class="cls-1" d="M645.78,843.44v7.87l7.87-3.94ZM642.46,854V840.76a1.59,1.59,0,0,1,.19-.73,1.61,1.61,0,0,1,1.46-.92,1.8,1.8,0,0,1,.75.18l13.2,6.6a1.7,1.7,0,0,1,.75.75,1.64,1.64,0,0,1-.75,2.2l-13.2,6.62a1.71,1.71,0,0,1-.75.16A1.65,1.65,0,0,1,642.46,854Z" transform="translate(-551.11 -790.68)"/><path class="cls-4" d="M644.86,839.29a1.8,1.8,0,0,0-.75-.18v-3.3h24.78v6.62a1.66,1.66,0,0,0,1.65,1.65v3.29a1.65,1.65,0,0,0-1.65,1.65v9.9H644.11v-3.3a1.71,1.71,0,0,0,.75-.16l13.2-6.62a1.64,1.64,0,0,0,.75-2.2,1.7,1.7,0,0,0-.75-.75Z" transform="translate(-551.11 -790.68)"/><path class="cls-3" d="M642.46,901.85v1.67h-33v-1.67a1.65,1.65,0,0,1,1.65-1.65h29.71A1.65,1.65,0,0,1,642.46,901.85Z" transform="translate(-551.11 -790.68)"/><path class="cls-4" d="M642.46,854a1.65,1.65,0,0,0,1.65,1.65v3.3h-16.5v-3.3a1.65,1.65,0,0,0,1.65-1.65V835.81h14.85v3.3a1.61,1.61,0,0,0-1.46.92,1.59,1.59,0,0,0-.19.73Z" transform="translate(-551.11 -790.68)"/><path class="cls-3" d="M663.93,865.54h-6.6a1.64,1.64,0,0,0-1.65,1.65v6.6h-3.3a1.64,1.64,0,0,0-1.65-1.65h-1.65v-4.95a1.65,1.65,0,0,0-3.3,0v4.95h-1.65a1.65,1.65,0,1,0,0,3.3h1.65v1.65a1.65,1.65,0,0,0,1.65,1.65V882H635.86v-3.3a1.65,1.65,0,0,0,1.65-1.65v-5h1.65a1.65,1.65,0,0,0,0-3.3h-1.65v-1.65a1.64,1.64,0,0,0-1.65-1.65v-3.3h33V882h-3.3V867.19A1.65,1.65,0,0,0,663.93,865.54Z" transform="translate(-551.11 -790.68)"/><path class="cls-1" d="M634.21,872.14h-1.65a1.65,1.65,0,0,1,0-3.3h1.65v-1.65a1.65,1.65,0,1,1,3.3,0v1.65h1.65a1.65,1.65,0,0,1,0,3.3h-1.65v5a1.65,1.65,0,0,1-3.3,0Z" transform="translate(-551.11 -790.68)"/><path class="cls-1" d="M622.65,872.14v-4.95a1.66,1.66,0,0,1,3.31,0v4.95h1.65a1.65,1.65,0,0,1,0,3.3H626v1.65a1.66,1.66,0,0,1-3.31,0v-1.65H621a1.65,1.65,0,1,1,0-3.3Z" transform="translate(-551.11 -790.68)"/><path class="cls-3" d="M626,872.14v-4.95a1.64,1.64,0,0,0-1.64-1.65v-3.3h11.54v3.3a1.65,1.65,0,0,0-1.65,1.65v1.65h-1.65a1.65,1.65,0,0,0,0,3.3h1.65v5a1.65,1.65,0,0,0,1.65,1.65V882H624.32v-3.3a1.65,1.65,0,0,0,1.64-1.65v-1.65h1.65a1.65,1.65,0,0,0,0-3.3Z" transform="translate(-551.11 -790.68)"/><rect class="cls-3" x="64.94" y="94.67" width="3.3" height="3.3"/><path class="cls-3" d="M622.65,867.19v4.95H621a1.65,1.65,0,1,0,0,3.3h1.65v1.65a1.66,1.66,0,0,0,1.67,1.65V882H612.75v-3.3a1.65,1.65,0,0,0,1.65-1.65v-5h1.65a1.65,1.65,0,1,0,0-3.3H614.4v-1.65a1.64,1.64,0,0,0-1.65-1.65v-3.3h11.57v3.3A1.66,1.66,0,0,0,622.65,867.19Z" transform="translate(-551.11 -790.68)"/><path class="cls-1" d="M611.1,868.84v-1.65a1.65,1.65,0,1,1,3.3,0v1.65h1.65a1.65,1.65,0,1,1,0,3.3H614.4v5a1.65,1.65,0,0,1-3.3,0v-5h-1.65a1.65,1.65,0,0,1,0-3.3Z" transform="translate(-551.11 -790.68)"/><path class="cls-3" d="M627.61,858.92h-5V847.37a1.65,1.65,0,0,0-3.3,0v11.55h-3.3V844.08a1.65,1.65,0,1,0-3.3,0v14.84h-3.3v-6.6a1.65,1.65,0,0,0-3.3,0v6.6h-3.32V835.81H626V854a1.65,1.65,0,0,0,1.65,1.65Z" transform="translate(-551.11 -790.68)"/><path class="cls-3" d="M611.1,867.19v1.65h-1.65a1.65,1.65,0,0,0,0,3.3h1.65v5a1.65,1.65,0,0,0,1.65,1.65V882h-9.92v-6.6a1.64,1.64,0,0,0-1.65-1.65v-3.3a1.64,1.64,0,0,0,1.65-1.65v-6.6h9.92v3.3A1.64,1.64,0,0,0,611.1,867.19Z" transform="translate(-551.11 -790.68)"/><path class="cls-1" d="M642.46,901.85a1.65,1.65,0,0,0-1.65-1.65H611.1a1.65,1.65,0,0,0-1.65,1.65v1.67h33Zm-36.31,0a5,5,0,0,1,5-5h29.71a5,5,0,0,1,5,5v3.32a1.66,1.66,0,0,1-1.65,1.65H607.8a1.65,1.65,0,0,1-1.65-1.65Z" transform="translate(-551.11 -790.68)"/><path class="cls-1" d="M619.35,885.35h-3.3v3.3h3.3ZM659,878.74V882h3.3v-3.3Zm-6.6,9.91h3.3v-3.3h-3.3Zm9.9-19.81H659v6.6h3.3Zm-4.95-3.3h6.6a1.65,1.65,0,0,1,1.66,1.65V882h3.3v-19.8H602.83v6.6a1.65,1.65,0,0,1-3.3,0V834.16a1.65,1.65,0,0,1,1.65-1.65h69.36a1.64,1.64,0,0,1,1.65,1.65v8.27a1.65,1.65,0,0,1-3.3,0v-6.62H629.26V854a1.65,1.65,0,1,1-3.3,0V835.81H602.83v23.11h3.32v-6.6a1.65,1.65,0,0,1,3.3,0v6.6h3.3V844.08a1.65,1.65,0,1,1,3.3,0v14.84h3.3V847.37a1.65,1.65,0,0,1,3.3,0v11.55h46.24V849a1.65,1.65,0,0,1,3.3,0V883.7a1.65,1.65,0,0,1-1.65,1.65H659v3.3h4.95a1.65,1.65,0,1,1,0,3.3h-19.8a1.65,1.65,0,1,1,0-3.3h5v-3.3H622.65v3.3h5a1.65,1.65,0,0,1,0,3.3H607.8a1.65,1.65,0,1,1,0-3.3h5v-3.3H601.18a1.66,1.66,0,0,1-1.65-1.65v-8.26a1.65,1.65,0,0,1,3.3,0V882h52.85V867.19A1.64,1.64,0,0,1,657.33,865.54Z" transform="translate(-551.11 -790.68)"/></svg>