<svg id="圖層_1" data-name="圖層 1" xmlns="http://www.w3.org/2000/svg" viewBox="0 0 193.51 147.4"><defs><style>.cls-1{fill:#414143;}.cls-2{fill:#8691c9;}.cls-3{fill:#fff;}.cls-4{fill:#dbc9b1;}</style></defs><title>live_10</title><path class="cls-1" d="M744.37,804.94V924a14.18,14.18,0,0,1-14.16,14.17H565A14.19,14.19,0,0,1,550.86,924v-119A14.2,14.2,0,0,1,565,790.76H730.21A14.18,14.18,0,0,1,744.37,804.94Zm-5.66,119v-119a8.52,8.52,0,0,0-8.5-8.52H565a8.52,8.52,0,0,0-8.51,8.52V924a8.52,8.52,0,0,0,8.51,8.5H730.21A8.52,8.52,0,0,0,738.71,924Z" transform="translate(-550.86 -790.76)"/><path class="cls-2" d="M738.71,804.94V924a8.52,8.52,0,0,1-8.5,8.5H565a8.52,8.52,0,0,1-8.51-8.5v-119a8.52,8.52,0,0,1,8.51-8.52H730.21A8.52,8.52,0,0,1,738.71,804.94ZM733,912.64V804.94a2.83,2.83,0,0,0-2.83-2.84H565a2.84,2.84,0,0,0-2.83,2.84v48.18A2.83,2.83,0,0,0,565,856v5.68a2.83,2.83,0,0,0-2.82,2.83v48.18a2.84,2.84,0,0,0,2.83,2.85H730.21A2.84,2.84,0,0,0,733,912.64Zm.25,11.33a2.83,2.83,0,1,0-2.83,2.84A2.83,2.83,0,0,0,733.29,924ZM722,924a2.84,2.84,0,1,0-2.83,2.84A2.83,2.83,0,0,0,722,924Z" transform="translate(-550.86 -790.76)"/><path class="cls-1" d="M565,861.63h0a2.84,2.84,0,0,1,2.84,2.83v45.35h159.5v-102H567.88v45.35A2.84,2.84,0,0,1,565,856h0a2.83,2.83,0,0,1-2.82-2.83V804.94A2.84,2.84,0,0,1,565,802.1H730.21a2.83,2.83,0,0,1,2.83,2.84v107.7a2.84,2.84,0,0,1-2.83,2.85H565a2.84,2.84,0,0,1-2.83-2.85V864.46A2.83,2.83,0,0,1,565,861.63Z" transform="translate(-550.86 -790.76)"/><circle class="cls-1" cx="179.6" cy="133.22" r="2.83"/><circle class="cls-1" cx="168.26" cy="133.22" r="2.83"/><path class="cls-3" d="M700.78,899.79h-2.1v-4.18a2.09,2.09,0,1,0,0-4.18v-4.2h8.37v6.28A6.27,6.27,0,0,1,700.78,899.79Z" transform="translate(-550.86 -790.76)"/><path class="cls-1" d="M698.68,891.43a2.09,2.09,0,1,1-2.1,2.08A2.1,2.1,0,0,1,698.68,891.43Z" transform="translate(-550.86 -790.76)"/><path class="cls-3" d="M698.68,895.61v4.18H690.3v-4.18a2.09,2.09,0,0,0,2.1-2.1h4.18A2.1,2.1,0,0,0,698.68,895.61Z" transform="translate(-550.86 -790.76)"/><path class="cls-3" d="M692.4,893.51a2.09,2.09,0,0,0-2.1-2.08v-4.2h8.38v4.2a2.1,2.1,0,0,0-2.1,2.08Z" transform="translate(-550.86 -790.76)"/><path class="cls-1" d="M690.3,891.43a2.09,2.09,0,1,1-2.09,2.08A2.09,2.09,0,0,1,690.3,891.43Z" transform="translate(-550.86 -790.76)"/><path class="cls-3" d="M690.3,895.61v4.18H656.82v-4.18a2.08,2.08,0,0,0,2.08-2.1v-6.28h31.4v4.2a2.09,2.09,0,1,0,0,4.18Z" transform="translate(-550.86 -790.76)"/><path class="cls-3" d="M671.72,838.83a6.24,6.24,0,0,0-4.45-1.83l.21-4.18a10.34,10.34,0,0,1,7.2,3,2.05,2.05,0,0,0,1.49.61,2.08,2.08,0,0,0,2.08-2.1,2,2,0,0,0-.62-1.46,14.41,14.41,0,0,0-8.25-4.15l.54-4.13A18.57,18.57,0,0,1,680.6,830a2.09,2.09,0,0,0,3.58-1.48,2.25,2.25,0,0,0-.62-1.49,23,23,0,0,0-16.28-6.71v-4.22h23a6.28,6.28,0,0,1,6.28,6.29V832.8a2.1,2.1,0,0,0,2.1,2.1v4.18a2.11,2.11,0,0,0-2.1,2.1v41.87H677.75v-4.19a8.37,8.37,0,0,0,8.36-8.38V853.75a8.37,8.37,0,0,0-8.36-8.38H670.2v-3a2.14,2.14,0,0,0,1.52-.63A2.11,2.11,0,0,0,671.72,838.83Z" transform="translate(-550.86 -790.76)"/><path class="cls-3" d="M677.75,883.05H667.28v-4.19a2.09,2.09,0,0,0,2.09-2.1h4.2a2.08,2.08,0,0,0,2.08,2.1h2.1Z" transform="translate(-550.86 -790.76)"/><polygon class="cls-3" points="118.02 71.36 112.22 74.26 112.22 68.46 118.02 71.36"/><path class="cls-1" d="M667.48,832.82a9.83,9.83,0,0,0-1.21,0l-.3-4.17a13.91,13.91,0,0,1,3.41.09,14.41,14.41,0,0,1,8.25,4.15,2,2,0,0,1,.62,1.46,2.08,2.08,0,0,1-2.08,2.1,2.05,2.05,0,0,1-1.49-.61A10.34,10.34,0,0,0,667.48,832.82Z" transform="translate(-550.86 -790.76)"/><rect class="cls-3" x="105.95" y="88.11" width="10.47" height="4.18"/><path class="cls-1" d="M667.27,837a6.24,6.24,0,0,1,4.45,1.83,2.11,2.11,0,0,1,0,2.92,2.14,2.14,0,0,1-1.52.63,2.07,2.07,0,0,1-1.43-.58,2.1,2.1,0,0,0-3,0,2.1,2.1,0,0,1-3-3A6.27,6.27,0,0,1,667.27,837Z" transform="translate(-550.86 -790.76)"/><path class="cls-1" d="M666,828.68l.3,4.17a10.48,10.48,0,0,0-6.4,3,2.09,2.09,0,0,1-2.9,0,2,2,0,0,1-.64-1.5,2,2,0,0,1,.59-1.45A14.52,14.52,0,0,1,666,828.68Z" transform="translate(-550.86 -790.76)"/><path class="cls-1" d="M674.5,864l-12.57,6.28a2.07,2.07,0,0,1-.95.22,2.1,2.1,0,0,1-2.08-2.1V855.83a2.11,2.11,0,0,1,.23-1,2.09,2.09,0,0,1,1.87-1.15,2,2,0,0,1,.93.22l12.57,6.28a2.12,2.12,0,0,1,0,3.77Zm-5.62-1.89-5.8-2.9V865Z" transform="translate(-550.86 -790.76)"/><path class="cls-3" d="M667.28,874.68H661V870.5a2.07,2.07,0,0,0,.95-.22L674.5,864a2.12,2.12,0,0,0,0-3.77L661.93,854a2,2,0,0,0-.93-.22v-4.18h16.75a4.19,4.19,0,0,1,4.18,4.2v16.73a4.19,4.19,0,0,1-4.18,4.2h-2.1a2.08,2.08,0,0,0-2.08,2.08h-4.2A2.09,2.09,0,0,0,667.28,874.68Z" transform="translate(-550.86 -790.76)"/><path class="cls-3" d="M661,849.55v4.18a2.09,2.09,0,0,0-1.87,1.15,2.11,2.11,0,0,0-.23,1V868.4a2.1,2.1,0,0,0,2.08,2.1v4.18h-4.16a4.2,4.2,0,0,1-4.2-4.2V853.75a4.2,4.2,0,0,1,4.2-4.2Z" transform="translate(-550.86 -790.76)"/><rect class="cls-3" x="91.29" y="96.47" width="12.57" height="4.2"/><path class="cls-1" d="M654,830l-.05,0a2.09,2.09,0,0,1-2.9-3,23.1,23.1,0,0,1,32.56,0,2.25,2.25,0,0,1,.62,1.49A2.09,2.09,0,0,1,680.6,830a18.57,18.57,0,0,0-10.68-5.31A18.79,18.79,0,0,0,654,830Z" transform="translate(-550.86 -790.76)"/><path class="cls-1" d="M677.75,874.68a4.19,4.19,0,0,0,4.18-4.2V853.75a4.19,4.19,0,0,0-4.18-4.2H656.82a4.2,4.2,0,0,0-4.2,4.2v16.73a4.2,4.2,0,0,0,4.2,4.2h10.46a2.09,2.09,0,1,1,0,4.18H656.82a8.37,8.37,0,0,1-8.38-8.38V853.75a8.37,8.37,0,0,1,8.38-8.38h20.93a8.37,8.37,0,0,1,8.36,8.38v16.73a8.37,8.37,0,0,1-8.36,8.38h-2.1a2.09,2.09,0,0,1,0-4.18Z" transform="translate(-550.86 -790.76)"/><path class="cls-3" d="M640.07,895.61h16.75v4.18H606.57v-4.18a2.09,2.09,0,1,0,0-4.18v-4.2H638v6.28A2.09,2.09,0,0,0,640.07,895.61Z" transform="translate(-550.86 -790.76)"/><path class="cls-3" d="M638,872.58v10.47h-4.18v-6.29a2.1,2.1,0,0,0-4.19,0v6.29H617v-6.29a2.09,2.09,0,0,0-4.18,0v6.29h-4.19V872.58a6.27,6.27,0,0,1,6.27-6.28h1l5.65,7.53a2.09,2.09,0,0,0,2.93.43,1.9,1.9,0,0,0,.42-.43l5.66-7.53h1A6.28,6.28,0,0,1,638,872.58Z" transform="translate(-550.86 -790.76)"/><circle class="cls-1" cx="76.64" cy="60.89" r="2.1"/><polygon class="cls-4" points="74.54 75.54 72.46 78.34 70.36 75.54 74.54 75.54"/><path class="cls-1" d="M621.22,851.65a2.09,2.09,0,1,1-2.08-2.1A2.1,2.1,0,0,1,621.22,851.65Z" transform="translate(-550.86 -790.76)"/><path class="cls-4" d="M617,851.65a2.09,2.09,0,1,0,2.1-2.1A2.1,2.1,0,0,0,617,851.65Zm10.46,2.1a2.1,2.1,0,1,0-2.1-2.1A2.11,2.11,0,0,0,627.5,853.75Zm6.29-4.2a2.11,2.11,0,0,0-2.1,2.1v2.1a8.38,8.38,0,0,1-16.75,0v-8.38h18.85Z" transform="translate(-550.86 -790.76)"/><path class="cls-3" d="M612.86,841.18a2.09,2.09,0,0,1-2.1-2.1V837H627.5a4.18,4.18,0,0,1,4.19,4.18Z" transform="translate(-550.86 -790.76)"/><path class="cls-1" d="M606.57,891.43a2.09,2.09,0,1,1-2.1,2.08A2.1,2.1,0,0,1,606.57,891.43Z" transform="translate(-550.86 -790.76)"/><path class="cls-3" d="M606.57,895.61v4.18h-8.36v-4.18a2.08,2.08,0,0,0,2.08-2.1h4.18A2.1,2.1,0,0,0,606.57,895.61Z" transform="translate(-550.86 -790.76)"/><path class="cls-3" d="M606.57,891.43a2.1,2.1,0,0,0-2.1,2.08h-4.18a2.08,2.08,0,0,0-2.08-2.08v-4.2h8.36Z" transform="translate(-550.86 -790.76)"/><path class="cls-3" d="M690.3,811.87H606.57a10.48,10.48,0,0,0-10.46,10.47v54.42a2.09,2.09,0,1,0,4.18,0h4.18v6.29H587.73a2.09,2.09,0,0,0-2.09,2.09v8.37A10.47,10.47,0,0,0,596.11,904H700.78a10.48,10.48,0,0,0,10.46-10.47v-8.37a2.1,2.1,0,0,0-2.1-2.09h-8.36V841.18a2.11,2.11,0,0,0-2.1-2.1V834.9a2.1,2.1,0,0,0,2.1-2.1V822.34A10.51,10.51,0,0,0,690.3,811.87Zm-122.42-4.1h159.5v102H567.88V864.46a2.84,2.84,0,0,0-2.84-2.83h0V856h0a2.84,2.84,0,0,0,2.84-2.83Z" transform="translate(-550.86 -790.76)"/><path class="cls-3" d="M657,835.87a2.09,2.09,0,0,0,2.9,0,10.48,10.48,0,0,1,6.4-3,9.83,9.83,0,0,1,1.21,0l-.21,4.18a6.27,6.27,0,0,0-4.44,1.83,2.1,2.1,0,0,0,3,3,2.1,2.1,0,0,1,3,0,2.07,2.07,0,0,0,1.43.58v3H656.82a8.37,8.37,0,0,0-8.38,8.38v16.73a8.37,8.37,0,0,0,8.38,8.38v4.19H642.15V872.58a10.43,10.43,0,0,0-9.58-10.38,12.54,12.54,0,0,0,3.32-8.45v-2.1a2.11,2.11,0,0,0-2.1-2.1v-4.18a2.11,2.11,0,0,0,2.1-2.1v-2.09a8.38,8.38,0,0,0-8.39-8.38H608.67a2.11,2.11,0,0,0-2.1,2.1v4.18a6.3,6.3,0,0,0,4.19,5.9v8.77a12.44,12.44,0,0,0,3.31,8.45,10.46,10.46,0,0,0-9.6,10.38v4.18h-4.18V822.34a6.29,6.29,0,0,1,6.28-6.29h60.71v4.22A23,23,0,0,0,651,827a2.09,2.09,0,0,0,2.9,3l.05,0a18.79,18.79,0,0,1,16-5.31l-.54,4.13a13.91,13.91,0,0,0-3.41-.09,14.52,14.52,0,0,0-9.05,4.24,2,2,0,0,0-.59,1.45A2,2,0,0,0,657,835.87Z" transform="translate(-550.86 -790.76)"/><path class="cls-1" d="M600.29,822.34v54.42a2.09,2.09,0,1,1-4.18,0V822.34a10.48,10.48,0,0,1,10.46-10.47H690.3a10.51,10.51,0,0,1,10.48,10.47V832.8a2.1,2.1,0,0,1-4.2,0V822.34a6.28,6.28,0,0,0-6.28-6.29H606.57A6.29,6.29,0,0,0,600.29,822.34Z" transform="translate(-550.86 -790.76)"/><path class="cls-1" d="M598.21,891.43a2.09,2.09,0,1,1-2.1,2.08A2.08,2.08,0,0,1,598.21,891.43Z" transform="translate(-550.86 -790.76)"/><path class="cls-3" d="M598.21,895.61v4.18h-2.1a6.28,6.28,0,0,1-6.28-6.28v-6.28h8.38v4.2a2.09,2.09,0,1,0,0,4.18Z" transform="translate(-550.86 -790.76)"/><path class="cls-1" d="M621.22,866.3l2.1,2.8,2.08-2.8Zm33.5,20.93H642.15v4.2h12.57Zm-44-50.23v2.08a2.09,2.09,0,0,0,2.1,2.1h18.83A4.18,4.18,0,0,0,627.5,837Zm21.81,25.2a10.43,10.43,0,0,1,9.58,10.38v10.47h54.43V841.18a2.1,2.1,0,0,1,4.2,0v41.87h8.36a2.1,2.1,0,0,1,2.1,2.09v8.37A10.48,10.48,0,0,1,700.78,904H596.11a10.47,10.47,0,0,1-10.47-10.47v-8.37a2.09,2.09,0,0,1,2.09-2.09h16.74V872.58a10.46,10.46,0,0,1,9.6-10.38,12.44,12.44,0,0,1-3.31-8.45V845a6.3,6.3,0,0,1-4.19-5.9V834.9a2.11,2.11,0,0,1,2.1-2.1H627.5a8.38,8.38,0,0,1,8.39,8.38v2.09a2.11,2.11,0,0,1-2.1,2.1H614.94v8.38a8.38,8.38,0,0,0,16.75,0v-2.1a2.1,2.1,0,1,1,4.2,0v2.1A12.54,12.54,0,0,1,632.57,862.2ZM617,883.05H629.6v-6.29a2.1,2.1,0,0,1,4.19,0v6.29H638V872.58a6.28,6.28,0,0,0-6.28-6.28h-1L625,873.83a1.9,1.9,0,0,1-.42.43,2.09,2.09,0,0,1-2.93-.43L616,866.3h-1a6.27,6.27,0,0,0-6.27,6.28v10.47h4.19v-6.29a2.09,2.09,0,0,1,4.18,0ZM638,893.51v-6.28H589.83v6.28a6.28,6.28,0,0,0,6.28,6.28H700.78a6.27,6.27,0,0,0,6.27-6.28v-6.28H658.9v6.28a2.08,2.08,0,0,1-2.08,2.1H640.07A2.09,2.09,0,0,1,638,893.51Z" transform="translate(-550.86 -790.76)"/></svg>