<svg id="圖層_1" data-name="圖層 1" xmlns="http://www.w3.org/2000/svg" viewBox="0 0 193.53 147.4"><defs><style>.cls-1{fill:#414143;}.cls-2{fill:#ed9484;}.cls-3{fill:#fff;}</style></defs><title>live_14</title><path class="cls-1" d="M745.13,804.37v119A14.2,14.2,0,0,1,731,937.6H565.78a14.2,14.2,0,0,1-14.18-14.18v-119a14.19,14.19,0,0,1,14.18-14.17H731A14.19,14.19,0,0,1,745.13,804.37Zm-5.68,119v-119a8.51,8.51,0,0,0-8.5-8.5H565.78a8.5,8.5,0,0,0-8.5,8.5v119a8.51,8.51,0,0,0,8.5,8.52H731A8.52,8.52,0,0,0,739.45,923.42Z" transform="translate(-551.6 -790.2)"/><path class="cls-2" d="M739.45,804.37v119a8.52,8.52,0,0,1-8.5,8.52H565.78a8.51,8.51,0,0,1-8.5-8.52v-119a8.5,8.5,0,0,1,8.5-8.5H731A8.51,8.51,0,0,1,739.45,804.37Zm-5.67,107.72V804.37a2.84,2.84,0,0,0-2.83-2.84H565.78a2.84,2.84,0,0,0-2.83,2.84v48.19a2.82,2.82,0,0,0,2.82,2.83v5.67a2.83,2.83,0,0,0-2.82,2.83v48.2a2.83,2.83,0,0,0,2.83,2.83H731A2.83,2.83,0,0,0,733.78,912.09Zm.27,11.33a2.85,2.85,0,1,0-2.85,2.83A2.84,2.84,0,0,0,734.05,923.42Zm-11.35,0a2.84,2.84,0,1,0-2.84,2.83A2.83,2.83,0,0,0,722.7,923.42Z" transform="translate(-551.6 -790.2)"/><path class="cls-1" d="M565.77,861.06h0a2.84,2.84,0,0,1,2.84,2.83v45.37H728.11V807.2H568.62v45.36a2.83,2.83,0,0,1-2.84,2.83h0a2.82,2.82,0,0,1-2.82-2.83V804.37a2.84,2.84,0,0,1,2.83-2.84H731a2.84,2.84,0,0,1,2.83,2.84V912.09a2.83,2.83,0,0,1-2.83,2.83H565.78a2.83,2.83,0,0,1-2.83-2.83v-48.2A2.83,2.83,0,0,1,565.77,861.06Z" transform="translate(-551.6 -790.2)"/><path class="cls-1" d="M731.2,920.59a2.83,2.83,0,1,1-2.84,2.83A2.84,2.84,0,0,1,731.2,920.59Z" transform="translate(-551.6 -790.2)"/><circle class="cls-1" cx="168.26" cy="133.22" r="2.83"/><path class="cls-3" d="M672,853.73a44.07,44.07,0,0,0-44-44.1V807.2H728.11V909.26H707.68v-3.07a2.1,2.1,0,0,0,2.1-2.1v-6.3a2.1,2.1,0,0,0-2.1-2.1v-4.2a2.09,2.09,0,0,0,2.1-2.1V866.31a2.08,2.08,0,0,0-2.1-2.08h-38V860a2.1,2.1,0,0,0,2.08-1.9A42.91,42.91,0,0,0,672,853.73Zm4.2-4.2a2.08,2.08,0,0,0,2.08,2.1,4.2,4.2,0,0,1,4.2,4.2,2.1,2.1,0,1,0,4.2,0,8.4,8.4,0,0,0-8.4-8.4A2.1,2.1,0,0,0,676.22,849.53Zm14.68,6.3a2.1,2.1,0,1,0,4.2,0,16.81,16.81,0,0,0-16.8-16.78,2.1,2.1,0,0,0,0,4.2A12.61,12.61,0,0,1,690.9,855.83Zm-12.6-21a21,21,0,0,1,21,21,2.1,2.1,0,1,0,4.2,0,25.2,25.2,0,0,0-25.18-25.18,2.1,2.1,0,0,0,0,4.2Z" transform="translate(-551.6 -790.2)"/><path class="cls-1" d="M699.28,855.83a21,21,0,0,0-21-21,2.1,2.1,0,0,1,0-4.2,25.2,25.2,0,0,1,25.18,25.18,2.1,2.1,0,1,1-4.2,0Z" transform="translate(-551.6 -790.2)"/><path class="cls-1" d="M678.3,893.59V876.81a2.1,2.1,0,0,1,2.1-2.1h8.4a2.1,2.1,0,1,1,0,4.2h-6.3v4.2h6.3a2.1,2.1,0,0,1,0,4.2h-6.3v4.18h6.3a2.1,2.1,0,0,1,0,4.2h-8.4A2.1,2.1,0,0,1,678.3,893.59Z" transform="translate(-551.6 -790.2)"/><path class="cls-1" d="M678.3,839.05a16.81,16.81,0,0,1,16.8,16.78,2.1,2.1,0,1,1-4.2,0,12.61,12.61,0,0,0-12.6-12.58,2.1,2.1,0,0,1,0-4.2Z" transform="translate(-551.6 -790.2)"/><path class="cls-1" d="M682.5,855.83a4.2,4.2,0,0,0-4.2-4.2,2.1,2.1,0,0,1,0-4.2,8.4,8.4,0,0,1,8.4,8.4,2.1,2.1,0,1,1-4.2,0Z" transform="translate(-551.6 -790.2)"/><path class="cls-3" d="M669.69,864.23H619.56a2.1,2.1,0,0,0-2.1,2.08v6.3a2.1,2.1,0,0,0,2.1,2.1v4.2a2.1,2.1,0,0,0-2.1,2.1v11.15h-4.18a2.09,2.09,0,0,0-1.27-1.92c-.73-.32-1.42-.67-2.12-1l2-3.55a2.07,2.07,0,0,0-.74-2.86,2.09,2.09,0,0,0-2.88.75s0,0,0,0l-2,3.55a39.87,39.87,0,0,1-11.71-11.68l3.56-2.05a2.09,2.09,0,0,0,.78-2.86,2.06,2.06,0,0,0-2.84-.79h0l-3.55,2.07a40,40,0,0,1-4.3-16h4.12a2.1,2.1,0,0,0,0-4.2H588.2a39.54,39.54,0,0,1,4.26-16l3.55,2.05a2.09,2.09,0,1,0,2.12-3.61s0,0,0,0L594.56,832a40.32,40.32,0,0,1,11.68-11.7l2.07,3.55a2.09,2.09,0,1,0,3.63-2.06v0l-2.05-3.55a39.78,39.78,0,0,1,16-4.26v4.1a2.1,2.1,0,1,0,4.2,0V814a39.82,39.82,0,0,1,16,4.26l-2,3.55a2.1,2.1,0,1,0,3.62,2.13s0,0,0,0l2-3.55A40.35,40.35,0,0,1,661.35,832l-3.56,2.05a2.1,2.1,0,0,0,2.08,3.65,0,0,0,0,1,0,0l3.55-2.05a39.22,39.22,0,0,1,4.26,16h-4.08a2.1,2.1,0,1,0,0,4.2h4.13c0,.6-.08,1.2-.15,1.88a2.1,2.1,0,0,0,1.87,2.3l.22,0Zm-39.63-10.5V828.55a2.1,2.1,0,0,0-4.2,0v23.08H611.18a2.1,2.1,0,1,0,0,4.2H628A2.11,2.11,0,0,0,630.06,853.73Z" transform="translate(-551.6 -790.2)"/><path class="cls-1" d="M674,877.54l-6.3,16.78a2.07,2.07,0,0,1-2,1.37,2.11,2.11,0,0,1-2-1.35l-6.29-16.8a2.1,2.1,0,1,1,3.93-1.46l4.33,11.54,4.33-11.54a2.1,2.1,0,0,1,3.94,1.46Z" transform="translate(-551.6 -790.2)"/><path class="cls-3" d="M644.74,893.59a2.1,2.1,0,0,0-2.1-2.1h-6.3V876.81a2.09,2.09,0,1,0-4.18,0v16.78a2.08,2.08,0,0,0,2.08,2.1h8.4A2.09,2.09,0,0,0,644.74,893.59Zm8.4,0V876.81a2.1,2.1,0,0,0-4.2,0v16.78a2.1,2.1,0,0,0,4.2,0ZM674,877.54a2.1,2.1,0,0,0-3.94-1.46l-4.33,11.54-4.33-11.54a2.1,2.1,0,1,0-3.93,1.46l6.29,16.8a2.11,2.11,0,0,0,2,1.35,2.07,2.07,0,0,0,2-1.37Zm4.31-.73v16.78a2.1,2.1,0,0,0,2.1,2.1h8.4a2.1,2.1,0,0,0,0-4.2h-6.3v-4.18h6.3a2.1,2.1,0,0,0,0-4.2h-6.3v-4.2h6.3a2.1,2.1,0,1,0,0-4.2h-8.4A2.1,2.1,0,0,0,678.3,876.81Zm29.38,14.68v4.2a2.11,2.11,0,0,0-2.1,2.1V902H621.66V881a2.09,2.09,0,0,0-2.1-2.1v-4.2a2.09,2.09,0,0,0,2.1-2.1v-4.2h83.92v21A2.1,2.1,0,0,0,707.68,891.49Z" transform="translate(-551.6 -790.2)"/><path class="cls-1" d="M653.14,876.81v16.78a2.1,2.1,0,0,1-4.2,0V876.81a2.1,2.1,0,0,1,4.2,0Z" transform="translate(-551.6 -790.2)"/><path class="cls-1" d="M632.16,893.59V876.81a2.09,2.09,0,1,1,4.18,0v14.68h6.3a2.1,2.1,0,0,1,0,4.2h-8.4A2.08,2.08,0,0,1,632.16,893.59Z" transform="translate(-551.6 -790.2)"/><path class="cls-3" d="M619.56,906.19h88.12v3.07H568.62V863.89a2.84,2.84,0,0,0-2.84-2.83h0v-5.67h0a2.83,2.83,0,0,0,2.84-2.83V807.2H628v2.43a44.06,44.06,0,0,0-17.66,84.44,2,2,0,0,0,.85.19,2.12,2.12,0,0,0,2.1-2.1h4.18v11.93A2.11,2.11,0,0,0,619.56,906.19Z" transform="translate(-551.6 -790.2)"/><path class="cls-1" d="M628,855.83H611.18a2.1,2.1,0,1,1,0-4.2h14.68V828.55a2.1,2.1,0,0,1,4.2,0v25.18A2.11,2.11,0,0,1,628,855.83Z" transform="translate(-551.6 -790.2)"/><path class="cls-1" d="M705.58,868.41H621.66v4.2a2.1,2.1,0,0,1-4.2,0v-6.3a2.1,2.1,0,0,1,2.1-2.08h88.12a2.08,2.08,0,0,1,2.1,2.08v23.08a2.1,2.1,0,0,1-4.2,0Z" transform="translate(-551.6 -790.2)"/><path class="cls-1" d="M707.68,906.19H619.56a2.11,2.11,0,0,1-2.1-2.1V881a2.1,2.1,0,1,1,4.2,0v21h83.92v-4.2a2.1,2.1,0,0,1,4.2,0v6.3A2.1,2.1,0,0,1,707.68,906.19Z" transform="translate(-551.6 -790.2)"/><path class="cls-1" d="M646,818.23a39.82,39.82,0,0,0-16-4.26v4.1a2.1,2.1,0,1,1-4.2,0V814a39.78,39.78,0,0,0-16,4.26l2.05,3.55v0a2.09,2.09,0,1,1-3.63,2.06l-2.07-3.55A40.32,40.32,0,0,0,594.56,832l3.55,2.05s0,0,0,0a2.09,2.09,0,1,1-2.12,3.61l-3.55-2.05a39.54,39.54,0,0,0-4.26,16h4.08a2.1,2.1,0,0,1,0,4.2h-4.12a40,40,0,0,0,4.3,16l3.55-2.07h0a2.06,2.06,0,0,1,2.84.79,2.09,2.09,0,0,1-.78,2.86l-3.56,2.05a39.87,39.87,0,0,0,11.71,11.68l2-3.55s0,0,0,0a2.09,2.09,0,0,1,2.88-.75,2.07,2.07,0,0,1,.74,2.86l-2,3.55c.7.35,1.39.7,2.12,1a2.09,2.09,0,0,1,1.27,1.92,2.12,2.12,0,0,1-2.1,2.1,2,2,0,0,1-.85-.19A44.06,44.06,0,1,1,672,853.73a42.91,42.91,0,0,1-.25,4.4,2.1,2.1,0,0,1-2.08,1.9l-.22,0a2.1,2.1,0,0,1-1.87-2.3c.07-.68.1-1.28.15-1.88h-4.13a2.1,2.1,0,1,1,0-4.2h4.08a39.22,39.22,0,0,0-4.26-16l-3.55,2.05a0,0,0,0,0,0,0,2.1,2.1,0,0,1-2.08-3.65l3.56-2.05a40.35,40.35,0,0,0-11.69-11.7l-2,3.55s0,0,0,0a2.1,2.1,0,1,1-3.62-2.13Z" transform="translate(-551.6 -790.2)"/></svg>