<svg id="圖層_1" data-name="圖層 1" xmlns="http://www.w3.org/2000/svg" viewBox="0 0 193.51 147.4"><defs><style>.cls-1{fill:#414143;}.cls-2{fill:#8691c9;}.cls-3{fill:#fff;}.cls-4{fill:#ed9484;}</style></defs><title>live_3</title><path class="cls-1" d="M744.67,804.35v119a14.19,14.19,0,0,1-14.18,14.18H565.33a14.19,14.19,0,0,1-14.17-14.18v-119a14.18,14.18,0,0,1,14.17-14.17H730.49A14.19,14.19,0,0,1,744.67,804.35ZM739,923.4v-119a8.52,8.52,0,0,0-8.52-8.5H565.33a8.51,8.51,0,0,0-8.5,8.5v119a8.52,8.52,0,0,0,8.5,8.52H730.49A8.53,8.53,0,0,0,739,923.4Z" transform="translate(-551.16 -790.18)"/><path class="cls-2" d="M739,804.35v119a8.53,8.53,0,0,1-8.52,8.52H565.33a8.52,8.52,0,0,1-8.5-8.52v-119a8.51,8.51,0,0,1,8.5-8.5H730.49A8.52,8.52,0,0,1,739,804.35Zm-5.67,107.72V804.35a2.84,2.84,0,0,0-2.85-2.83H565.33a2.83,2.83,0,0,0-2.84,2.83v48.19a2.83,2.83,0,0,0,2.82,2.84V861a2.83,2.83,0,0,0-2.82,2.84v48.19a2.83,2.83,0,0,0,2.84,2.83H730.49A2.84,2.84,0,0,0,733.34,912.07Zm.25,11.33a2.84,2.84,0,1,0-2.83,2.84A2.83,2.83,0,0,0,733.59,923.4Zm-11.33,0a2.84,2.84,0,1,0-2.85,2.84A2.84,2.84,0,0,0,722.26,923.4Z" transform="translate(-551.16 -790.18)"/><path class="cls-1" d="M565.31,855.38a2.83,2.83,0,0,1-2.82-2.84V804.35a2.83,2.83,0,0,1,2.84-2.83H730.49a2.84,2.84,0,0,1,2.85,2.83V912.07a2.84,2.84,0,0,1-2.85,2.83H565.33a2.83,2.83,0,0,1-2.84-2.83V863.88a2.83,2.83,0,0,1,2.82-2.84h0a2.84,2.84,0,0,1,2.83,2.84v45.36h159.5V807.18H568.16v45.36a2.84,2.84,0,0,1-2.83,2.84Z" transform="translate(-551.16 -790.18)"/><circle class="cls-1" cx="179.6" cy="133.22" r="2.83"/><path class="cls-3" d="M727.66,807.18V909.24H568.16V863.88a2.84,2.84,0,0,0-2.83-2.84h0v-5.66h0a2.84,2.84,0,0,0,2.83-2.84V807.18Z" transform="translate(-551.16 -790.18)"/><path class="cls-1" d="M719.41,920.57a2.84,2.84,0,1,1-2.83,2.83A2.84,2.84,0,0,1,719.41,920.57Z" transform="translate(-551.16 -790.18)"/><path class="cls-1" d="M662.42,904.23V890.86a1.67,1.67,0,0,1,1.68-1.67h6.69a1.67,1.67,0,0,1,0,3.34h-5v3.35h5a1.67,1.67,0,0,1,0,3.33h-5v3.35h5a1.67,1.67,0,0,1,0,3.33H664.1A1.66,1.66,0,0,1,662.42,904.23Z" transform="translate(-551.16 -790.18)"/><path class="cls-4" d="M665.77,874.15v3.35a1.66,1.66,0,0,0-1.67,1.66v1.67a1.67,1.67,0,0,1-1.68,1.67H644v-5a1.65,1.65,0,0,0,.75-.17l10-5a1.69,1.69,0,0,0,.75-2.25,1.81,1.81,0,0,0-.75-.75l-10-5a1.57,1.57,0,0,0-.73-.17v-5h18.36a1.66,1.66,0,0,1,1.68,1.66v11.7A1.67,1.67,0,0,0,665.77,874.15Z" transform="translate(-551.16 -790.18)"/><path class="cls-1" d="M653.79,847.7a1.68,1.68,0,0,1-2.37,2.37,3.41,3.41,0,0,0-4.73,0,1.68,1.68,0,0,1-2.37-2.37A6.86,6.86,0,0,1,653.79,847.7Z" transform="translate(-551.16 -790.18)"/><path class="cls-1" d="M658,889.29a1.66,1.66,0,0,1,1,2.15l-5,13.37a1.67,1.67,0,0,1-3.13,0l-5-13.37a1.67,1.67,0,0,1,1-2.15,1.69,1.69,0,0,1,2.15,1l3.45,9.2,3.43-9.2a0,0,0,0,0,0,0A1.66,1.66,0,0,1,658,889.29Z" transform="translate(-551.16 -790.18)"/><path class="cls-1" d="M650.34,870.8l-4.63-2.3v4.61Zm4.48-1.49a1.81,1.81,0,0,1,.75.75,1.69,1.69,0,0,1-.75,2.25l-10,5a1.65,1.65,0,0,1-.75.17,1.67,1.67,0,0,1-1.67-1.69v-10a1.67,1.67,0,0,1,.17-.77,1.69,1.69,0,0,1,1.52-.92,1.57,1.57,0,0,1,.73.17Z" transform="translate(-551.16 -790.18)"/><path class="cls-4" d="M644.06,859.12v5a1.69,1.69,0,0,0-1.52.92,1.67,1.67,0,0,0-.17.77v10A1.67,1.67,0,0,0,644,877.5v5h-8.35a1.67,1.67,0,0,1-1.68-1.67v-10a1.67,1.67,0,0,0-1.67-1.67V865.8a1.67,1.67,0,0,0,1.67-1.69v-3.33a1.66,1.66,0,0,1,1.68-1.66Z" transform="translate(-551.16 -790.18)"/><path class="cls-1" d="M656.14,845.33a10,10,0,0,0-14.17,0,1.69,1.69,0,0,1-2.33,0,1.65,1.65,0,0,1,0-2.36,13.36,13.36,0,0,1,18.9,0,1.67,1.67,0,0,1-2.37,2.36Z" transform="translate(-551.16 -790.18)"/><path class="cls-1" d="M642.37,890.86v13.37a1.68,1.68,0,0,1-3.35,0V890.86a1.68,1.68,0,0,1,3.35,0Z" transform="translate(-551.16 -790.18)"/><path class="cls-1" d="M660.87,840.6a16.72,16.72,0,0,0-23.63,0,1.67,1.67,0,0,1-2.37-2.35,20.07,20.07,0,0,1,28.37,0,1.63,1.63,0,0,1,.48,1.17,1.68,1.68,0,0,1-1.67,1.68A1.65,1.65,0,0,1,660.87,840.6Z" transform="translate(-551.16 -790.18)"/><path class="cls-1" d="M662.42,855.77a5,5,0,0,1,5,5v11.7a1.67,1.67,0,0,1-3.34,0v-11.7a1.66,1.66,0,0,0-1.68-1.66H635.69a1.66,1.66,0,0,0-1.68,1.66v3.33a1.67,1.67,0,1,1-3.34,0v-3.33a5,5,0,0,1,5-5Z" transform="translate(-551.16 -790.18)"/><path class="cls-1" d="M662.42,882.5a1.67,1.67,0,0,0,1.68-1.67v-1.67a1.67,1.67,0,0,1,3.34,0v1.67a5,5,0,0,1-5,5H635.69a5,5,0,0,1-5-5v-10a1.67,1.67,0,1,1,3.34,0v10a1.67,1.67,0,0,0,1.68,1.67h26.73Z" transform="translate(-551.16 -790.18)"/><path class="cls-1" d="M629,902.56h5a1.67,1.67,0,1,1,0,3.33h-6.68a1.66,1.66,0,0,1-1.67-1.66V890.86a1.68,1.68,0,0,1,3.35,0Z" transform="translate(-551.16 -790.18)"/><path class="cls-1" d="M599,846.55a16.71,16.71,0,0,1,15.88-17.5A23.28,23.28,0,0,1,634,819h.1a27.73,27.73,0,0,1,6.8-5.83,28.36,28.36,0,0,1,39,9.33,21.79,21.79,0,0,1,19.26,21.57,20.43,20.43,0,0,1-.7,5.56A21.66,21.66,0,0,1,672,865.08l-.12,0a1.66,1.66,0,0,1-1.18-1.6,1.73,1.73,0,0,1,.06-.49,1.65,1.65,0,0,1,2.07-1.11,18.37,18.37,0,1,0,5.93-36.1,1.65,1.65,0,0,1-1.33-.83,25.37,25.37,0,0,0-6.13-7.15,25,25,0,0,0-35.18,4,1.71,1.71,0,0,1-1.37.64l-.38,0H634a20.05,20.05,0,0,0-16.88,9.26,1.75,1.75,0,0,1-1.59.77,13.19,13.19,0,0,0-4.76.9,13.37,13.37,0,0,0,9.63,25,1.62,1.62,0,0,1,1.6.21,20.33,20.33,0,0,0,4.3,2.45l.05,0a1.66,1.66,0,0,1,1,1.53,1.6,1.6,0,0,1-.15.68,1.67,1.67,0,0,1-2.2.85,24.22,24.22,0,0,1-4.27-2.33,16.08,16.08,0,0,1-5.11.82A16.72,16.72,0,0,1,599,846.55Z" transform="translate(-551.16 -790.18)"/></svg>