<svg id="圖層_1" data-name="圖層 1" xmlns="http://www.w3.org/2000/svg" viewBox="0 0 193.51 147.4"><defs><style>.cls-1{fill:#414143;}.cls-2{fill:#ed9484;}.cls-3{fill:#fff;}.cls-4{fill:#8691c9;}</style></defs><title>live_27</title><path class="cls-1" d="M839.42,830.71v119A14.2,14.2,0,0,1,825.24,964H660.08a14.19,14.19,0,0,1-14.17-14.19v-119a14.18,14.18,0,0,1,14.17-14.16H825.24A14.18,14.18,0,0,1,839.42,830.71Zm-5.66,119v-119a8.52,8.52,0,0,0-8.52-8.5H660.08a8.51,8.51,0,0,0-8.5,8.5v119a8.52,8.52,0,0,0,8.5,8.52H825.24A8.53,8.53,0,0,0,833.76,949.76Z" transform="translate(-645.91 -816.55)"/><path class="cls-2" d="M833.76,830.71v119a8.53,8.53,0,0,1-8.52,8.52H660.08a8.52,8.52,0,0,1-8.5-8.52v-119a8.51,8.51,0,0,1,8.5-8.5H825.24A8.52,8.52,0,0,1,833.76,830.71Zm-5.69,107.72V830.71a2.82,2.82,0,0,0-2.83-2.83H660.08a2.83,2.83,0,0,0-2.84,2.83v48.2a2.83,2.83,0,0,0,2.82,2.83v5.66a2.83,2.83,0,0,0-2.82,2.84v48.19a2.84,2.84,0,0,0,2.84,2.84H825.24A2.83,2.83,0,0,0,828.07,938.43Zm.27,11.33a2.84,2.84,0,1,0-2.83,2.84A2.83,2.83,0,0,0,828.34,949.76Zm-11.35,0a2.84,2.84,0,1,0-2.83,2.84A2.83,2.83,0,0,0,817,949.76Z" transform="translate(-645.91 -816.55)"/><path class="cls-1" d="M660.06,881.74a2.83,2.83,0,0,1-2.82-2.83v-48.2a2.83,2.83,0,0,1,2.84-2.83H825.24a2.82,2.82,0,0,1,2.83,2.83V938.43a2.83,2.83,0,0,1-2.83,2.84H660.08a2.84,2.84,0,0,1-2.84-2.84V890.24a2.83,2.83,0,0,1,2.82-2.84h0a2.84,2.84,0,0,1,2.83,2.84V935.6h159.5V833.54H662.91v45.37a2.83,2.83,0,0,1-2.83,2.83Z" transform="translate(-645.91 -816.55)"/><circle class="cls-1" cx="179.6" cy="133.22" r="2.83"/><circle class="cls-1" cx="168.25" cy="133.22" r="2.83"/><path class="cls-3" d="M780.78,929.5h-3.17v-3.18a1.59,1.59,0,1,0,0-3.17h-3.18a1.59,1.59,0,0,1-1.58-1.58V918.4H776a1.59,1.59,0,0,0,0-3.18h-3.18v-6.33a1.58,1.58,0,0,0-1.59-1.59v-3.18h9.52a4.75,4.75,0,0,1,4.75,4.77v8a1.59,1.59,0,0,0,1.6,1.58v3.14a1.58,1.58,0,0,0-1.6,1.58v1.58A4.75,4.75,0,0,1,780.78,929.5Z" transform="translate(-645.91 -816.55)"/><polygon class="cls-3" points="132.9 35.26 128.52 37.45 128.52 33.06 132.9 35.26"/><path class="cls-1" d="M775.8,870.16a34.63,34.63,0,0,1,1.38,26.58,1.62,1.62,0,0,1-1.5,1,1.66,1.66,0,0,1-.53-.1,1.58,1.58,0,0,1-.95-2A31.52,31.52,0,0,0,773,871.52a1.6,1.6,0,0,1,.68-2,1.7,1.7,0,0,1,.77-.2A1.62,1.62,0,0,1,775.8,870.16Z" transform="translate(-645.91 -816.55)"/><path class="cls-3" d="M775.8,870.16a1.62,1.62,0,0,0-1.4-.82v-3.27h3.21a1.59,1.59,0,0,0,1.59-1.58h3.16a1.59,1.59,0,0,0,1.58,1.58,7.93,7.93,0,0,0,7.94-7.93V845.46a7.94,7.94,0,0,0-7.94-7.93v-4h38.47V935.6H780.78v-2.93a8,8,0,0,0,7.93-7.94v-1.58a1.58,1.58,0,0,0-1.58-1.58v-3.14a1.59,1.59,0,0,0,1.58-1.58v-8a7.94,7.94,0,0,0-7.93-7.94h-5.1v-3.16a1.62,1.62,0,0,0,1.5-1A34.63,34.63,0,0,0,775.8,870.16Z" transform="translate(-645.91 -816.55)"/><path class="cls-1" d="M774.43,854l4.38-2.18-4.38-2.2Zm8.65-.76L773.56,858a1.43,1.43,0,0,1-.71.17,1.59,1.59,0,0,1-1.59-1.58V847a1.68,1.68,0,0,1,.17-.7,1.62,1.62,0,0,1,1.43-.88,1.48,1.48,0,0,1,.7.17l9.52,4.75a1.62,1.62,0,0,1,.86,1.43A1.59,1.59,0,0,1,783.08,853.23Z" transform="translate(-645.91 -816.55)"/><path class="cls-2" d="M772.86,840.71h11.08a4.75,4.75,0,0,1,4.77,4.75v6.35h-4.77a1.62,1.62,0,0,0-.86-1.43l-9.52-4.75a1.48,1.48,0,0,0-.7-.17Z" transform="translate(-645.91 -816.55)"/><path class="cls-1" d="M772.85,915.22H776a1.59,1.59,0,0,1,0,3.18h-3.18v3.17a1.59,1.59,0,0,0,1.58,1.58h3.18a1.59,1.59,0,1,1,0,3.17h-3.18a4.76,4.76,0,0,1-4.75-4.75V918.4h-3.17a1.59,1.59,0,0,1,0-3.18h3.17v-6.33a1.59,1.59,0,1,1,3.17,0Z" transform="translate(-645.91 -816.55)"/><path class="cls-2" d="M777.61,862.91h-6.35a4.77,4.77,0,0,1-4.75-4.77V845.46a4.75,4.75,0,0,1,4.75-4.75h1.6v4.75a1.62,1.62,0,0,0-1.43.88,1.68,1.68,0,0,0-.17.7v9.52a1.59,1.59,0,0,0,1.59,1.58,1.43,1.43,0,0,0,.71-.17l9.52-4.74a1.59,1.59,0,0,0,.86-1.42h4.77v6.33a4.77,4.77,0,0,1-4.77,4.77,1.58,1.58,0,0,0-1.58,1.58H779.2A1.59,1.59,0,0,0,777.61,862.91Z" transform="translate(-645.91 -816.55)"/><path class="cls-3" d="M769.68,921.57a4.76,4.76,0,0,0,4.75,4.75h3.18v3.18H764.93a4.77,4.77,0,0,1-4.77-4.77V916.8h4.77a1.59,1.59,0,0,0,1.58,1.6h3.17Z" transform="translate(-645.91 -816.55)"/><path class="cls-3" d="M764.93,904.12h6.33v3.18a1.59,1.59,0,0,0-1.58,1.59v6.33h-3.17a1.58,1.58,0,0,0-1.58,1.58h-4.77v-7.91A4.77,4.77,0,0,1,764.93,904.12Z" transform="translate(-645.91 -816.55)"/><path class="cls-1" d="M783.94,862.91a4.77,4.77,0,0,0,4.77-4.77V845.46a4.75,4.75,0,0,0-4.77-4.75H771.26a4.75,4.75,0,0,0-4.75,4.75v12.68a4.77,4.77,0,0,0,4.75,4.77h6.35a1.58,1.58,0,1,1,0,3.16h-6.35a8,8,0,0,1-7.93-7.93V845.46a8,8,0,0,1,7.93-7.93h12.68a7.94,7.94,0,0,1,7.94,7.93v12.68a7.93,7.93,0,0,1-7.94,7.93,1.58,1.58,0,0,1,0-3.16Z" transform="translate(-645.91 -816.55)"/><path class="cls-3" d="M763.33,878.76a1.6,1.6,0,0,0,1.6-1.59,19.07,19.07,0,0,0-15.2-18.63l.89-4.5a31,31,0,0,1,7.28,2.44,1.62,1.62,0,0,0,.68.16,1.59,1.59,0,0,0,1.58-1.6h3.17v3.1a8,8,0,0,0,7.93,7.93h3.14v3.27a1.7,1.7,0,0,0-.77.2,1.6,1.6,0,0,0-.68,2,31.52,31.52,0,0,1,1.25,24.15,1.58,1.58,0,0,0,.95,2,1.66,1.66,0,0,0,.53.1V901H764.93v-3.16a1.6,1.6,0,0,0,0-3.19h-4.77v-3.16h4.77a1.59,1.59,0,0,0,0-3.17h-4.77v-3.16h4.77a1.6,1.6,0,0,0,0-3.19h-1.6Z" transform="translate(-645.91 -816.55)"/><path class="cls-1" d="M758.58,881.92h6.35a1.6,1.6,0,0,1,0,3.19h-4.77v3.16h4.77a1.59,1.59,0,0,1,0,3.17h-4.77v3.16h4.77a1.6,1.6,0,0,1,0,3.19h-6.35A1.59,1.59,0,0,1,757,896.2V883.51A1.59,1.59,0,0,1,758.58,881.92Z" transform="translate(-645.91 -816.55)"/><path class="cls-1" d="M780.78,929.5a4.75,4.75,0,0,0,4.75-4.77v-1.58a1.59,1.59,0,0,1,3.18,0v1.58a8,8,0,0,1-7.93,7.94H764.93a7.94,7.94,0,0,1-7.93-7.94V908.89a7.93,7.93,0,0,1,7.93-7.94h15.85a7.94,7.94,0,0,1,7.93,7.94v8a1.59,1.59,0,0,1-3.18,0v-8a4.75,4.75,0,0,0-4.75-4.77H764.93a4.77,4.77,0,0,0-4.77,4.77v15.84a4.77,4.77,0,0,0,4.77,4.77h15.85Z" transform="translate(-645.91 -816.55)"/><path class="cls-1" d="M755.41,877.17a9.52,9.52,0,0,0-9.51-9.51,1.59,1.59,0,0,1,0-3.17,12.68,12.68,0,0,1,12.68,12.68,1.59,1.59,0,1,1-3.17,0Z" transform="translate(-645.91 -816.55)"/><path class="cls-1" d="M752.23,877.17a1.58,1.58,0,1,1-3.16,0A3.16,3.16,0,0,0,745.9,874a1.6,1.6,0,0,1,0-3.19A6.34,6.34,0,0,1,752.23,877.17Z" transform="translate(-645.91 -816.55)"/><path class="cls-1" d="M749.73,858.54a19.07,19.07,0,0,1,15.2,18.63,1.59,1.59,0,1,1-3.18,0,15.87,15.87,0,0,0-15.85-15.86,1.59,1.59,0,0,1,0-3.17A17.84,17.84,0,0,1,749.73,858.54Z" transform="translate(-645.91 -816.55)"/><path class="cls-1" d="M746,896.75l-4.77-12.68a1.59,1.59,0,1,1,3-1.11l3.26,8.73,3.27-8.73a1.59,1.59,0,1,1,3,1.11L749,896.75a1.56,1.56,0,0,1-.94.94A1.59,1.59,0,0,1,746,896.75Z" transform="translate(-645.91 -816.55)"/><path class="cls-1" d="M738,883.51V896.2a1.59,1.59,0,1,1-3.17,0V883.51a1.59,1.59,0,1,1,3.17,0Z" transform="translate(-645.91 -816.55)"/><path class="cls-1" d="M736.77,915.87a30.83,30.83,0,0,0,15.09,0,1.61,1.61,0,0,1,1.92,1.16,1.74,1.74,0,0,1,.05.39,1.6,1.6,0,0,1-1.22,1.53A34.08,34.08,0,0,1,736,919a1.58,1.58,0,0,1-1.2-1.53,1.89,1.89,0,0,1,.05-.39A1.6,1.6,0,0,1,736.77,915.87Z" transform="translate(-645.91 -816.55)"/><path class="cls-1" d="M750.62,854a31.31,31.31,0,0,0-16.87,1.19,1.58,1.58,0,0,1-2-1,1.83,1.83,0,0,1-.1-.55,1.6,1.6,0,0,1,1-1.49,34.5,34.5,0,0,1,26.58,1.39,1.56,1.56,0,0,1,.9,1.41,1.59,1.59,0,0,1-1.58,1.6,1.62,1.62,0,0,1-.68-.16A31,31,0,0,0,750.62,854Z" transform="translate(-645.91 -816.55)"/><path class="cls-1" d="M730,897.79H723.7a1.59,1.59,0,0,1-1.58-1.59V883.51a1.58,1.58,0,1,1,3.16,0V894.6H730a1.6,1.6,0,1,1,0,3.19Z" transform="translate(-645.91 -816.55)"/><path class="cls-3" d="M723.7,924.73a1.59,1.59,0,0,0,1.58,1.59,6.35,6.35,0,0,0,6.35-6.34v-2.56h3.17A1.58,1.58,0,0,0,736,919a34.08,34.08,0,0,0,16.61,0,1.6,1.6,0,0,0,1.22-1.53H757v7.31a7.94,7.94,0,0,0,7.93,7.94h15.85v2.93H711v-2.93a1.66,1.66,0,0,0,1-.37l7.6-6.35a1.57,1.57,0,0,0,.58-1.22Z" transform="translate(-645.91 -816.55)"/><path class="cls-1" d="M722.12,912.05v6.35a1.59,1.59,0,0,1-1.58,1.58,1.62,1.62,0,0,1-1.6-1.58v-6.35a1.59,1.59,0,0,1,3.18,0Z" transform="translate(-645.91 -816.55)"/><path class="cls-3" d="M720.54,907.3h4.74a3.17,3.17,0,0,1,3.17,3.17V920a3.17,3.17,0,0,1-3.17,3.17,1.6,1.6,0,0,0-1.58,1.58h-3.48a1.63,1.63,0,0,0-.37-1,1.6,1.6,0,0,0-1.23-.57l1.3-3.3a1.56,1.56,0,0,0,.62.13,1.59,1.59,0,0,0,1.58-1.58v-6.35a1.58,1.58,0,0,0-1.58-1.58Z" transform="translate(-645.91 -816.55)"/><path class="cls-3" d="M714.19,920a1.58,1.58,0,0,0,1.58-1.58v-6.35a1.59,1.59,0,0,0-3.17,0v6.35A1.59,1.59,0,0,0,714.19,920Zm4.75-1.58a1.56,1.56,0,0,0,1,1.45l-1.3,3.3a1.55,1.55,0,0,0-1,.37l-5,4.18v-3a1.59,1.59,0,0,0-1.58-1.58h-1.58a3.19,3.19,0,0,1-3.19-3.17v-9.51a3.19,3.19,0,0,1,3.19-3.17h11.1v3.17a1.58,1.58,0,0,0-1.6,1.58Z" transform="translate(-645.91 -816.55)"/><path class="cls-1" d="M715.77,912.05v6.35a1.59,1.59,0,0,1-3.17,0v-6.35a1.59,1.59,0,0,1,3.17,0Z" transform="translate(-645.91 -816.55)"/><path class="cls-4" d="M720.54,843.88a4.75,4.75,0,0,1,4.74,4.75v15.86a4.75,4.75,0,0,1-4.74,4.75H711v-3.17a1.58,1.58,0,0,0,1.58-1.58v-6.35h3.17a1.58,1.58,0,1,0,0-3.16H712.6v-3.17a1.6,1.6,0,0,1,1.59-1.6h3.16a1.59,1.59,0,1,0,0-3.17v-3.16Z" transform="translate(-645.91 -816.55)"/><path class="cls-1" d="M712.6,858.14v6.35a1.58,1.58,0,0,1-3.16,0v-6.35h-3.19a1.58,1.58,0,1,1,0-3.16h3.19v-3.17a4.75,4.75,0,0,1,4.75-4.77h3.16a1.59,1.59,0,1,1,0,3.17h-3.16a1.6,1.6,0,0,0-1.59,1.6V855h3.17a1.58,1.58,0,1,1,0,3.16Z" transform="translate(-645.91 -816.55)"/><path class="cls-1" d="M715.69,898.69a1.56,1.56,0,0,1-.75,2.1,1.41,1.41,0,0,1-.67.16,1.57,1.57,0,0,1-1.43-.9,34.26,34.26,0,0,1-2.39-23.26,1.63,1.63,0,0,1,1.57-1.22,1.57,1.57,0,0,1,.37,0v0a1.58,1.58,0,0,1,1.15,1.92A31.22,31.22,0,0,0,715.69,898.69Z" transform="translate(-645.91 -816.55)"/><path class="cls-3" d="M731.63,896.2a1.6,1.6,0,0,0-1.6-1.6h-4.75V883.51a1.58,1.58,0,1,0-3.16,0V896.2a1.59,1.59,0,0,0,1.58,1.59H730A1.6,1.6,0,0,0,731.63,896.2Zm19-17.44a1.59,1.59,0,0,0,1.58-1.59,6.34,6.34,0,0,0-6.33-6.35,1.6,1.6,0,0,0,0,3.19,3.16,3.16,0,0,1,3.17,3.16A1.59,1.59,0,0,0,750.65,878.76Zm3.08,5.31a1.59,1.59,0,1,0-3-1.11l-3.27,8.73L744.22,883a1.59,1.59,0,1,0-3,1.11L746,896.75a1.59,1.59,0,0,0,2,.94,1.56,1.56,0,0,0,.94-.94Zm-7.83-19.58a1.59,1.59,0,0,0,0,3.17,9.52,9.52,0,0,1,9.51,9.51,1.59,1.59,0,1,0,3.17,0A12.68,12.68,0,0,0,745.9,864.49ZM738,896.2V883.51a1.59,1.59,0,1,0-3.17,0V896.2a1.59,1.59,0,1,0,3.17,0Zm7.93-38.06a1.59,1.59,0,0,0,0,3.17,15.87,15.87,0,0,1,15.85,15.86,1.59,1.59,0,0,0,1.58,1.59v3.16h-4.75a1.59,1.59,0,0,0-1.58,1.59V896.2a1.59,1.59,0,0,0,1.58,1.59h6.35V901a7.93,7.93,0,0,0-7.93,7.94v8.53h-3.17a1.74,1.74,0,0,0-.05-.39,1.61,1.61,0,0,0-1.92-1.16,30.83,30.83,0,0,1-15.09,0,1.6,1.6,0,0,0-1.92,1.16,1.89,1.89,0,0,0-.05.39h-3.17v-6.95a6.36,6.36,0,0,0-6.35-6.35h-11V901a1.41,1.41,0,0,0,.67-.16,1.56,1.56,0,0,0,.75-2.1,31.22,31.22,0,0,1-2.15-21.13,1.58,1.58,0,0,0-1.15-1.92v0a1.57,1.57,0,0,0-.37,0v-3.16h8.52a7.92,7.92,0,0,0,7.91-7.92V853.73h3.18a1.83,1.83,0,0,0,.1.55,1.58,1.58,0,0,0,2,1A31.31,31.31,0,0,1,750.62,854l-.89,4.5A17.84,17.84,0,0,0,745.9,858.14Z" transform="translate(-645.91 -816.55)"/><path class="cls-4" d="M714.19,847a4.75,4.75,0,0,0-4.75,4.77V855h-3.19a1.59,1.59,0,0,0-1.58,1.58h-4.75v-7.93a4.75,4.75,0,0,1,4.75-4.75h12.68V847Z" transform="translate(-645.91 -816.55)"/><path class="cls-3" d="M711,935.6H662.91V890.24a2.84,2.84,0,0,0-2.83-2.84h0v-5.66h0a2.83,2.83,0,0,0,2.83-2.83V833.54h121v4H771.26a8,8,0,0,0-7.93,7.93V855h-3.17a1.56,1.56,0,0,0-.9-1.41,34.5,34.5,0,0,0-26.58-1.39,1.6,1.6,0,0,0-1,1.49h-3.18v-5.1a7.92,7.92,0,0,0-7.91-7.92H704.67a7.93,7.93,0,0,0-7.92,7.92v8a1.57,1.57,0,0,0,1.59,1.58v3.14a1.58,1.58,0,0,0-1.59,1.6v1.58a7.93,7.93,0,0,0,7.92,7.92H712v3.16a1.63,1.63,0,0,0-1.57,1.22,34.26,34.26,0,0,0,2.39,23.26,1.57,1.57,0,0,0,1.43.9v3.17h-4.83a6.35,6.35,0,0,0-6.35,6.35V920a6.34,6.34,0,0,0,6.35,6.34v4.76a1.57,1.57,0,0,0,1.58,1.59Z" transform="translate(-645.91 -816.55)"/><path class="cls-1" d="M709.44,931.08v-4.76a6.34,6.34,0,0,1-6.35-6.34v-9.51a6.35,6.35,0,0,1,6.35-6.35h15.84a6.36,6.36,0,0,1,6.35,6.35V920a6.35,6.35,0,0,1-6.35,6.34,1.59,1.59,0,0,1,0-3.17,3.17,3.17,0,0,0,3.17-3.17v-9.51a3.17,3.17,0,0,0-3.17-3.17H709.44a3.19,3.19,0,0,0-3.19,3.17V920a3.19,3.19,0,0,0,3.19,3.17H711a1.59,1.59,0,0,1,1.58,1.58v3l5-4.18a1.55,1.55,0,0,1,1-.37,1.6,1.6,0,0,1,1.23.57,1.63,1.63,0,0,1,.37,1,1.57,1.57,0,0,1-.58,1.22L712,932.3a1.66,1.66,0,0,1-1,.37,1.57,1.57,0,0,1-1.58-1.59Z" transform="translate(-645.91 -816.55)"/><path class="cls-4" d="M704.67,856.56a1.58,1.58,0,0,0,1.58,1.58h3.19v6.35a1.58,1.58,0,0,0,1.58,1.58v3.17h-6.35a4.75,4.75,0,0,1-4.75-4.75v-1.58a1.59,1.59,0,0,0-1.58-1.6v-3.14a1.58,1.58,0,0,0,1.58-1.58v0Z" transform="translate(-645.91 -816.55)"/><path class="cls-1" d="M720.54,840.71a7.92,7.92,0,0,1,7.91,7.92v15.86a7.92,7.92,0,0,1-7.91,7.92H704.67a7.93,7.93,0,0,1-7.92-7.92v-1.58a1.59,1.59,0,1,1,3.17,0v1.58a4.75,4.75,0,0,0,4.75,4.75h15.87a4.75,4.75,0,0,0,4.74-4.75V848.63a4.75,4.75,0,0,0-4.74-4.75H704.67a4.75,4.75,0,0,0-4.75,4.75v8a1.59,1.59,0,0,1-3.17,0v-8a7.93,7.93,0,0,1,7.92-7.92Z" transform="translate(-645.91 -816.55)"/></svg>