<svg id="圖層_1" data-name="圖層 1" xmlns="http://www.w3.org/2000/svg" viewBox="0 0 193.51 147.42"><defs><style>.cls-1{fill:#414143;}.cls-2{fill:#dbc9b1;}.cls-3{fill:#fff;}.cls-4{fill:#8691c9;}</style></defs><title>live-30</title><path class="cls-1" d="M839.42,830.7v119a14.19,14.19,0,0,1-14.18,14.18H660.08a14.19,14.19,0,0,1-14.17-14.18v-119a14.19,14.19,0,0,1,14.17-14.18H825.24A14.19,14.19,0,0,1,839.42,830.7Zm-5.66,119v-119a8.51,8.51,0,0,0-8.52-8.5H660.08a8.5,8.5,0,0,0-8.5,8.5v119a8.51,8.51,0,0,0,8.5,8.5H825.24A8.52,8.52,0,0,0,833.76,949.75Z" transform="translate(-645.91 -816.52)"/><path class="cls-2" d="M833.76,830.7v119a8.52,8.52,0,0,1-8.52,8.5H660.08a8.51,8.51,0,0,1-8.5-8.5v-119a8.5,8.5,0,0,1,8.5-8.5H825.24A8.51,8.51,0,0,1,833.76,830.7Zm-5.69,107.72V830.7a2.83,2.83,0,0,0-2.83-2.84H660.08a2.84,2.84,0,0,0-2.84,2.84v48.19a2.83,2.83,0,0,0,2.82,2.83v5.67a2.83,2.83,0,0,0-2.82,2.83v48.2a2.83,2.83,0,0,0,2.84,2.83H825.24A2.82,2.82,0,0,0,828.07,938.42Zm.27,11.31a2.84,2.84,0,1,0-2.83,2.85A2.83,2.83,0,0,0,828.34,949.73Zm-11.35,0a2.84,2.84,0,1,0-2.83,2.85A2.83,2.83,0,0,0,817,949.73Z" transform="translate(-645.91 -816.52)"/><path class="cls-1" d="M660.06,887.39h0a2.83,2.83,0,0,1,2.83,2.83v45.37h159.5V833.53H662.91v45.36a2.84,2.84,0,0,1-2.83,2.83h0a2.83,2.83,0,0,1-2.82-2.83V830.7a2.84,2.84,0,0,1,2.84-2.84H825.24a2.83,2.83,0,0,1,2.83,2.84V938.42a2.82,2.82,0,0,1-2.83,2.83H660.08a2.83,2.83,0,0,1-2.84-2.83v-48.2A2.83,2.83,0,0,1,660.06,887.39Z" transform="translate(-645.91 -816.52)"/><path class="cls-1" d="M825.51,946.9a2.84,2.84,0,1,1-2.84,2.83A2.83,2.83,0,0,1,825.51,946.9Z" transform="translate(-645.91 -816.52)"/><path class="cls-1" d="M814.16,946.9a2.84,2.84,0,1,1-2.84,2.83A2.83,2.83,0,0,1,814.16,946.9Z" transform="translate(-645.91 -816.52)"/><polygon class="cls-3" points="155.72 60.43 155.72 96.71 134.65 89.69 134.65 67.44 155.72 60.43"/><path class="cls-4" d="M793.19,840.33a6.32,6.32,0,1,1,0,12.63H776.35a6.32,6.32,0,1,1,0-12.63Z" transform="translate(-645.91 -816.52)"/><path class="cls-3" d="M753.18,935.59H662.91V890.22a2.83,2.83,0,0,0-2.83-2.83h0v-5.67h0a2.84,2.84,0,0,0,2.83-2.83V833.53H793.19v2.6H776.35a10.5,10.5,0,0,0-8.37,4.2h-14.8a14.76,14.76,0,0,0-11.93,6.17,10.5,10.5,0,0,0-8.28-4H700.55a6.32,6.32,0,1,0,0,12.63H730.7l2.53,6.31h-39a14.75,14.75,0,0,0-14.73,14.74v4.21a2.1,2.1,0,0,0,2.1,2.1v4.22a2.11,2.11,0,0,0-2.1,2.1v29.48A14.77,14.77,0,0,0,694.22,933h59Z" transform="translate(-645.91 -816.52)"/><path class="cls-3" d="M753.18,844.55H766A10.51,10.51,0,0,0,774.25,857a9.85,9.85,0,0,0,2.1.22h16.84a10.53,10.53,0,1,0,0-21v-2.6h29.22V935.59H765.83V933a14.77,14.77,0,0,0,14.73-14.75v-7.6l22.5,7.5a2.47,2.47,0,0,0,.67.1,2.1,2.1,0,0,0,2.1-2.1V874a2.11,2.11,0,0,0-.87-1.72,2.14,2.14,0,0,0-1.9-.28l-22.5,7.5v-3.4a14.75,14.75,0,0,0-14.73-14.74H751.08v-6.31a2.12,2.12,0,0,1,2.1-2.12h7.5a2.1,2.1,0,0,0,0-4.2h-7.5a6.31,6.31,0,0,0-6.31,6.32v3.23l-3.3-7.41A10.49,10.49,0,0,1,753.18,844.55Z" transform="translate(-645.91 -816.52)"/><path class="cls-1" d="M746.87,920.35h6.31a2.1,2.1,0,1,1,0,4.2h-8.41a2.09,2.09,0,0,1-2.1-2.1V909.82a2.09,2.09,0,0,1,2.1-2.1h8.41a2.1,2.1,0,1,1,0,4.2h-6.31V914h4.21a2.1,2.1,0,0,1,0,4.2h-4.21Z" transform="translate(-645.91 -816.52)"/><path class="cls-3" d="M738.33,910.49a1.81,1.81,0,0,0,.12-.68h4.22v12.63a2.09,2.09,0,0,0,2.1,2.1h8.41v4.22h-21v-4.2a2,2,0,0,0,.63-.1,2.16,2.16,0,0,0,1.35-1.35Z" transform="translate(-645.91 -816.52)"/><path class="cls-3" d="M729.92,909.16a2.11,2.11,0,0,0-2-1.44v-4.21a2.11,2.11,0,0,0,2.11-2.1h4.2a2.12,2.12,0,0,0,2.12,2.1h2.1a8.42,8.42,0,0,0,8.42-8.42V878.24a8.43,8.43,0,0,0-8.42-8.43v-4.2h27.38a10.53,10.53,0,0,1,10.52,10.52v42.11a10.54,10.54,0,0,1-10.52,10.53h-4.22a2.11,2.11,0,1,0,0,4.22h4.22v2.6H753.18V933a2.11,2.11,0,1,0,0-4.22v-4.22a2.1,2.1,0,1,0,0-4.2h-6.31v-2.11h4.21a2.1,2.1,0,0,0,0-4.2h-4.21v-2.12h6.31a2.1,2.1,0,1,0,0-4.2h-8.41a2.09,2.09,0,0,0-2.1,2.1h-4.22a2.11,2.11,0,0,0-4.12-.65h0l-2.22,6.64Z" transform="translate(-645.91 -816.52)"/><path class="cls-3" d="M733,846.65a6.34,6.34,0,0,1,5.78,3.76l4.88,11h-5.86l-3.15-7.88a4.22,4.22,0,0,0-3.92-2.65H700.55a2.11,2.11,0,1,1,0-4.21Z" transform="translate(-645.91 -816.52)"/><path class="cls-1" d="M738.33,910.49l-4.2,12.63a2.16,2.16,0,0,1-1.35,1.35,2,2,0,0,1-.63.1,2.14,2.14,0,0,1-2-1.45l-4.21-12.63a2.22,2.22,0,0,1-.1-.67,2.11,2.11,0,0,1,1.43-2,2.59,2.59,0,0,1,.67-.1,2.11,2.11,0,0,1,2,1.44l2.21,6.64,2.22-6.64h0a2.11,2.11,0,0,1,4.12.65A1.81,1.81,0,0,1,738.33,910.49Z" transform="translate(-645.91 -816.52)"/><polygon class="cls-4" points="83.62 70.14 77.79 73.06 77.79 67.23 83.62 70.14"/><path class="cls-3" d="M725.92,910.49l4.21,12.63a2.14,2.14,0,0,0,2,1.45v4.2H719.5v-4.22a2.09,2.09,0,0,0,2.1-2.1V909.82h4.22A2.22,2.22,0,0,0,725.92,910.49Z" transform="translate(-645.91 -816.52)"/><path class="cls-1" d="M719.5,893V880.34a2.08,2.08,0,0,1,2.1-2.1,2.13,2.13,0,0,1,.95.22l12.63,6.31a2.1,2.1,0,0,1,0,3.77l-12.63,6.32a2.1,2.1,0,0,1-3-1.89Zm4.2-3.4,5.83-2.91-5.83-2.92Z" transform="translate(-645.91 -816.52)"/><path class="cls-3" d="M727.92,899.29H721.6v-4.2a2.11,2.11,0,0,0,.95-.23l12.63-6.32a2.1,2.1,0,0,0,0-3.77l-12.63-6.31a2.13,2.13,0,0,0-.95-.22V874h16.85a4.21,4.21,0,0,1,4.22,4.21v16.85a4.21,4.21,0,0,1-4.22,4.2h-2.1a2.12,2.12,0,0,0-2.12,2.12H730A2.12,2.12,0,0,0,727.92,899.29Z" transform="translate(-645.91 -816.52)"/><path class="cls-1" d="M721.6,909.82v12.63a2.11,2.11,0,0,1-4.21,0V909.82a2.11,2.11,0,0,1,4.21,0Z" transform="translate(-645.91 -816.52)"/><path class="cls-3" d="M721.6,895.09v4.2h-4.21a4.2,4.2,0,0,1-4.2-4.2V878.24a4.2,4.2,0,0,1,4.2-4.21h4.21v4.21a2.08,2.08,0,0,0-2.1,2.1V893A2.11,2.11,0,0,0,721.6,895.09Z" transform="translate(-645.91 -816.52)"/><path class="cls-3" d="M719.5,924.55v4.22h-8.43v-4.22a2.1,2.1,0,0,0,2.12-2.1h4.2A2.1,2.1,0,0,0,719.5,924.55Z" transform="translate(-645.91 -816.52)"/><path class="cls-1" d="M738.45,899.29a4.21,4.21,0,0,0,4.22-4.2V878.24a4.21,4.21,0,0,0-4.22-4.21H717.39a4.2,4.2,0,0,0-4.2,4.21v16.85a4.2,4.2,0,0,0,4.2,4.2h10.53a2.11,2.11,0,1,1,0,4.22H717.39a8.42,8.42,0,0,1-8.42-8.42V878.24a8.43,8.43,0,0,1,8.42-8.43h21.06a8.43,8.43,0,0,1,8.42,8.43v16.85a8.42,8.42,0,0,1-8.42,8.42h-2.1a2.11,2.11,0,1,1,0-4.22Z" transform="translate(-645.91 -816.52)"/><path class="cls-3" d="M717.39,869.81a8.43,8.43,0,0,0-8.42,8.43v16.85a8.42,8.42,0,0,0,8.42,8.42h2.11v4.21a2.11,2.11,0,0,0-2.11,2.1v12.63h-4.2a2.11,2.11,0,0,0-2.12-2.1h-6.32V909.82a2.1,2.1,0,0,0-4.2,0v12.63a2.09,2.09,0,0,0,2.1,2.1h8.42v4.22H694.22a10.53,10.53,0,0,1-10.51-10.53V888.76a2.12,2.12,0,0,0-2.12-2.1v-4.22a2.1,2.1,0,0,0,2.12-2.1v-4.21a10.52,10.52,0,0,1,10.51-10.52h44.23v4.2Z" transform="translate(-645.91 -816.52)"/><path class="cls-1" d="M700.55,922.45V909.82a2.1,2.1,0,0,1,4.2,0v10.53h6.32a2.1,2.1,0,1,1,0,4.2h-8.42A2.09,2.09,0,0,1,700.55,922.45Z" transform="translate(-645.91 -816.52)"/><path class="cls-1" d="M770,846.65a6.31,6.31,0,0,0,6.32,6.31h16.84a6.32,6.32,0,1,0,0-12.63H776.35A6.32,6.32,0,0,0,770,846.65Zm-26.4,14.74-4.88-11a6.34,6.34,0,0,0-5.78-3.76H700.55a2.11,2.11,0,1,0,0,4.21H730.7a4.22,4.22,0,0,1,3.92,2.65l3.15,7.88Zm58,15.55-21.07,7v22.25l21.07,7Zm-21.07,41.3A14.77,14.77,0,0,1,765.83,933h-4.22a2.11,2.11,0,1,1,0-4.22h4.22a10.54,10.54,0,0,0,10.52-10.53V876.13a10.53,10.53,0,0,0-10.52-10.52H694.22a10.52,10.52,0,0,0-10.51,10.52v4.21a2.11,2.11,0,0,1-4.22,0v-4.21a14.75,14.75,0,0,1,14.73-14.74h39l-2.53-6.31H700.55a6.32,6.32,0,1,1,0-12.63H733a10.5,10.5,0,0,1,8.28,4,14.76,14.76,0,0,1,11.93-6.17H768a10.5,10.5,0,0,1,8.37-4.2h16.84a10.53,10.53,0,1,1,0,21H776.35a9.85,9.85,0,0,1-2.1-.22A10.51,10.51,0,0,1,766,844.55H753.18a10.49,10.49,0,0,0-9.61,6.35l3.3,7.41v-3.23a6.31,6.31,0,0,1,6.31-6.32h7.5a2.1,2.1,0,0,1,0,4.2h-7.5a2.12,2.12,0,0,0-2.1,2.12v6.31h14.75a14.75,14.75,0,0,1,14.73,14.74v3.4l22.5-7.5a2.14,2.14,0,0,1,1.9.28,2.11,2.11,0,0,1,.87,1.72v42.11a2.1,2.1,0,0,1-2.1,2.1,2.47,2.47,0,0,1-.67-.1l-22.5-7.5Z" transform="translate(-645.91 -816.52)"/><path class="cls-1" d="M683.71,918.24a10.53,10.53,0,0,0,10.51,10.53h59a2.11,2.11,0,1,1,0,4.22h-59a14.77,14.77,0,0,1-14.73-14.75V888.76a2.11,2.11,0,0,1,4.22,0Z" transform="translate(-645.91 -816.52)"/></svg>