<svg id="圖層_1" data-name="圖層 1" xmlns="http://www.w3.org/2000/svg" viewBox="0 0 193.51 147.4"><defs><style>.cls-1{fill:#414143;}.cls-2{fill:#ececec;}.cls-3{fill:#fff;}.cls-4{fill:#dbc9b1;}.cls-5{fill:#ed9484;}</style></defs><title>live_16</title><path class="cls-1" d="M745.16,804.71V923.78A14.18,14.18,0,0,1,731,938H565.81a14.19,14.19,0,0,1-14.16-14.17V804.71a14.18,14.18,0,0,1,14.16-14.16H731A14.17,14.17,0,0,1,745.16,804.71Zm-5.67,119.07V804.71a8.51,8.51,0,0,0-8.49-8.5H565.81a8.51,8.51,0,0,0-8.49,8.5V923.78a8.51,8.51,0,0,0,8.49,8.5H731A8.51,8.51,0,0,0,739.49,923.78Z" transform="translate(-551.65 -790.55)"/><path class="cls-2" d="M739.49,804.71V923.78a8.51,8.51,0,0,1-8.49,8.5H565.81a8.51,8.51,0,0,1-8.49-8.5V804.71a8.51,8.51,0,0,1,8.49-8.5H731A8.51,8.51,0,0,1,739.49,804.71Zm-5.66,107.72V804.71a2.83,2.83,0,0,0-2.83-2.83H565.81a2.83,2.83,0,0,0-2.83,2.83v48.2a2.84,2.84,0,0,0,2.83,2.83v5.66a2.86,2.86,0,0,0-2.83,2.84v48.19a2.83,2.83,0,0,0,2.83,2.83H731A2.83,2.83,0,0,0,733.83,912.43Zm.25,11.33a2.84,2.84,0,1,0-2.83,2.84A2.83,2.83,0,0,0,734.08,923.76Zm-11.33,0a2.84,2.84,0,1,0-2.84,2.84A2.84,2.84,0,0,0,722.75,923.76Z" transform="translate(-551.65 -790.55)"/><path class="cls-1" d="M565.81,861.4a2.86,2.86,0,0,1,2.85,2.84V909.6h159.5V807.54H568.66v45.37a2.84,2.84,0,0,1-5.68,0v-48.2a2.83,2.83,0,0,1,2.83-2.83H731a2.83,2.83,0,0,1,2.83,2.83V912.43a2.83,2.83,0,0,1-2.83,2.83H565.81a2.83,2.83,0,0,1-2.83-2.83V864.24A2.86,2.86,0,0,1,565.81,861.4Z" transform="translate(-551.65 -790.55)"/><circle class="cls-1" cx="179.6" cy="133.22" r="2.83"/><path class="cls-3" d="M728.16,807.54V909.6H685.25v-3.78a1.6,1.6,0,0,0,1.6-1.6V901a4.8,4.8,0,0,0-4.8-4.8h-8.6l-4.8-9.59h18.2a8,8,0,0,0,8-8v-3.2a1.6,1.6,0,0,0-1.6-1.6v-3.2a1.6,1.6,0,0,0,1.6-1.6V833.86a8,8,0,0,0-8-8h-1.68a17.59,17.59,0,0,0-17.5-16v-2.34Z" transform="translate(-551.65 -790.55)"/><circle class="cls-1" cx="168.26" cy="133.22" r="2.83"/><path class="cls-3" d="M683.65,901v1.6h-64V901a1.6,1.6,0,0,1,1.6-1.6h60.76A1.6,1.6,0,0,1,683.65,901Z" transform="translate(-551.65 -790.55)"/><path class="cls-4" d="M682.05,833.86v3.08l0,.38a1.59,1.59,0,0,1-1.55,1.34h-1.6v-6.4h1.6A1.6,1.6,0,0,1,682.05,833.86Z" transform="translate(-551.65 -790.55)"/><path class="cls-3" d="M678.19,845.89a12.34,12.34,0,0,0,.66-4h1.6a4.63,4.63,0,0,0,.92-.1l-.2,1.4a3.2,3.2,0,0,1-1.28,2.13A3.07,3.07,0,0,1,678.19,845.89Z" transform="translate(-551.65 -790.55)"/><path class="cls-3" d="M677,849a6.41,6.41,0,0,0,7.37-5.26s0-.1,0-.15l.79-5.45c0-.24.13-1,.13-1.12v-8h1.6a4.8,4.8,0,0,1,4.8,4.8V869a1.6,1.6,0,0,0,1.6,1.6v3.2a1.6,1.6,0,0,0-1.6,1.6v3.2a4.79,4.79,0,0,1-4.8,4.79h-1.6v-24a8,8,0,0,0-8-8H674.5a13,13,0,0,0,2.19-2.49Z" transform="translate(-551.65 -790.55)"/><path class="cls-3" d="M675.65,825.86v3.2H654.87a6.41,6.41,0,0,1-6.4-6.4v-3.2h20.8A6.39,6.39,0,0,1,675.65,825.86Z" transform="translate(-551.65 -790.55)"/><polygon class="cls-3" points="113.42 96.09 118.22 105.67 81.82 105.67 86.62 96.09 113.42 96.09"/><circle class="cls-1" cx="117.62" cy="46.51" r="1.6"/><path class="cls-3" d="M666.07,857.84a3.2,3.2,0,0,1-3.2-3.2v-.42a12.19,12.19,0,0,0,6.4,0v.42A3.2,3.2,0,0,1,666.07,857.84Z" transform="translate(-551.65 -790.55)"/><path class="cls-3" d="M667.67,813.08a14.38,14.38,0,0,1,14.38,14.38v1.9a4.33,4.33,0,0,0-1.6-.3h-1.6v-3.2a9.61,9.61,0,0,0-9.58-9.6H655.45a14.17,14.17,0,0,1,9-3.18Z" transform="translate(-551.65 -790.55)"/><path class="cls-3" d="M664.9,843.46a9.19,9.19,0,0,1,1.17,0c0,1.3-1.1,3.1-1.6,3.17s-1.6-1.87-1.6-3.19c.38,0,.77,0,1.17,0Z" transform="translate(-551.65 -790.55)"/><path class="cls-1" d="M666.07,843.49a9.19,9.19,0,0,0-1.17,0H664c-.4,0-.79,0-1.17,0,0,1.32,1.08,3.12,1.6,3.19S666.05,844.79,666.07,843.49Zm-1.2-3.23a4.62,4.62,0,0,1,3.55.91,3.17,3.17,0,0,1,.85,2.29c0,2.55-1.93,6.4-4.8,6.4s-4.8-3.85-4.8-6.4a3.09,3.09,0,0,1,.85-2.29,4.57,4.57,0,0,1,3.53-.91Z" transform="translate(-551.65 -790.55)"/><circle class="cls-1" cx="108.02" cy="46.51" r="1.6"/><path class="cls-4" d="M659.67,838.66a1.6,1.6,0,1,0-1.6-1.6A1.6,1.6,0,0,0,659.67,838.66Zm4.8,11.2c2.87,0,4.8-3.85,4.8-6.4a3.17,3.17,0,0,0-.85-2.29,4.62,4.62,0,0,0-3.55-.91h-.82a4.57,4.57,0,0,0-3.53.91,3.09,3.09,0,0,0-.85,2.29C659.67,846,661.59,849.86,664.47,849.86Zm4.8-14.4a1.6,1.6,0,1,0,1.6,1.6A1.6,1.6,0,0,0,669.27,835.46Zm3.45,9.61a1.63,1.63,0,0,0-1.82,1.35,1.61,1.61,0,0,0,1.29,1.8l.88.15a9.56,9.56,0,0,1-16.6-6.51v-9.6h19.18v9.6a9.32,9.32,0,0,1-.7,3.58Z" transform="translate(-551.65 -790.55)"/><path class="cls-5" d="M650.07,872.24v-12.8a4.8,4.8,0,0,1,4.8-4.8h4.8a6.4,6.4,0,1,0,12.8,0h4.78a4.8,4.8,0,0,1,4.8,4.8V877h-4.8v-9.6a1.59,1.59,0,1,0-3.18,0V877h-16v-9.6a1.6,1.6,0,0,0-3.2,0V877h-6.4v-3.2A1.6,1.6,0,0,0,650.07,872.24Z" transform="translate(-551.65 -790.55)"/><path class="cls-4" d="M653.27,832.26v6.4h-1.6a1.6,1.6,0,0,1-1.6-1.6v-3.2a1.6,1.6,0,0,1,1.6-1.6Z" transform="translate(-551.65 -790.55)"/><path class="cls-1" d="M634.09,832.26a6.38,6.38,0,0,1,6.38-6.4,1.6,1.6,0,1,1,0,3.2,3.19,3.19,0,0,0-3.18,3.2,1.6,1.6,0,1,1-3.2,0Z" transform="translate(-551.65 -790.55)"/><path class="cls-1" d="M628,829.67a12.82,12.82,0,0,1,12.51-10.21,1.6,1.6,0,1,1,0,3.2,9.61,9.61,0,0,0-9.58,9.6,1.6,1.6,0,0,1-3.2,0A11.68,11.68,0,0,1,628,829.67Z" transform="translate(-551.65 -790.55)"/><path class="cls-3" d="M685.25,909.6H568.66V864.24a2.86,2.86,0,0,0-2.85-2.84v-5.66a2.84,2.84,0,0,0,2.85-2.83V807.54h99v2.34h-3.2A17.41,17.41,0,0,0,651,816.26h-4.08a1.6,1.6,0,0,0-1.6,1.6v3.2h-3.2a1.6,1.6,0,0,0-1.6-1.6A12.82,12.82,0,0,0,628,829.67l-3.14-.6a16,16,0,0,1,15.65-12.81,1.59,1.59,0,1,0,0-3.18,19.22,19.22,0,0,0-18.58,14.38h-3.8a1.59,1.59,0,0,0-1.6-1.6,8,8,0,0,0-8,8v44.78a8,8,0,0,0,8,8h18.2l-4.8,9.59h-8.6a4.8,4.8,0,0,0-4.8,4.8v3.2a1.6,1.6,0,0,0,1.6,1.6h67.16Z" transform="translate(-551.65 -790.55)"/><path class="cls-1" d="M640.47,816.26a16,16,0,0,0-15.65,12.81,15.83,15.83,0,0,0-.33,3.19,1.6,1.6,0,0,1-3.2,0,20,20,0,0,1,.6-4.8,19.22,19.22,0,0,1,18.58-14.38,1.59,1.59,0,1,1,0,3.18Z" transform="translate(-551.65 -790.55)"/><path class="cls-3" d="M642.07,827.46a1.59,1.59,0,0,0-1.6-1.6,6.38,6.38,0,0,0-6.38,6.4,1.6,1.6,0,1,0,3.2,0,3.19,3.19,0,0,1,3.18-3.2A1.6,1.6,0,0,0,642.07,827.46Zm-25.58,36.78h22.38a1.6,1.6,0,0,0,1.6-1.6V840.26a1.59,1.59,0,0,0-1.6-1.6H611.69v-4.8a4.8,4.8,0,0,1,4.8-4.8,1.6,1.6,0,0,0,1.6-1.6h3.8a20,20,0,0,0-.6,4.8,1.6,1.6,0,0,0,3.2,0,15.83,15.83,0,0,1,.33-3.19l3.14.6a11.68,11.68,0,0,0-.27,2.59,1.6,1.6,0,0,0,3.2,0,9.61,9.61,0,0,1,9.58-9.6,1.6,1.6,0,0,0,1.6-1.6h3.2v1.6a9.6,9.6,0,0,0,3.5,7.4,4.87,4.87,0,0,0-1.9,3.8v3.2a4.8,4.8,0,0,0,4.8,4.8h1.6a12.82,12.82,0,0,0,4.37,9.6h-2.77a8,8,0,0,0-8,8v12.8a1.6,1.6,0,0,0,1.6,1.6V877H621.29a1.6,1.6,0,1,0,0,3.2h60.76v3.19H616.49a4.79,4.79,0,0,1-4.8-4.79v-16h3.2A1.6,1.6,0,0,0,616.49,864.24Z" transform="translate(-551.65 -790.55)"/><polygon class="cls-3" points="74.06 60.91 69.64 63.11 69.64 58.69 74.06 60.91"/><path class="cls-1" d="M625.71,851.46l-4.42-2.22v4.42Zm-7.62-4.8a1.77,1.77,0,0,1,.17-.72,1.56,1.56,0,0,1,1.43-.88,1.68,1.68,0,0,1,.72.16L630,850a1.6,1.6,0,0,1,0,2.85l-9.6,4.8a1.5,1.5,0,0,1-.72.17,1.6,1.6,0,0,1-1.6-1.6Z" transform="translate(-551.65 -790.55)"/><path class="cls-3" d="M619.69,841.86h17.6V861h-17.6v-3.2a1.5,1.5,0,0,0,.72-.17l9.6-4.8a1.6,1.6,0,0,0,0-2.85l-9.6-4.8a1.68,1.68,0,0,0-.72-.16Z" transform="translate(-551.65 -790.55)"/><path class="cls-3" d="M611.69,841.86h8v3.2a1.56,1.56,0,0,0-1.43.88,1.77,1.77,0,0,0-.17.72v9.58a1.6,1.6,0,0,0,1.6,1.6V861h-3.2a1.6,1.6,0,0,0-1.6,1.6h-3.2Z" transform="translate(-551.65 -790.55)"/><path class="cls-1" d="M665.07,886.63h-26.8l-4.8,9.59h36.4Zm10.58-60.77a6.39,6.39,0,0,0-6.38-6.4h-20.8v3.2a6.41,6.41,0,0,0,6.4,6.4h20.78Zm-6.38,28.36a12.19,12.19,0,0,1-6.4,0v.42a3.2,3.2,0,1,0,6.4,0ZM619.69,901v1.6h64V901a1.6,1.6,0,0,0-1.6-1.6H621.29A1.6,1.6,0,0,0,619.69,901Zm56-59.16v-9.6H656.47v9.6a9.56,9.56,0,0,0,16.6,6.51l-.88-.15a1.61,1.61,0,0,1-1.29-1.8,1.63,1.63,0,0,1,1.82-1.35l2.23.37A9.32,9.32,0,0,0,675.65,841.86Zm3.2,0a12.34,12.34,0,0,1-.66,4,3.07,3.07,0,0,0,1.7-.6,3.2,3.2,0,0,0,1.28-2.13l.2-1.4a4.63,4.63,0,0,1-.92.1Zm-27.18-9.6a1.6,1.6,0,0,0-1.6,1.6v3.2a1.6,1.6,0,0,0,1.6,1.6h1.6v-6.4Zm28.78,0h-1.6v6.4h1.6a1.59,1.59,0,0,0,1.55-1.34l0-.38v-3.08A1.6,1.6,0,0,0,680.45,832.26Zm-11.18-16a9.61,9.61,0,0,1,9.58,9.6v3.2h1.6a4.33,4.33,0,0,1,1.6.3v-1.9a14.38,14.38,0,0,0-14.38-14.38h-3.2a14.17,14.17,0,0,0-9,3.18Zm16,43.18v24h1.6a4.79,4.79,0,0,0,4.8-4.79v-3.2a1.6,1.6,0,0,1,3.2,0v3.2a8,8,0,0,1-8,8h-18.2l4.8,9.59h8.6a4.8,4.8,0,0,1,4.8,4.8v3.2a1.6,1.6,0,0,1-1.6,1.6H618.09a1.6,1.6,0,0,1-1.6-1.6V901a4.8,4.8,0,0,1,4.8-4.8h8.6l4.8-9.59h-18.2a8,8,0,0,1-8-8V833.86a8,8,0,0,1,8-8,1.6,1.6,0,1,1,0,3.2,4.8,4.8,0,0,0-4.8,4.8v4.8h27.18a1.59,1.59,0,0,1,1.6,1.6v22.38a1.6,1.6,0,0,1-1.6,1.6H616.49a1.6,1.6,0,0,1,0-3.2h20.8V841.86h-25.6v36.78a4.79,4.79,0,0,0,4.8,4.79h65.56v-3.19H621.29a1.6,1.6,0,1,1,0-3.2h33.58v-9.6a1.6,1.6,0,0,1,3.2,0V877h16v-9.6a1.59,1.59,0,1,1,3.18,0V877h4.8v-17.6a4.8,4.8,0,0,0-4.8-4.8h-4.78a6.4,6.4,0,1,1-12.8,0h-4.8a4.8,4.8,0,0,0-4.8,4.8v12.8a1.6,1.6,0,0,1-3.2,0v-12.8a8,8,0,0,1,8-8h2.77a12.82,12.82,0,0,1-4.37-9.6h-1.6a4.8,4.8,0,0,1-4.8-4.8v-3.2a4.87,4.87,0,0,1,1.9-3.8,9.6,9.6,0,0,1-3.5-7.4v-4.8a1.6,1.6,0,0,1,1.6-1.6H651a17.41,17.41,0,0,1,13.52-6.38h3.2a17.59,17.59,0,0,1,17.5,16h1.68a8,8,0,0,1,8,8V869a1.6,1.6,0,0,1-3.2,0V833.86a4.8,4.8,0,0,0-4.8-4.8h-1.6v8c0,.08-.08.88-.13,1.12l-.79,5.45s0,.1,0,.15A6.41,6.41,0,0,1,677,849l-.26,0a13,13,0,0,1-2.19,2.49h2.75A8,8,0,0,1,685.25,859.44Z" transform="translate(-551.65 -790.55)"/></svg>