<svg id="圖層_1" data-name="圖層 1" xmlns="http://www.w3.org/2000/svg" viewBox="0 0 193.51 147.4"><defs><style>.cls-1{fill:#414143;}.cls-2{fill:#ed9484;}.cls-3{fill:#8691c9;}.cls-4{fill:#fff;}.cls-5{fill:#dbc9b1;}</style></defs><title>live_24</title><path class="cls-1" d="M839.56,830.66V949.71a14.17,14.17,0,0,1-14.16,14.16H660.23a14.19,14.19,0,0,1-14.18-14.16V830.66a14.21,14.21,0,0,1,14.18-14.19H825.4A14.19,14.19,0,0,1,839.56,830.66ZM833.9,949.71V830.66a8.52,8.52,0,0,0-8.5-8.52H660.23a8.52,8.52,0,0,0-8.51,8.52V949.71a8.51,8.51,0,0,0,8.51,8.5H825.4A8.52,8.52,0,0,0,833.9,949.71Z" transform="translate(-646.05 -816.47)"/><path class="cls-2" d="M833.9,830.66V949.71a8.52,8.52,0,0,1-8.5,8.5H660.23a8.51,8.51,0,0,1-8.51-8.5V830.66a8.52,8.52,0,0,1,8.51-8.52H825.4A8.52,8.52,0,0,1,833.9,830.66Zm-5.67,107.7V830.66a2.84,2.84,0,0,0-2.83-2.84H660.23a2.85,2.85,0,0,0-2.85,2.84v48.17a2.85,2.85,0,0,0,2.84,2.84v5.68a2.85,2.85,0,0,0-2.84,2.83v48.18a2.86,2.86,0,0,0,2.85,2.85H825.4A2.84,2.84,0,0,0,828.23,938.36Zm.25,11.33a2.84,2.84,0,1,0-2.83,2.83A2.83,2.83,0,0,0,828.48,949.69Zm-11.33,0a2.84,2.84,0,1,0-2.83,2.83A2.83,2.83,0,0,0,817.15,949.69Z" transform="translate(-646.05 -816.47)"/><path class="cls-1" d="M660.22,887.35h0a2.85,2.85,0,0,1,2.84,2.83v45.35H822.56v-102H663.07v45.34a2.85,2.85,0,0,1-2.84,2.84h0a2.85,2.85,0,0,1-2.84-2.84V830.66a2.85,2.85,0,0,1,2.85-2.84H825.4a2.84,2.84,0,0,1,2.83,2.84v107.7a2.84,2.84,0,0,1-2.83,2.85H660.23a2.86,2.86,0,0,1-2.85-2.85V890.18A2.85,2.85,0,0,1,660.22,887.35Z" transform="translate(-646.05 -816.47)"/><circle class="cls-1" cx="179.6" cy="133.22" r="2.83"/><circle class="cls-1" cx="168.26" cy="133.22" r="2.83"/><path class="cls-1" d="M782.92,886.63a1.64,1.64,0,0,1-1.63,1.64h-6.55a1.64,1.64,0,1,1,0-3.27h6.55A1.63,1.63,0,0,1,782.92,886.63Z" transform="translate(-646.05 -816.47)"/><path class="cls-1" d="M782.92,893.16a1.64,1.64,0,0,1-1.63,1.64h-6.55a1.64,1.64,0,1,1,0-3.27h6.55A1.63,1.63,0,0,1,782.92,893.16Z" transform="translate(-646.05 -816.47)"/><path class="cls-1" d="M781.29,898.06a1.65,1.65,0,0,1,0,3.29h-6.55a1.65,1.65,0,0,1,0-3.29Z" transform="translate(-646.05 -816.47)"/><rect class="cls-3" x="130.32" y="93.04" width="3.28" height="3.27"/><path class="cls-3" d="M778,871.92a1.63,1.63,0,1,1-1.63,1.63A1.63,1.63,0,0,1,778,871.92Z" transform="translate(-646.05 -816.47)"/><path class="cls-1" d="M779.65,873.55a1.64,1.64,0,1,0-1.65,1.63A1.63,1.63,0,0,0,779.65,873.55Zm3.27,0a4.91,4.91,0,1,1-4.92-4.92A4.91,4.91,0,0,1,782.92,873.55Z" transform="translate(-646.05 -816.47)"/><path class="cls-1" d="M773.1,907.88a1.64,1.64,0,0,1,1.64-1.63h6.55a1.63,1.63,0,0,1,1.63,1.63v6.55a1.63,1.63,0,0,1-1.63,1.63h-6.55a1.64,1.64,0,0,1-1.64-1.63Zm3.27,4.9h3.28v-3.27h-3.28Z" transform="translate(-646.05 -816.47)"/><path class="cls-4" d="M781.29,894.8a1.64,1.64,0,0,0,0-3.27h-6.55a1.64,1.64,0,1,0,0,3.27Zm-11.45,4.91V873.55h3.26a4.91,4.91,0,0,0,9.82,0h4.9v26.16h-4.9a1.64,1.64,0,0,0-1.63-1.65h-6.55a1.65,1.65,0,0,0-1.64,1.65Zm11.45-11.44a1.64,1.64,0,0,0,0-3.27h-6.55a1.64,1.64,0,1,0,0,3.27Z" transform="translate(-646.05 -816.47)"/><path class="cls-1" d="M748.57,906.25v-9.82a1.64,1.64,0,0,1,1.65-1.63h6.54a1.63,1.63,0,1,1,0,3.26h-4.9v1.65h3.26a1.64,1.64,0,1,1,0,3.27h-3.26v1.63h4.9a1.64,1.64,0,0,1,0,3.27h-6.54A1.64,1.64,0,0,1,748.57,906.25Z" transform="translate(-646.05 -816.47)"/><path class="cls-5" d="M742,850.65a6.54,6.54,0,0,1,6.53,6.55H735.51A6.54,6.54,0,0,1,742,850.65Z" transform="translate(-646.05 -816.47)"/><path class="cls-1" d="M738.86,906.76,735.57,897a1.64,1.64,0,0,1,3.12-1l1.72,5.17,1.71-5.17a1.65,1.65,0,0,1,2.07-1,1.61,1.61,0,0,1,1,2.07L742,906.76a1.65,1.65,0,0,1-1,1A1.62,1.62,0,0,1,738.86,906.76Z" transform="translate(-646.05 -816.47)"/><path class="cls-1" d="M732.22,896.43v9.82a1.63,1.63,0,1,1-3.26,0v-9.82a1.63,1.63,0,0,1,3.26,0Z" transform="translate(-646.05 -816.47)"/><path class="cls-1" d="M727.13,889.7a5,5,0,0,1,6.93,0,1.61,1.61,0,0,1,0,2.31,1.64,1.64,0,0,1-2.32,0,1.67,1.67,0,0,0-2.3,0,1.63,1.63,0,0,1-2.31-2.31Z" transform="translate(-646.05 -816.47)"/><path class="cls-1" d="M722.46,887.38a1.64,1.64,0,0,1,0-2.31,11.47,11.47,0,0,1,16.18,0,1.69,1.69,0,0,1,.48,1.16,1.64,1.64,0,0,1-1.63,1.64,1.62,1.62,0,0,1-1.17-.49,8.2,8.2,0,0,0-11.56,0,.09.09,0,0,1,0,0A1.65,1.65,0,0,1,722.46,887.38Z" transform="translate(-646.05 -816.47)"/><path class="cls-4" d="M702.79,881.72v-3.27a1.63,1.63,0,0,0,1.64-1.63v-8.19h62.14v32.72A1.63,1.63,0,0,0,768.2,903v3.27a1.63,1.63,0,0,0-1.63,1.63v6.55H704.43V883.35A1.63,1.63,0,0,0,702.79,881.72Zm22.9,24.53a1.64,1.64,0,0,0-1.63-1.64h-4.92v-8.18a1.63,1.63,0,0,0-3.26,0v9.82a1.63,1.63,0,0,0,1.63,1.63h6.55A1.63,1.63,0,0,0,725.69,906.25Zm-7.76-23.48a1.64,1.64,0,0,0,2.26,0,14.72,14.72,0,0,1,20.82,0,1.63,1.63,0,0,0,2.3-2.32,18,18,0,0,0-25.43,0A1.63,1.63,0,0,0,717.93,882.77Zm4.58,2.3a1.64,1.64,0,1,0,2.27,2.36.09.09,0,0,0,0,0,8.2,8.2,0,0,1,11.56,0,1.62,1.62,0,0,0,1.17.49,1.64,1.64,0,0,0,1.63-1.64,1.69,1.69,0,0,0-.48-1.16A11.47,11.47,0,0,0,722.51,885.07Zm14.11,9.81a1.65,1.65,0,0,0-1,2.07l3.29,9.81a1.62,1.62,0,0,0,2.06,1,1.65,1.65,0,0,0,1-1l3.26-9.81a1.61,1.61,0,0,0-1-2.07,1.65,1.65,0,0,0-2.07,1l-1.71,5.17-1.72-5.17A1.65,1.65,0,0,0,736.62,894.88Zm13.6-.08a1.64,1.64,0,0,0-1.65,1.63v9.82a1.64,1.64,0,0,0,1.65,1.63h6.54a1.64,1.64,0,0,0,0-3.27h-4.9V903h3.26a1.64,1.64,0,1,0,0-3.27h-3.26v-1.65h4.9a1.63,1.63,0,1,0,0-3.26Zm-16.16-5.1a5,5,0,0,0-6.93,0,1.63,1.63,0,0,0,2.31,2.31,1.67,1.67,0,0,1,2.3,0,1.64,1.64,0,0,0,2.32,0A1.61,1.61,0,0,0,734.06,889.7Zm-1.84,6.73a1.63,1.63,0,0,0-3.26,0v9.82a1.63,1.63,0,1,0,3.26,0Z" transform="translate(-646.05 -816.47)"/><path class="cls-4" d="M720.76,833.49h101.8v102H779.65v-3.12a1.64,1.64,0,0,0,1.64-1.63v-4.92h1.63a8.15,8.15,0,0,0,8.16-8.16V865.37a8.15,8.15,0,0,0-8.16-8.17H751.86a9.81,9.81,0,0,0-3.77-7.71l6.62-7.57a1.63,1.63,0,0,0-2.45-2.15l-7.12,8.13a9.71,9.71,0,0,0-7.22.4l-16.08-13.61a1.67,1.67,0,0,0-1.08-.42Z" transform="translate(-646.05 -816.47)"/><path class="cls-1" d="M743.31,880.45a1.63,1.63,0,0,1-2.3,2.32,14.72,14.72,0,0,0-20.82,0,1.64,1.64,0,0,1-2.31-2.32A18,18,0,0,1,743.31,880.45Z" transform="translate(-646.05 -816.47)"/><path class="cls-4" d="M663.07,833.49h57.69v.78a1.66,1.66,0,0,0-1.23.57,1.62,1.62,0,0,0,.15,2.3l.05.05,15.41,13a9.75,9.75,0,0,0-2.92,7H701.16a8.16,8.16,0,0,0-8.16,8.17V903a1.63,1.63,0,0,0,1.63,1.63v3.27a1.63,1.63,0,0,0-1.63,1.63v8.19a8.16,8.16,0,0,0,8.16,8.16H778v3.28H704.43a1.64,1.64,0,1,0,0,3.27h75.22v3.12H663.07V890.18a2.85,2.85,0,0,0-2.84-2.83h0v-5.68h0a2.85,2.85,0,0,0,2.84-2.84Z" transform="translate(-646.05 -816.47)"/><path class="cls-1" d="M715.88,906.25v-9.82a1.63,1.63,0,0,1,3.26,0v8.18h4.92a1.64,1.64,0,0,1,0,3.27h-6.55A1.63,1.63,0,0,1,715.88,906.25Z" transform="translate(-646.05 -816.47)"/><path class="cls-1" d="M702.79,865.37H768.2a1.64,1.64,0,0,1,1.64,1.63v34.35a1.64,1.64,0,0,1-3.27,0V868.63H704.43v8.19a1.64,1.64,0,0,1-3.27,0V867A1.64,1.64,0,0,1,702.79,865.37Z" transform="translate(-646.05 -816.47)"/><path class="cls-1" d="M701.16,916.06V883.35a1.64,1.64,0,0,1,3.27,0v31.08h62.14v-6.55a1.64,1.64,0,0,1,3.27,0v8.18a1.65,1.65,0,0,1-1.64,1.64H702.79A1.65,1.65,0,0,1,701.16,916.06Z" transform="translate(-646.05 -816.47)"/><path class="cls-4" d="M701.16,883.35v32.71a1.65,1.65,0,0,0,1.63,1.64H768.2a1.65,1.65,0,0,0,1.64-1.64v-8.18a1.64,1.64,0,0,0-1.64-1.63V903a1.64,1.64,0,0,0,1.64-1.63v-1.64h3.26a1.65,1.65,0,0,0,1.64,1.64h6.55v4.9h-6.55a1.64,1.64,0,0,0-1.64,1.63v6.55a1.64,1.64,0,0,0,1.64,1.63h6.55a1.63,1.63,0,0,0,1.63-1.63h4.9v3.27a4.9,4.9,0,0,1-4.9,4.89H701.16a4.9,4.9,0,0,1-4.9-4.89v-8.19a1.63,1.63,0,0,0-1.63-1.63v-3.27a1.63,1.63,0,0,0,1.63-1.63V865.37a4.91,4.91,0,0,1,4.9-4.9h81.76a4.91,4.91,0,0,1,4.9,4.9v8.18h-4.9a4.91,4.91,0,1,0-9.82,0h-3.26V867a1.64,1.64,0,0,0-1.64-1.63H702.79a1.64,1.64,0,0,0-1.63,1.63v9.82a1.64,1.64,0,0,0,1.63,1.63v3.27A1.64,1.64,0,0,0,701.16,883.35Z" transform="translate(-646.05 -816.47)"/><path class="cls-1" d="M748.57,857.2a6.53,6.53,0,1,0-13.06,0Zm-47.41,3.27a4.91,4.91,0,0,0-4.9,4.9V903a1.63,1.63,0,1,1-3.26,0V865.37a8.16,8.16,0,0,1,8.16-8.17h31.06a9.75,9.75,0,0,1,2.92-7l-15.41-13-.05-.05a1.62,1.62,0,0,1-.15-2.3,1.61,1.61,0,0,1,2.31-.15l16.08,13.61a9.71,9.71,0,0,1,7.22-.4l7.12-8.13a1.63,1.63,0,0,1,2.45,2.15l-6.62,7.57a9.81,9.81,0,0,1,3.77,7.71h31.06a8.15,8.15,0,0,1,8.16,8.17V917.7a8.15,8.15,0,0,1-8.16,8.16h-1.63v4.92a1.64,1.64,0,0,1-1.64,1.63H704.43a1.64,1.64,0,1,1,0-3.27H778v-3.28H701.16A8.16,8.16,0,0,1,693,917.7v-8.19a1.63,1.63,0,1,1,3.26,0v8.19a4.9,4.9,0,0,0,4.9,4.89h81.76a4.9,4.9,0,0,0,4.9-4.89V865.37a4.91,4.91,0,0,0-4.9-4.9Z" transform="translate(-646.05 -816.47)"/></svg>