<svg id="圖層_1" data-name="圖層 1" xmlns="http://www.w3.org/2000/svg" viewBox="0 0 193.51 147.4"><defs><style>.cls-1{fill:#414143;}.cls-2{fill:#ed9484;}.cls-3{fill:#fff;}</style></defs><title>live_1</title><path class="cls-1" d="M745.05,804.81V923.86a14.19,14.19,0,0,1-14.17,14.19H565.72a14.2,14.2,0,0,1-14.18-14.19V804.81a14.18,14.18,0,0,1,14.18-14.16H730.88A14.17,14.17,0,0,1,745.05,804.81Zm-5.67,119.05V804.81a8.51,8.51,0,0,0-8.5-8.5H565.72a8.52,8.52,0,0,0-8.52,8.5V923.86a8.53,8.53,0,0,0,8.52,8.52H730.88A8.52,8.52,0,0,0,739.38,923.86Z" transform="translate(-551.54 -790.65)"/><path class="cls-2" d="M739.38,804.81V923.86a8.52,8.52,0,0,1-8.5,8.52H565.72a8.53,8.53,0,0,1-8.52-8.52V804.81a8.52,8.52,0,0,1,8.52-8.5H730.88A8.51,8.51,0,0,1,739.38,804.81Zm-5.66,107.72V804.81a2.83,2.83,0,0,0-2.84-2.83H565.72a2.84,2.84,0,0,0-2.85,2.83V853a2.85,2.85,0,0,0,2.83,2.84v5.66a2.85,2.85,0,0,0-2.83,2.84v48.19a2.84,2.84,0,0,0,2.85,2.83H730.88A2.83,2.83,0,0,0,733.72,912.53Zm.25,11.33a2.84,2.84,0,1,0-2.84,2.84A2.84,2.84,0,0,0,734,923.86Zm-11.34,0a2.83,2.83,0,1,0-2.83,2.84A2.83,2.83,0,0,0,722.63,923.86Z" transform="translate(-551.54 -790.65)"/><path class="cls-1" d="M565.7,861.5h0a2.84,2.84,0,0,1,2.83,2.84V909.7h159.5V807.64H568.55V853a2.84,2.84,0,0,1-2.83,2.84h0a2.85,2.85,0,0,1-2.83-2.84V804.81a2.84,2.84,0,0,1,2.85-2.83H730.88a2.83,2.83,0,0,1,2.84,2.83V912.53a2.83,2.83,0,0,1-2.84,2.83H565.72a2.84,2.84,0,0,1-2.85-2.83V864.34A2.85,2.85,0,0,1,565.7,861.5Z" transform="translate(-551.54 -790.65)"/><circle class="cls-1" cx="179.6" cy="133.22" r="2.83"/><circle class="cls-1" cx="168.26" cy="133.22" r="2.83"/><path class="cls-3" d="M678.57,875.25a1.62,1.62,0,0,0-1.15.49L675.67,874l2.17-2.19a4.25,4.25,0,0,0,.8-4.91,4.31,4.31,0,0,0-3.83-2.39l2.61-2.66a1.62,1.62,0,0,0,2.77-1.14V818.64a8.08,8.08,0,0,0-8.08-8.08v-2.92h55.94V909.7H672.11v-2.1a8.08,8.08,0,0,0,8.08-8.08V876.87A1.63,1.63,0,0,0,678.57,875.25Z" transform="translate(-551.54 -790.65)"/><path class="cls-3" d="M677,891.43v8.09a4.85,4.85,0,0,1-4.85,4.85h-4.85v-4.85a1.71,1.71,0,0,0,1.15-.47l4.58-4.6a4.28,4.28,0,0,0,1.25-3Z" transform="translate(-551.54 -790.65)"/><path class="cls-2" d="M671.37,868.62a1.68,1.68,0,0,0,1.45,0l1.54-.77a1,1,0,0,1,1.2,1.67L672.11,873l-3.45-3.45a1,1,0,0,1-.3-.73,1,1,0,0,1,1-1,1.24,1.24,0,0,1,.47.11Z" transform="translate(-551.54 -790.65)"/><path class="cls-3" d="M668.87,828.34V851H644.61v-4.85a1.5,1.5,0,0,0,.72-.17l9.71-4.85a1.64,1.64,0,0,0,.72-.73,1.61,1.61,0,0,0-.72-2.17l-9.71-4.85a1.61,1.61,0,0,0-.72-.16v-4.87h12.93a1.61,1.61,0,0,0,1.62-1.62h3.23a1.62,1.62,0,0,0,1.62,1.62Z" transform="translate(-551.54 -790.65)"/><path class="cls-1" d="M666.39,865.75a4.3,4.3,0,0,1,4.9-.8l.82.4.8-.4a4.28,4.28,0,0,1,4.93,6.85L675.67,874l-2.41,2.41a1.64,1.64,0,0,1-1.15.47,1.62,1.62,0,0,1-1.15-.47L667.59,873l-1.22-1.22a4.28,4.28,0,0,1-.75-5A4.18,4.18,0,0,1,666.39,865.75Zm6.43,2.87a1.68,1.68,0,0,1-1.45,0l-1.51-.77a1.24,1.24,0,0,0-.47-.11,1,1,0,0,0-1,1,1,1,0,0,0,.3.73l3.45,3.45,3.45-3.45a1,1,0,0,0-1.2-1.67Z" transform="translate(-551.54 -790.65)"/><path class="cls-2" d="M670.69,890.68a1.06,1.06,0,0,1,0,1.49l-3.45,3.45-3.45-3.45a1.06,1.06,0,0,1-.32-.74,1,1,0,0,1,1-1,1,1,0,0,1,.47.12l1.51.77a1.75,1.75,0,0,0,1.45,0l1.54-.77A1,1,0,0,1,670.69,890.68Z" transform="translate(-551.54 -790.65)"/><path class="cls-3" d="M671.29,865a4.3,4.3,0,0,0-4.9.8,4.18,4.18,0,0,0-.77,1l-2.33-1.45a4.28,4.28,0,0,0-3-7.3v-3.82h10.23a1.63,1.63,0,0,0,1.62-1.62H677v8.1a1.65,1.65,0,0,0,.46,1.14l-2.61,2.66a4.28,4.28,0,0,0-1.9.45l-.8.4Z" transform="translate(-551.54 -790.65)"/><path class="cls-3" d="M665,875.59a4.23,4.23,0,0,0-5-.92l-.81.4-.8-.4a4.24,4.24,0,0,0-1.9-.45l.77-3.85a1.63,1.63,0,0,0,.31,0,1.61,1.61,0,0,0,1.15-.46l4.6-4.6,2.33,1.45a4.28,4.28,0,0,0,.75,5l1.22,1.22Z" transform="translate(-551.54 -790.65)"/><path class="cls-3" d="M673.79,889.53a4.28,4.28,0,0,0-5.73-1.93l-.8.4-.82-.4a4.29,4.29,0,0,0-4.23.27L660.37,886l4.54-4.53a4.26,4.26,0,0,0,.8-4.91,3.65,3.65,0,0,0-.7-1l2.58-2.57L671,876.4a1.62,1.62,0,0,0,1.15.47,1.64,1.64,0,0,0,1.15-.47l2.41-2.41,1.75,1.75a1.63,1.63,0,0,0-.46,1.13v14.56h-2.72A4.24,4.24,0,0,0,673.79,889.53Z" transform="translate(-551.54 -790.65)"/><path class="cls-1" d="M668.06,887.6a4.28,4.28,0,0,1,4.93,6.85l-4.58,4.6a1.71,1.71,0,0,1-1.15.47,1.62,1.62,0,0,1-1.15-.47l-4.6-4.6a4.3,4.3,0,0,1-1.24-3,4.22,4.22,0,0,1,1.27-3,3.81,3.81,0,0,1,.67-.53,4.29,4.29,0,0,1,4.23-.27l.82.4Zm2.65,4.57a1.06,1.06,0,0,0,0-1.49,1,1,0,0,0-1.18-.18l-1.54.77a1.75,1.75,0,0,1-1.45,0L665,890.5a1,1,0,0,0-.47-.12,1,1,0,0,0-1,1,1.06,1.06,0,0,0,.32.74l3.45,3.45Z" transform="translate(-551.54 -790.65)"/><path class="cls-3" d="M655.93,897.9v-6.47h4.34a4.3,4.3,0,0,0,1.24,3l4.6,4.6a1.62,1.62,0,0,0,1.15.47v4.85h-13v-4.85A1.61,1.61,0,0,0,655.93,897.9Z" transform="translate(-551.54 -790.65)"/><path class="cls-2" d="M661.41,877.55a1.05,1.05,0,0,1,1.2.2,1,1,0,0,1,0,1.47l-3.45,3.45-3.45-3.45a1,1,0,0,1,.75-1.77,1.14,1.14,0,0,1,.45.1l1.53.77a1.61,1.61,0,0,0,1.45,0Z" transform="translate(-551.54 -790.65)"/><path class="cls-2" d="M657.54,866.5l-3.45-3.45a1.11,1.11,0,0,1-.3-.73,1,1,0,0,1,1-1.05.81.81,0,0,1,.46.12l1.54.75a1.61,1.61,0,0,0,1.45,0l1.51-.75a1.06,1.06,0,0,1,1.2.18,1,1,0,0,1,0,1.48Z" transform="translate(-551.54 -790.65)"/><path class="cls-1" d="M662.61,877.75a1.05,1.05,0,0,0-1.2-.2l-1.52.77a1.61,1.61,0,0,1-1.45,0l-1.53-.77a1.14,1.14,0,0,0-.45-.1,1,1,0,0,0-.75,1.77l3.45,3.45,3.45-3.45A1,1,0,0,0,662.61,877.75Zm-9.15-2.28a4.23,4.23,0,0,1,4.9-.8l.8.4.81-.4a4.23,4.23,0,0,1,5,.92,3.65,3.65,0,0,1,.7,1,4.26,4.26,0,0,1-.8,4.91L660.37,886l-.06.07a1.64,1.64,0,0,1-1.15.48,1.62,1.62,0,0,1-1.13-.48l-4.6-4.6A4.25,4.25,0,0,1,653.46,875.47Z" transform="translate(-551.54 -790.65)"/><path class="cls-1" d="M651.84,859.29a4.27,4.27,0,0,1,4.9-.8l.8.4.82-.4a4.28,4.28,0,0,1,4.93,6.85l-4.6,4.6a1.61,1.61,0,0,1-1.15.46,1.62,1.62,0,0,1-1.13-.46l-4.6-4.6a4.26,4.26,0,0,1,0-6.05Zm3,2a1,1,0,0,0-1,1.05,1.11,1.11,0,0,0,.3.73l3.45,3.45,3.45-3.45a1,1,0,0,0,0-1.48,1.06,1.06,0,0,0-1.2-.18l-1.51.75a1.61,1.61,0,0,1-1.45,0l-1.54-.75A.81.81,0,0,0,654.83,861.27Z" transform="translate(-551.54 -790.65)"/><rect class="cls-3" x="75.27" y="102.41" width="25.88" height="3.23"/><path class="cls-3" d="M651.84,859.29a4.3,4.3,0,0,0-1,4.65l-3,1.61H636.53V860.7a1.63,1.63,0,0,0,0-3.25v-3.23h23.73V858a4.28,4.28,0,0,0-1.9.45l-.82.4-.8-.4A4.27,4.27,0,0,0,651.84,859.29Z" transform="translate(-551.54 -790.65)"/><polygon class="cls-3" points="99.16 49.03 94.69 51.26 94.69 46.8 99.16 49.03"/><path class="cls-1" d="M647.84,865.55a1.62,1.62,0,0,1,0,3.24H625.2a1.62,1.62,0,0,1,0-3.24h22.64Z" transform="translate(-551.54 -790.65)"/><path class="cls-1" d="M646.23,841.91l4.46-2.24-4.46-2.23Zm8.81-.79L645.33,846a1.5,1.5,0,0,1-.72.17,1.61,1.61,0,0,1-1.62-1.62v-9.7a1.63,1.63,0,0,1,2.34-1.45l9.71,4.85a1.61,1.61,0,0,1,.72,2.17A1.64,1.64,0,0,1,655,841.12Z" transform="translate(-551.54 -790.65)"/><path class="cls-3" d="M644.61,846.14V851h-17.8V828.34h17.8v4.87a1.6,1.6,0,0,0-1.62,1.61v9.7A1.61,1.61,0,0,0,644.61,846.14Z" transform="translate(-551.54 -790.65)"/><path class="cls-1" d="M641.38,881.72a1.62,1.62,0,0,1,0,3.23H625.2a1.62,1.62,0,1,1,0-3.23Z" transform="translate(-551.54 -790.65)"/><path class="cls-1" d="M636.53,857.45a1.63,1.63,0,0,1,0,3.25H625.2a1.63,1.63,0,0,1,0-3.25Z" transform="translate(-551.54 -790.65)"/><path class="cls-1" d="M634.89,873.64a1.62,1.62,0,1,1,0,3.23H625.2a1.62,1.62,0,1,1,0-3.23Z" transform="translate(-551.54 -790.65)"/><circle cx="80.12" cy="29.61" r="1.62"/><path class="cls-1" d="M672.11,826.72V852.6a1.63,1.63,0,0,1-1.62,1.62H625.2a1.61,1.61,0,0,1-1.62-1.62V826.72a1.62,1.62,0,0,1,1.62-1.61h32.34a1.62,1.62,0,1,1,0,3.23H626.81V851h42.06V828.34H664a1.62,1.62,0,1,1,0-3.23h6.48A1.63,1.63,0,0,1,672.11,826.72Z" transform="translate(-551.54 -790.65)"/><path class="cls-1" d="M652.69,896.28v-3.23H626.81v3.23Zm3.24-4.85v6.47a1.61,1.61,0,0,1-1.62,1.62H625.2a1.61,1.61,0,0,1-1.62-1.62v-6.47a1.6,1.6,0,0,1,1.62-1.61h29.11A1.6,1.6,0,0,1,655.93,891.43Z" transform="translate(-551.54 -790.65)"/><circle cx="73.66" cy="29.61" r="1.62"/><path class="cls-3" d="M626.81,820.26a1.62,1.62,0,1,0-1.61,1.61A1.6,1.6,0,0,0,626.81,820.26Zm30.73,4.85H625.2a1.62,1.62,0,0,0-1.62,1.61h-4.85v-8.08a4.85,4.85,0,0,1,4.85-4.85h48.53a4.85,4.85,0,0,1,4.85,4.85v34h-4.85V826.72a1.63,1.63,0,0,0-1.62-1.61H664a1.62,1.62,0,0,0-1.62,1.61h-3.23A1.62,1.62,0,0,0,657.54,825.11Zm-25.88-3.24a1.6,1.6,0,0,0,1.62-1.61,1.62,1.62,0,1,0-1.62,1.61Z" transform="translate(-551.54 -790.65)"/><path class="cls-3" d="M634.89,876.87a1.62,1.62,0,1,0,0-3.23H625.2a1.62,1.62,0,1,0,0,3.23Zm6.49,8.08a1.62,1.62,0,0,0,0-3.23H625.2a1.62,1.62,0,1,0,0,3.23Zm15.08-10.73a4.28,4.28,0,0,0-3,7.28l4.6,4.6a1.62,1.62,0,0,0,1.13.48,1.64,1.64,0,0,0,1.15-.48l.06-.07,1.84,1.84a3.81,3.81,0,0,0-.67.53,4.22,4.22,0,0,0-1.27,3h-4.34a1.6,1.6,0,0,0-1.62-1.61H625.2a1.6,1.6,0,0,0-1.62,1.61v6.47a1.61,1.61,0,0,0,1.62,1.62h29.11v4.85H623.58a4.85,4.85,0,0,1-4.85-4.85V846.14a1.62,1.62,0,0,0-1.62-1.62v-3.23a1.63,1.63,0,0,0,1.62-1.62V826.72h4.85V852.6a1.61,1.61,0,0,0,1.62,1.62h11.33v3.23H625.2a1.63,1.63,0,0,0,0,3.25v4.85a1.62,1.62,0,0,0,0,3.24h22.64a1.62,1.62,0,0,0,0-3.24l3-1.61a4.34,4.34,0,0,0,.93,1.4l4.6,4.6a1.63,1.63,0,0,0,.82.43Z" transform="translate(-551.54 -790.65)"/><path class="cls-3" d="M623.58,907.6h48.53v2.1H568.55V864.34a2.84,2.84,0,0,0-2.83-2.84h0v-5.66h0a2.84,2.84,0,0,0,2.83-2.84V807.64H672.11v2.92H623.58a8.08,8.08,0,0,0-8.08,8.08v21a1.61,1.61,0,0,0,1.61,1.62v3.23a1.6,1.6,0,0,0-1.61,1.62v53.38A8.08,8.08,0,0,0,623.58,907.6Z" transform="translate(-551.54 -790.65)"/><path class="cls-1" d="M672.11,813.79H623.58a4.85,4.85,0,0,0-4.85,4.85v21a1.62,1.62,0,1,1-3.23,0v-21a8.08,8.08,0,0,1,8.08-8.08h48.53a8.08,8.08,0,0,1,8.08,8.08V860.7a1.62,1.62,0,0,1-2.77,1.14,1.65,1.65,0,0,1-.46-1.14V818.64A4.85,4.85,0,0,0,672.11,813.79Z" transform="translate(-551.54 -790.65)"/><path class="cls-1" d="M672.11,907.6H623.58a8.08,8.08,0,0,1-8.08-8.08V846.14a1.62,1.62,0,1,1,3.23,0v53.38a4.85,4.85,0,0,0,4.85,4.85h48.53a4.85,4.85,0,0,0,4.85-4.85V876.87a1.62,1.62,0,1,1,3.23,0v22.65A8.08,8.08,0,0,1,672.11,907.6Z" transform="translate(-551.54 -790.65)"/></svg>