<svg id="圖層_1" data-name="圖層 1" xmlns="http://www.w3.org/2000/svg" viewBox="0 0 193.51 147.42"><defs><style>.cls-1{fill:#414143;}.cls-2{fill:#dbc9b1;}.cls-3{fill:#fff;}.cls-4{fill:#8691c9;}</style></defs><title>未命名-29</title><path class="cls-1" d="M839.48,830.55V949.6a14.18,14.18,0,0,1-14.16,14.18H660.15A14.2,14.2,0,0,1,646,949.6V830.55a14.2,14.2,0,0,1,14.18-14.18H825.32A14.18,14.18,0,0,1,839.48,830.55ZM833.82,949.6V830.55a8.51,8.51,0,0,0-8.5-8.5H660.15a8.5,8.5,0,0,0-8.51,8.5V949.6a8.51,8.51,0,0,0,8.51,8.5H825.32A8.51,8.51,0,0,0,833.82,949.6Z" transform="translate(-645.97 -816.37)"/><path class="cls-2" d="M833.82,830.55V949.6a8.51,8.51,0,0,1-8.5,8.5H660.15a8.51,8.51,0,0,1-8.51-8.5V830.55a8.5,8.5,0,0,1,8.51-8.5H825.32A8.51,8.51,0,0,1,833.82,830.55Zm-5.67,107.72V830.55a2.82,2.82,0,0,0-2.83-2.83H660.15a2.83,2.83,0,0,0-2.83,2.83v48.19a2.85,2.85,0,0,0,2.82,2.84v5.66a2.83,2.83,0,0,0-2.82,2.84v48.19a2.83,2.83,0,0,0,2.83,2.83H825.32A2.82,2.82,0,0,0,828.15,938.27Zm.25,11.32a2.83,2.83,0,1,0-2.83,2.85A2.83,2.83,0,0,0,828.4,949.59Zm-11.33,0a2.84,2.84,0,1,0-2.83,2.85A2.84,2.84,0,0,0,817.07,949.59Z" transform="translate(-645.97 -816.37)"/><path class="cls-1" d="M660.14,881.58a2.85,2.85,0,0,1-2.82-2.84V830.55a2.83,2.83,0,0,1,2.83-2.83H825.32a2.82,2.82,0,0,1,2.83,2.83V938.27a2.82,2.82,0,0,1-2.83,2.83H660.15a2.83,2.83,0,0,1-2.83-2.83V890.08a2.83,2.83,0,0,1,2.82-2.84h0a2.84,2.84,0,0,1,2.84,2.84v45.36h159.5V833.38H663v45.36a2.85,2.85,0,0,1-2.84,2.84Z" transform="translate(-645.97 -816.37)"/><path class="cls-1" d="M825.57,946.75a2.85,2.85,0,1,1-2.83,2.84A2.83,2.83,0,0,1,825.57,946.75Z" transform="translate(-645.97 -816.37)"/><path class="cls-1" d="M814.24,946.75a2.85,2.85,0,1,1-2.84,2.84A2.84,2.84,0,0,1,814.24,946.75Z" transform="translate(-645.97 -816.37)"/><path class="cls-1" d="M787.74,932.17h-6.4a1.61,1.61,0,0,1-1.62-1.6V917.76a1.6,1.6,0,0,1,1.62-1.6h6.4a1.6,1.6,0,0,1,0,3.2h-4.8v3.2h4.8a1.61,1.61,0,0,1,0,3.21h-4.8V929h4.8a1.6,1.6,0,1,1,0,3.2Z" transform="translate(-645.97 -816.37)"/><polygon class="cls-3" points="125.37 82.16 117.74 85.97 117.74 78.34 125.37 82.16"/><path class="cls-3" d="M787.74,884.11H768.21v-3.22a1.58,1.58,0,0,0,1.57-1.38,38,38,0,0,0-8.67-29.73s0,0,0,0A38.34,38.34,0,0,0,731.63,836v-2.65h90.86V935.44H787.74v-3.27a1.6,1.6,0,1,0,0-3.2h-4.8v-3.2h4.8a1.61,1.61,0,0,0,0-3.21h-4.8v-3.2h4.8a1.6,1.6,0,0,0,0-3.2v-3.22a1.6,1.6,0,0,0,1.6-1.6V898.53a1.6,1.6,0,0,0-1.6-1.6v-3.22a1.6,1.6,0,0,0,1.6-1.6v-6.4A1.6,1.6,0,0,0,787.74,884.11Zm-8-9.62a47.67,47.67,0,0,0-14.08-34,1.59,1.59,0,0,0-2.25.08,1.62,1.62,0,0,0,0,2.18,44.59,44.59,0,0,1,13.13,31.73,1.6,1.6,0,0,0,3.2,0Z" transform="translate(-645.97 -816.37)"/><path class="cls-1" d="M765.64,840.5a47.67,47.67,0,0,1,14.08,34,1.6,1.6,0,0,1-3.2,0,44.59,44.59,0,0,0-13.13-31.73,1.62,1.62,0,0,1,0-2.18A1.59,1.59,0,0,1,765.64,840.5Z" transform="translate(-645.97 -816.37)"/><path class="cls-1" d="M775.49,916.26a1.61,1.61,0,0,1,.93,2.06l-4.8,12.82a1.56,1.56,0,0,1-1,.93,1.61,1.61,0,0,1-2.06-.93l-4.8-12.82a1.58,1.58,0,0,1-.1-.56,1.62,1.62,0,0,1,1-1.5,1.6,1.6,0,0,1,2.07.93l3.3,8.82,3.31-8.82A1.6,1.6,0,0,1,775.49,916.26Z" transform="translate(-645.97 -816.37)"/><path class="cls-4" d="M766.88,872.88h-9.6a53.64,53.64,0,0,0-3.39-17.52,41.76,41.76,0,0,0,5.47-2.65A35.24,35.24,0,0,1,766.88,872.88Z" transform="translate(-645.97 -816.37)"/><path class="cls-1" d="M771.34,898.53l-7.63-3.82v7.63Zm-10.83-6.42a1.48,1.48,0,0,1,.17-.7,1.53,1.53,0,0,1,1.41-.88,1.76,1.76,0,0,1,.74.16l12.81,6.4a1.61,1.61,0,0,1,.72.74,1.59,1.59,0,0,1-.72,2.13l-12.81,6.41a1.55,1.55,0,0,1-.72.17,1.6,1.6,0,0,1-1.6-1.6Z" transform="translate(-645.97 -816.37)"/><path class="cls-3" d="M762.83,890.69a1.76,1.76,0,0,0-.74-.16v-3.22h24v4.8a1.6,1.6,0,0,0,1.6,1.6v3.22a1.6,1.6,0,0,0-1.6,1.6v11.21h-24v-3.2a1.55,1.55,0,0,0,.72-.17L775.64,900a1.59,1.59,0,0,0,.72-2.13,1.61,1.61,0,0,0-.72-.74Z" transform="translate(-645.97 -816.37)"/><path class="cls-1" d="M760.51,917.76v12.81a1.61,1.61,0,0,1-3.22,0V917.76a1.61,1.61,0,0,1,3.22,0Z" transform="translate(-645.97 -816.37)"/><path class="cls-4" d="M745.36,842a35.49,35.49,0,0,1,11.87,8.25,36.84,36.84,0,0,1-4.59,2.16A34.74,34.74,0,0,0,745.36,842Z" transform="translate(-645.97 -816.37)"/><path class="cls-4" d="M768.21,884.11H755.48v-3.22a1.6,1.6,0,0,0,1.6-1.46c.1-1.19.16-2.27.18-3.34h9.6c-.05.95-.12,1.94-.27,3a1.63,1.63,0,0,0,1.4,1.79h.22Z" transform="translate(-645.97 -816.37)"/><path class="cls-4" d="M754.06,872.88h-11.2a127.54,127.54,0,0,0-.92-14.35,59.85,59.85,0,0,0,9-2.08A49.85,49.85,0,0,1,754.06,872.88Z" transform="translate(-645.97 -816.37)"/><path class="cls-1" d="M768.21,884.11h19.53a1.6,1.6,0,0,1,1.6,1.6v6.4a1.6,1.6,0,1,1-3.2,0v-4.8H750.89v12.82a1.61,1.61,0,0,1-3.21,0V885.71a1.6,1.6,0,0,1,1.6-1.6h18.93Z" transform="translate(-645.97 -816.37)"/><path class="cls-1" d="M787.74,912.94H749.28a1.59,1.59,0,0,1-1.6-1.6v-4.8a1.61,1.61,0,0,1,3.21,0v3.2h35.25V898.53a1.6,1.6,0,0,1,3.2,0v12.81A1.6,1.6,0,0,1,787.74,912.94Z" transform="translate(-645.97 -816.37)"/><path class="cls-4" d="M737.08,840.28c5.11,2,9.53,6.75,12.58,13.2a54.35,54.35,0,0,1-8.17,1.88A46.52,46.52,0,0,0,737.08,840.28Z" transform="translate(-645.97 -816.37)"/><path class="cls-3" d="M750.89,887.31h11.2v3.22a1.53,1.53,0,0,0-1.41.88,1.48,1.48,0,0,0-.17.7v12.83a1.6,1.6,0,0,0,1.6,1.6v3.2H750.89v-3.2a1.6,1.6,0,0,0-1.61-1.6v-3.22a1.59,1.59,0,0,0,1.61-1.59Z" transform="translate(-645.97 -816.37)"/><path class="cls-3" d="M744.48,930.57a1.6,1.6,0,0,0,1.6,1.6h6.41a1.6,1.6,0,0,0,1.6-1.6h3.2a1.6,1.6,0,0,0,1.6,1.6v3.27H663V890.08a2.84,2.84,0,0,0-2.84-2.84h0v-5.66h0a2.85,2.85,0,0,0,2.84-2.84V833.38h68.64V836A38.23,38.23,0,0,0,707,845a38.83,38.83,0,0,0-4.75,4.76,0,0,0,0,0,0,0,38.31,38.31,0,0,0,0,49.41,1.66,1.66,0,0,0,.29.34,38.37,38.37,0,0,0,40.84,11.59,1.58,1.58,0,0,0,1.13-1.53h3.19v1.75a1.63,1.63,0,0,0,.7,1.33l-2.3,3.49a1.59,1.59,0,0,0-1.6,1.6ZM733.26,921a1.59,1.59,0,0,0-1.6-1.6,44.6,44.6,0,0,1-31.73-13.14,1.59,1.59,0,0,0-2.26,2.25,47.76,47.76,0,0,0,34,14.09A1.6,1.6,0,0,0,733.26,921Z" transform="translate(-645.97 -816.37)"/><path class="cls-4" d="M744.41,892.46a.9.9,0,0,0,0-.23h3.25v7.9a1.59,1.59,0,0,0,1.6,1.59v3.22a1.6,1.6,0,0,0-1.6,1.6v3.05h-3.19a1.52,1.52,0,0,0-.06-.47,1.59,1.59,0,0,0-2-1.06h-.05a36,36,0,0,1-5.71,1.3c2.17-3.43,3.78-9.06,4.81-15.71.37.05.74.1,1.1.17A1.6,1.6,0,0,0,744.41,892.46Z" transform="translate(-645.97 -816.37)"/><path class="cls-4" d="M755.33,880.89h.15v3.22h-6.2a1.6,1.6,0,0,0-1.6,1.6v6.52h-3.25a1.58,1.58,0,0,0-1.27-1.55c-.4-.09-.82-.14-1.22-.2a128.25,128.25,0,0,0,.92-14.39h11.2c0,1-.08,2-.18,3.07A1.58,1.58,0,0,0,755.33,880.89Z" transform="translate(-645.97 -816.37)"/><path class="cls-1" d="M747.68,929h4.81a1.6,1.6,0,1,1,0,3.2h-6.41a1.6,1.6,0,0,1-1.6-1.6V917.76a1.6,1.6,0,1,1,3.2,0Z" transform="translate(-645.97 -816.37)"/><path class="cls-4" d="M738.75,859a125,125,0,0,1,.9,13.94h-16a127.42,127.42,0,0,1,.9-13.94,66.43,66.43,0,0,0,14.19,0Z" transform="translate(-645.97 -816.37)"/><path class="cls-4" d="M723.66,876.09h16a125.67,125.67,0,0,1-.9,14,60,60,0,0,0-7.09-.42,67.12,67.12,0,0,0-7.1.39A127.42,127.42,0,0,1,723.66,876.09Z" transform="translate(-645.97 -816.37)"/><path class="cls-4" d="M731.66,839.23c2.17,0,5,6.12,6.65,16.55a63.35,63.35,0,0,1-13.3,0C726.66,845.35,729.48,839.23,731.66,839.23Z" transform="translate(-645.97 -816.37)"/><path class="cls-4" d="M738.3,893.23c-1.65,10.41-4.47,16.51-6.64,16.51s-5-6.12-6.65-16.53a58.29,58.29,0,0,1,13.29,0Z" transform="translate(-645.97 -816.37)"/><path class="cls-4" d="M721.81,893.63a47.18,47.18,0,0,0,4.42,15.06c-5.1-2-9.53-6.75-12.58-13.2A54.16,54.16,0,0,1,721.81,893.63Z" transform="translate(-645.97 -816.37)"/><path class="cls-4" d="M720.45,876.09a129.79,129.79,0,0,0,.93,14.35,61,61,0,0,0-9,2.09,50.74,50.74,0,0,1-3.15-16.44Z" transform="translate(-645.97 -816.37)"/><path class="cls-4" d="M721.36,858.53a135,135,0,0,0-.91,14.35H709.28a51,51,0,0,1,3.15-16.43A57.53,57.53,0,0,0,721.36,858.53Z" transform="translate(-645.97 -816.37)"/><path class="cls-4" d="M710.68,896.56A34.92,34.92,0,0,0,718,907a35.42,35.42,0,0,1-11.86-8.24A38.34,38.34,0,0,1,710.68,896.56Z" transform="translate(-645.97 -816.37)"/><path class="cls-4" d="M716.13,846.28a1.61,1.61,0,0,0-2.23.4,39.59,39.59,0,0,0-3.27,5.73,39.1,39.1,0,0,1-4.53-2.16,35.16,35.16,0,0,1,20.55-10.65c-2.19,3.43-3.8,9.08-4.84,15.76a56.06,56.06,0,0,1-8.11-1.86,34.6,34.6,0,0,1,2.83-5A1.58,1.58,0,0,0,716.13,846.28Z" transform="translate(-645.97 -816.37)"/><path class="cls-1" d="M731.66,922.56a47.76,47.76,0,0,1-34-14.09,1.59,1.59,0,0,1,2.26-2.25,44.6,44.6,0,0,0,31.73,13.14,1.6,1.6,0,1,1,0,3.2Z" transform="translate(-645.97 -816.37)"/><path class="cls-4" d="M696.4,874.48A35.12,35.12,0,0,1,704,852.71a38.34,38.34,0,0,0,5.43,2.64,53.32,53.32,0,0,0-3.33,17.53h-4.85a1.59,1.59,0,0,0-1.6,1.61Z" transform="translate(-645.97 -816.37)"/><path class="cls-4" d="M701.22,876.09h4.83a53,53,0,0,0,3.38,17.52,41,41,0,0,0-5.46,2.65,35.09,35.09,0,0,1-7.57-21.78h3.22A1.59,1.59,0,0,0,701.22,876.09Z" transform="translate(-645.97 -816.37)"/><path class="cls-1" d="M745.36,842a34.74,34.74,0,0,1,7.28,10.41,36.84,36.84,0,0,0,4.59-2.16A35.49,35.49,0,0,0,745.36,842Zm-3.42,16.53a127.54,127.54,0,0,1,.92,14.35h11.2a49.85,49.85,0,0,0-3.15-16.43A59.85,59.85,0,0,1,741.94,858.53Zm7.72-5c-3-6.45-7.47-11.2-12.58-13.2a46.52,46.52,0,0,1,4.41,15.08A54.35,54.35,0,0,0,749.66,853.48Zm-28.3,5a57.53,57.53,0,0,1-8.93-2.08,51,51,0,0,0-3.15,16.43h11.17A135,135,0,0,1,721.36,858.53Zm32.53-3.17a53.64,53.64,0,0,1,3.39,17.52h9.6a35.24,35.24,0,0,0-7.52-20.17A41.76,41.76,0,0,1,753.89,855.36Zm-33.44,20.73h-11.2a50.74,50.74,0,0,0,3.15,16.44,61,61,0,0,1,9-2.09A129.79,129.79,0,0,1,720.45,876.09Zm-6.8,19.4c3.05,6.45,7.48,11.2,12.58,13.2a47.18,47.18,0,0,1-4.42-15.06A54.16,54.16,0,0,0,713.65,895.49Zm-3-43.08a39.59,39.59,0,0,1,3.27-5.73,1.61,1.61,0,0,1,2.23-.4,1.58,1.58,0,0,1,.4,2.23,34.6,34.6,0,0,0-2.83,5,56.06,56.06,0,0,0,8.11,1.86c1-6.68,2.65-12.33,4.84-15.76a35.16,35.16,0,0,0-20.55,10.65A39.1,39.1,0,0,0,710.63,852.41Zm29,20.48a125,125,0,0,0-.9-13.94,66.43,66.43,0,0,1-14.19,0,127.42,127.42,0,0,0-.9,13.94Zm-16,3.2a127.42,127.42,0,0,0,.9,13.94,67.12,67.12,0,0,1,7.1-.39,60,60,0,0,1,7.09.42,125.67,125.67,0,0,0,.9-14ZM718,907a34.92,34.92,0,0,1-7.28-10.41,38.34,38.34,0,0,0-4.58,2.17A35.42,35.42,0,0,0,718,907Zm13.7,2.77c2.17,0,5-6.1,6.64-16.51a58.29,58.29,0,0,0-13.29,0C726.66,903.62,729.48,909.74,731.66,909.74Zm11.7,1.38a38.37,38.37,0,0,1-40.84-11.59,1.66,1.66,0,0,1-.29-.34,38.31,38.31,0,0,1,0-49.41,0,0,0,0,1,0,0A38.83,38.83,0,0,1,707,845a38.38,38.38,0,0,1,54.08,4.76s0,0,0,0a38,38,0,0,1,8.67,29.73,1.58,1.58,0,0,1-1.57,1.38H768a1.63,1.63,0,0,1-1.4-1.79c.15-1.06.22-2.05.27-3h-9.6c0,1.07-.08,2.15-.18,3.34a1.6,1.6,0,0,1-1.6,1.46h-.15a1.58,1.58,0,0,1-1.45-1.73c.1-1.08.15-2.1.18-3.07h-11.2a128.25,128.25,0,0,1-.92,14.39c.4.06.82.11,1.22.2a1.58,1.58,0,0,1,1.27,1.55.9.9,0,0,1,0,.23,1.6,1.6,0,0,1-1.82,1.37c-.36-.07-.73-.12-1.1-.17-1,6.65-2.64,12.28-4.81,15.71a36,36,0,0,0,5.71-1.3h.05a1.59,1.59,0,0,1,2,1.06,1.52,1.52,0,0,1,.06.47A1.58,1.58,0,0,1,743.36,911.12Zm-37.29-38.24a53.32,53.32,0,0,1,3.33-17.53,38.34,38.34,0,0,1-5.43-2.64,35.1,35.1,0,0,0,0,43.55,41,41,0,0,1,5.46-2.65,53,53,0,0,1-3.38-17.52h-4.83a1.61,1.61,0,0,1,0-3.21ZM725,855.78a63.35,63.35,0,0,0,13.3,0c-1.65-10.43-4.48-16.55-6.65-16.55S726.66,845.35,725,855.78Z" transform="translate(-645.97 -816.37)"/></svg>