<svg id="圖層_1" data-name="圖層 1" xmlns="http://www.w3.org/2000/svg" viewBox="0 0 193.53 147.4"><defs><style>.cls-1{fill:#414143;}.cls-2{fill:#ed9484;}.cls-3{fill:#dbc9b1;}.cls-4{fill:#fff;}</style></defs><title>live_9</title><path class="cls-1" d="M744.56,805.16V924.22a14.2,14.2,0,0,1-14.18,14.18H565.22A14.21,14.21,0,0,1,551,924.22V805.16A14.19,14.19,0,0,1,565.22,791H730.38A14.18,14.18,0,0,1,744.56,805.16Zm-5.68,119.06V805.16a8.51,8.51,0,0,0-8.5-8.49H565.22a8.5,8.5,0,0,0-8.5,8.49V924.22a8.51,8.51,0,0,0,8.5,8.51H730.38A8.51,8.51,0,0,0,738.88,924.22Z" transform="translate(-551.03 -791)"/><path class="cls-2" d="M738.88,805.16V924.22a8.51,8.51,0,0,1-8.5,8.51H565.22a8.51,8.51,0,0,1-8.5-8.51V805.16a8.5,8.5,0,0,1,8.5-8.49H730.38A8.51,8.51,0,0,1,738.88,805.16Zm-5.67,107.73V805.16a2.83,2.83,0,0,0-2.83-2.83H565.22a2.84,2.84,0,0,0-2.84,2.83v48.2a2.82,2.82,0,0,0,2.82,2.83v5.67a2.83,2.83,0,0,0-2.82,2.83v48.2a2.84,2.84,0,0,0,2.84,2.83H730.38A2.83,2.83,0,0,0,733.21,912.89Zm.27,11.33a2.84,2.84,0,1,0-2.83,2.83A2.83,2.83,0,0,0,733.48,924.22Zm-11.35,0a2.83,2.83,0,1,0-2.83,2.83A2.82,2.82,0,0,0,722.13,924.22Z" transform="translate(-551.03 -791)"/><path class="cls-1" d="M565.2,861.86h0a2.83,2.83,0,0,1,2.83,2.83v45.36h159.5V808H568.05v45.36a2.83,2.83,0,0,1-2.83,2.83h0a2.82,2.82,0,0,1-2.82-2.83v-48.2a2.84,2.84,0,0,1,2.84-2.83H730.38a2.83,2.83,0,0,1,2.83,2.83V912.89a2.83,2.83,0,0,1-2.83,2.83H565.22a2.84,2.84,0,0,1-2.84-2.83v-48.2A2.83,2.83,0,0,1,565.2,861.86Z" transform="translate(-551.03 -791)"/><path class="cls-1" d="M730.65,921.39a2.83,2.83,0,1,1-2.85,2.83A2.83,2.83,0,0,1,730.65,921.39Z" transform="translate(-551.03 -791)"/><circle class="cls-1" cx="168.26" cy="133.22" r="2.83"/><path class="cls-3" d="M689.39,882.17V866.11a1.61,1.61,0,0,0-3.22,0v16.06a1.61,1.61,0,0,0,3.22,0Zm0,20.87H670.12v-3.2a1.62,1.62,0,0,0,1.6-1.62,1.6,1.6,0,0,0-1.6-1.6h-4.83V893.4h4.83a1.6,1.6,0,1,0,0-3.19h-4.83V887h4.83a1.61,1.61,0,0,0,0-3.22H666.9v-3.21a1.6,1.6,0,0,0,1.6-1.6v-3.22a1.6,1.6,0,0,0-1.6-1.6v-3.22a1.59,1.59,0,0,0,1.6-1.6V850.06a1.62,1.62,0,0,0-1.6-1.62v-3.2h3.22a1.6,1.6,0,0,0,1.6-1.61h3.22a1.59,1.59,0,0,0,1.6,1.61h12.85a4.81,4.81,0,0,1,4.81,4.82v48.16A4.81,4.81,0,0,1,689.39,903Z" transform="translate(-551.03 -791)"/><path class="cls-1" d="M689.39,866.11v16.06a1.61,1.61,0,0,1-3.22,0V866.11a1.61,1.61,0,0,1,3.22,0Z" transform="translate(-551.03 -791)"/><path class="cls-1" d="M689.39,903a4.81,4.81,0,0,0,4.81-4.82V850.06a4.81,4.81,0,0,0-4.81-4.82H676.54a1.61,1.61,0,0,1,0-3.21h12.85a8,8,0,0,1,8,8v48.16a8,8,0,0,1-8,8H623.54a1.61,1.61,0,0,1,0-3.21h65.85Z" transform="translate(-551.03 -791)"/><path class="cls-1" d="M662.09,898.22V885.37a1.6,1.6,0,0,1,1.6-1.6h6.43a1.61,1.61,0,0,1,0,3.22h-4.83v3.22h4.83a1.6,1.6,0,1,1,0,3.19h-4.83v3.22h4.83a1.6,1.6,0,0,1,1.6,1.6,1.62,1.62,0,0,1-1.6,1.62h-6.43A1.62,1.62,0,0,1,662.09,898.22Z" transform="translate(-551.03 -791)"/><path class="cls-4" d="M663.39,827.15l-3.93,3.06a14.48,14.48,0,0,0-7.45-4l.78-4.76a19.14,19.14,0,0,1,10.07,5.3A1.75,1.75,0,0,0,663.39,827.15Z" transform="translate(-551.03 -791)"/><path class="cls-3" d="M670.12,903H652.46v-3.2a1.83,1.83,0,0,0,.55-.1,1.65,1.65,0,0,0,1-1l4.81-12.85a1.52,1.52,0,0,0,.1-.55h3.22v12.83a1.62,1.62,0,0,0,1.6,1.62h6.43Z" transform="translate(-551.03 -791)"/><path class="cls-1" d="M651.51,838.14a3.31,3.31,0,0,0-4.54,0,1.53,1.53,0,0,1-1.11.47,1.57,1.57,0,0,1-1.12-.47,1.6,1.6,0,0,1,0-2.26,6.55,6.55,0,0,1,9.06,0,1.57,1.57,0,0,1,0,2.23A1.6,1.6,0,0,1,651.51,838.14Z" transform="translate(-551.03 -791)"/><path class="cls-1" d="M649.14,884.82l3.32,8.83,3.3-8.83a1.6,1.6,0,0,1,3.11.57,1.52,1.52,0,0,1-.1.55L654,898.79a1.65,1.65,0,0,1-1,1,1.83,1.83,0,0,1-.55.1,1.64,1.64,0,0,1-1.52-1.05l-4.82-12.85a1.78,1.78,0,0,1-.1-.55,1.61,1.61,0,0,1,3.12-.57Z" transform="translate(-551.03 -791)"/><path class="cls-4" d="M651.51,838.14a1.6,1.6,0,0,0,2.26,0,1.57,1.57,0,0,0,0-2.23,6.49,6.49,0,0,0-4.53-1.82l.22-4.85a11.19,11.19,0,0,1,7.73,3.27,1.61,1.61,0,0,0,2.27-2.27l3.93-3.06a1.54,1.54,0,0,0,.61.11,1.58,1.58,0,0,0,1.6-1.6,1.61,1.61,0,0,0-.46-1.13c-.27-.27-.55-.53-.84-.8l4.24-2.6a1.6,1.6,0,0,0,2.26,0,1.58,1.58,0,0,0,.05-2.26l-.05,0a30.39,30.39,0,0,0-21.56-8.94V808h78.31v102H689.39v-3.8a8,8,0,0,0,8-8V850.06a8,8,0,0,0-8-8H676.54a1.59,1.59,0,0,0-1.6,1.6h-3.22a1.6,1.6,0,0,0-1.6-1.6H645.86v-3.42a1.53,1.53,0,0,0,1.11-.47A3.31,3.31,0,0,1,651.51,838.14Z" transform="translate(-551.03 -791)"/><path class="cls-3" d="M652.46,903H641.21v-3.2a1.63,1.63,0,0,0,1.61-1.62V885.39H646a1.78,1.78,0,0,0,.1.55l4.82,12.85a1.64,1.64,0,0,0,1.52,1.05Z" transform="translate(-551.03 -791)"/><path class="cls-1" d="M659.59,863.07a1.67,1.67,0,0,1,.72.72,1.69,1.69,0,0,1,.16.73,1.6,1.6,0,0,1-.88,1.44l-16.05,8a1.59,1.59,0,0,1-.73.19,1.63,1.63,0,0,1-1.6-1.62v-9.63a1.61,1.61,0,1,1,3.21,0v7l10.87-5.43-13.18-6.58a1.62,1.62,0,0,1-.74-2.15,1.64,1.64,0,0,1,2.17-.74Z" transform="translate(-551.03 -791)"/><path class="cls-4" d="M665.29,877.36H642.81v-3.2a1.59,1.59,0,0,0,.73-.19l16.05-8a1.6,1.6,0,0,0,.88-1.44h4.82v4.8a1.61,1.61,0,0,0,1.61,1.6v3.22a1.61,1.61,0,0,0-1.61,1.6Z" transform="translate(-551.03 -791)"/><path class="cls-4" d="M660.31,863.79a1.67,1.67,0,0,0-.72-.72l-16.05-8a1.64,1.64,0,0,0-.72-.16v-3.22h22.47v12.86h-4.82A1.69,1.69,0,0,0,660.31,863.79Z" transform="translate(-551.03 -791)"/><path class="cls-1" d="M649.46,829.21a11.18,11.18,0,0,0-8.17,3.27,1.61,1.61,0,0,1-2.27-2.27,14.49,14.49,0,0,1,20.44,0,1.61,1.61,0,0,1-2.27,2.27A11.19,11.19,0,0,0,649.46,829.21Z" transform="translate(-551.03 -791)"/><path class="cls-1" d="M642.82,885.39v12.83a1.61,1.61,0,1,1-3.21,0V885.37a1.61,1.61,0,0,1,3.21,0Z" transform="translate(-551.03 -791)"/><path class="cls-4" d="M641.21,872.54a1.63,1.63,0,0,0,1.6,1.62v3.2h-9.63v-25.7h9.64v3.22a1.64,1.64,0,0,0-1.45.9,1.62,1.62,0,0,0,.74,2.15l13.18,6.58-10.87,5.43v-7a1.61,1.61,0,1,0-3.21,0Z" transform="translate(-551.03 -791)"/><path class="cls-3" d="M657.82,883.87a1.62,1.62,0,0,0-2.06,1l-3.3,8.83-3.32-8.83a1.61,1.61,0,0,0-3.12.57h-3.2v0a1.61,1.61,0,0,0-3.21,0v12.85a1.62,1.62,0,0,0,1.6,1.62V903h-6.42v-3.2a1.62,1.62,0,0,0,1.6-1.62,1.6,1.6,0,0,0-1.6-1.6H630V885.37a1.61,1.61,0,0,0-1.62-1.6l2.32-3.48a1.62,1.62,0,0,0,.9.27H666.9v3.21h-3.21a1.6,1.6,0,0,0-1.6,1.6v0h-3.22A1.64,1.64,0,0,0,657.82,883.87Z" transform="translate(-551.03 -791)"/><path class="cls-1" d="M633.34,824.53a22.48,22.48,0,0,1,31-.8c.29.27.57.53.84.8a1.61,1.61,0,0,1,.46,1.13,1.58,1.58,0,0,1-1.6,1.6,1.54,1.54,0,0,1-.61-.11,1.75,1.75,0,0,1-.53-.35,19.3,19.3,0,0,0-27.25,0,1.59,1.59,0,0,1-2.22,0,1.62,1.62,0,0,1-.5-1.17A1.55,1.55,0,0,1,633.34,824.53Z" transform="translate(-551.03 -791)"/><path class="cls-1" d="M631.58,848.44H666.9a1.62,1.62,0,0,1,1.6,1.62v19.26a1.61,1.61,0,0,1-3.21,0V851.66H633.18v25.7h32.11v-1.62a1.61,1.61,0,0,1,3.21,0V879a1.6,1.6,0,0,1-1.6,1.6H631.58A1.59,1.59,0,0,1,630,879v-28.9A1.62,1.62,0,0,1,631.58,848.44Z" transform="translate(-551.03 -791)"/><path class="cls-1" d="M634.79,899.84h-6.43a1.62,1.62,0,0,1-1.6-1.62V885.37a1.61,1.61,0,0,1,3.22,0v11.25h4.81a1.6,1.6,0,0,1,1.6,1.6A1.62,1.62,0,0,1,634.79,899.84Z" transform="translate(-551.03 -791)"/><path class="cls-1" d="M670.85,818.9a1.58,1.58,0,0,1-.05,2.26,1.6,1.6,0,0,1-2.26,0v0a27.29,27.29,0,0,0-38.6,0l-.05,0a1.6,1.6,0,1,1-2.21-2.31,30.47,30.47,0,0,1,43.12,0Z" transform="translate(-551.03 -791)"/><path class="cls-4" d="M652,826.26a14.5,14.5,0,0,0-13,4,1.61,1.61,0,0,0,2.27,2.27,11.18,11.18,0,0,1,8.17-3.27l-.22,4.85a6.49,6.49,0,0,0-4.53,1.82,1.6,1.6,0,0,0,0,2.26,1.57,1.57,0,0,0,1.12.47V842H609.09a8,8,0,0,0-8,8v48.16a8,8,0,0,0,8,8h8a1.6,1.6,0,0,0,1.6-1.6h3.21a1.6,1.6,0,0,0,1.6,1.6h65.85v3.8H568.05V864.69a2.83,2.83,0,0,0-2.83-2.83h0v-5.67h0a2.83,2.83,0,0,0,2.83-2.83V808h81.19v1.91a30.39,30.39,0,0,0-21.56,8.94,1.6,1.6,0,1,0,2.21,2.31l.05,0a27.29,27.29,0,0,1,38.6,0v0l-4.24,2.6a22.48,22.48,0,0,0-31,.8,1.55,1.55,0,0,0-.45,1.1,1.62,1.62,0,0,0,.5,1.17,1.59,1.59,0,0,0,2.22,0,19.2,19.2,0,0,1,17.18-5.3Z" transform="translate(-551.03 -791)"/><path class="cls-1" d="M609.09,887a1.62,1.62,0,0,1,1.62,1.6,1.61,1.61,0,1,1-3.22,0A1.6,1.6,0,0,1,609.09,887Z" transform="translate(-551.03 -791)"/><path class="cls-1" d="M609.09,893.4a1.61,1.61,0,1,1-1.6,1.62A1.62,1.62,0,0,1,609.09,893.4Z" transform="translate(-551.03 -791)"/><path class="cls-3" d="M607.49,888.59a1.61,1.61,0,1,0,1.6-1.6A1.6,1.6,0,0,0,607.49,888.59Zm1.6,4.81a1.61,1.61,0,1,0,1.62,1.62A1.61,1.61,0,0,0,609.09,893.4ZM623.54,903a1.6,1.6,0,0,0-1.6,1.61h-3.21a1.6,1.6,0,0,0-1.6-1.61h-8a4.81,4.81,0,0,1-4.81-4.82V850.06a4.81,4.81,0,0,1,4.81-4.82H666.9v3.2H631.58a1.62,1.62,0,0,0-1.6,1.62V879a1.63,1.63,0,0,0,.7,1.33l-2.32,3.48a1.6,1.6,0,0,0-1.6,1.6v12.85a1.62,1.62,0,0,0,1.6,1.62h6.43V903Z" transform="translate(-551.03 -791)"/><path class="cls-1" d="M604.28,898.22a4.81,4.81,0,0,0,4.81,4.82h8a1.61,1.61,0,0,1,0,3.21h-8a8,8,0,0,1-8-8V850.06a8,8,0,0,1,8-8h61a1.61,1.61,0,0,1,0,3.21h-61a4.81,4.81,0,0,0-4.81,4.82Z" transform="translate(-551.03 -791)"/></svg>