<svg id="圖層_1" data-name="圖層 1" xmlns="http://www.w3.org/2000/svg" viewBox="0 0 193.51 147.4"><defs><style>.cls-1{fill:#414143;}.cls-2{fill:#8691c9;}.cls-3{fill:#fff;}.cls-4{fill:#ed9484;}</style></defs><title>live_25</title><path class="cls-1" d="M838.93,831.15V950.21a14.19,14.19,0,0,1-14.16,14.18H659.6a14.21,14.21,0,0,1-14.18-14.18V831.15A14.19,14.19,0,0,1,659.6,817H824.77A14.17,14.17,0,0,1,838.93,831.15Zm-5.66,119.06V831.15a8.52,8.52,0,0,0-8.5-8.5H659.6a8.51,8.51,0,0,0-8.51,8.5V950.21a8.51,8.51,0,0,0,8.51,8.51H824.77A8.51,8.51,0,0,0,833.27,950.21Z" transform="translate(-645.42 -816.99)"/><path class="cls-2" d="M833.27,831.15V950.21a8.51,8.51,0,0,1-8.5,8.51H659.6a8.51,8.51,0,0,1-8.51-8.51V831.15a8.51,8.51,0,0,1,8.51-8.5H824.77A8.52,8.52,0,0,1,833.27,831.15ZM827.6,938.87V831.15a2.83,2.83,0,0,0-2.83-2.83H659.6a2.85,2.85,0,0,0-2.85,2.83v48.2a2.85,2.85,0,0,0,2.83,2.83v5.67a2.83,2.83,0,0,0-2.83,2.83v48.19a2.85,2.85,0,0,0,2.85,2.84H824.77A2.84,2.84,0,0,0,827.6,938.87Zm.25,11.34A2.84,2.84,0,1,0,825,953,2.84,2.84,0,0,0,827.85,950.21Zm-11.33,0a2.84,2.84,0,1,0-2.84,2.83A2.84,2.84,0,0,0,816.52,950.21Z" transform="translate(-645.42 -816.99)"/><path class="cls-1" d="M659.58,887.85h0a2.83,2.83,0,0,1,2.83,2.83V936h159.5V834H662.43v45.36a2.84,2.84,0,0,1-2.83,2.83h0a2.85,2.85,0,0,1-2.83-2.83v-48.2a2.85,2.85,0,0,1,2.85-2.83H824.77a2.83,2.83,0,0,1,2.83,2.83V938.87a2.84,2.84,0,0,1-2.83,2.84H659.6a2.85,2.85,0,0,1-2.85-2.84V890.68A2.83,2.83,0,0,1,659.58,887.85Z" transform="translate(-645.42 -816.99)"/><circle class="cls-1" cx="179.6" cy="133.22" r="2.83"/><circle class="cls-1" cx="168.26" cy="133.22" r="2.83"/><path class="cls-3" d="M783.72,906.81a4.26,4.26,0,0,0,0-3.93l3.45-.34a1.65,1.65,0,0,0,1.34.7,1.6,1.6,0,0,0,1.6-1.6V839.25a1.6,1.6,0,0,0-1.6-1.6V834h33.44V936H788.49v-2.4a1.6,1.6,0,0,0,1.6-1.6V908a1.6,1.6,0,0,0-1.6-1.6,1.68,1.68,0,0,0-1.34.7Z" transform="translate(-645.42 -816.99)"/><rect class="cls-4" x="109.47" y="103.85" width="25.6" height="3.2"/><path class="cls-4" d="M780.89,866a1.05,1.05,0,0,1-.19,1.19l-3.41,3.41-3.42-3.41a1,1,0,0,1,0-1.45,1,1,0,0,1,.74-.3,1,1,0,0,1,.45.1l1.51.76a1.63,1.63,0,0,0,1.43,0l1.5-.76A1,1,0,0,1,780.89,866Z" transform="translate(-645.42 -816.99)"/><path class="cls-4" d="M780.89,904.38a1,1,0,0,1-.19,1.18L777.29,909l-3.42-3.42a1,1,0,0,1,0-1.45,1,1,0,0,1,.74-.3,1,1,0,0,1,.45.1l1.51.77a1.7,1.7,0,0,0,1.43,0l1.5-.77A1,1,0,0,1,780.89,904.38Z" transform="translate(-645.42 -816.99)"/><path class="cls-1" d="M775.69,844.05a1.6,1.6,0,0,1,0,3.2h-14.4a1.6,1.6,0,1,1,0-3.2Z" transform="translate(-645.42 -816.99)"/><path class="cls-1" d="M775.69,895.25a1.6,1.6,0,0,1,0,3.2h-22.4a1.6,1.6,0,1,1,0-3.2Z" transform="translate(-645.42 -816.99)"/><path class="cls-1" d="M778.07,862.65a4.24,4.24,0,0,1,6.12,3.8,4.17,4.17,0,0,1-1.22,3L778.42,874a1.61,1.61,0,0,1-2.26,0l-4-4-.55-.55a4.22,4.22,0,0,1,4.88-6.76l.8.38Zm2.82,3.33a1,1,0,0,0-1.39-.46l-1.5.76a1.63,1.63,0,0,1-1.43,0l-1.51-.76a1,1,0,0,0-.45-.1,1,1,0,0,0-.74.3,1,1,0,0,0,0,1.45l3.42,3.41,3.41-3.41A1.05,1.05,0,0,0,780.89,866Z" transform="translate(-645.42 -816.99)"/><path class="cls-1" d="M771.61,907.83a4.23,4.23,0,0,1,4.88-6.77l.8.4.8-.4a4.25,4.25,0,0,1,4.85.78,4.7,4.7,0,0,1,.76,1,4.26,4.26,0,0,1,0,3.93,4.87,4.87,0,0,1-.75,1l-4.55,4.55a1.62,1.62,0,0,1-2.26,0Zm9.09-2.27a1,1,0,0,0,.19-1.18,1,1,0,0,0-1.39-.47l-1.5.77a1.7,1.7,0,0,1-1.43,0l-1.51-.77a1,1,0,0,0-.45-.1,1,1,0,0,0-.74.3,1,1,0,0,0,0,1.45l3.42,3.42Z" transform="translate(-645.42 -816.99)"/><path class="cls-4" d="M769.07,884.76a1,1,0,0,1,0-1.45,1,1,0,0,1,.74-.3,1.18,1.18,0,0,1,.45.1l1.51.77a1.65,1.65,0,0,0,1.44,0l1.5-.77a1,1,0,0,1,1.38.47,1,1,0,0,1-.18,1.18l-3.42,3.42Z" transform="translate(-645.42 -816.99)"/><path class="cls-1" d="M770.42,871.71a1.61,1.61,0,0,1-1.13,2.74h-16a1.6,1.6,0,1,1,0-3.2h16A1.59,1.59,0,0,1,770.42,871.71Z" transform="translate(-645.42 -816.99)"/><path class="cls-1" d="M769.29,911.24a1.6,1.6,0,0,1,0,3.2h-16a1.6,1.6,0,1,1,0-3.2Z" transform="translate(-645.42 -816.99)"/><path class="cls-1" d="M778.15,881.05a4.25,4.25,0,0,1,0,6l-4.55,4.55a1.61,1.61,0,0,1-2.26,0L766.81,887a4.23,4.23,0,0,1,4.88-6.77l.8.4.78-.41A4.21,4.21,0,0,1,778.15,881.05Zm-9.08,2.26a1,1,0,0,0,0,1.45l3.42,3.42,3.42-3.42a1,1,0,0,0,.18-1.18,1,1,0,0,0-1.38-.47l-1.5.77a1.65,1.65,0,0,1-1.44,0l-1.51-.77a1.18,1.18,0,0,0-.45-.1A1,1,0,0,0,769.07,883.31Z" transform="translate(-645.42 -816.99)"/><path class="cls-1" d="M766.09,863.25a1.6,1.6,0,0,1,0,3.2h-12.8a1.6,1.6,0,1,1,0-3.2Z" transform="translate(-645.42 -816.99)"/><path class="cls-1" d="M766.09,903.24a1.6,1.6,0,0,1,0,3.2h-12.8a1.6,1.6,0,1,1,0-3.2Z" transform="translate(-645.42 -816.99)"/><path class="cls-1" d="M764.49,888.85a1.6,1.6,0,0,1-1.6,1.6h-9.6a1.6,1.6,0,1,1,0-3.2h9.6A1.6,1.6,0,0,1,764.49,888.85Z" transform="translate(-645.42 -816.99)"/><path class="cls-1" d="M762.89,880.85a1.6,1.6,0,0,1-1.6,1.6h-8a1.6,1.6,0,1,1,0-3.2h8A1.6,1.6,0,0,1,762.89,880.85Z" transform="translate(-645.42 -816.99)"/><path class="cls-1" d="M780.49,920.84h-25.6V924h25.6Zm-27.2-3.2h28.8a1.6,1.6,0,0,1,1.6,1.6v6.4a1.6,1.6,0,0,1-1.6,1.6h-28.8a1.6,1.6,0,0,1-1.6-1.6v-6.4A1.6,1.6,0,0,1,753.29,917.64Z" transform="translate(-645.42 -816.99)"/><path class="cls-1" d="M753.29,844.05a1.6,1.6,0,0,1,0,3.2h-24a1.6,1.6,0,1,1,0-3.2Z" transform="translate(-645.42 -816.99)"/><path class="cls-3" d="M766,882.15a4.23,4.23,0,0,0,.79,4.88l4.55,4.55a1.61,1.61,0,0,0,2.26,0l4.55-4.55a4.24,4.24,0,0,0-4.9-6.78l-.78.41-.8-.4A4.22,4.22,0,0,0,766,882.15Zm-12.73,5.1a1.6,1.6,0,1,0,0,3.2h9.6a1.6,1.6,0,0,0,0-3.2Zm-4.8,9.6v-16h3.2a1.6,1.6,0,0,0,1.6,1.6h8a1.6,1.6,0,0,0,0-3.2v-4.8h8a1.61,1.61,0,0,0,1.13-2.74l1.74-1.73,4,4a1.61,1.61,0,0,0,2.26,0l4.55-4.55a4.17,4.17,0,0,0,1.22-3h2.7v35.19a1.69,1.69,0,0,0,.26.9l-3.45.34a4.7,4.7,0,0,0-.76-1,4.25,4.25,0,0,0-4.85-.78l-.8.4-.8-.4a4.22,4.22,0,0,0-1.88-.45v-2.16h1.08a1.6,1.6,0,0,0,0-3.2h-22.4a1.6,1.6,0,0,0-1.6,1.6Z" transform="translate(-645.42 -816.99)"/><path class="cls-3" d="M745.29,893.65v8H711.7v-3.19a1.6,1.6,0,0,0,1.6-1.6v-1.6h27.19a1.6,1.6,0,0,0,1.6-1.6Z" transform="translate(-645.42 -816.99)"/><path class="cls-1" d="M742.09,922.44h-6.4a1.6,1.6,0,0,1-1.6-1.6v-9.6a1.6,1.6,0,0,1,1.6-1.6h6.4a1.6,1.6,0,1,1,0,3.2h-4.8v1.6h3.2a1.6,1.6,0,1,1,0,3.2h-3.2v1.6h4.8a1.6,1.6,0,0,1,0,3.2Z" transform="translate(-645.42 -816.99)"/><path class="cls-3" d="M746.89,877.65a1.6,1.6,0,0,0-1.6,1.6v14.4h-3.2a1.59,1.59,0,0,0-1.6-1.6H724.63v-3.2a12.74,12.74,0,0,0,12.13-9.15,1.6,1.6,0,0,0-1.08-2,1.63,1.63,0,0,0-1.89.82l-2.16-1.13a1.6,1.6,0,0,0,.68-2.15,1.57,1.57,0,0,0-.72-.72l2.19-1a1.63,1.63,0,0,0,1.9.83,1.58,1.58,0,0,0,1.06-2,12.79,12.79,0,0,0-12.26-9.13v-3.2h20.81v12.8a1.6,1.6,0,0,0,3.2,0h3.2a1.6,1.6,0,0,0,1.6,1.6h8v4.8h-8a1.6,1.6,0,0,0-1.6,1.6h-3.2v-1.6A1.6,1.6,0,0,0,746.89,877.65Z" transform="translate(-645.42 -816.99)"/><path class="cls-3" d="M766.09,866.45a1.6,1.6,0,0,0,0-3.2h-12.8a1.6,1.6,0,1,0,0,3.2Zm-4.8-22.4a1.6,1.6,0,1,0,0,3.2h14.4a1.6,1.6,0,0,0,0-3.2Zm20.8,6.4h-59.2v-9.6h64v25.6h-2.7a4.24,4.24,0,0,0-6.12-3.8l-.78.4-.8-.38a4.22,4.22,0,0,0-4.88,6.76l.55.55-1.74,1.73a1.59,1.59,0,0,0-1.13-.46h-16a1.6,1.6,0,0,0-1.6,1.6h-3.2v-14.4a1.6,1.6,0,0,0-1.6-1.6v-3.2h35.2a1.6,1.6,0,1,0,0-3.2Zm-28.8-3.2a1.6,1.6,0,0,0,0-3.2h-24a1.6,1.6,0,1,0,0,3.2Z" transform="translate(-645.42 -816.99)"/><polygon class="cls-3" points="81.89 59.03 77.49 61.29 77.44 56.86 81.89 59.03"/><path class="cls-3" d="M724.49,888.85h.14v3.2H713.3v-1.6a1.6,1.6,0,1,0-3.2,0v1.6h-1.6a1.59,1.59,0,0,0-1.6,1.6h-3.2v-33.6h20.78v3.2a12.8,12.8,0,1,0,0,25.6Z" transform="translate(-645.42 -816.99)"/><path class="cls-1" d="M727.78,910.74a1.56,1.56,0,0,1,2-1,1.59,1.59,0,0,1,1.1,1.51,1.69,1.69,0,0,1-.08.5l-3.2,9.6a1.57,1.57,0,0,1-1,1,1.6,1.6,0,0,1-2-1l-3.2-9.6a1.66,1.66,0,0,1-.08-.48,1.6,1.6,0,0,1,1.1-1.53,1.58,1.58,0,0,1,2,1l1.68,5Z" transform="translate(-645.42 -816.99)"/><path class="cls-1" d="M722.86,873.85l0,4.43,4.4-2.27Zm8.77,3.55-9.55,4.9a1.63,1.63,0,0,1-.72.18,1.6,1.6,0,0,1-1.62-1.58l-.1-9.6a1.58,1.58,0,0,1,2.3-1.45l9.65,4.68a1.57,1.57,0,0,1,.72.72A1.6,1.6,0,0,1,731.63,877.4Z" transform="translate(-645.42 -816.99)"/><path class="cls-3" d="M731.59,874.53l-9.65-4.68a1.58,1.58,0,0,0-2.3,1.45l.1,9.6a1.6,1.6,0,0,0,1.62,1.58,1.63,1.63,0,0,0,.72-.18l9.55-4.9,2.16,1.13-.1.25a9.56,9.56,0,0,1-9.1,6.87,9.33,9.33,0,0,1-6.81-2.74,9.6,9.6,0,0,1,6.61-16.46h.1a9.64,9.64,0,0,1,9.19,6.85l.1.25Z" transform="translate(-645.42 -816.99)"/><path class="cls-1" d="M718.09,911.26v9.58a1.6,1.6,0,1,1-3.19,0v-9.6a1.6,1.6,0,1,1,3.19,0Z" transform="translate(-645.42 -816.99)"/><circle class="cls-1" cx="69.48" cy="28.66" r="1.6"/><path class="cls-1" d="M724.59,885.65a9.56,9.56,0,0,0,9.1-6.87l.1-.25a1.63,1.63,0,0,1,1.89-.82,1.6,1.6,0,0,1,1.08,2,12.74,12.74,0,0,1-12.13,9.15h-.14a12.8,12.8,0,1,1,12.25-16.47,1.58,1.58,0,0,1-1.06,2,1.63,1.63,0,0,1-1.9-.83l-.1-.25a9.64,9.64,0,0,0-9.19-6.85h-.1a9.6,9.6,0,0,0-6.61,16.46A9.33,9.33,0,0,0,724.59,885.65Z" transform="translate(-645.42 -816.99)"/><path class="cls-3" d="M735.69,909.64a1.6,1.6,0,0,0-1.6,1.6h-3.2a1.59,1.59,0,0,0-1.1-1.51,1.56,1.56,0,0,0-2,1l-1.69,5-1.68-5a1.58,1.58,0,0,0-2-1,1.6,1.6,0,0,0-1.1,1.53h-3.19v0a1.6,1.6,0,1,0-3.19,0v9.6h-3.2a1.6,1.6,0,0,0-1.6-1.6h-4.8v-8a1.6,1.6,0,0,0-1.6-1.6v-4.8h38.39v4.8Z" transform="translate(-645.42 -816.99)"/><path class="cls-1" d="M710.1,892.05v-1.6a1.6,1.6,0,1,1,3.2,0v1.6h27.19a1.6,1.6,0,0,1,0,3.2H713.3v1.6a1.6,1.6,0,1,1-3.2,0v-1.6h-1.6a1.6,1.6,0,0,1,0-3.2Z" transform="translate(-645.42 -816.99)"/><circle class="cls-1" cx="63.08" cy="28.66" r="1.6"/><path class="cls-3" d="M703.7,901.64v-8h3.2a1.6,1.6,0,0,0,1.6,1.6h1.6v1.6a1.6,1.6,0,0,0,1.6,1.6v3.19Z" transform="translate(-645.42 -816.99)"/><path class="cls-1" d="M705.3,919.24h4.8a1.6,1.6,0,0,1,0,3.2h-6.4a1.59,1.59,0,0,1-1.6-1.6v-9.6a1.6,1.6,0,1,1,3.2,0Z" transform="translate(-645.42 -816.99)"/><path class="cls-1" d="M700.5,903.24V858.45a1.6,1.6,0,0,1,1.6-1.6h44.79a1.6,1.6,0,0,1,1.6,1.6v14.4a1.6,1.6,0,0,1-3.2,0v-12.8H703.7v41.59h41.59V879.25a1.6,1.6,0,0,1,3.2,0v24a1.6,1.6,0,0,1-1.6,1.6H702.1A1.59,1.59,0,0,1,700.5,903.24Z" transform="translate(-645.42 -816.99)"/><circle class="cls-1" cx="56.68" cy="28.66" r="1.6"/><path class="cls-3" d="M769.29,911.24h-16a1.6,1.6,0,1,0,0,3.2h16a1.6,1.6,0,0,0,0-3.2Zm-16-8a1.6,1.6,0,1,0,0,3.2h12.8a1.6,1.6,0,0,0,0-3.2Zm28.8,14.4h-28.8a1.6,1.6,0,0,0-1.6,1.6v6.4a1.6,1.6,0,0,0,1.6,1.6h28.8a1.6,1.6,0,0,0,1.6-1.6v-6.4A1.6,1.6,0,0,0,782.09,917.64Zm-84.79,12.8v-27.2h3.2a1.59,1.59,0,0,0,1.6,1.6h1.6v4.8a1.6,1.6,0,0,0-1.6,1.6v9.6a1.59,1.59,0,0,0,1.6,1.6h6.4a1.6,1.6,0,0,0,1.6-1.6h3.2a1.6,1.6,0,1,0,3.19,0v-9.58h3.19a1.66,1.66,0,0,0,.08.48l3.2,9.6a1.6,1.6,0,0,0,2,1,1.57,1.57,0,0,0,1-1l3.2-9.6a1.69,1.69,0,0,0,.08-.5h3.2v9.6a1.6,1.6,0,0,0,1.6,1.6h6.4a1.6,1.6,0,0,0,0-3.2h-4.8v-1.6h3.2a1.6,1.6,0,1,0,0-3.2h-3.2v-1.6h4.8a1.6,1.6,0,1,0,0-3.2v-4.8h4.8a1.6,1.6,0,0,0,1.6-1.6v-6.39h3.2a1.6,1.6,0,0,0,1.6,1.6h21.32v2.16a4.23,4.23,0,0,0-3,7.22l4.55,4.55a1.62,1.62,0,0,0,2.26,0l4.55-4.55a4.87,4.87,0,0,0,.75-1l3.43.33a1.75,1.75,0,0,0-.26.9v22.4Z" transform="translate(-645.42 -816.99)"/><path class="cls-3" d="M700.5,858.45v44.79h-3.2V876.05a1.6,1.6,0,1,0-3.2,0v56a1.6,1.6,0,0,0,1.6,1.6h92.79V936H662.43V890.68a2.83,2.83,0,0,0-2.83-2.83h0v-5.67h0a2.84,2.84,0,0,0,2.83-2.83V834H788.49v3.66H695.7a1.6,1.6,0,0,0-1.6,1.6v30.4a1.6,1.6,0,1,0,3.2,0v-16h49.59v3.2H702.1A1.6,1.6,0,0,0,700.5,858.45Z" transform="translate(-645.42 -816.99)"/><path class="cls-3" d="M702.1,847.25a1.6,1.6,0,1,0-1.6-1.6A1.6,1.6,0,0,0,702.1,847.25Zm14.4-1.6a1.6,1.6,0,1,0-1.6,1.6A1.6,1.6,0,0,0,716.5,845.65Zm-8-1.6a1.6,1.6,0,1,0,1.6,1.6A1.6,1.6,0,0,0,708.5,844.05Zm11.19,6.4H697.3v-9.6h22.39Z" transform="translate(-645.42 -816.99)"/><path class="cls-1" d="M719.69,850.45v-9.6H697.3v9.6Zm27.2,3.2H697.3v16a1.6,1.6,0,1,1-3.2,0v-30.4a1.6,1.6,0,0,1,1.6-1.6h92.79a1.6,1.6,0,0,1,1.6,1.6v62.39a1.6,1.6,0,0,1-1.6,1.6,1.65,1.65,0,0,1-1.34-.7,1.69,1.69,0,0,1-.26-.9V840.85h-64v9.6h59.2a1.6,1.6,0,1,1,0,3.2Z" transform="translate(-645.42 -816.99)"/><path class="cls-1" d="M697.3,930.44h89.59V908a1.75,1.75,0,0,1,.26-.9,1.68,1.68,0,0,1,1.34-.7,1.6,1.6,0,0,1,1.6,1.6v24a1.6,1.6,0,0,1-1.6,1.6H695.7a1.6,1.6,0,0,1-1.6-1.6v-56a1.6,1.6,0,1,1,3.2,0v54.39Z" transform="translate(-645.42 -816.99)"/></svg>