<svg id="圖層_1" data-name="圖層 1" xmlns="http://www.w3.org/2000/svg" viewBox="0 0 193.53 147.4"><defs><style>.cls-1{fill:#414143;}.cls-2{fill:#ececec;}.cls-3{fill:#fff;}.cls-4{fill:#ed9484;}.cls-5{fill:#8691c9;}</style></defs><title>live_26</title><path class="cls-1" d="M839.88,830.82v119A14.19,14.19,0,0,1,825.7,964H660.53a14.19,14.19,0,0,1-14.18-14.17v-119a14.21,14.21,0,0,1,14.18-14.18H825.7A14.21,14.21,0,0,1,839.88,830.82Zm-5.68,119v-119a8.5,8.5,0,0,0-8.5-8.51H660.53a8.51,8.51,0,0,0-8.5,8.51v119a8.51,8.51,0,0,0,8.5,8.5H825.7A8.5,8.5,0,0,0,834.2,949.87Z" transform="translate(-646.35 -816.64)"/><path class="cls-2" d="M834.2,830.82v119a8.5,8.5,0,0,1-8.5,8.5H660.53a8.51,8.51,0,0,1-8.5-8.5v-119a8.51,8.51,0,0,1,8.5-8.51H825.7A8.5,8.5,0,0,1,834.2,830.82Zm-5.67,107.71V830.82A2.84,2.84,0,0,0,825.7,828H660.53a2.84,2.84,0,0,0-2.83,2.85V879a2.82,2.82,0,0,0,2.82,2.83v5.68a2.83,2.83,0,0,0-2.82,2.84v48.18a2.83,2.83,0,0,0,2.83,2.83H825.7A2.83,2.83,0,0,0,828.53,938.53Zm.27,11.33a2.85,2.85,0,1,0-2.84,2.83A2.85,2.85,0,0,0,828.8,949.86Zm-11.35,0a2.84,2.84,0,1,0-2.83,2.83A2.84,2.84,0,0,0,817.45,949.86Z" transform="translate(-646.35 -816.64)"/><path class="cls-1" d="M660.52,887.51h0a2.84,2.84,0,0,1,2.84,2.84v45.34H822.86v-102H663.37V879a2.83,2.83,0,0,1-2.84,2.83h0A2.82,2.82,0,0,1,657.7,879V830.82a2.84,2.84,0,0,1,2.83-2.85H825.7a2.84,2.84,0,0,1,2.83,2.85V938.53a2.83,2.83,0,0,1-2.83,2.83H660.53a2.83,2.83,0,0,1-2.83-2.83V890.35A2.83,2.83,0,0,1,660.52,887.51Z" transform="translate(-646.35 -816.64)"/><path class="cls-1" d="M826,947a2.84,2.84,0,1,1-2.85,2.84A2.85,2.85,0,0,1,826,947Z" transform="translate(-646.35 -816.64)"/><circle class="cls-1" cx="168.26" cy="133.22" r="2.83"/><path class="cls-1" d="M788.25,849.84a17.54,17.54,0,0,1,.12,24.83l-.07.08a1.6,1.6,0,0,1-2.2-2.32A14.41,14.41,0,0,0,786,852.1l0,0a1.59,1.59,0,1,1,2.28-2.23Z" transform="translate(-646.35 -816.64)"/><path class="cls-3" d="M786.1,872.43a1.6,1.6,0,0,0,2.2,2.32l.07-.08a17.54,17.54,0,0,0-.12-24.83,1.59,1.59,0,1,0-2.28,2.23l0,0A14.41,14.41,0,0,1,786.1,872.43ZM777,861.13s0,0,0,0a1.57,1.57,0,0,1,.47,1.12,1.53,1.53,0,0,1-.45,1.13,1.59,1.59,0,1,0,2.26,2.25,4.77,4.77,0,0,0,0-6.76,1.61,1.61,0,0,0-2.27,0A1.6,1.6,0,0,0,777,861.13Zm4.51-6.81a1.59,1.59,0,0,0,0,2.25.13.13,0,0,0,.07.06,8,8,0,0,1,.05,11.3,1.63,1.63,0,0,0-.48,1.15,1.6,1.6,0,0,0,2.71,1.14,0,0,0,0,1,0,0,11.22,11.22,0,0,0-.07-15.81A1.6,1.6,0,0,0,781.5,854.32Zm41.36-20.67v102H780.69v-3.18a1.6,1.6,0,0,0,1.6-1.6v-4.8a1.59,1.59,0,0,0-1.6-1.58v-3.2a1.6,1.6,0,0,0,1.6-1.6V905.36a1.6,1.6,0,0,0-1.6-1.6h-8v-1.6a4.79,4.79,0,0,0-4.78-4.78H755.14V885.91a25.52,25.52,0,0,0-9.57-49.19v-3.07Z" transform="translate(-646.35 -816.64)"/><path class="cls-1" d="M783.77,854.37a11.22,11.22,0,0,1,.07,15.81,0,0,0,0,0,0,0,1.6,1.6,0,0,1-2.71-1.14,1.63,1.63,0,0,1,.48-1.15,8,8,0,0,0-.05-11.3.13.13,0,0,1-.07-.06,1.6,1.6,0,0,1,2.32-2.2Z" transform="translate(-646.35 -816.64)"/><path class="cls-1" d="M777.49,862.3a1.57,1.57,0,0,0-.47-1.12s0,0,0,0a1.6,1.6,0,0,1,0-2.25,1.61,1.61,0,0,1,2.27,0,4.77,4.77,0,0,1,0,6.76,1.59,1.59,0,1,1-2.26-2.25A1.53,1.53,0,0,0,777.49,862.3Z" transform="translate(-646.35 -816.64)"/><path class="cls-4" d="M779.09,929.31H766.32v-3.2a1.59,1.59,0,1,0,0-3.18h-4.8v-3.2h4.8a1.6,1.6,0,1,0,0-3.19h-4.8v-3.2h4.8a1.6,1.6,0,1,0,0-3.19V907h12.77v12.77a1.6,1.6,0,0,0,1.6,1.6v3.2a1.59,1.59,0,0,0-1.6,1.58Z" transform="translate(-646.35 -816.64)"/><path class="cls-1" d="M761.52,916.54h4.8a1.6,1.6,0,1,1,0,3.19h-4.8v3.2h4.8a1.59,1.59,0,1,1,0,3.18h-6.38a1.58,1.58,0,0,1-1.6-1.58V911.74a1.59,1.59,0,0,1,1.6-1.59h6.38a1.6,1.6,0,1,1,0,3.19h-4.8Z" transform="translate(-646.35 -816.64)"/><path class="cls-4" d="M758.34,911.74v12.79a1.58,1.58,0,0,0,1.6,1.58h6.38v3.2H748.76v-3.2a1.6,1.6,0,0,0,1.5-1L755,912.31a1.59,1.59,0,0,0,.1-.57Z" transform="translate(-646.35 -816.64)"/><path class="cls-3" d="M752,887v10.42H739.17V887A24.76,24.76,0,0,0,752,887Z" transform="translate(-646.35 -816.64)"/><path class="cls-3" d="M750.36,860.67a1.59,1.59,0,1,1-1.6,1.6A1.6,1.6,0,0,1,750.36,860.67Z" transform="translate(-646.35 -816.64)"/><path class="cls-5" d="M749.81,857.52a4.77,4.77,0,0,0,0,9.48,6.38,6.38,0,0,1-9-.43,6.47,6.47,0,0,1-1.65-4.3,6.36,6.36,0,0,1,10.64-4.75Z" transform="translate(-646.35 -816.64)"/><path class="cls-1" d="M752.06,911.2a1.59,1.59,0,0,1,3.08.54,1.59,1.59,0,0,1-.1.57l-4.78,12.77a1.6,1.6,0,0,1-1.5,1,1.58,1.58,0,0,1-1.5-1l-4.79-12.77a1.59,1.59,0,0,1,.94-2,1.58,1.58,0,0,1,2.05.94l3.3,8.78Z" transform="translate(-646.35 -816.64)"/><path class="cls-1" d="M739.17,911.74v12.79a1.59,1.59,0,0,1-3.18,0V911.74a1.59,1.59,0,1,1,3.18,0Z" transform="translate(-646.35 -816.64)"/><path class="cls-1" d="M750.36,860.67a1.59,1.59,0,1,0,1.6,1.6A1.59,1.59,0,0,0,750.36,860.67Zm-4.79,11.16a9.58,9.58,0,1,1,9.57-9.56A9.56,9.56,0,0,1,745.57,871.83Zm-4.75-5.26a6.38,6.38,0,0,0,9,.43,4.77,4.77,0,0,1,0-9.48,6.36,6.36,0,0,0-10.64,4.75A6.47,6.47,0,0,0,740.82,866.57Z" transform="translate(-646.35 -816.64)"/><path class="cls-3" d="M726.56,846.15l3.2-1.95a1.62,1.62,0,0,0,2.23.34s0,0,0,0a22.48,22.48,0,1,1-4.21,4.22,1.58,1.58,0,0,0-.27-2.23A1.52,1.52,0,0,0,726.56,846.15Zm19,25.68a9.58,9.58,0,1,0-9.58-9.56A9.56,9.56,0,0,0,745.57,871.83Zm6.79,1.24a12.81,12.81,0,1,1,4-4,1.6,1.6,0,0,0,2.7,1.7,16,16,0,1,0-5,5,1.6,1.6,0,0,0,.56-2.19,1.58,1.58,0,0,0-2.18-.56Z" transform="translate(-646.35 -816.64)"/><path class="cls-1" d="M754.06,848.69a16,16,0,0,1,5,22.06,1.6,1.6,0,0,1-2.7-1.7,12.78,12.78,0,1,0-4,4l.08-.05a1.58,1.58,0,0,1,2.18.56,1.6,1.6,0,0,1-.56,2.19,16,16,0,1,1,0-27.08Z" transform="translate(-646.35 -816.64)"/><path class="cls-1" d="M726.41,922.93h4.78a1.59,1.59,0,1,1,0,3.18h-6.38a1.59,1.59,0,0,1-1.6-1.58V911.74a1.6,1.6,0,0,1,3.2,0Z" transform="translate(-646.35 -816.64)"/><path class="cls-4" d="M712,907h12.77v3.19a1.6,1.6,0,0,0-1.6,1.59v12.79a1.59,1.59,0,0,0,1.6,1.58h6.38a1.59,1.59,0,0,0,1.6-1.58H736a1.59,1.59,0,0,0,1.6,1.58v3.2H712v-9.58a1.59,1.59,0,0,0-1.6-1.6v-3.19a1.59,1.59,0,0,0,1.6-1.6Z" transform="translate(-646.35 -816.64)"/><path class="cls-3" d="M769.5,903.76H721.63v-1.6a1.58,1.58,0,0,1,1.58-1.58h44.71a1.58,1.58,0,0,1,1.58,1.58Z" transform="translate(-646.35 -816.64)"/><path class="cls-1" d="M752,887a24.76,24.76,0,0,1-12.79,0v10.42H752Zm27.13,20H712v6.38a1.6,1.6,0,1,1-3.2,0v-8a1.6,1.6,0,0,1,1.6-1.6h8v-1.6a4.79,4.79,0,0,1,4.78-4.78H736V885.91a25.5,25.5,0,0,1-16-23.64,25.19,25.19,0,0,1,5.25-15.48s0,0,0,0a1.61,1.61,0,0,1,1.27-.6,1.52,1.52,0,0,1,1,.34,1.58,1.58,0,0,1,.27,2.23A22.36,22.36,0,1,0,732,844.5s0,0,0,0a1.6,1.6,0,0,1-1.9-2.57,25.19,25.19,0,0,1,15.48-5.25,25.52,25.52,0,0,1,9.57,49.19v11.47h12.78a4.79,4.79,0,0,1,4.78,4.78v1.6h8a1.6,1.6,0,0,1,1.6,1.6v14.37a1.6,1.6,0,1,1-3.2,0Zm-11.17-6.38H723.21a1.58,1.58,0,0,0-1.58,1.58v1.6H769.5v-1.6A1.58,1.58,0,0,0,767.92,900.58Z" transform="translate(-646.35 -816.64)"/><path class="cls-1" d="M714.11,861.18a1.59,1.59,0,0,0,0,2.25,1.58,1.58,0,0,1,.47,1.12,1.6,1.6,0,0,1-2.73,1.13,4.77,4.77,0,0,1,0-6.76,1.59,1.59,0,0,1,2.25,2.26Z" transform="translate(-646.35 -816.64)"/><path class="cls-1" d="M782.29,926.11v4.8a1.6,1.6,0,0,1-1.6,1.6H710.44a1.6,1.6,0,0,1-1.6-1.6V919.73a1.6,1.6,0,1,1,3.2,0v9.58h67.05v-3.2a1.6,1.6,0,0,1,3.2,0Z" transform="translate(-646.35 -816.64)"/><path class="cls-1" d="M707.29,870.18a11.21,11.21,0,0,1,.07-15.81l.08-.07a1.59,1.59,0,0,1,2.25.08,1.56,1.56,0,0,1-.08,2.25,8,8,0,0,0-.05,11.3s0,0,0,0a1.6,1.6,0,0,1,0,2.26A1.62,1.62,0,0,1,707.29,870.18Z" transform="translate(-646.35 -816.64)"/><path class="cls-3" d="M714.08,858.92a1.59,1.59,0,0,0-2.22,0,4.77,4.77,0,0,0,0,6.76,1.6,1.6,0,0,0,2.73-1.13,1.58,1.58,0,0,0-.47-1.12,1.59,1.59,0,0,1,0-2.25A1.6,1.6,0,0,0,714.08,858.92ZM705,872.43a14.37,14.37,0,0,1,.1-20.33,1.6,1.6,0,0,0-2.22-2.3s0,0,0,0a17.54,17.54,0,0,0-.12,24.83,1.59,1.59,0,1,0,2.3-2.2S705,872.43,705,872.43Zm2.33-18.06a11.21,11.21,0,0,0-.07,15.81,1.62,1.62,0,0,0,2.27.05,1.6,1.6,0,0,0,0-2.26s0,0,0,0a8,8,0,0,1,.05-11.3,1.56,1.56,0,0,0,.08-2.25,1.59,1.59,0,0,0-2.25-.08Zm-44-20.72h82.2v3.07A25.19,25.19,0,0,0,730.09,842a1.61,1.61,0,0,0-.33,2.23l-3.2,1.95a1.61,1.61,0,0,0-1.27.6s0,0,0,0A25.19,25.19,0,0,0,720,862.27a25.5,25.5,0,0,0,16,23.64v11.47H723.21a4.79,4.79,0,0,0-4.78,4.78v1.6h-8a1.6,1.6,0,0,0-1.6,1.6v8a1.6,1.6,0,0,0,1.6,1.6v3.19a1.6,1.6,0,0,0-1.6,1.6v11.18a1.6,1.6,0,0,0,1.6,1.6h70.25v3.18H663.37V890.35a2.84,2.84,0,0,0-2.84-2.84h0v-5.68h0a2.83,2.83,0,0,0,2.84-2.83Z" transform="translate(-646.35 -816.64)"/><path class="cls-1" d="M702.76,874.67a17.54,17.54,0,0,1,.12-24.83s0,0,0,0a1.6,1.6,0,0,1,2.22,2.3,14.37,14.37,0,0,0-.1,20.33s0,0,0,0a1.59,1.59,0,1,1-2.3,2.2Z" transform="translate(-646.35 -816.64)"/></svg>