<svg id="圖層_1" data-name="圖層 1" xmlns="http://www.w3.org/2000/svg" viewBox="0 0 193.53 147.4"><defs><style>.cls-1{fill:#414143;}.cls-2{fill:#ececec;}.cls-3{fill:#fff;}.cls-4{fill:#dbc9b1;}</style></defs><title>live_18</title><path class="cls-1" d="M839.41,830.71V949.77a14.19,14.19,0,0,1-14.18,14.16H660.06a14.19,14.19,0,0,1-14.18-14.16V830.71a14.21,14.21,0,0,1,14.18-14.18H825.23A14.21,14.21,0,0,1,839.41,830.71Zm-5.68,119.06V830.71a8.51,8.51,0,0,0-8.5-8.51H660.06a8.52,8.52,0,0,0-8.5,8.51V949.77a8.52,8.52,0,0,0,8.5,8.5H825.23A8.51,8.51,0,0,0,833.73,949.77Z" transform="translate(-645.88 -816.53)"/><path class="cls-2" d="M833.73,830.71V949.77a8.51,8.51,0,0,1-8.5,8.5H660.06a8.52,8.52,0,0,1-8.5-8.5V830.71a8.52,8.52,0,0,1,8.5-8.51H825.23A8.51,8.51,0,0,1,833.73,830.71Zm-5.67,107.71V830.71a2.83,2.83,0,0,0-2.83-2.83H660.06a2.83,2.83,0,0,0-2.83,2.83v48.18a2.83,2.83,0,0,0,2.81,2.84v5.68a2.82,2.82,0,0,0-2.81,2.83v48.18a2.84,2.84,0,0,0,2.83,2.85H825.23A2.84,2.84,0,0,0,828.06,938.42Zm.27,11.33a2.85,2.85,0,1,0-2.84,2.83A2.84,2.84,0,0,0,828.33,949.75Zm-11.35,0a2.84,2.84,0,1,0-2.84,2.83A2.83,2.83,0,0,0,817,949.75Z" transform="translate(-645.88 -816.53)"/><path class="cls-1" d="M660,887.41h0a2.82,2.82,0,0,1,2.83,2.83v45.35h159.5v-102H662.89v45.34a2.83,2.83,0,0,1-2.83,2.84h0a2.83,2.83,0,0,1-2.81-2.84V830.71a2.83,2.83,0,0,1,2.83-2.83H825.23a2.83,2.83,0,0,1,2.83,2.83V938.42a2.84,2.84,0,0,1-2.83,2.85H660.06a2.84,2.84,0,0,1-2.83-2.85V890.24A2.82,2.82,0,0,1,660,887.41Z" transform="translate(-645.88 -816.53)"/><path class="cls-1" d="M825.49,946.92a2.83,2.83,0,1,1-2.85,2.83A2.84,2.84,0,0,1,825.49,946.92Z" transform="translate(-645.88 -816.53)"/><circle class="cls-1" cx="168.26" cy="133.22" r="2.83"/><path class="cls-1" d="M760.13,894.39a1.63,1.63,0,1,1,0,3.25h-3.25v1.63h4.89a1.63,1.63,0,0,1,0,3.25h-6.52a1.63,1.63,0,0,1-1.63-1.63v-9.77a1.61,1.61,0,0,1,1.63-1.61h6.52a1.6,1.6,0,0,1,1.61,1.61,1.62,1.62,0,0,1-1.61,1.64h-4.89v1.63Z" transform="translate(-645.88 -816.53)"/><path class="cls-3" d="M752.08,924.5A11.37,11.37,0,0,1,731,920.44h22.48v3.31A1.63,1.63,0,0,0,752.08,924.5Z" transform="translate(-645.88 -816.53)"/><path class="cls-1" d="M749.13,879.34a9.67,9.67,0,0,0-6.89-2.86l.16-3.24a13,13,0,0,1,9,3.8,0,0,0,0,1,0,0,1.63,1.63,0,0,1-2.34,2.26Z" transform="translate(-645.88 -816.53)"/><path class="cls-3" d="M750.37,843.91a8.15,8.15,0,0,0-8.15-8.13v-2.23h80.17v102H742.22v-2.14a12.73,12.73,0,0,0,1.62-.08,14.66,14.66,0,0,0,11.06-7.23,1.62,1.62,0,0,0-.68-2.2,1.52,1.52,0,0,0-.77-.19v-3.31h31.1a1.64,1.64,0,0,0,1.63-1.64v-3.25a8.15,8.15,0,0,0-8.13-8.14,4.88,4.88,0,0,1-4.88-4.89V874.84a30.65,30.65,0,0,0-6.79-19.28,1.64,1.64,0,0,0-2.3-.26,1.6,1.6,0,0,0-.26.26l-3.3-1.95a1.63,1.63,0,0,0,1-2.88l0,0A30.66,30.66,0,0,0,750.37,845Z" transform="translate(-645.88 -816.53)"/><path class="cls-1" d="M743.94,901.41l-3.27-9.77a1.63,1.63,0,1,1,3.1-1l1.72,5.15,1.71-5.15a1.62,1.62,0,1,1,3.08,1L747,901.41a1.62,1.62,0,0,1-3.09,0Z" transform="translate(-645.88 -816.53)"/><path class="cls-3" d="M742.22,839a4.9,4.9,0,0,1,4.9,4.88v.4a33.39,33.39,0,0,0-4.9-.4,32,32,0,0,0-4.88.44v-.44A4.9,4.9,0,0,1,742.22,839Z" transform="translate(-645.88 -816.53)"/><path class="cls-3" d="M742.22,835.78a8.14,8.14,0,0,0-8.13,8.13v1.14a30.94,30.94,0,0,0-22.8,29.79V883a1.64,1.64,0,0,0,1.63,1.64v3.24a1.64,1.64,0,0,0-1.63,1.64v13a4.88,4.88,0,0,1-4.88,4.89,8.15,8.15,0,0,0-8.14,8.14v3.25a1.65,1.65,0,0,0,1.64,1.64h27.76a14.64,14.64,0,0,0,14.55,13v2.14H662.89V890.24a2.82,2.82,0,0,0-2.83-2.83h0v-5.68h0a2.83,2.83,0,0,0,2.83-2.84V833.55h79.33Z" transform="translate(-645.88 -816.53)"/><path class="cls-1" d="M737.67,883.94a1.63,1.63,0,0,1,0-2.3,6.67,6.67,0,0,1,9.21,0,1.66,1.66,0,0,1,0,2.27,1.61,1.61,0,0,1-2.29,0,3.35,3.35,0,0,0-4.62,0A1.59,1.59,0,0,1,737.67,883.94Z" transform="translate(-645.88 -816.53)"/><path class="cls-1" d="M737.34,891.12v9.77a1.63,1.63,0,1,1-3.25,0v-9.77a1.63,1.63,0,0,1,3.25,0Z" transform="translate(-645.88 -816.53)"/><path class="cls-1" d="M733.05,879.34a1.62,1.62,0,0,1,0-2.3,13,13,0,0,1,9.38-3.8l-.16,3.24a9.78,9.78,0,0,0-6.92,2.86A1.66,1.66,0,0,1,733.05,879.34Z" transform="translate(-645.88 -816.53)"/><path class="cls-4" d="M730.84,900.89a1.63,1.63,0,0,0-1.64-1.62h-4.88v-8.15a1.63,1.63,0,0,0-3.25,0v9.77a1.62,1.62,0,0,0,1.62,1.63h6.51A1.64,1.64,0,0,0,730.84,900.89Zm-17.92-16.26a1.65,1.65,0,0,0,1.64-1.64v-8.15a27.69,27.69,0,0,1,27.66-27.66,27.3,27.3,0,0,1,17.26,6.07,1.61,1.61,0,0,0,1,.36l3.3,1.95a1.65,1.65,0,0,0,0,2,27.32,27.32,0,0,1,6.07,17.19v27.74a8.16,8.16,0,0,0,8.15,8.15,4.89,4.89,0,0,1,4.88,4.88v1.62H701.52v-1.62a4.9,4.9,0,0,1,4.89-4.88,8.17,8.17,0,0,0,8.15-8.15v-13a1.65,1.65,0,0,0-1.64-1.64Zm40.7,6.49v9.77a1.63,1.63,0,0,0,1.63,1.63h6.52a1.63,1.63,0,0,0,0-3.25h-4.89v-1.63h3.25a1.63,1.63,0,1,0,0-3.25h-3.25v-1.63h4.89a1.62,1.62,0,0,0,1.61-1.64,1.6,1.6,0,0,0-1.61-1.61h-6.52A1.61,1.61,0,0,0,753.62,891.12ZM733,877a1.62,1.62,0,0,0,0,2.3,1.66,1.66,0,0,0,2.27,0,9.78,9.78,0,0,1,6.92-2.86,9.67,9.67,0,0,1,6.89,2.86,1.63,1.63,0,0,0,2.34-2.26,0,0,0,0,0,0,0A13,13,0,0,0,733,877Zm-2.3-2.31a16.3,16.3,0,0,1,23,0,1.63,1.63,0,0,0,2.79-1.15,1.57,1.57,0,0,0-.49-1.15,19.53,19.53,0,0,0-27.61,0,1.62,1.62,0,0,0,0,2.3A1.64,1.64,0,0,0,730.72,874.73Zm9.95,16.91,3.27,9.77a1.62,1.62,0,0,0,3.09,0l3.25-9.77a1.62,1.62,0,1,0-3.08-1l-1.71,5.15-1.72-5.15a1.63,1.63,0,1,0-3.1,1Zm-6.58-.52v9.77a1.63,1.63,0,1,0,3.25,0v-9.77a1.63,1.63,0,0,0-3.25,0Zm12.74-9.48a6.67,6.67,0,0,0-9.21,0,1.63,1.63,0,0,0,0,2.3,1.59,1.59,0,0,0,2.25,0,3.35,3.35,0,0,1,4.62,0,1.61,1.61,0,0,0,2.29,0A1.66,1.66,0,0,0,746.83,881.64Z" transform="translate(-645.88 -816.53)"/><path class="cls-1" d="M753.73,874.73a16.3,16.3,0,0,0-23,0,1.64,1.64,0,0,1-2.27,0,1.62,1.62,0,0,1,0-2.3,19.53,19.53,0,0,1,27.61,0,1.57,1.57,0,0,1,.49,1.15,1.63,1.63,0,0,1-2.79,1.15Z" transform="translate(-645.88 -816.53)"/><path class="cls-1" d="M724.32,899.27h4.88a1.63,1.63,0,1,1,0,3.25h-6.51a1.62,1.62,0,0,1-1.62-1.63v-9.77a1.63,1.63,0,0,1,3.25,0Z" transform="translate(-645.88 -816.53)"/><path class="cls-1" d="M742.22,835.78a8.15,8.15,0,0,1,8.15,8.13V845a30.66,30.66,0,0,1,11.15,5.69l0,0a1.63,1.63,0,0,1-2.07,2.52,27.3,27.3,0,0,0-17.26-6.07,27.69,27.69,0,0,0-27.66,27.66V883a1.64,1.64,0,1,1-3.27,0v-8.15a30.94,30.94,0,0,1,22.8-29.79v-1.14A8.14,8.14,0,0,1,742.22,835.78Zm4.9,8.13a4.89,4.89,0,0,0-9.78,0v.44a32,32,0,0,1,4.88-.44,33.39,33.39,0,0,1,4.9.4Z" transform="translate(-645.88 -816.53)"/><path class="cls-1" d="M742.22,933.45a14.64,14.64,0,0,1-14.55-13H699.91a1.65,1.65,0,0,1-1.64-1.64v-3.25a8.15,8.15,0,0,1,8.14-8.14,4.88,4.88,0,0,0,4.88-4.89v-13a1.64,1.64,0,1,1,3.27,0v13a8.17,8.17,0,0,1-8.15,8.15,4.9,4.9,0,0,0-4.89,4.88v1.62h81.41v-1.62a4.89,4.89,0,0,0-4.88-4.88,8.16,8.16,0,0,1-8.15-8.15V874.78a27.32,27.32,0,0,0-6.07-17.19,1.65,1.65,0,0,1,0-2,1.6,1.6,0,0,1,.26-.26,1.64,1.64,0,0,1,2.3.26,30.65,30.65,0,0,1,6.79,19.28v27.68a4.88,4.88,0,0,0,4.88,4.89,8.15,8.15,0,0,1,8.13,8.14v3.25a1.64,1.64,0,0,1-1.63,1.64H731a11.37,11.37,0,0,0,21.11,4.06,1.63,1.63,0,0,1,1.37-.75,1.52,1.52,0,0,1,.77.19,1.62,1.62,0,0,1,.68,2.2,14.66,14.66,0,0,1-11.06,7.23A12.73,12.73,0,0,1,742.22,933.45Z" transform="translate(-645.88 -816.53)"/></svg>