<svg id="圖層_1" data-name="圖層 1" xmlns="http://www.w3.org/2000/svg" viewBox="0 0 193.51 147.42"><defs><style>.cls-1{fill:#414143;}.cls-2{fill:#dbc9b1;}.cls-3{fill:#8691c9;}.cls-4{fill:#fff;}</style></defs><title>live_15</title><path class="cls-1" d="M744.74,804.34v119a14.19,14.19,0,0,1-14.17,14.18H565.39a14.18,14.18,0,0,1-14.16-14.18v-119a14.18,14.18,0,0,1,14.16-14.18H730.57A14.19,14.19,0,0,1,744.74,804.34Zm-5.67,119v-119a8.51,8.51,0,0,0-8.5-8.5H565.39a8.51,8.51,0,0,0-8.5,8.5v119a8.51,8.51,0,0,0,8.5,8.5H730.57A8.5,8.5,0,0,0,739.07,923.39Z" transform="translate(-551.23 -790.16)"/><path class="cls-2" d="M739.07,804.34v119a8.5,8.5,0,0,1-8.5,8.5H565.39a8.51,8.51,0,0,1-8.5-8.5v-119a8.51,8.51,0,0,1,8.5-8.5H730.57A8.51,8.51,0,0,1,739.07,804.34Zm-5.66,107.72V804.34a2.84,2.84,0,0,0-2.84-2.84H565.39a2.84,2.84,0,0,0-2.83,2.84v48.19a2.84,2.84,0,0,0,2.83,2.84V861a2.83,2.83,0,0,0-2.83,2.83v48.2a2.83,2.83,0,0,0,2.83,2.83H730.57A2.83,2.83,0,0,0,733.41,912.06Zm.25,11.33a2.84,2.84,0,1,0-2.84,2.83A2.85,2.85,0,0,0,733.66,923.39Zm-11.34,0a2.83,2.83,0,1,0-2.83,2.83A2.84,2.84,0,0,0,722.32,923.39Z" transform="translate(-551.23 -790.16)"/><path class="cls-1" d="M565.39,855.37a2.84,2.84,0,0,1-2.83-2.84V804.34a2.84,2.84,0,0,1,2.83-2.84H730.57a2.84,2.84,0,0,1,2.84,2.84V912.06a2.83,2.83,0,0,1-2.84,2.83H565.39a2.83,2.83,0,0,1-2.83-2.83v-48.2a2.84,2.84,0,0,1,5.68,0v45.37h159.5V807.17H568.24v45.36A2.85,2.85,0,0,1,565.39,855.37Z" transform="translate(-551.23 -790.16)"/><path class="cls-1" d="M730.82,920.54a2.84,2.84,0,1,1-2.83,2.85A2.85,2.85,0,0,1,730.82,920.54Z" transform="translate(-551.23 -790.16)"/><path class="cls-1" d="M719.49,920.54a2.84,2.84,0,1,1-2.83,2.85A2.84,2.84,0,0,1,719.49,920.54Z" transform="translate(-551.23 -790.16)"/><path class="cls-3" d="M695.06,861.81v6.6a1.65,1.65,0,0,1-1.65,1.65h-1.65v-9.9h1.65A1.65,1.65,0,0,1,695.06,861.81Z" transform="translate(-551.23 -790.16)"/><path class="cls-3" d="M688.46,856.88v16.47a5,5,0,0,1-4.93,4.95h-1.65V851.93h1.65A5,5,0,0,1,688.46,856.88Z" transform="translate(-551.23 -790.16)"/><path class="cls-4" d="M691.76,856.88a8.24,8.24,0,0,0-8.23-8.25h-1.95A5,5,0,0,0,680,846.4a30.94,30.94,0,0,0-9.74-19,8.59,8.59,0,0,0,1.44-1.69,6.46,6.46,0,0,0,.5-1A34.48,34.48,0,0,1,683,844a1.67,1.67,0,0,0,1.61,1.35l.3,0a1.67,1.67,0,0,0,1.33-1.92A37.87,37.87,0,0,0,672.91,821a7.3,7.3,0,0,0-.25-1.73,7.91,7.91,0,0,0-3.91-5.07,41,41,0,0,0-19.83-5.11v-1.92h78.82V909.23H660.45V908a5,5,0,0,0,4.66-3.37,23.06,23.06,0,0,0,21.7-23v-.7a8.25,8.25,0,0,0,5-7.55h1.65a4.94,4.94,0,0,0,5-4.94v-6.6a4.94,4.94,0,0,0-5-4.93Z" transform="translate(-551.23 -790.16)"/><path class="cls-4" d="M678.58,850.28V880a1.65,1.65,0,0,1-1.65,1.65h-1.65v-33h1.65A1.65,1.65,0,0,1,678.58,850.28Z" transform="translate(-551.23 -790.16)"/><path class="cls-3" d="M662.18,825.64a27.81,27.81,0,0,0-26.53,0,5,5,0,0,1-6.7-1.7,4.87,4.87,0,0,1-.6-3.85,4.81,4.81,0,0,1,2.32-3,37.83,37.83,0,0,1,36.48,0,4.82,4.82,0,0,1,2.33,3,5,5,0,0,1-7.3,5.55Z" transform="translate(-551.23 -790.16)"/><path class="cls-4" d="M662.1,903a1.65,1.65,0,0,1-1.65,1.65h-3.29a1.65,1.65,0,0,1,0-3.3h3.29A1.66,1.66,0,0,1,662.1,903Z" transform="translate(-551.23 -790.16)"/><path class="cls-4" d="M656.85,859.18l3.15,2.15a1.7,1.7,0,0,0,0,1.65l0,.07a13.21,13.21,0,0,1-21.86,14.81l4.62-1.68a1.65,1.65,0,0,0,1.15.48,1.69,1.69,0,0,0,.75-.18l9.88-4.93a1.65,1.65,0,0,0,.73-2.22,1.57,1.57,0,0,0-.73-.73l-9.88-5a1.67,1.67,0,0,0-2,.35l-4.64-1.58a13.24,13.24,0,0,1,17.8-3.5A1.56,1.56,0,0,0,656.85,859.18Z" transform="translate(-551.23 -790.16)"/><polygon class="cls-4" points="98.95 79.91 94.39 82.17 94.39 77.63 98.95 79.91"/><path class="cls-1" d="M645.42,849.12a1.67,1.67,0,0,1,0-2.34,5.09,5.09,0,0,1,7,0,1.65,1.65,0,1,1-2.34,2.34,1.69,1.69,0,0,0-2.33,0A1.64,1.64,0,0,1,645.42,849.12Z" transform="translate(-551.23 -790.16)"/><path class="cls-1" d="M650.18,870.06l-4.56-2.28v4.55ZM642.33,875v-9.89a1.65,1.65,0,0,1,.17-.75,1.36,1.36,0,0,1,.27-.38,1.67,1.67,0,0,1,2-.35l9.88,5a1.57,1.57,0,0,1,.73.73,1.65,1.65,0,0,1-.73,2.22l-9.88,4.93a1.69,1.69,0,0,1-.75.18,1.65,1.65,0,0,1-1.15-.48A1.55,1.55,0,0,1,642.33,875Z" transform="translate(-551.23 -790.16)"/><path class="cls-1" d="M640.77,842.13a11.54,11.54,0,0,1,16.31,0,1.64,1.64,0,0,1-1.17,2.8,1.55,1.55,0,0,1-1.16-.48,8.29,8.29,0,0,0-11.67,0,1.64,1.64,0,0,1-2.31-2.32Z" transform="translate(-551.23 -790.16)"/><path class="cls-4" d="M637.7,877.13a13.21,13.21,0,0,1,.43-14.73l4.64,1.58a1.36,1.36,0,0,0-.27.38,1.65,1.65,0,0,0-.17.75V875a1.55,1.55,0,0,0,.49,1.18l-4.62,1.68A7.25,7.25,0,0,1,637.7,877.13Z" transform="translate(-551.23 -790.16)"/><path class="cls-1" d="M636.1,837.47a18.14,18.14,0,0,1,25.63,0,1.59,1.59,0,0,1,.48,1.16,1.65,1.65,0,0,1-1.65,1.65,1.69,1.69,0,0,1-1.16-.48,14.85,14.85,0,0,0-21,0,1.65,1.65,0,0,1-2.33-2.33Z" transform="translate(-551.23 -790.16)"/><path class="cls-1" d="M637.38,891.48H644a1.65,1.65,0,1,1,0,3.3H639v3.3H644a1.64,1.64,0,1,1,0,3.28H639v3.3H644a1.65,1.65,0,0,1,0,3.3h-6.59a1.65,1.65,0,0,1-1.65-1.65V893.13A1.65,1.65,0,0,1,637.38,891.48Z" transform="translate(-551.23 -790.16)"/><path class="cls-1" d="M655.93,881.28a13.21,13.21,0,0,0,4.13-18.23l0-.07a1.7,1.7,0,0,1,0-1.65,2,2,0,0,1,.6-.62,1.65,1.65,0,0,1,2.26.59,16.46,16.46,0,1,1-5.18-5.18l.07,0a1.64,1.64,0,0,1,.46,2.28,1.61,1.61,0,0,1-1.36.73,1.56,1.56,0,0,1-.92-.28,13.22,13.22,0,0,0-18.23,18.23,7.25,7.25,0,0,0,.5.73A13.21,13.21,0,0,0,655.93,881.28Z" transform="translate(-551.23 -790.16)"/><path class="cls-1" d="M627.38,906.89a1.62,1.62,0,0,1-1,1,1.67,1.67,0,0,1-.57.1,1.64,1.64,0,0,1-1.55-1.07l-4.95-13.18a1.85,1.85,0,0,1-.1-.57,1.7,1.7,0,0,1,1.09-1.56,1.63,1.63,0,0,1,2.11,1l3.4,9.05,3.4-9.07a1.65,1.65,0,1,1,3.08,1.17Z" transform="translate(-551.23 -790.16)"/><path class="cls-4" d="M624.3,906.89a1.64,1.64,0,0,0,1.55,1.07v1.27H614.32V908a1.63,1.63,0,0,0,1.63-1.65V893.14h3.3a1.85,1.85,0,0,0,.1.57Z" transform="translate(-551.23 -790.16)"/><path class="cls-1" d="M616,893.14v13.17a1.64,1.64,0,1,1-3.28,0V893.13a1.64,1.64,0,1,1,3.28,0Z" transform="translate(-551.23 -790.16)"/><path class="cls-3" d="M616,851.93V878.3h-1.63a5,5,0,0,1-5-4.95V856.88a5,5,0,0,1,5-5Z" transform="translate(-551.23 -790.16)"/><path class="cls-4" d="M609.37,906.31a1.64,1.64,0,0,0-1.65-1.65h-5V893.13a1.64,1.64,0,1,0-3.28,0v13.18a1.64,1.64,0,0,0,1.65,1.65h6.58A1.64,1.64,0,0,0,609.37,906.31ZM644,908a1.65,1.65,0,0,0,0-3.3H639v-3.3H644a1.64,1.64,0,1,0,0-3.28H639v-3.3H644a1.65,1.65,0,1,0,0-3.3h-6.59a1.65,1.65,0,0,0-1.65,1.65v13.18a1.65,1.65,0,0,0,1.65,1.65Zm-5.54-68.16a14.85,14.85,0,0,1,21,0,1.69,1.69,0,0,0,1.16.48,1.65,1.65,0,0,0,1.65-1.65,1.59,1.59,0,0,0-.48-1.16,18.14,18.14,0,0,0-25.63,0,1.65,1.65,0,0,0,2.33,2.33Zm9.32,9.32a1.69,1.69,0,0,1,2.33,0,1.65,1.65,0,1,0,2.34-2.34,5.09,5.09,0,0,0-7,0,1.67,1.67,0,0,0,0,2.34A1.64,1.64,0,0,0,647.75,849.12Zm-7-4.67a1.63,1.63,0,0,0,2.28,0,8.29,8.29,0,0,1,11.67,0,1.55,1.55,0,0,0,1.16.48,1.64,1.64,0,0,0,1.17-2.8,11.54,11.54,0,0,0-16.31,0A1.63,1.63,0,0,0,640.8,844.45ZM657.16,908h3.29v1.27h-34.6V908a1.67,1.67,0,0,0,.57-.1,1.62,1.62,0,0,0,1-1l5-13.18a1.65,1.65,0,1,0-3.08-1.17l-3.4,9.07-3.4-9.05a1.63,1.63,0,0,0-2.11-1,1.7,1.7,0,0,0-1.09,1.56H616a1.64,1.64,0,1,0-3.28,0v13.18a1.64,1.64,0,0,0,1.65,1.65v1.27H568.24V863.86a2.84,2.84,0,0,0-2.85-2.83v-5.66a2.85,2.85,0,0,0,2.85-2.84V807.17h80.68v1.92a41,41,0,0,0-19.84,5.11,7.91,7.91,0,0,0-3.91,5.07,7.15,7.15,0,0,0-.25,1.72,37.61,37.61,0,0,0-13.87,28.33,8.3,8.3,0,0,0-5,7.56h-1.65a4.92,4.92,0,0,0-4.93,4.93v6.6a4.92,4.92,0,0,0,4.93,4.94h1.65a8.28,8.28,0,0,0,8.25,8.25h1.95a5,5,0,0,0,4.63,3.3h3.3a1.65,1.65,0,0,0,1.65-1.65v-5a1.65,1.65,0,1,0-3.3,0v3.3H620.9a1.66,1.66,0,0,1-1.65-1.65V850.28a1.66,1.66,0,0,1,1.65-1.65h1.65V871.7a1.65,1.65,0,1,0,3.3,0V847a1.65,1.65,0,0,0-1.65-1.65h-3.3a5,5,0,0,0-4.63,3.3h-1.92a34.35,34.35,0,0,1,11.33-24,7.34,7.34,0,0,0,.59,1.15,8,8,0,0,0,1.31,1.6,31.51,31.51,0,0,0-8.14,12.43,1.65,1.65,0,0,0,1,2.1,1.42,1.42,0,0,0,.55.1,1.65,1.65,0,0,0,1.55-1.1,28.12,28.12,0,0,1,8-11.78,8.06,8.06,0,0,0,2.57.43,8.73,8.73,0,0,0,4.11-1.06,24.88,24.88,0,0,1,23.38,0,8.37,8.37,0,0,0,6.64.61,27.6,27.6,0,0,1,9.21,16.18h-2.83A1.66,1.66,0,0,0,672,847v36.27a1.66,1.66,0,0,0,1.65,1.65h3.3a5,5,0,0,0,4.65-3.3h1.95a19.78,19.78,0,0,1-18.47,19.69,4.91,4.91,0,0,0-4.61-3.21h-3.29a4.94,4.94,0,1,0,0,9.88Zm.52-51.84a16.52,16.52,0,1,0,5.18,5.18,1.65,1.65,0,0,0-2.26-.59,2,2,0,0,0-.6.62l-3.15-2.15a1.61,1.61,0,0,0,1.36-.73,1.64,1.64,0,0,0-.46-2.28Z" transform="translate(-551.23 -790.16)"/><path class="cls-3" d="M606.07,860.16v9.9h-1.65a1.66,1.66,0,0,1-1.65-1.65v-6.6a1.66,1.66,0,0,1,1.65-1.65Z" transform="translate(-551.23 -790.16)"/><path class="cls-1" d="M606.07,860.16h-1.65a1.66,1.66,0,0,0-1.65,1.65v6.6a1.66,1.66,0,0,0,1.65,1.65h1.65Zm3.3,13.19a5,5,0,0,0,5,4.95H616V851.93h-1.63a5,5,0,0,0-5,5Zm69.21,6.6V850.28a1.65,1.65,0,0,0-1.65-1.65h-1.65v33h1.65A1.65,1.65,0,0,0,678.58,880Zm-42.93-54.31a27.81,27.81,0,0,1,26.53,0,5,5,0,0,0,7.3-5.55,4.82,4.82,0,0,0-2.33-3,37.83,37.83,0,0,0-36.48,0,4.81,4.81,0,0,0-2.32,3,4.87,4.87,0,0,0,.6,3.85A5,5,0,0,0,635.65,825.64Zm21.51,75.72a1.65,1.65,0,0,0,0,3.3h3.29a1.65,1.65,0,0,0,0-3.3Zm34.6-31.3h1.65a1.65,1.65,0,0,0,1.65-1.65v-6.6a1.65,1.65,0,0,0-1.65-1.65h-1.65Zm-8.23,8.24a5,5,0,0,0,4.93-4.95V856.88a5,5,0,0,0-4.93-5h-1.65V878.3ZM672.91,821a37.87,37.87,0,0,1,13.28,22.4,1.67,1.67,0,0,1-1.33,1.92l-.3,0A1.67,1.67,0,0,1,683,844a34.48,34.48,0,0,0-10.8-19.28,6.46,6.46,0,0,1-.5,1,8.59,8.59,0,0,1-1.44,1.69,30.94,30.94,0,0,1,9.74,19,5,5,0,0,1,1.63,2.23h1.95a8.24,8.24,0,0,1,8.23,8.25h1.65a4.94,4.94,0,0,1,5,4.93v6.6a4.94,4.94,0,0,1-5,4.94h-1.65a8.25,8.25,0,0,1-5,7.55v.7a23.06,23.06,0,0,1-21.7,23,5,5,0,0,1-4.66,3.37h-3.29a4.94,4.94,0,1,1,0-9.88h3.29a4.91,4.91,0,0,1,4.61,3.21,19.78,19.78,0,0,0,18.47-19.69h-1.95a5,5,0,0,1-4.65,3.3h-3.3a1.66,1.66,0,0,1-1.65-1.65V847a1.66,1.66,0,0,1,1.65-1.65h2.83a27.6,27.6,0,0,0-9.21-16.18,8.37,8.37,0,0,1-6.64-.61,24.88,24.88,0,0,0-23.38,0,8.73,8.73,0,0,1-4.11,1.06,8.06,8.06,0,0,1-2.57-.43,28.12,28.12,0,0,0-8,11.78,1.65,1.65,0,0,1-1.55,1.1,1.42,1.42,0,0,1-.55-.1,1.65,1.65,0,0,1-1-2.1,31.51,31.51,0,0,1,8.14-12.43,8,8,0,0,1-1.31-1.6,7.34,7.34,0,0,1-.59-1.15,34.35,34.35,0,0,0-11.33,24h1.92a5,5,0,0,1,4.63-3.3h3.3a1.65,1.65,0,0,1,1.65,1.65V871.7a1.65,1.65,0,1,1-3.3,0V848.63H620.9a1.66,1.66,0,0,0-1.65,1.65V880a1.66,1.66,0,0,0,1.65,1.65h1.65v-3.3a1.65,1.65,0,1,1,3.3,0v5a1.65,1.65,0,0,1-1.65,1.65h-3.3a5,5,0,0,1-4.63-3.3h-1.95a8.28,8.28,0,0,1-8.25-8.25h-1.65a4.92,4.92,0,0,1-4.93-4.94v-6.6a4.92,4.92,0,0,1,4.93-4.93h1.65a8.3,8.3,0,0,1,5-7.56A37.61,37.61,0,0,1,624.92,821a7.15,7.15,0,0,1,.25-1.72,7.91,7.91,0,0,1,3.91-5.07,41.05,41.05,0,0,1,39.67,0,7.91,7.91,0,0,1,3.91,5.07A7.3,7.3,0,0,1,672.91,821Z" transform="translate(-551.23 -790.16)"/><path class="cls-1" d="M599.49,906.31V893.13a1.64,1.64,0,1,1,3.28,0v11.53h5a1.65,1.65,0,0,1,0,3.3h-6.58A1.64,1.64,0,0,1,599.49,906.31Z" transform="translate(-551.23 -790.16)"/></svg>