<svg id="圖層_1" data-name="圖層 1" xmlns="http://www.w3.org/2000/svg" viewBox="0 0 193.51 147.4"><defs><style>.cls-1{fill:#414143;}.cls-2{fill:#ececec;}.cls-3{fill:#fff;}.cls-4{fill:#8691c9;}.cls-5{fill:#dbc9b1;}</style></defs><title>live_5</title><path class="cls-1" d="M744.53,805v119a14.18,14.18,0,0,1-14.16,14.18H565.19A14.19,14.19,0,0,1,551,924.05V805a14.18,14.18,0,0,1,14.17-14.17H730.37A14.18,14.18,0,0,1,744.53,805Zm-5.66,119V805a8.51,8.51,0,0,0-8.5-8.5H565.19a8.51,8.51,0,0,0-8.5,8.5v119a8.52,8.52,0,0,0,8.5,8.52H730.37A8.52,8.52,0,0,0,738.87,924.05Z" transform="translate(-551.02 -790.83)"/><path class="cls-2" d="M738.87,805v119a8.52,8.52,0,0,1-8.5,8.52H565.19a8.52,8.52,0,0,1-8.5-8.52V805a8.51,8.51,0,0,1,8.5-8.5H730.37A8.51,8.51,0,0,1,738.87,805ZM733.2,912.72V805a2.83,2.83,0,0,0-2.83-2.84H565.19a2.84,2.84,0,0,0-2.84,2.84v48.19a2.84,2.84,0,0,0,2.84,2.84v5.66a2.84,2.84,0,0,0-2.84,2.83v48.2a2.83,2.83,0,0,0,2.84,2.83H730.37A2.82,2.82,0,0,0,733.2,912.72Zm.25,11.33a2.83,2.83,0,1,0-2.83,2.83A2.82,2.82,0,0,0,733.45,924.05Zm-11.33,0a2.84,2.84,0,1,0-2.83,2.83A2.83,2.83,0,0,0,722.12,924.05Z" transform="translate(-551.02 -790.83)"/><path class="cls-1" d="M565.19,861.69a2.85,2.85,0,0,1,2.85,2.83v45.37h159.5V807.83H568v45.36a2.85,2.85,0,0,1-5.69,0V805a2.84,2.84,0,0,1,2.84-2.84H730.37A2.83,2.83,0,0,1,733.2,805V912.72a2.82,2.82,0,0,1-2.83,2.83H565.19a2.83,2.83,0,0,1-2.84-2.83v-48.2A2.84,2.84,0,0,1,565.19,861.69Z" transform="translate(-551.02 -790.83)"/><circle class="cls-1" cx="179.6" cy="133.22" r="2.83"/><circle class="cls-1" cx="168.26" cy="133.22" r="2.83"/><rect class="cls-3" x="131.12" y="56.49" width="3.25" height="3.25"/><path class="cls-1" d="M682.14,850.58h3.25v-3.25h-3.25Zm0,3.25a3.24,3.24,0,0,1-3.25-3.25v-3.25a3.26,3.26,0,0,1,3.25-3.27h3.25a3.28,3.28,0,0,1,3.27,3.27v3.25a3.26,3.26,0,0,1-3.27,3.25Z" transform="translate(-551.02 -790.83)"/><path class="cls-3" d="M677.26,905.89a1.63,1.63,0,0,0,1.63,1.63v2.37H649.61v-2.37a1.62,1.62,0,0,0,1.62-1.63V901h26Z" transform="translate(-551.02 -790.83)"/><path class="cls-3" d="M672.29,819.75a11.25,11.25,0,0,0-6.95-3.29l.24-3.23a14.5,14.5,0,0,1,9,4.22,1.63,1.63,0,0,0,2.3-2.3,17.84,17.84,0,0,0-12.67-5.24v-2.08h63.3V909.89H678.89v-2.37a1.63,1.63,0,0,0,1.63-1.63v-6.5a1.64,1.64,0,0,0-1.63-1.64h-8.13V894.5H674a1.63,1.63,0,0,0,1.63-1.63v-9h14.63a4.88,4.88,0,0,0,4.89-4.88v-12.2a1.63,1.63,0,0,0-1.62-1.62V862a1.63,1.63,0,0,0,1.62-1.62V843.26a4.88,4.88,0,0,0-4.89-4.88H677.76a1.65,1.65,0,0,1-1.5-1l-1.53-3.47a4.92,4.92,0,0,0-4.45-2.9h-3.75v-3.93a1.55,1.55,0,0,0,1.16-.5,1.61,1.61,0,0,0,0-2.26,4.88,4.88,0,0,0-3-1.42l.13-3.23a7.89,7.89,0,0,1,5.15,2.35,1.68,1.68,0,0,0,1.15.48,1.64,1.64,0,0,0,1.64-1.63A1.56,1.56,0,0,0,672.29,819.75Z" transform="translate(-551.02 -790.83)"/><path class="cls-3" d="M672.38,883.92v7.32H656.11v-1.62a1.63,1.63,0,0,0-1.62-1.63v-4.07Z" transform="translate(-551.02 -790.83)"/><path class="cls-1" d="M667.51,839.19a1.63,1.63,0,0,1,0,3.25H661a1.63,1.63,0,1,1,0-3.25Z" transform="translate(-551.02 -790.83)"/><path class="cls-3" d="M667.69,856.88a1.63,1.63,0,0,1,0,2.31,1.69,1.69,0,0,1-2.3,0,1.63,1.63,0,0,1,1.15-2.78A1.62,1.62,0,0,1,667.69,856.88Z" transform="translate(-551.02 -790.83)"/><rect class="cls-3" x="109.97" y="103.67" width="6.52" height="3.25"/><path class="cls-1" d="M667.69,826.61a1.55,1.55,0,0,1-1.16.5,1.65,1.65,0,0,1-1.14-.46,1.62,1.62,0,0,0-2.3,0,1.61,1.61,0,0,1-2.25,0,1.64,1.64,0,0,1-.05-2.3,5,5,0,0,1,3.92-1.42,4.88,4.88,0,0,1,3,1.42A1.61,1.61,0,0,1,667.69,826.61Z" transform="translate(-551.02 -790.83)"/><path class="cls-3" d="M667.69,863.79a5,5,0,0,1-6.9,0,4.85,4.85,0,0,1,0-6.85,4.93,4.93,0,0,1,1.42-1,4.85,4.85,0,0,0,6.48,6.48A4.49,4.49,0,0,1,667.69,863.79Z" transform="translate(-551.02 -790.83)"/><path class="cls-1" d="M660.79,863.79a5,5,0,0,0,6.9,0,4.49,4.49,0,0,0,.95-1.37,4.85,4.85,0,0,1-6.48-6.48,4.93,4.93,0,0,0-1.42,1A4.85,4.85,0,0,0,660.79,863.79Zm11.59-3.45a8.14,8.14,0,1,1-8.14-8.13,8.13,8.13,0,0,1,8.14,8.13Zm-7-1.15a1.69,1.69,0,0,0,2.3,0,1.63,1.63,0,1,0-2.3,0Z" transform="translate(-551.02 -790.83)"/><path class="cls-1" d="M656.19,819.75a11.4,11.4,0,0,1,9.15-3.29,11.25,11.25,0,0,1,6.95,3.29,1.56,1.56,0,0,1,.49,1.15,1.64,1.64,0,0,1-1.64,1.63,1.68,1.68,0,0,1-1.15-.48,7.89,7.89,0,0,0-5.15-2.35,8,8,0,0,0-6.35,2.35l0,0a1.64,1.64,0,0,1-2.77-1.17A1.58,1.58,0,0,1,656.19,819.75Z" transform="translate(-551.02 -790.83)"/><path class="cls-4" d="M639.85,847.33a1.62,1.62,0,0,0-1.64,1.61,1.65,1.65,0,0,0,1.64,1.64h6.5a1.65,1.65,0,0,0,1.63-1.64,1.62,1.62,0,0,0-1.63-1.61Zm29.28-6.52a1.63,1.63,0,0,0-1.62-1.62H661a1.63,1.63,0,1,0,0,3.25h6.52A1.63,1.63,0,0,0,669.13,840.81Zm3.25,19.53a8.14,8.14,0,1,0-8.14,8.13A8.09,8.09,0,0,0,672.38,860.34Zm.91-21.61a4.91,4.91,0,0,0,4.47,2.9h12.51a1.64,1.64,0,0,1,1.64,1.63v17.08a1.62,1.62,0,0,0,1.63,1.62v3.26a1.62,1.62,0,0,0-1.63,1.62V879a1.64,1.64,0,0,1-1.64,1.63H638.21A1.61,1.61,0,0,1,636.6,879V843.26a1.61,1.61,0,0,1,1.61-1.63h12.53a4.88,4.88,0,0,0,4.47-2.9l1.53-3.45a1.63,1.63,0,0,1,1.49-1h12a1.62,1.62,0,0,1,1.48,1Zm8.85,5.33a3.26,3.26,0,0,0-3.25,3.27v3.25a3.24,3.24,0,0,0,3.25,3.25h3.25a3.26,3.26,0,0,0,3.27-3.25v-3.25a3.28,3.28,0,0,0-3.27-3.27Zm-7.51,8.27a1.63,1.63,0,0,0-.59,2.23,11.21,11.21,0,0,1,1.6,5.8,11.42,11.42,0,1,1-5.61-9.83,1.63,1.63,0,0,0,1.68-2.79h0a14.65,14.65,0,0,0-20,5.15,14.47,14.47,0,0,0-2,7.46,14.64,14.64,0,1,0,27.25-7.43A1.64,1.64,0,0,0,674.63,852.33Zm-25,21a1.63,1.63,0,1,0-3.26,0,1.63,1.63,0,0,0,3.26,0Z" transform="translate(-551.02 -790.83)"/><path class="cls-1" d="M664.24,809.91a17.84,17.84,0,0,1,12.67,5.24,1.63,1.63,0,0,1-2.3,2.3,14.68,14.68,0,0,0-20.72,0,1.63,1.63,0,0,1-2.3-2.3A17.85,17.85,0,0,1,664.24,809.91Z" transform="translate(-551.02 -790.83)"/><path class="cls-3" d="M652.86,892.87a1.63,1.63,0,0,0,1.63,1.63h3.25v3.25h-8.13a1.64,1.64,0,0,0-1.63,1.64v6.5a1.63,1.63,0,0,0,1.63,1.63v2.37h-26V907.5a4.88,4.88,0,0,0,3.45-1.41l6.9-6.9a4.85,4.85,0,0,0,1.05-5.32l3.75-2.63h14.13Z" transform="translate(-551.02 -790.83)"/><path class="cls-1" d="M674,854.56a1.63,1.63,0,0,1,2.82-1.65,14.64,14.64,0,1,1-27.25,7.43,14.47,14.47,0,0,1,2-7.46,14.65,14.65,0,0,1,20-5.15h0a1.63,1.63,0,0,1-1.68,2.79,11.42,11.42,0,1,0,5.61,9.83A11.21,11.21,0,0,0,674,854.56Z" transform="translate(-551.02 -790.83)"/><path class="cls-1" d="M648,871.72a1.64,1.64,0,0,1,1.63,1.64,1.63,1.63,0,0,1-3.26,0A1.64,1.64,0,0,1,648,871.72Z" transform="translate(-551.02 -790.83)"/><path class="cls-1" d="M646.35,847.33a1.62,1.62,0,0,1,1.63,1.61,1.65,1.65,0,0,1-1.63,1.64h-6.5a1.65,1.65,0,0,1-1.64-1.64,1.62,1.62,0,0,1,1.64-1.61Z" transform="translate(-551.02 -790.83)"/><path class="cls-3" d="M633.33,847.33v29.28h-6.5v-3.25a1.64,1.64,0,0,0,1.63-1.64,4.87,4.87,0,0,0-4.88-4.88h-.05A8,8,0,0,0,625.2,862v-4.88a6.49,6.49,0,0,0-6.5-6.5v-3.25Z" transform="translate(-551.02 -790.83)"/><path class="cls-3" d="M631.63,896.89l-6.9,6.9a1.63,1.63,0,0,1-2.78-1.15,1.6,1.6,0,0,1,.48-1.15l6.9-6.9a1.6,1.6,0,0,1,2.3,0A1.64,1.64,0,0,1,631.63,896.89Z" transform="translate(-551.02 -790.83)"/><path class="cls-3" d="M626.83,876.61h-17.9v-4.89a1.64,1.64,0,0,1,1.64-1.63h13a1.62,1.62,0,0,1,1.62,1.63,1.64,1.64,0,0,0,1.63,1.64Z" transform="translate(-551.02 -790.83)"/><path class="cls-3" d="M665.39,826.65a1.65,1.65,0,0,0,1.14.46V831h-8.3a4.9,4.9,0,0,0-4.47,2.9l-1.53,3.47a1.63,1.63,0,0,1-1.49,1H638.21a4.89,4.89,0,0,0-4.88,4.88v.8H599.17a1.63,1.63,0,0,0-1.62,1.63v32.53a1.64,1.64,0,0,0,1.62,1.64h34.24a4.88,4.88,0,0,0,4.8,4.06h16.28V888H638.21a1.59,1.59,0,0,0-.93.3l-4.5,3.16a4.88,4.88,0,0,0-5.75.84l-6.9,6.9a4.86,4.86,0,0,0,3.45,8.31v2.39H568V864.52a2.85,2.85,0,0,0-2.85-2.83V856a2.85,2.85,0,0,0,2.85-2.84V807.83h96.2v2.08a17.85,17.85,0,0,0-12.65,5.24,1.63,1.63,0,0,0,2.3,2.3,14.62,14.62,0,0,1,11.69-4.22l-.24,3.23a11.4,11.4,0,0,0-9.15,3.29,1.58,1.58,0,0,0-.5,1.16,1.64,1.64,0,0,0,2.77,1.17l0,0a8,8,0,0,1,6.35-2.35l-.13,3.23a5,5,0,0,0-3.92,1.42,1.64,1.64,0,0,0,.05,2.3,1.61,1.61,0,0,0,2.25,0A1.62,1.62,0,0,1,665.39,826.65Z" transform="translate(-551.02 -790.83)"/><path class="cls-5" d="M622,860.34V862a4.89,4.89,0,0,1-9.77,0v-1.62Z" transform="translate(-551.02 -790.83)"/><path class="cls-3" d="M622,857.08H610.57a1.63,1.63,0,0,1-1.64-1.62v-1.63h9.77A3.25,3.25,0,0,1,622,857.08Z" transform="translate(-551.02 -790.83)"/><path class="cls-3" d="M600.8,847.33h17.9v3.25H607.32a1.64,1.64,0,0,0-1.64,1.63v3.25a4.91,4.91,0,0,0,3.25,4.58V862a8.2,8.2,0,0,0,1.67,4.88h0a4.88,4.88,0,0,0-4.89,4.88v4.89H600.8Z" transform="translate(-551.02 -790.83)"/><path class="cls-1" d="M612.18,862a4.89,4.89,0,0,0,9.77,0v-1.62h-9.77Zm-3.25-8.13v1.63a1.63,1.63,0,0,0,1.64,1.62H622a3.25,3.25,0,0,0-3.25-3.25Zm58.58,43.92V894.5H661v3.25Zm-45.08,3.74a1.6,1.6,0,0,0-.48,1.15,1.63,1.63,0,0,0,2.78,1.15l6.9-6.9a1.64,1.64,0,0,0,0-2.3,1.6,1.6,0,0,0-2.3,0Zm28.8-.49v4.89a1.63,1.63,0,1,1-3.25,0v-6.5a1.64,1.64,0,0,1,1.63-1.64h8.13V894.5h-3.25a1.63,1.63,0,0,1-1.63-1.63v-1.63H638.73L635,893.87a4.85,4.85,0,0,1-1.05,5.32l-6.9,6.9a4.88,4.88,0,1,1-6.9-6.9l6.9-6.9a4.88,4.88,0,0,1,5.75-.84l4.5-3.16a1.59,1.59,0,0,1,.93-.3h16.28a1.63,1.63,0,0,1,1.62,1.63v1.62h16.27v-7.32H638.21a4.88,4.88,0,0,1-4.8-4.06H599.17a1.64,1.64,0,0,1-1.62-1.64V845.69a1.63,1.63,0,0,1,1.62-1.63h34.16v-.8a4.89,4.89,0,0,1,4.88-4.88h12.53a1.63,1.63,0,0,0,1.49-1l1.53-3.47a4.9,4.9,0,0,1,4.47-2.9h12a4.92,4.92,0,0,1,4.45,2.9l1.53,3.47a1.65,1.65,0,0,0,1.5,1h12.51a4.88,4.88,0,0,1,4.89,4.88v17.08a1.63,1.63,0,0,1-3.25,0V843.26a1.64,1.64,0,0,0-1.64-1.63H677.76a4.91,4.91,0,0,1-4.47-2.9l-1.53-3.45a1.62,1.62,0,0,0-1.48-1h-12a1.63,1.63,0,0,0-1.49,1l-1.53,3.45a4.88,4.88,0,0,1-4.47,2.9H638.21a1.61,1.61,0,0,0-1.61,1.63V879a1.61,1.61,0,0,0,1.61,1.63h52.06a1.64,1.64,0,0,0,1.64-1.63v-12.2a1.63,1.63,0,0,1,3.25,0V879a4.88,4.88,0,0,1-4.89,4.88H675.64v9A1.63,1.63,0,0,1,674,894.5h-3.25v3.25h8.13a1.64,1.64,0,0,1,1.63,1.64v6.5a1.63,1.63,0,0,1-3.26,0V901Zm-42.3-24.39h24.4V847.33H600.8v29.28h4.88v-4.89a4.88,4.88,0,0,1,4.89-4.88h0a8.2,8.2,0,0,1-1.67-4.88V860a4.91,4.91,0,0,1-3.25-4.58v-3.25a1.64,1.64,0,0,1,1.64-1.63H618.7a6.49,6.49,0,0,1,6.5,6.5V862a8,8,0,0,1-1.67,4.88h.05a4.87,4.87,0,0,1,4.88,4.88,1.63,1.63,0,1,1-3.26,0,1.62,1.62,0,0,0-1.62-1.63h-13a1.64,1.64,0,0,0-1.64,1.63Z" transform="translate(-551.02 -790.83)"/></svg>