<svg id="圖層_1" data-name="圖層 1" xmlns="http://www.w3.org/2000/svg" viewBox="0 0 175.48 193.95"><defs><style>.cls-1{fill:#8691c9;}.cls-2{fill:#999;}.cls-3{fill:#5e658c;}.cls-4{fill:#fff;}.cls-5{fill:none;stroke:#414143;stroke-linecap:round;stroke-linejoin:round;stroke-width:4px;}</style></defs><title>mongoDB</title><path class="cls-1" d="M827.74,823.89c8.46,22.32,11.25,74.67-13.88,114.42s-65.44,57.46-65.44,57.46C710.91,980.63,685.59,943,685.59,943c-40-59.22-16.45-119.13-16.45-119.13C749.61,783.24,827.74,823.89,827.74,823.89ZM804.61,931.71c21.23-33.59,18.88-77.82,11.73-96.69,0,0-66-34.34-134,0,0,0-19.85,50.63,13.9,100.66,0,0,21.4,31.79,53.09,44.58C749.32,980.26,783.38,965.29,804.61,931.71Z" transform="translate(-660.28 -803.82)"/><path class="cls-2" d="M816.34,835c7.15,18.87,9.5,63.1-11.73,96.69s-55.29,48.55-55.29,48.55c-31.69-12.79-53.09-44.58-53.09-44.58-33.75-50-13.9-100.66-13.9-100.66C750.33,800.68,816.34,835,816.34,835Zm-41.78,88.29s15-26.39-3.94-63.56c0,0-7.14-13-16.68-21.86a15.53,15.53,0,0,1-5.12-8.34,9.19,9.19,0,0,1-.18-1.31s-.22,4-4.48,7.89-27.08,24.73-26.86,56.93,21.31,50.32,21.31,50.32a32.48,32.48,0,0,1,6.68,7.58,15.56,15.56,0,0,1,2.37,6.66c.59,7.53.67,8.87.67,8.87l3.73.9-.38-9.85a11.85,11.85,0,0,1,2.41-8,17.46,17.46,0,0,1,4.61-4.31C766.75,939.94,774.56,923.31,774.56,923.31Z" transform="translate(-660.28 -803.82)"/><path class="cls-3" d="M770.62,859.75c18.94,37.17,3.94,63.56,3.94,63.56s-7.81,16.63-15.86,21.92a17.46,17.46,0,0,0-4.61,4.31s-4.64-2.2-4.94-11.85h0c0-.08,0-.17,0-.25.1-9.07-.34-107.89-.34-107.89a15.53,15.53,0,0,0,5.12,8.34C763.48,846.71,770.62,859.75,770.62,859.75Z" transform="translate(-660.28 -803.82)"/><path class="cls-4" d="M751.68,957.54l.38,9.85-3.73-.9s-.08-1.34-.67-8.87a15.56,15.56,0,0,0-2.37-6.66s3.69-4.38,3.86-13.27h0c.3,9.65,4.94,11.85,4.94,11.85A11.85,11.85,0,0,0,751.68,957.54Z" transform="translate(-660.28 -803.82)"/><path class="cls-1" d="M744.16,836.13c4.26-3.84,4.48-7.89,4.48-7.89a9.19,9.19,0,0,0,.18,1.31s.44,98.82.34,107.89c0,.08,0,.17,0,.25-.17,8.89-3.86,13.27-3.86,13.27a32.48,32.48,0,0,0-6.68-7.58s-21.1-18.13-21.31-50.32S739.89,840,744.16,836.13Z" transform="translate(-660.28 -803.82)"/><path class="cls-5" d="M748.82,829.55a9.19,9.19,0,0,1-.18-1.31s-.22,4-4.48,7.89-27.08,24.73-26.86,56.93,21.31,50.32,21.31,50.32a32.48,32.48,0,0,1,6.68,7.58,15.56,15.56,0,0,1,2.37,6.66c.59,7.53.67,8.87.67,8.87l3.73.9-.38-9.85a11.85,11.85,0,0,1,2.41-8,17.46,17.46,0,0,1,4.61-4.31c8-5.29,15.86-21.92,15.86-21.92s15-26.39-3.94-63.56c0,0-7.14-13-16.68-21.86A15.53,15.53,0,0,1,748.82,829.55Z" transform="translate(-660.28 -803.82)"/><path class="cls-5" d="M745.29,951s3.69-4.38,3.86-13.27c0-.08,0-.17,0-.25.1-9.07-.34-107.89-.34-107.89" transform="translate(-660.28 -803.82)"/><path class="cls-5" d="M754.09,949.54s-4.64-2.2-4.94-11.85" transform="translate(-660.28 -803.82)"/><path class="cls-5" d="M749.32,980.26s34.06-15,55.29-48.55,18.88-77.82,11.73-96.69c0,0-66-34.34-134,0,0,0-19.85,50.63,13.9,100.66C696.23,935.68,717.63,967.47,749.32,980.26Z" transform="translate(-660.28 -803.82)"/><path class="cls-5" d="M748.42,995.77s40.31-17.71,65.44-57.46,22.34-92.1,13.88-114.42c0,0-78.13-40.65-158.6,0,0,0-23.5,59.91,16.45,119.13C685.59,943,710.91,980.63,748.42,995.77Z" transform="translate(-660.28 -803.82)"/></svg>