<svg id="圖層_1" data-name="圖層 1" xmlns="http://www.w3.org/2000/svg" viewBox="0 0 84.47 84.47"><defs><style>.cls-1{fill:#8691c9;}.cls-2{fill:#fff;}.cls-3{fill:none;stroke:#414143;stroke-miterlimit:10;stroke-width:1.3px;}</style></defs><title>bilibili</title><path class="cls-1" d="M422.51,715a41.59,41.59,0,1,1-41.59,41.58A41.57,41.57,0,0,1,422.51,715Zm23.27,60s.69-14.47,0-17a15.4,15.4,0,0,0-5.57-.37S442,768.72,441.77,775A16.82,16.82,0,0,1,445.78,775Zm.08-20.11c.19,0,.44-6.2,0-7.08a5,5,0,0,0-2.45.28s.63,6,.26,6.8Zm-3.65.44s.38-5.39,0-6.39c0,0-1.88-.63-2.63,0a57.75,57.75,0,0,1,.63,6.39Zm-3.13,17.73s-2.07-31-2.51-32.2c-.36-1-5.39,0-5.39,0a245.89,245.89,0,0,1,3.95,31.64A10.25,10.25,0,0,1,439.08,773.1Zm-6.46.94s-.25-11.53-1.62-17.1a13.22,13.22,0,0,0-5.39.37s2.75,13.41,3.19,17C428.8,774.29,431.69,773.67,432.62,774Zm-2.38-19.11a38.39,38.39,0,0,0,.25-6.28s-.31-.67-2.75-.49c0,0,.87,5.58.44,6.77Zm-3.4.44s.32-5-.44-6.58a6.74,6.74,0,0,0-2.75,0s1.31,4.83,1.13,6.58Zm-.73,14c2.82-8-18.3-7.45-18.3-7.45-.88-3-1.44-25.94-1.44-25.94a74.09,74.09,0,0,1-7.46,2.63,349.2,349.2,0,0,1,5.21,38.66S423.29,777.3,426.11,769.34Z" transform="translate(-380.27 -714.36)"/><path class="cls-2" d="M445.78,758c.69,2.57,0,17,0,17a16.82,16.82,0,0,0-4,0c.19-6.32-1.56-17.41-1.56-17.41A15.4,15.4,0,0,1,445.78,758Z" transform="translate(-380.27 -714.36)"/><path class="cls-2" d="M445.86,747.85c.44.88.19,7.08,0,7.08h-2.19c.37-.75-.26-6.8-.26-6.8A5,5,0,0,1,445.86,747.85Z" transform="translate(-380.27 -714.36)"/><path class="cls-2" d="M442.21,749c.38,1,0,6.39,0,6.39h-2a57.75,57.75,0,0,0-.63-6.39C440.33,748.35,442.21,749,442.21,749Z" transform="translate(-380.27 -714.36)"/><path class="cls-2" d="M436.57,740.9c.44,1.19,2.51,32.2,2.51,32.2a10.25,10.25,0,0,0-3.95-.56,245.89,245.89,0,0,0-3.95-31.64S436.21,739.92,436.57,740.9Z" transform="translate(-380.27 -714.36)"/><path class="cls-2" d="M431,756.94c1.37,5.57,1.62,17.1,1.62,17.1-.93-.37-3.82.25-3.82.25-.44-3.57-3.19-17-3.19-17A13.22,13.22,0,0,1,431,756.94Z" transform="translate(-380.27 -714.36)"/><path class="cls-2" d="M430.49,748.65a38.39,38.39,0,0,1-.25,6.28h-2.06c.43-1.19-.44-6.77-.44-6.77C430.18,748,430.49,748.65,430.49,748.65Z" transform="translate(-380.27 -714.36)"/><path class="cls-2" d="M426.4,748.79c.76,1.63.44,6.58.44,6.58h-2.06c.18-1.75-1.13-6.58-1.13-6.58A6.74,6.74,0,0,1,426.4,748.79Z" transform="translate(-380.27 -714.36)"/><path class="cls-2" d="M407.81,761.89s21.12-.51,18.3,7.45-22,7.9-22,7.9a349.2,349.2,0,0,0-5.21-38.66,74.09,74.09,0,0,0,7.46-2.63S406.93,758.88,407.81,761.89Zm4.26,11.21,5.83-4.26-6.58-2.44Z" transform="translate(-380.27 -714.36)"/><polygon class="cls-1" points="37.63 54.48 31.8 58.75 31.05 52.04 37.63 54.48"/><circle class="cls-3" cx="42.24" cy="42.24" r="41.59"/><path class="cls-3" d="M404.12,777.24a349.2,349.2,0,0,0-5.21-38.66,74.09,74.09,0,0,0,7.46-2.63s.56,22.93,1.44,25.94c0,0,21.12-.51,18.3,7.45S404.12,777.24,404.12,777.24Z" transform="translate(-380.27 -714.36)"/><polygon class="cls-3" points="31.05 52.04 31.8 58.75 37.63 54.48 31.05 52.04"/><path class="cls-3" d="M423.65,748.79s1.31,4.83,1.13,6.58h2.06s.32-5-.44-6.58A6.74,6.74,0,0,0,423.65,748.79Z" transform="translate(-380.27 -714.36)"/><path class="cls-3" d="M427.74,748.16s.87,5.58.44,6.77h2.06a38.39,38.39,0,0,0,.25-6.28S430.18,748,427.74,748.16Z" transform="translate(-380.27 -714.36)"/><path class="cls-3" d="M425.61,757.31s2.75,13.41,3.19,17c0,0,2.89-.62,3.82-.25,0,0-.25-11.53-1.62-17.1A13.22,13.22,0,0,0,425.61,757.31Z" transform="translate(-380.27 -714.36)"/><path class="cls-3" d="M436.57,740.9c-.36-1-5.39,0-5.39,0a245.89,245.89,0,0,1,3.95,31.64,10.25,10.25,0,0,1,3.95.56S437,742.09,436.57,740.9Z" transform="translate(-380.27 -714.36)"/><path class="cls-3" d="M440.21,757.63S442,768.72,441.77,775a16.82,16.82,0,0,1,4,0s.69-14.47,0-17A15.4,15.4,0,0,0,440.21,757.63Z" transform="translate(-380.27 -714.36)"/><path class="cls-3" d="M439.58,749a57.75,57.75,0,0,1,.63,6.39h2s.38-5.39,0-6.39C442.21,749,440.33,748.35,439.58,749Z" transform="translate(-380.27 -714.36)"/><path class="cls-3" d="M443.41,748.13s.63,6,.26,6.8h2.19c.19,0,.44-6.2,0-7.08A5,5,0,0,0,443.41,748.13Z" transform="translate(-380.27 -714.36)"/></svg>