<svg id="圖層_1" data-name="圖層 1" xmlns="http://www.w3.org/2000/svg" viewBox="0 0 84.47 84.47"><defs><style>.cls-1{fill:#dbc9b1;}.cls-2{fill:#fff;}.cls-3{fill:none;stroke:#414143;stroke-linecap:round;stroke-linejoin:round;stroke-width:1.3px;}</style></defs><title>douyu</title><path class="cls-1" d="M406.85,757.62a8.77,8.77,0,0,0,1.74,10.64,13.54,13.54,0,0,0,6.49,3.41h0c3.55,5,1.51,8.64,1.51,8.64a9.92,9.92,0,0,0,7.55-6.64c4.67-.52,12-4.37,15.69-11.78s.6-16.23.6-16.23a12,12,0,0,1,7.53-4.73c-6.07-9.95-17.08-6.29-17.08-6.29a22.41,22.41,0,0,0-12.8.28c-3-.92-6.89.53-7.53,3.49a25.05,25.05,0,0,0-9.89,13.69,22.12,22.12,0,0,0,11.81,2.55l0,.2a9.75,9.75,0,0,0-5.52,2.56A1.72,1.72,0,0,0,406.85,757.62Zm15.33-42.13a41.59,41.59,0,1,1-41.58,41.59A41.59,41.59,0,0,1,422.18,715.49Z" transform="translate(-379.95 -714.84)"/><path class="cls-2" d="M424.38,766c-4.74.64-8.25-3.51-8.25-3.51a9.86,9.86,0,0,0,6.94-2.1c-.39-.46-.78-.89-1.16-1.28,0,0,8-7.94,6-15.4-.05-.18-.11-.36-.17-.54,0,0-4.69,10.48-15.25,11.47a22.12,22.12,0,0,1-11.81-2.55,25.05,25.05,0,0,1,9.89-13.69c.64-3,4.52-4.41,7.53-3.49a22.41,22.41,0,0,1,12.8-.28s11-3.66,17.08,6.29a12,12,0,0,0-7.53,4.73s3.1,8.83-.6,16.23-11,11.26-15.69,11.78a9.92,9.92,0,0,1-7.55,6.64s2-3.68-1.51-8.64h0C419.85,772.56,423.89,769.94,424.38,766Zm-4.5-27.2s-.27-1.73-2.7-2.06a3.34,3.34,0,0,0-3.43,1.45s1.61.67.94,1.58a1.72,1.72,0,0,1-1.7.67,3.19,3.19,0,0,0,2.28,3.46,3.32,3.32,0,0,0,4.12-1.25s-3.06-.36-2.36-2.54A2.07,2.07,0,0,1,419.88,738.81Z" transform="translate(-379.95 -714.84)"/><path class="cls-1" d="M426.29,749.33s1.81,1.26,1.6-5.61c2,7.46-6,15.4-6,15.4a15.43,15.43,0,0,0-4.25-3.25c.07,0,2.61.87,1.69-1.19.1.08,5.69,4.57,4.09-2.37C423.44,752.31,427,755.37,426.29,749.33Z" transform="translate(-379.95 -714.84)"/><path class="cls-2" d="M416.13,762.5s3.51,4.15,8.25,3.51c-.49,3.93-4.53,6.55-9.3,5.66a13.54,13.54,0,0,1-6.49-3.41,15.32,15.32,0,0,1,3-8.86,11.33,11.33,0,0,1,5.57-3.75,5.11,5.11,0,0,1,.48.22h0a15.43,15.43,0,0,1,4.25,3.25c.38.39.77.82,1.16,1.28A9.86,9.86,0,0,1,416.13,762.5Z" transform="translate(-379.95 -714.84)"/><path class="cls-1" d="M417.18,736.75c2.43.33,2.7,2.06,2.7,2.06a2.07,2.07,0,0,0-2.85,1.31c-.7,2.18,2.36,2.54,2.36,2.54a3.32,3.32,0,0,1-4.12,1.25,3.19,3.19,0,0,1-2.28-3.46,1.72,1.72,0,0,0,1.7-.67c.67-.91-.94-1.58-.94-1.58A3.34,3.34,0,0,1,417.18,736.75Z" transform="translate(-379.95 -714.84)"/><path class="cls-1" d="M412.49,754.85a9.09,9.09,0,0,1,4.69.8,11.33,11.33,0,0,0-5.57,3.75l0,0a45.36,45.36,0,0,0-4.73-1.76,1.72,1.72,0,0,1,.12-.21A9.75,9.75,0,0,1,412.49,754.85Z" transform="translate(-379.95 -714.84)"/><path class="cls-2" d="M412.47,754.65c10.56-1,15.25-11.47,15.25-11.47.06.18.12.36.17.54.21,6.87-1.6,5.61-1.6,5.61.73,6-2.85,3-2.85,3,1.6,6.94-4,2.45-4.09,2.37.92,2.06-1.62,1.21-1.69,1.19h0a5.11,5.11,0,0,0-.48-.22,9.09,9.09,0,0,0-4.69-.8Z" transform="translate(-379.95 -714.84)"/><path class="cls-2" d="M411.58,759.38l0,0a15.32,15.32,0,0,0-3,8.86,8.77,8.77,0,0,1-1.74-10.64A45.36,45.36,0,0,1,411.58,759.38Z" transform="translate(-379.95 -714.84)"/><circle class="cls-3" cx="42.24" cy="42.24" r="41.59"/><path class="cls-3" d="M414.49,745.3s-4.09-.91-4-6.07a3.62,3.62,0,0,1,.09-.82c.64-3,4.52-4.41,7.53-3.49a5,5,0,0,1,3.42,3.4" transform="translate(-379.95 -714.84)"/><path class="cls-3" d="M418.08,734.92h0a22.41,22.41,0,0,1,12.8-.28s11-3.66,17.08,6.29a12,12,0,0,0-7.53,4.73s3.1,8.83-.6,16.23-11,11.26-15.69,11.78a9.92,9.92,0,0,1-7.55,6.64s2-3.68-1.51-8.64" transform="translate(-379.95 -714.84)"/><path class="cls-3" d="M424.29,759.38a11.88,11.88,0,0,1-1.22,1,9.86,9.86,0,0,1-6.94,2.1s3.51,4.15,8.25,3.51c2.36-.31,5-1.8,7.71-5.57" transform="translate(-379.95 -714.84)"/><path class="cls-3" d="M417.66,755.87a15.43,15.43,0,0,1,4.25,3.25c.38.39.77.82,1.16,1.28" transform="translate(-379.95 -714.84)"/><path class="cls-3" d="M424.38,766c-.49,3.93-4.53,6.55-9.3,5.66a13.54,13.54,0,0,1-6.49-3.41,8.77,8.77,0,0,1-1.74-10.64,1.72,1.72,0,0,1,.12-.21,9.75,9.75,0,0,1,5.52-2.56,9.09,9.09,0,0,1,4.69.8,5.11,5.11,0,0,1,.48.22" transform="translate(-379.95 -714.84)"/><path class="cls-3" d="M402.11,765s-8.61-5.63-4.67-7.91c2.16-1.25,6.2-.44,9.41.54a45.36,45.36,0,0,1,4.73,1.76" transform="translate(-379.95 -714.84)"/><path class="cls-3" d="M408.59,768.26a15.32,15.32,0,0,1,3-8.86,11.33,11.33,0,0,1,5.57-3.75" transform="translate(-379.95 -714.84)"/><path class="cls-3" d="M421.91,759.12s8-7.94,6-15.4c-.05-.18-.11-.36-.17-.54,0,0-4.69,10.48-15.25,11.47a22.12,22.12,0,0,1-11.81-2.55,25.05,25.05,0,0,1,9.89-13.69" transform="translate(-379.95 -714.84)"/><path class="cls-3" d="M413,740.45a3.19,3.19,0,0,0,2.28,3.46,3.32,3.32,0,0,0,4.12-1.25s-3.06-.36-2.36-2.54a2.07,2.07,0,0,1,2.85-1.31s-.27-1.73-2.7-2.06a3.34,3.34,0,0,0-3.43,1.45s1.61.67.94,1.58A1.72,1.72,0,0,1,413,740.45Z" transform="translate(-379.95 -714.84)"/><path class="cls-3" d="M419.35,754.68c.1.08,5.69,4.57,4.09-2.37,0,0,3.58,3.06,2.85-3,0,0,1.81,1.26,1.6-5.61a.76.76,0,0,1,0-.15" transform="translate(-379.95 -714.84)"/><path class="cls-3" d="M417.66,755.87h0c.07,0,2.61.87,1.69-1.19h0" transform="translate(-379.95 -714.84)"/></svg>