<svg id="圖層_1" data-name="圖層 1" xmlns="http://www.w3.org/2000/svg" viewBox="0 0 84.47 84.47"><defs><style>.cls-1{fill:#dbc9b1;}.cls-2{fill:#fff;}.cls-3{fill:none;stroke:#414143;stroke-linecap:round;stroke-linejoin:round;stroke-width:1.3px;}</style></defs><title>egame</title><path class="cls-1" d="M422.69,715a41.59,41.59,0,1,1-41.59,41.59A41.59,41.59,0,0,1,422.69,715Zm26.94,35.84,1.69-5.43-10.48,4.77-1,5.33Zm-2.26,7.47,1.69-5.57-9.37,4.49-1,5.31Zm-2.11,7.5,1.69-5.57-8.33,3.94-1,5.27Zm-9.92,4.52,3.74-20.15-4-1.54,2.05-9-3.88,1.47s.52,2.95-1.32,3.44a5.26,5.26,0,0,1-5.43-1.53c-1.33-1.64.59-3.74.59-3.74l-4.33-6.45-4.17,6.59s2.57,1.85,1,3.23-1.74,1.92-5.05,2-2.13-3.52-2.13-3.52l-3.81-1.32,2.2,9-4.4,1.32,3.81,20.15,12.9,10Zm-27.65-1.06-.78-4.92-8-4,1.62,5.5Zm-1.1-6.75-1-5.27-9.12-4.19,1.69,5.28Zm-1.27-7-1-5.33-10.26-4.77,1.76,5.5Z" transform="translate(-380.45 -714.34)"/><polygon class="cls-2" points="70.86 31.06 69.18 36.48 59.4 41.15 60.38 35.82 70.86 31.06"/><polygon class="cls-2" points="68.61 38.39 66.92 43.96 58.25 48.19 59.24 42.87 68.61 38.39"/><polygon class="cls-2" points="66.5 45.89 64.81 51.46 57.19 55.1 58.17 49.83 66.5 45.89"/><path class="cls-2" d="M439.08,750.17l-3.74,20.15-12.24,10-12.9-10-3.81-20.15,4.4-1.32-2.2-9,3.81,1.32s-1.18,3.65,2.13,3.52,3.51-.68,5.05-2-1-3.23-1-3.23l4.17-6.59,4.33,6.45s-1.92,2.1-.59,3.74a5.26,5.26,0,0,0,5.43,1.53c1.84-.49,1.32-3.44,1.32-3.44l3.88-1.47-2.05,9ZM432.63,769l3.22-16.85-13-4.77-13,4.77,3.44,16.63,9.53,8.21Z" transform="translate(-380.45 -714.34)"/><path class="cls-1" d="M435.85,752.15,432.63,769l-9.89,8-9.53-8.21-3.44-16.63,13-4.77Zm-6.46,12.91c.36.73,1.24,1.57,1.1-.71a16.21,16.21,0,0,0-1.84-5.34s.52-7.77-5.42-7.62-5.64,7.62-5.64,7.62a15.88,15.88,0,0,0-1.83,6c.07,1.79,1.83-.88,1.83-.88-.48,1.61,1.43,3.19,1.43,3.19-2.9,1.57-.3,1.58-.3,1.58h8.91c2.53,0-.4-1.69-.4-1.69,1.46-.7,1.61-3.08,1.61-3.08A3,3,0,0,1,429.39,765.06Z" transform="translate(-380.45 -714.34)"/><path class="cls-2" d="M430.49,764.35c.14,2.28-.74,1.44-1.1.71a3,3,0,0,0-.55-.88s-.15,2.38-1.61,3.08c0,0,2.93,1.7.4,1.69h-8.91s-2.6,0,.3-1.58c0,0-1.91-1.58-1.43-3.19,0,0-1.76,2.67-1.83.88a15.88,15.88,0,0,1,1.83-6s-.29-7.47,5.64-7.62,5.42,7.62,5.42,7.62A16.21,16.21,0,0,1,430.49,764.35Z" transform="translate(-380.45 -714.34)"/><polygon class="cls-2" points="26.45 49.99 27.24 54.92 20.05 51.55 18.44 46.05 26.45 49.99"/><polygon class="cls-2" points="25.14 42.89 26.14 48.16 17.71 43.98 16.02 38.71 25.14 42.89"/><polygon class="cls-2" points="23.87 35.82 24.87 41.15 15.36 36.56 13.61 31.06 23.87 35.82"/><circle class="cls-3" cx="42.24" cy="42.24" r="41.59"/><path class="cls-3" d="M417.59,759s-.29-7.47,5.64-7.62,5.42,7.62,5.42,7.62a16.21,16.21,0,0,1,1.84,5.34c.14,2.28-.74,1.44-1.1.71a3,3,0,0,0-.55-.88s-.15,2.38-1.61,3.08c0,0,2.93,1.7.4,1.69h-8.91s-2.6,0,.3-1.58c0,0-1.91-1.58-1.43-3.19,0,0-1.76,2.67-1.83.88A15.88,15.88,0,0,1,417.59,759Z" transform="translate(-380.45 -714.34)"/><path class="cls-3" d="M408.59,739.83l2.2,9-4.4,1.32,3.81,20.15,12.9,10,12.24-10,3.74-20.15-4-1.54,2.05-9-3.88,1.47s.52,2.95-1.32,3.44a5.26,5.26,0,0,1-5.43-1.53c-1.33-1.64.59-3.74.59-3.74l-4.33-6.45-4.17,6.59s2.57,1.85,1,3.23-1.74,1.92-5.05,2-2.13-3.52-2.13-3.52Z" transform="translate(-380.45 -714.34)"/><polygon class="cls-3" points="59.4 41.15 69.18 36.48 70.86 31.06 60.38 35.82 59.4 41.15"/><polygon class="cls-3" points="58.25 48.19 66.92 43.96 68.61 38.39 59.24 42.87 58.25 48.19"/><polygon class="cls-3" points="57.19 55.1 64.81 51.46 66.5 45.89 58.17 49.83 57.19 55.1"/><polygon class="cls-3" points="29.31 37.8 32.76 54.44 42.29 62.65 52.18 54.66 55.4 37.8 42.36 33.04 29.31 37.8"/><polygon class="cls-3" points="24.87 41.15 15.36 36.56 13.61 31.06 23.87 35.82 24.87 41.15"/><polygon class="cls-3" points="26.14 48.16 17.71 43.98 16.02 38.71 25.14 42.89 26.14 48.16"/><polygon class="cls-3" points="27.24 54.92 20.05 51.55 18.44 46.05 26.45 49.99 27.24 54.92"/></svg>