<svg id="圖層_1" data-name="圖層 1" xmlns="http://www.w3.org/2000/svg" viewBox="0 0 84.47 84.47"><defs><style>.cls-1{fill:#ed9484;}.cls-2{fill:#fff;}.cls-3{fill:none;stroke:#414143;stroke-linecap:round;stroke-linejoin:round;stroke-width:1.3px;}</style></defs><title>huajiao</title><path class="cls-1" d="M435.14,757.38l3-.4s-.53,7.71-7.66,9.49-11.37-3.85-12.58-6.74l9.79-1.33.07.5a3.73,3.73,0,0,0,3.59,1.92,4.1,4.1,0,0,0,3-2.82l-.07-.5Z" transform="translate(-380.42 -714.69)"/><path class="cls-2" d="M434.29,757.5l.07.5a4.1,4.1,0,0,1-3,2.82,3.73,3.73,0,0,1-3.59-1.92l-.07-.5Z" transform="translate(-380.42 -714.69)"/><path class="cls-1" d="M401.55,757.87h.13c0,.08,6.92,1,6.92,1a9.55,9.55,0,0,1-6.9,8.18,13,13,0,0,1-.15-2v-7.15Z" transform="translate(-380.42 -714.69)"/><path class="cls-1" d="M418.63,740.14c-10.12.32-12.26,1.27-17.08,4.27V765a13,13,0,0,0,.15,2c1.5,9.8,13.83,10.78,13.83,10.78s14.77.07,27.92,0l.17-.39h0c.11-1.18.55-7.51-1.37-17.39-2.13-11-7.43-14.47-7.43-14.47a26.2,26.2,0,0,0,2.21-9.41A55.28,55.28,0,0,1,418.63,740.14Zm4-24.8a41.59,41.59,0,1,1-41.58,41.58A41.59,41.59,0,0,1,422.65,715.34Z" transform="translate(-380.42 -714.69)"/><path class="cls-2" d="M401.55,757.87h0V744.41c4.82-3,7-3.95,17.08-4.27a55.28,55.28,0,0,0,18.42-3.95,26.2,26.2,0,0,1-2.21,9.41s5.3,3.48,7.43,14.47c1.92,9.88,1.48,16.21,1.37,17.39h0l-.17.39c-13.15,0-27.92,0-27.92,0s-12.33-1-13.83-10.78a9.55,9.55,0,0,0,6.9-8.18s-6.92-.91-6.92-1Zm36.56-.89-3,.4-.85.12-6.63.9-9.79,1.33c1.21,2.89,5.45,8.53,12.58,6.74S438.11,757,438.11,757Z" transform="translate(-380.42 -714.69)"/><circle class="cls-3" cx="42.24" cy="42.24" r="41.59"/><line class="cls-3" x1="21.13" y1="43.18" x2="21.26" y2="43.18"/><line class="cls-3" x1="63.03" y1="63.16" x2="63.2" y2="62.77"/><line class="cls-3" x1="53.88" y1="42.81" x2="53.95" y2="43.31"/><line class="cls-3" x1="47.24" y1="43.71" x2="47.31" y2="44.21"/><line class="cls-3" x1="21.13" y1="29.52" x2="21.13" y2="29.57"/><path class="cls-3" d="M443.45,777.85c-13.15,0-27.92,0-27.92,0s-12.33-1-13.83-10.78a13,13,0,0,1-.15-2V744.26" transform="translate(-380.42 -714.69)"/><path class="cls-3" d="M401.55,744.41c4.82-3,7-3.95,17.08-4.27a55.28,55.28,0,0,0,18.42-3.95,26.2,26.2,0,0,1-2.21,9.41s5.3,3.48,7.43,14.47c1.92,9.88,1.48,16.21,1.37,17.39a1.47,1.47,0,0,0,0,.2" transform="translate(-380.42 -714.69)"/><path class="cls-3" d="M401.68,757.87c0,.08,6.92,1,6.92,1a9.55,9.55,0,0,1-6.9,8.18h0" transform="translate(-380.42 -714.69)"/><path class="cls-3" d="M434.29,757.5l.85-.12,3-.4s-.53,7.71-7.66,9.49-11.37-3.85-12.58-6.74l9.79-1.33Z" transform="translate(-380.42 -714.69)"/><path class="cls-3" d="M427.73,758.9a3.73,3.73,0,0,0,3.59,1.92,4.1,4.1,0,0,0,3-2.82" transform="translate(-380.42 -714.69)"/></svg>