<svg id="圖層_1" data-name="圖層 1" xmlns="http://www.w3.org/2000/svg" viewBox="0 0 84.47 84.47"><defs><style>.cls-1{fill:#dbc9b1;}.cls-2{fill:#fff;}.cls-3{fill:none;stroke:#414143;stroke-linecap:round;stroke-linejoin:round;stroke-width:1.3px;}</style></defs><title>huya</title><path class="cls-1" d="M446.21,760.38h.17a20.55,20.55,0,0,1-.17,4.14,19.89,19.89,0,0,0-4.65-4.64S444.84,759.06,446.21,760.38Z" transform="translate(-379.98 -715.21)"/><path class="cls-2" d="M433.09,767.43a11.7,11.7,0,0,1-2.1,1.39,13.12,13.12,0,0,1-2,.87,6.18,6.18,0,0,0,3.81,2.22A5.32,5.32,0,0,0,433.09,767.43Zm-12.51,2.82a22.69,22.69,0,0,1-4.45-1.27c-.48,1.62.91,4,1.28,4.25C417.41,773.23,419,773.14,420.58,770.25Zm25.8-9.88h-.17c-1.37-1.32-4.65-.51-4.65-.51a19.89,19.89,0,0,1,4.65,4.64,15.4,15.4,0,0,1-1.5,4.75h0c-3.31-3.89-7.12-3.52-7.12-3.52s2.49,2.34,3.23,8.29h0c-6.09,5-15.23,5.47-17.17,5.51a42.64,42.64,0,0,1-14.11-2.38c-1.26-3,1.55-9.73,1.55-9.73s-5.95,1.64-7.6,6.44a14.5,14.5,0,0,1-2.83-3c-.09-2.92,5.52-9,5.52-9s-6.27.6-7.8,3.09h0a21.73,21.73,0,0,1,4.86-18.13c1-8.15,4-10.87,4-10.87,3.38-.44,8.74,2.64,8.74,2.64,2.42-1.17,8-.73,8-.73a11.2,11.2,0,0,1,3.89-2.57c7.49,1.62,10.35,8.81,10.35,8.81,6.31,4.7,8.15,15.49,8.15,15.49C446.35,759.89,446.37,760.13,446.38,760.37Zm-12.82,2.8c3.81-.44,9.91-2.86,7.26-10.22a17.45,17.45,0,0,0-9.32-9.89s-9.47-4.55-18.5,1.61-6.82,14.46-6.82,14.46c1.24,6.54,9.54,5.38,9.54,5.38S429.74,763.61,433.56,763.17Z" transform="translate(-379.98 -715.21)"/><path class="cls-1" d="M444.71,769.26a15.4,15.4,0,0,0,1.5-4.75,20.55,20.55,0,0,0,.17-4.14c0-.24,0-.48-.05-.72,0,0-1.84-10.79-8.15-15.49,0,0-2.86-7.19-10.35-8.81a11.2,11.2,0,0,0-3.89,2.57s-5.58-.44-8,.73c0,0-5.36-3.08-8.74-2.64,0,0-2.93,2.72-4,10.87A21.73,21.73,0,0,0,398.38,765c.1.58.23,1.16.38,1.76a12.6,12.6,0,0,0,1.9,4.13,14.5,14.5,0,0,0,2.83,3h0a22.59,22.59,0,0,0,6.05,3.29,42.64,42.64,0,0,0,14.11,2.38c1.94,0,11.08-.5,17.17-5.51h0A15,15,0,0,0,444.71,769.26Zm-22.49-53.4a41.59,41.59,0,1,1-41.59,41.59A41.59,41.59,0,0,1,422.22,715.86Z" transform="translate(-379.98 -715.21)"/><path class="cls-1" d="M444.71,769.26h0a15,15,0,0,1-3.89,4.77c-.74-5.95-3.23-8.29-3.23-8.29S441.4,765.37,444.71,769.26Z" transform="translate(-379.98 -715.21)"/><path class="cls-1" d="M440.82,753c2.65,7.36-3.45,9.78-7.26,10.22s-17.84,1.34-17.84,1.34-8.3,1.16-9.54-5.38c0,0-2.21-8.29,6.82-14.46s18.5-1.61,18.5-1.61A17.45,17.45,0,0,1,440.82,753Zm-11.45.81c1.84-2.26-.81-3.43-.81-3.43a11.46,11.46,0,0,0-4.55-2.72s-3.81-1.61-4.47.73a21,21,0,0,0,0,8.59c.51,1.54,1.61,2.06,3.37,1.32A17,17,0,0,0,429.37,753.76Z" transform="translate(-379.98 -715.21)"/><path class="cls-1" d="M433.09,767.43a5.32,5.32,0,0,1-.27,4.48,6.18,6.18,0,0,1-3.81-2.22,13.12,13.12,0,0,0,2-.87A11.7,11.7,0,0,0,433.09,767.43Z" transform="translate(-379.98 -715.21)"/><path class="cls-2" d="M428.56,750.33s2.65,1.17.81,3.43a17,17,0,0,1-6.46,4.49c-1.76.74-2.86.22-3.37-1.32a21,21,0,0,1,0-8.59c.66-2.34,4.47-.73,4.47-.73A11.46,11.46,0,0,1,428.56,750.33Z" transform="translate(-379.98 -715.21)"/><path class="cls-1" d="M420.58,770.25c-1.61,2.89-3.17,3-3.17,3-.37-.22-1.76-2.63-1.28-4.25A22.69,22.69,0,0,0,420.58,770.25Z" transform="translate(-379.98 -715.21)"/><path class="cls-1" d="M403.49,773.87c1.65-4.8,7.6-6.44,7.6-6.44s-2.81,6.68-1.55,9.73a22.59,22.59,0,0,1-6.05-3.29Z" transform="translate(-379.98 -715.21)"/><path class="cls-1" d="M406.18,761.92s-5.61,6.06-5.52,9a12.6,12.6,0,0,1-1.9-4.13c-.15-.6-.28-1.18-.38-1.76h0C399.91,762.52,406.18,761.92,406.18,761.92Z" transform="translate(-379.98 -715.21)"/><path class="cls-3" d="M463.81,757.45a41.59,41.59,0,1,1-41.59-41.59A41.58,41.58,0,0,1,463.81,757.45Z" transform="translate(-379.98 -715.21)"/><polyline class="cls-3" points="23.51 58.65 23.51 58.65 23.51 58.65"/><path class="cls-3" d="M440.82,774a15,15,0,0,0,3.89-4.77,15.4,15.4,0,0,0,1.5-4.75,20.55,20.55,0,0,0,.17-4.14c0-.24,0-.48-.05-.72,0,0-1.84-10.79-8.15-15.49,0,0-2.86-7.19-10.35-8.81a11.2,11.2,0,0,0-3.89,2.57s-5.58-.44-8,.73c0,0-5.36-3.08-8.74-2.64,0,0-2.93,2.72-4,10.87A21.73,21.73,0,0,0,398.38,765c.1.58.23,1.16.38,1.76a12.6,12.6,0,0,0,1.9,4.13,14.5,14.5,0,0,0,2.83,3h0a22.59,22.59,0,0,0,6.05,3.29,42.64,42.64,0,0,0,14.11,2.38c1.94,0,11.08-.5,17.17-5.51" transform="translate(-379.98 -715.21)"/><path class="cls-3" d="M398.38,765c1.53-2.49,7.8-3.09,7.8-3.09s-5.61,6.06-5.52,9" transform="translate(-379.98 -715.21)"/><path class="cls-3" d="M403.49,773.87c1.65-4.8,7.6-6.44,7.6-6.44s-2.81,6.68-1.55,9.73" transform="translate(-379.98 -715.21)"/><path class="cls-3" d="M440.82,774h0c-.74-5.95-3.23-8.29-3.23-8.29s3.81-.37,7.12,3.52" transform="translate(-379.98 -715.21)"/><path class="cls-3" d="M446.21,764.51h0a19.89,19.89,0,0,0-4.65-4.64s3.28-.81,4.65.51" transform="translate(-379.98 -715.21)"/><path class="cls-3" d="M406.18,759.13S404,750.84,413,744.67s18.5-1.61,18.5-1.61a17.45,17.45,0,0,1,9.32,9.89c2.65,7.36-3.45,9.78-7.26,10.22s-17.84,1.34-17.84,1.34S407.42,765.67,406.18,759.13Z" transform="translate(-379.98 -715.21)"/><path class="cls-3" d="M424,747.61s-3.81-1.61-4.47.73a21,21,0,0,0,0,8.59c.51,1.54,1.61,2.06,3.37,1.32a17,17,0,0,0,6.46-4.49c1.84-2.26-.81-3.43-.81-3.43A11.46,11.46,0,0,0,424,747.61Z" transform="translate(-379.98 -715.21)"/><path class="cls-3" d="M433.09,767.43a3.06,3.06,0,0,0,.83-1" transform="translate(-379.98 -715.21)"/><path class="cls-3" d="M414.84,768.38a10.4,10.4,0,0,0,1.29.6,22.69,22.69,0,0,0,4.45,1.27,16.73,16.73,0,0,0,8.43-.56,13.12,13.12,0,0,0,2-.87,11.7,11.7,0,0,0,2.1-1.39" transform="translate(-379.98 -715.21)"/><path class="cls-3" d="M416.13,769c-.48,1.62.91,4,1.28,4.25,0,0,1.56-.09,3.17-3" transform="translate(-379.98 -715.21)"/><path class="cls-3" d="M429,769.69h0a6.18,6.18,0,0,0,3.81,2.22,5.32,5.32,0,0,0,.27-4.48h0" transform="translate(-379.98 -715.21)"/></svg>