<svg id="圖層_1" data-name="圖層 1" xmlns="http://www.w3.org/2000/svg" viewBox="0 0 84.47 84.47"><defs><style>.cls-1{fill:#ed9484;}.cls-2{fill:#fff;}.cls-3{fill:#2d3891;}.cls-4{fill:none;stroke:#414143;stroke-linecap:round;stroke-linejoin:round;stroke-width:1.3px;}</style></defs><title>ink</title><path class="cls-1" d="M422.07,714.93a41.59,41.59,0,1,1-41.59,41.59A41.59,41.59,0,0,1,422.07,714.93Zm19.37,54.64a15.27,15.27,0,0,0-2.53-16.06,8.9,8.9,0,0,0-2-10.84c4.22-3,3.2-6.92,3.2-6.92C438.29,739,432.2,738,432.2,738c-8.91-.55-10.16,5.42-10.16,5.42-.22-3.2-4.27-5.85-10-5.29s-7.9-2-7.9-2-.45,4.66,3.4,6.55a8.89,8.89,0,0,0-2.13,10.87s-7,8-2.33,16.32a13.4,13.4,0,0,0,2.14-1.74c0,.08,1.89,4,4,5.14,0,.09-.08.18-.11.27-.64,1.92,0,3.58,1.37,3.71s1.58-1.66,1.58-1.66c.26.85.46,1.79,1.78,1.73,1.05,0,1.19-1.24,1.2-1.73a1.71,1.71,0,0,0,2.22,1.66c.68-.2.89-.68,1-1.49a5,5,0,0,0-.16-1.62,10.92,10.92,0,0,1,8,0c-.33,1.66.31,3,1.53,3.11s1.59-1.66,1.59-1.66c.26.85.46,1.79,1.78,1.73,1,0,1.19-1.24,1.2-1.73a1.7,1.7,0,0,0,2.21,1.66c.69-.2.9-.68,1-1.49a4.74,4.74,0,0,0-.37-2.23c2-.94,3.77-5.21,3.77-5.21A3.7,3.7,0,0,0,441.44,769.57Z" transform="translate(-379.83 -714.28)"/><path class="cls-2" d="M438.91,753.51a15.27,15.27,0,0,1,2.53,16.06,3.7,3.7,0,0,1-2.67-1.29c-1.5-1.43-3.3-4.41-4.54-10.63A9,9,0,0,0,438.91,753.51Z" transform="translate(-379.83 -714.28)"/><path class="cls-2" d="M440.12,735.75s1,3.9-3.2,6.92a8.89,8.89,0,0,0-14.75,6.68v.06h0a8.89,8.89,0,0,0-14.64-6.77c-3.85-1.89-3.4-6.55-3.4-6.55s2.15,2.56,7.9,2,9.8,2.09,10,5.29c0,0,1.25-6,10.16-5.42C432.2,738,438.29,739,440.12,735.75Z" transform="translate(-379.83 -714.28)"/><path class="cls-2" d="M439.94,749.35a8.84,8.84,0,0,1-1,4.16,8.86,8.86,0,0,1-7.85,4.72,8.87,8.87,0,0,1-8.89-8.82v-.06a8.89,8.89,0,1,1,17.77,0Zm-4.3.06a4.68,4.68,0,1,0-4.68,4.68A4.68,4.68,0,0,0,435.64,749.41Z" transform="translate(-379.83 -714.28)"/><path class="cls-2" d="M434.23,757.65c1.24,6.22,3,9.2,4.54,10.63,0,0-1.81,4.27-3.77,5.21a5.26,5.26,0,0,0-2.06-2.42c-2.34-1.54-6.05.51-6.69,2.43a5,5,0,0,0-.17.6,10.92,10.92,0,0,0-8,0,5.28,5.28,0,0,0-2.27-3c-2.24-1.47-5.72.33-6.59,2.16-2.09-1.15-3.95-5.06-4-5.14h0a15.88,15.88,0,0,0,4.84-10.4,8.88,8.88,0,0,0,9-1.5l2.21,2.29a.92.92,0,0,0,1.53,0c.85-.93,2.29-2.58,2.29-2.58a8.85,8.85,0,0,0,6,2.33A9,9,0,0,0,434.23,757.65Z" transform="translate(-379.83 -714.28)"/><path class="cls-2" d="M435,773.49a4.74,4.74,0,0,1,.37,2.23c-.08.81-.29,1.29-1,1.49a1.7,1.7,0,0,1-2.21-1.66,2,2,0,0,0,0-.22,1.55,1.55,0,0,0,0,.22c0,.49-.15,1.68-1.2,1.73-1.32.06-1.52-.88-1.78-1.73,0,0-.22,1.79-1.59,1.66s-1.86-1.45-1.53-3.11a5,5,0,0,1,.17-.6c.64-1.92,4.35-4,6.69-2.43A5.26,5.26,0,0,1,435,773.49Z" transform="translate(-379.83 -714.28)"/><path class="cls-1" d="M431,744.73a4.68,4.68,0,1,1-4.67,4.68A4.68,4.68,0,0,1,431,744.73Zm3.27,3.23a2,2,0,1,0-2,2A2,2,0,0,0,434.23,748Zm-4.68,4.16c.23-.2.17-.65-.14-1s-.75-.51-1-.32-.17.65.14,1S429.32,752.31,429.55,752.12Z" transform="translate(-379.83 -714.28)"/><path class="cls-2" d="M432.2,745.93a2,2,0,1,1-2,2A2,2,0,0,1,432.2,745.93Z" transform="translate(-379.83 -714.28)"/><path class="cls-3" d="M432.17,775.33a2,2,0,0,1,0,.22A1.55,1.55,0,0,1,432.17,775.33Z" transform="translate(-379.83 -714.28)"/><path class="cls-2" d="M429.41,751.1c.31.37.37.82.14,1s-.67,0-1-.32-.37-.82-.14-1S429.1,750.73,429.41,751.1Z" transform="translate(-379.83 -714.28)"/><path class="cls-1" d="M422.17,749.41a8.89,8.89,0,0,0,2.88,6.49s-1.44,1.65-2.29,2.58a.92.92,0,0,1-1.53,0L419,756.19a8.87,8.87,0,0,0,3.14-6.78Z" transform="translate(-379.83 -714.28)"/><path class="cls-2" d="M413.28,740.53a8.87,8.87,0,1,1-5.76,2.11A8.88,8.88,0,0,1,413.28,740.53Zm4.68,8.73a4.68,4.68,0,1,0-4.67,4.68A4.67,4.67,0,0,0,418,749.26Z" transform="translate(-379.83 -714.28)"/><path class="cls-2" d="M418,774.1a5,5,0,0,1,.16,1.62c-.09.81-.3,1.29-1,1.49a1.71,1.71,0,0,1-2.22-1.66v0c0,.49-.15,1.68-1.2,1.73-1.32.06-1.52-.88-1.78-1.73,0,0-.22,1.79-1.58,1.66s-2-1.79-1.37-3.71c0-.09.07-.18.11-.27.87-1.83,4.35-3.63,6.59-2.16A5.28,5.28,0,0,1,418,774.1Z" transform="translate(-379.83 -714.28)"/><path class="cls-1" d="M413.29,744.59a4.68,4.68,0,1,1-4.68,4.67A4.67,4.67,0,0,1,413.29,744.59Zm2.15,7.32c.39-.28.57-.71.39-1s-.64-.23-1,0-.57.71-.4,1S415,752.18,415.44,751.91ZM414,747.73a2,2,0,1,0-2,2A2,2,0,0,0,414,747.73Z" transform="translate(-379.83 -714.28)"/><path class="cls-2" d="M415.83,751c.18.25,0,.68-.39,1s-.86.29-1,0,0-.68.4-1S415.66,750.7,415.83,751Z" transform="translate(-379.83 -714.28)"/><path class="cls-3" d="M415,775.33v0Z" transform="translate(-379.83 -714.28)"/><circle class="cls-2" cx="32.19" cy="33.45" r="1.98"/><path class="cls-2" d="M405.39,753.51a8.93,8.93,0,0,0,4.65,4.18,15.88,15.88,0,0,1-4.84,10.4h0a13.4,13.4,0,0,1-2.14,1.74C398.41,761.51,405.39,753.51,405.39,753.51Z" transform="translate(-379.83 -714.28)"/><path class="cls-4" d="M463.65,756.52a41.59,41.59,0,1,1-41.58-41.59A41.59,41.59,0,0,1,463.65,756.52Z" transform="translate(-379.83 -714.28)"/><path class="cls-4" d="M422.16,749.41a8.89,8.89,0,1,1-8.88-8.88A8.87,8.87,0,0,1,422.16,749.41Z" transform="translate(-379.83 -714.28)"/><path class="cls-4" d="M436.92,742.67a8.89,8.89,0,0,1-2.69,15,9,9,0,0,1-3.17.58,8.87,8.87,0,0,1-8.89-8.82v-.06a8.89,8.89,0,0,1,14.75-6.68Z" transform="translate(-379.83 -714.28)"/><path class="cls-4" d="M418,749.26a4.68,4.68,0,1,1-4.67-4.67A4.67,4.67,0,0,1,418,749.26Z" transform="translate(-379.83 -714.28)"/><path class="cls-4" d="M435.64,749.41a4.68,4.68,0,1,1-4.68-4.68A4.67,4.67,0,0,1,435.64,749.41Z" transform="translate(-379.83 -714.28)"/><circle class="cls-4" cx="32.19" cy="33.45" r="1.98"/><path class="cls-4" d="M434.23,748a2,2,0,1,1-2-2A2,2,0,0,1,434.23,748Z" transform="translate(-379.83 -714.28)"/><path class="cls-4" d="M414.8,751c-.4.28-.57.71-.4,1s.64.23,1,0,.57-.71.39-1S415.19,750.72,414.8,751Z" transform="translate(-379.83 -714.28)"/><path class="cls-4" d="M429.41,751.1c-.31-.37-.75-.51-1-.32s-.17.65.14,1,.75.51,1,.32S429.72,751.47,429.41,751.1Z" transform="translate(-379.83 -714.28)"/><path class="cls-4" d="M405.2,768.09a15.88,15.88,0,0,0,4.84-10.4" transform="translate(-379.83 -714.28)"/><path class="cls-4" d="M405.39,753.51s-7,8-2.33,16.32a13.4,13.4,0,0,0,2.14-1.74" transform="translate(-379.83 -714.28)"/><path class="cls-4" d="M438.91,753.51a15.27,15.27,0,0,1,2.53,16.06,3.7,3.7,0,0,1-2.67-1.29c-1.5-1.43-3.3-4.41-4.54-10.63" transform="translate(-379.83 -714.28)"/><path class="cls-4" d="M415,775.55v0Z" transform="translate(-379.83 -714.28)"/><path class="cls-4" d="M415,775.55c0,.49-.15,1.68-1.2,1.73-1.32.06-1.52-.88-1.78-1.73,0,0-.22,1.79-1.58,1.66s-2-1.79-1.37-3.71c0-.09.07-.18.11-.27.87-1.83,4.35-3.63,6.59-2.16a5.28,5.28,0,0,1,2.27,3,5,5,0,0,1,.16,1.62c-.09.81-.3,1.29-1,1.49a1.71,1.71,0,0,1-2.22-1.66" transform="translate(-379.83 -714.28)"/><path class="cls-4" d="M432.18,775.55a1.55,1.55,0,0,1,0-.22A2,2,0,0,1,432.18,775.55Z" transform="translate(-379.83 -714.28)"/><path class="cls-4" d="M432.18,775.55c0,.49-.15,1.68-1.2,1.73-1.32.06-1.52-.88-1.78-1.73,0,0-.22,1.79-1.59,1.66s-1.86-1.45-1.53-3.11a5,5,0,0,1,.17-.6c.64-1.92,4.35-4,6.69-2.43a5.26,5.26,0,0,1,2.06,2.42,4.74,4.74,0,0,1,.37,2.23c-.08.81-.29,1.29-1,1.49a1.7,1.7,0,0,1-2.21-1.66" transform="translate(-379.83 -714.28)"/><path class="cls-4" d="M405.2,768.09h0c0,.08,1.89,4,4,5.14" transform="translate(-379.83 -714.28)"/><path class="cls-4" d="M418,774.1h0a10.92,10.92,0,0,1,8,0" transform="translate(-379.83 -714.28)"/><path class="cls-4" d="M438.77,768.28s-1.81,4.27-3.77,5.21" transform="translate(-379.83 -714.28)"/><path class="cls-4" d="M419,756.19l2.21,2.29a.92.92,0,0,0,1.53,0c.85-.93,2.29-2.58,2.29-2.58" transform="translate(-379.83 -714.28)"/><path class="cls-4" d="M407.52,742.64c-3.85-1.89-3.4-6.55-3.4-6.55s2.15,2.56,7.9,2,9.8,2.09,10,5.29c0,0,1.25-6,10.16-5.42,0,0,6.09,1.07,7.92-2.22,0,0,1,3.9-3.2,6.92" transform="translate(-379.83 -714.28)"/></svg>