<svg id="圖層_1" data-name="圖層 1" xmlns="http://www.w3.org/2000/svg" viewBox="0 0 84.47 84.47"><defs><style>.cls-1{fill:#8691c9;}.cls-2{fill:#fff;}.cls-3{fill:none;stroke:#414143;stroke-linecap:round;stroke-linejoin:round;stroke-width:1.3px;}</style></defs><title>twitch</title><path class="cls-1" d="M421.68,715a41.59,41.59,0,1,1-41.58,41.59A41.59,41.59,0,0,1,421.68,715Zm22.62,47.76V734.17h-41l-3.17,8.59v32.48h12.09v5.88h5.68l5.81-5.81h9Z" transform="translate(-379.45 -714.35)"/><path class="cls-2" d="M444.3,734.17v28.59l-11.62,12.55h-9l-5.81,5.81h-5.68v-5.88H400.12V742.76l3.17-8.59Zm-5.09,25.39V738.27H407.46v28.91h9.22v4.38l5.68-4.14,9.52.12Z" transform="translate(-379.45 -714.35)"/><path class="cls-1" d="M439.21,738.27v21.29l-7.33,8-9.52-.12-5.68,4.14v-4.38h-9.22V738.27Zm-7.68,19.07V745.66H428v11.68Zm-7.8,0V745.67h-3.57v11.66Z" transform="translate(-379.45 -714.35)"/><rect class="cls-2" x="48.52" y="31.31" width="3.56" height="11.68"/><polygon class="cls-2" points="44.28 31.32 44.28 42.99 40.72 42.98 40.72 31.32 44.28 31.32"/><circle class="cls-3" cx="42.24" cy="42.24" r="41.59"/><polygon class="cls-3" points="20.68 28.4 20.68 60.89 32.76 60.89 32.76 66.77 38.44 66.77 44.25 60.96 53.23 60.96 64.85 48.41 64.85 19.82 23.85 19.82 20.68 28.4"/><polygon class="cls-3" points="28.01 23.91 28.01 52.83 37.23 52.83 37.23 57.21 42.91 53.07 52.43 53.19 59.76 45.2 59.76 23.91 28.01 23.91"/><polygon class="cls-3" points="40.72 31.32 40.72 42.98 44.28 42.99 44.28 31.32 40.72 31.32"/><rect class="cls-3" x="48.52" y="31.31" width="3.56" height="11.68"/></svg>