<svg id="圖層_1" data-name="圖層 1" xmlns="http://www.w3.org/2000/svg" viewBox="0 0 84.47 84.47"><defs><style>.cls-1{fill:#ed9484;}.cls-2{fill:#fff;}.cls-3{fill:none;stroke:#414143;stroke-linecap:round;stroke-linejoin:round;stroke-width:1.3px;}</style></defs><title>youtube</title><path class="cls-1" d="M421.16,715a41.59,41.59,0,1,1-41.58,41.58A41.59,41.59,0,0,1,421.16,715Zm24.77,51.68a73.09,73.09,0,0,0-.26-21.62c-.81-5.13-6.46-5.6-6.46-5.6-10-1.08-29.93-.65-36.47,0s-6.55,7.58-6.55,7.58a94.74,94.74,0,0,0,.26,20.89c.69,6,8.48,5.9,8.48,5.9,12.79,1.2,33.42,0,33.42,0C445.37,773.69,445.93,766.72,445.93,766.72Z" transform="translate(-378.93 -714.39)"/><path class="cls-2" d="M445.67,745.1a73.09,73.09,0,0,1,.26,21.62s-.56,7-7.58,7.15c0,0-20.63,1.2-33.42,0,0,0-7.79.08-8.48-5.9a94.74,94.74,0,0,1-.26-20.89s0-6.93,6.55-7.58,26.48-1.08,36.47,0C439.21,739.5,444.86,740,445.67,745.1ZM415.87,765,429,757.33l-13.17-7.65Z" transform="translate(-378.93 -714.39)"/><polygon class="cls-1" points="50.12 42.94 36.94 50.58 36.94 35.29 50.12 42.94"/><circle class="cls-3" cx="42.24" cy="42.24" r="41.59"/><path class="cls-3" d="M396.19,747.08s0-6.93,6.55-7.58,26.48-1.08,36.47,0c0,0,5.65.47,6.46,5.6a73.09,73.09,0,0,1,.26,21.62s-.56,7-7.58,7.15c0,0-20.63,1.2-33.42,0,0,0-7.79.08-8.48-5.9A94.74,94.74,0,0,1,396.19,747.08Z" transform="translate(-378.93 -714.39)"/><polygon class="cls-3" points="36.94 35.29 36.94 50.58 50.12 42.94 36.94 35.29"/></svg>