<svg id="圖層_1" data-name="圖層 1" xmlns="http://www.w3.org/2000/svg" viewBox="0 0 84.47 84.47"><defs><style>.cls-1{fill:#8691c9;}.cls-2{fill:#fff;}.cls-3{fill:none;stroke:#414143;stroke-linecap:round;stroke-linejoin:round;stroke-width:1.3px;}</style></defs><title>zhanqi</title><polygon class="cls-1" points="65.89 38.17 65.42 39.54 60.97 39.54 61.47 38.17 65.89 38.17"/><polygon class="cls-1" points="64.36 42.22 63.85 43.49 59.48 43.49 59.99 42.22 64.36 42.22"/><polygon class="cls-1" points="58.09 47.41 58.51 46.23 62.79 46.23 62.37 47.41 58.09 47.41"/><path class="cls-1" d="M422,715.79a41.59,41.59,0,1,1-41.59,41.58A41.58,41.58,0,0,1,422,715.79Zm-10.71,53.52c2.47,0,11.68,0,11.68,0s1.59.54,2.69-2.55,4.58-12.91,4.58-12.91h2.12L428,766a1,1,0,0,1-.84.66h-.61l-1,2.64,3.08,0a2.76,2.76,0,0,0,2-1.87c.71-1.72,6-16.35,6-16.35h-5.24l.53-1.81h5.11l-.25.64h3.34s1.22-.08,1.55-.56l9.65-.08,1.08-2.85H444l.92-1.08h-4l-1,1.11s.06.48-1.53.42l0-.48-2.78,0,.49-1.08h-4l-.44,1.08-3.12,0-1,3,1,0-6.08,16.65a1.61,1.61,0,0,1-.89.19h-7.48s-.54.22-.44-.7a4,4,0,0,0,1.49-1.5c.67-1.11,6.3-10.63,6.3-10.63l-3-.06-3.85,6.62,2.45-8.66,3.63,0s1.37.19,2.19-2a18.93,18.93,0,0,0,1-3.18h-3.15a10.52,10.52,0,0,1-.76,2.1c-.19.06-2.17-.06-2.17-.06l.7-2.61-3.72,0-.67,2.73-2.32-.06-1,3.18,2.61,0-2.7,10.9h-3.74l-1.19,3.17H410l-.4,2.29S408.87,769.29,411.33,769.31Zm21.44-2.6-1.26,0-.93,2.65h4a2.85,2.85,0,0,0,2.46-1.67,16.15,16.15,0,0,1,1.18-2l1.34,0-.25,2.92s-.51.78,1.79.83,2.85,0,2.85,0l1-2.63-1.09-.08s-.45.34-.5-.48l0-.61,1.82,0,1.18-2.88h-.92l3.52-9.32h.95l1-2.58-1.12,0,.17-.5h-3.47l-.06.39h-4.31l0-.39h-3.36l-.14.39h-1.15l-1,2.75a4.82,4.82,0,0,1,.93,0s-3.3,9.23-3.3,9.23h-1l-1.2,3h2.26A1.38,1.38,0,0,1,432.77,766.71Zm-22.45-16.34,1-2.87h-6.17l.71-1.63H402l-3.44,9.57h-2l-4.9,13.84h9.83s1.68.44,2.6-2,4.37-11.94,4.37-11.94l-6.09,0,1.9-5Z" transform="translate(-379.8 -715.14)"/><path class="cls-2" d="M442.17,762.54l.42-1.17h-4.28l-.42,1.17Zm-7.61,6.8h-4l.93-2.65,1.26,0a1.38,1.38,0,0,0,1.45-1.12H432l1.2-3h1s3.3-9.18,3.3-9.23a4.82,4.82,0,0,0-.93,0l1-2.75h1.15l.14-.39h3.36l0,.39h4.31l.06-.39H450l-.17.5,1.12,0-1,2.58H449l-3.52,9.32h.92l-1.18,2.88-1.82,0,0,.61c0,.82.5.48.5.48l1.09.08-1,2.63s-.56.06-2.85,0-1.79-.83-1.79-.83l.25-2.92-1.34,0a16.15,16.15,0,0,0-1.18,2A2.85,2.85,0,0,1,434.56,769.34Zm10.66-14.66.48-1.37h-4.43l-.5,1.37Zm-1.57,4,.51-1.27h-4.37l-.5,1.27Z" transform="translate(-379.8 -715.14)"/><path class="cls-2" d="M423,769.31s-9.21,0-11.68,0-1.76-1.49-1.76-1.49l.4-2.29h-4.23l1.19-3.17h3.74l2.7-10.9-2.61,0,1-3.18,2.32.06.67-2.73,3.72,0-.7,2.61s2,.12,2.17.06a10.52,10.52,0,0,0,.76-2.1h3.15a18.93,18.93,0,0,1-1,3.18c-.82,2.2-2.19,2-2.19,2l-3.63,0-2.45,8.66,3.85-6.62,3,.06s-5.63,9.52-6.3,10.63a4,4,0,0,1-1.49,1.5c-.1.92.44.7.44.7h7.48a1.61,1.61,0,0,0,.89-.19l6.08-16.65-1,0,1-3,3.12,0,.44-1.08h4l-.49,1.08,2.78,0,0,.48c1.59.06,1.53-.42,1.53-.42l1-1.11h4l-.92,1.08h8.46l-1.08,2.85-9.65.08c-.33.48-1.55.56-1.55.56h-3.34l.25-.64H432l-.53,1.81h5.24s-5.28,14.63-6,16.35a2.76,2.76,0,0,1-2,1.87l-3.08,0,1-2.64h.61A1,1,0,0,0,428,766l4.41-12.16h-2.12s-3.48,9.83-4.58,12.91S423,769.31,423,769.31Z" transform="translate(-379.8 -715.14)"/><path class="cls-2" d="M411.33,747.5l-1,2.87-6.08,0-1.9,5,6.09,0s-3.44,9.52-4.37,11.94-2.6,2-2.6,2h-9.83l4.9-13.84h2l3.44-9.57h3.88l-.71,1.63Zm-10.4,18.82,2.87-7.93h-4.67l-3,7.93Z" transform="translate(-379.8 -715.14)"/><polygon class="cls-1" points="23.99 43.25 21.13 51.18 16.37 51.18 19.32 43.25 23.99 43.25"/><circle class="cls-3" cx="42.24" cy="42.24" r="41.59"/><path class="cls-3" d="M402,745.87l-3.44,9.57h-2l-4.9,13.84h9.83s1.68.44,2.6-2,4.37-11.94,4.37-11.94l-6.09,0,1.9-5,6.08,0,1-2.87h-6.17l.71-1.63Z" transform="translate(-379.8 -715.14)"/><polygon class="cls-3" points="19.32 43.25 23.99 43.25 21.13 51.18 16.37 51.18 19.32 43.25"/><path class="cls-3" d="M406.93,762.36l-1.19,3.17H410l-.4,2.29s-.7,1.47,1.76,1.49,11.68,0,11.68,0,1.59.54,2.69-2.55,4.58-12.91,4.58-12.91h2.12L428,766a1,1,0,0,1-.84.66h-.61l-1,2.64,3.08,0a2.76,2.76,0,0,0,2-1.87c.71-1.72,6-16.35,6-16.35h-5.24l.53-1.81h5.11l-.25.64h3.34s1.22-.08,1.55-.56l9.65-.08,1.08-2.85H444l.92-1.08h-4l-1,1.11s.06.48-1.53.42l0-.48-2.78,0,.49-1.08h-4l-.44,1.08-3.12,0-1,3,1,0-6.08,16.65a1.61,1.61,0,0,1-.89.19h-7.48s-.54.22-.44-.7a4,4,0,0,0,1.49-1.5c.67-1.11,6.3-10.63,6.3-10.63l-3-.06-3.85,6.62,2.45-8.66,3.63,0s1.37.19,2.19-2a18.93,18.93,0,0,0,1-3.18h-3.15a10.52,10.52,0,0,1-.76,2.1c-.19.06-2.17-.06-2.17-.06l.7-2.61-3.72,0-.67,2.73-2.32-.06-1,3.18,2.61,0-2.7,10.9Z" transform="translate(-379.8 -715.14)"/><path class="cls-3" d="M438.84,750.2l-.14.39h-1.15l-1,2.75a4.82,4.82,0,0,1,.93,0s-3.3,9.23-3.3,9.23h-1l-1.2,3h2.26a1.38,1.38,0,0,1-1.45,1.12l-1.26,0-.93,2.65h4a2.85,2.85,0,0,0,2.46-1.67,16.15,16.15,0,0,1,1.18-2l1.34,0-.25,2.92s-.51.78,1.79.83,2.85,0,2.85,0l1-2.63-1.09-.08s-.45.34-.5-.48l0-.61,1.82,0,1.18-2.88h-.92l3.52-9.32h.95l1-2.58-1.12,0,.17-.5h-3.47l-.06.39h-4.31l0-.39Z" transform="translate(-379.8 -715.14)"/><polygon class="cls-3" points="61.47 38.17 60.97 39.54 65.42 39.54 65.89 38.17 61.47 38.17"/><polygon class="cls-3" points="59.99 42.22 59.48 43.49 63.85 43.49 64.36 42.22 59.99 42.22"/><polygon class="cls-3" points="58.51 46.23 58.09 47.41 62.37 47.41 62.79 46.23 58.51 46.23"/></svg>